<svg width="356" height="300" viewBox="0 0 356 300" fill="none" xmlns="http://www.w3.org/2000/svg">
<path d="M137.702 92.909C139.476 89.0858 143.878 81.9293 146.088 77.9655L154.815 62.3065C157.778 56.9351 160.693 51.4355 164.033 46.272C168.126 39.9437 174.394 39.1869 181.511 39.442L192.627 39.3989C205.213 39.364 209.496 40.1979 215.487 52.1066C217.168 55.4478 219.569 59.4945 221.433 62.8092C228.212 74.7298 234.927 86.6873 241.576 98.6813L272.892 154.514L281.973 170.703C284.637 175.377 287.961 181.006 290.269 185.794C293.466 180.285 296.611 175.896 302.827 173.626C310.139 170.953 316.471 172.17 323.317 175.329C328.243 177.988 332.256 182.289 335.152 187.042L335.261 187.389C335.853 189.245 337.001 191.118 337.419 193.064C339.65 203.472 337.198 210.819 329.025 217.327L329.23 217.512C330.047 218.246 331.209 219.164 332.128 219.896C339.932 226.096 342.515 238.868 339.217 247.951C339.164 248.097 338.66 248.232 338.514 248.285C340.904 248.282 353.884 247.726 355.037 248.978C355.609 249.601 355.532 250.595 355.382 251.357C353.641 260.277 345.627 266.725 338.355 271.299C327.154 278.346 314.227 282.852 301.564 286.448C254.971 299.675 199.512 302.074 151.35 298.517C143.344 297.925 135.12 297.34 127.187 296.105C120.788 297.13 110.947 296.585 104.227 296.582L67.9397 296.58L46.9543 296.607C39.2755 296.624 27.6708 298.305 25.6918 288.049C24.6337 282.565 24.5732 276.256 24.2207 270.634C23.7758 263.537 23.224 256.345 22.9205 249.248C21.0595 249.243 19.1991 249.17 17.3434 249.029C16.5688 245.42 16.2078 237.75 15.9615 233.858L14.4228 209.602L12.6968 185.233C12.2824 179.419 11.6595 172.863 12.0281 167.087C13.8178 166.999 15.8641 166.946 17.6244 166.74C17.415 165.576 17.3079 163.884 17.2493 162.687C16.6213 149.833 15.3265 136.882 14.9636 124.026C10.7492 123.972 5.71108 124.707 2.46133 121.79C0.902276 120.404 0.00744575 118.421 0.000156338 116.335C-0.0130971 114.202 0.816792 112.15 2.30913 110.626C4.48734 108.425 6.69361 108.097 9.5674 108.104C10.3774 103.13 11.3851 99.6674 15.3439 96.2369C20.3138 91.9302 26.14 92.6207 32.2598 92.5673C35.1115 92.5423 37.9926 92.5664 40.8544 92.5659L74.042 92.5615L114.324 92.5637C121.097 92.565 131.18 92.2677 137.702 92.909Z" fill="#FED429"/>
<path d="M9.5674 108.104C10.3774 103.131 11.3851 99.6679 15.3439 96.2375C20.3138 91.9307 26.14 92.6213 32.2598 92.5678C35.1115 92.5428 37.9926 92.5669 40.8544 92.5665L74.042 92.5621L114.324 92.5643C121.097 92.5656 131.18 92.2683 137.702 92.9095C144.782 95.5876 149.259 100.258 149.732 108.12C153.869 108.133 156.888 109.31 158.891 113.173C160.632 119.844 156.446 123.927 149.97 123.981C148.218 123.996 146.433 124.034 144.676 124.041C144.494 127.753 143.175 137.815 143.319 140.563C142.953 149.224 142.046 158.365 141.753 166.75C145.196 166.752 147.938 166.156 147.63 170.476C146.918 180.478 146.458 190.626 145.588 200.608C145 208.931 144.454 217.257 143.951 225.586C143.241 233.163 143.099 240.958 142.219 248.402C140.337 249.067 138.289 249.219 136.297 249.215C136.274 251.755 136.14 254.234 136.013 256.77C135.931 258.15 135.84 259.531 135.74 260.911L135.676 261.298C134.236 270.445 135.813 281.388 132.976 290.336C132.114 293.055 129.106 294.376 127.187 296.106C120.788 297.131 110.947 296.585 104.227 296.583L67.9397 296.581L46.9544 296.607C39.2755 296.625 27.6708 298.306 25.6918 288.05C24.6337 282.565 24.5732 276.257 24.2207 270.635C23.7758 263.538 23.224 256.345 22.9205 249.248C21.0595 249.244 19.1991 249.171 17.3434 249.03C16.5688 245.42 16.2078 237.751 15.9615 233.859L14.4228 209.603L12.6968 185.234C12.2824 179.42 11.6595 172.864 12.0281 167.088C13.8178 166.999 15.8641 166.946 17.6244 166.741C17.415 165.577 17.3079 163.885 17.2493 162.688C16.6213 149.834 15.3265 136.882 14.9636 124.027C10.7492 123.972 5.71108 124.708 2.46133 121.79C0.902276 120.405 0.00744575 118.421 0.000156338 116.336C-0.0130971 114.203 0.816792 112.151 2.30913 110.627C4.48734 108.425 6.69361 108.098 9.5674 108.104Z" fill="#CCC59C"/>
<path d="M9.5674 108.104C10.3774 103.131 11.3851 99.6679 15.3439 96.2375C20.3138 91.9307 26.14 92.6213 32.2598 92.5678C35.1115 92.5428 37.9926 92.5669 40.8544 92.5665L74.042 92.5621L114.324 92.5643C121.097 92.5656 131.18 92.2683 137.702 92.9095C144.782 95.5876 149.259 100.258 149.732 108.12C153.869 108.133 156.888 109.31 158.891 113.173C160.632 119.844 156.446 123.927 149.97 123.981C148.218 123.996 146.433 124.034 144.676 124.041C144.494 127.753 143.175 137.814 143.319 140.563C142.953 149.224 142.046 158.365 141.753 166.75L52.6869 166.728C41.254 166.728 28.9769 166.966 17.6244 166.741C17.415 165.577 17.3079 163.885 17.2493 162.688C16.6213 149.834 15.3265 136.882 14.9636 124.027C10.7492 123.972 5.71108 124.708 2.46133 121.79C0.902276 120.405 0.00744575 118.421 0.000156338 116.336C-0.0130971 114.203 0.816792 112.151 2.30913 110.627C4.48734 108.425 6.69361 108.098 9.5674 108.104Z" fill="#060142"/>
<path d="M9.5674 108.104C10.3774 103.131 11.3851 99.6679 15.3439 96.2375C20.3138 91.9307 26.14 92.6213 32.2598 92.5678C35.1115 92.5428 37.9926 92.5669 40.8544 92.5665L74.042 92.5621L114.324 92.5643C121.097 92.5656 131.18 92.2683 137.702 92.9095C144.782 95.5876 149.259 100.258 149.732 108.12C153.869 108.133 156.888 109.31 158.891 113.173C160.632 119.844 156.446 123.927 149.97 123.981C148.218 123.996 146.433 124.034 144.676 124.041C125.652 123.668 105.664 123.954 86.5802 123.977C62.8152 124.004 38.695 123.741 14.9636 124.027C10.7492 123.972 5.71108 124.708 2.46133 121.79C0.902276 120.405 0.00744575 118.421 0.000156338 116.336C-0.0130971 114.203 0.816792 112.151 2.30913 110.627C4.48734 108.425 6.69361 108.098 9.5674 108.104Z" fill="#6880CD"/>
<path d="M17.4853 106.405C26.4968 106.157 36.2686 106.332 45.3369 106.334L95.1688 106.338L126.887 106.335C131.474 106.334 136.04 106.309 140.625 106.248C142.855 106.218 145.217 108.375 141.917 110.224C132.392 110.405 122.198 110.233 112.633 110.231L55.4073 110.223L28.8765 110.224C25.3433 110.225 21.7761 110.286 18.2558 110.286C16.5055 110.286 14.193 107.68 17.4853 106.405Z" fill="black"/>
<path d="M22.9121 249.248C36.1068 248.907 50.3442 249.195 63.6241 249.199L136.289 249.214C136.266 251.755 136.132 254.233 136.005 256.769C135.922 258.15 135.831 259.53 135.732 260.911L135.668 261.297C134.227 270.444 135.805 281.387 132.968 290.336C132.106 293.055 129.098 294.376 127.179 296.105C120.78 297.13 110.939 296.585 104.219 296.582L67.9313 296.58L46.946 296.607C39.2671 296.624 27.6624 298.305 25.6834 288.049C24.6253 282.565 24.5648 276.256 24.2123 270.634C23.7674 263.537 23.2156 256.345 22.9121 249.248Z" fill="#060142"/>
<path d="M75.7024 176.661C93.0021 174.467 108.791 186.751 110.915 204.06C113.039 221.369 100.69 237.108 83.373 239.162C66.1548 241.205 50.5256 228.941 48.4134 211.732C46.3013 194.522 58.5011 178.843 75.7024 176.661Z" fill="#6880CD"/>
<path d="M72.325 187.885C84.4409 186.617 97.051 198.432 99.4896 209.872C100.38 214.049 99.6095 216.753 97.2776 220.23C96.916 219.286 96.4685 218.421 96.0247 217.513C90.4616 207.71 83.6833 205.211 74.3564 200.564C71.7249 199.254 67.5889 194.949 65.75 192.607C67.6824 189.762 69.0609 188.797 72.325 187.885Z" fill="#FEF2B0"/>
<path d="M60.2159 198.292C61.0622 198.624 65.5268 203.622 67.339 204.826C70.2859 206.781 72.672 207.833 75.8796 209.295C83.7338 212.871 88.1823 217.872 91.9607 225.473L90.1794 226.721C80.4675 231.759 67.5062 221.587 62.8697 213.523C59.9363 208.42 58.7817 204.016 60.2159 198.292Z" fill="#FEF2B0"/>
<path d="M290.26 185.795C293.456 180.286 296.602 175.897 302.817 173.626C310.129 170.953 316.462 172.171 323.307 175.329C328.233 177.989 332.247 182.29 335.143 187.043L335.251 187.39C335.843 189.245 336.991 191.119 337.409 193.065C339.64 203.473 337.188 210.82 329.015 217.327L329.221 217.513C330.038 218.246 331.2 219.165 332.119 219.896C339.923 226.097 342.505 238.869 339.207 247.952C339.154 248.098 338.65 248.232 338.505 248.285C340.895 248.283 353.874 247.726 355.027 248.979C355.599 249.602 355.522 250.596 355.372 251.358C353.631 260.277 345.617 266.725 338.346 271.3C327.144 278.346 314.218 282.853 301.554 286.449C254.961 299.676 199.502 302.075 151.34 298.518C143.334 297.926 135.111 297.341 127.178 296.106C129.097 294.376 132.105 293.056 132.966 290.336C135.804 281.388 134.226 270.445 135.667 261.298L135.731 260.911C135.83 259.531 135.921 258.15 136.004 256.77C136.13 254.234 136.264 251.755 136.287 249.215C138.279 249.22 140.327 249.067 142.21 248.402C162.547 248.058 183.287 248.44 203.686 248.31C204.269 247.371 203.147 242.438 203.054 240.965C202.765 236.397 203.467 232.483 205.124 228.284C208.663 221.663 211.614 218.609 218.192 214.902C225.037 211.818 232.817 211.542 239.863 214.131L242.982 208.576C245.892 204.938 246.888 203.822 250.343 200.741C258.942 194.602 263.7 193.498 273.916 193.487C277.786 193.732 282.807 194.794 286.332 196.442L286.584 196.837C287.678 191.596 288.501 190.498 290.26 185.795Z" fill="#6880CD"/>
<path d="M290.257 185.795C293.454 180.286 296.599 175.897 302.815 173.626C310.127 170.953 316.46 172.171 323.305 175.329C328.231 177.989 332.244 182.29 335.14 187.043L335.249 187.39C335.841 189.245 336.989 191.119 337.407 193.065C339.638 203.473 337.186 210.82 329.013 217.327L329.218 217.513C330.035 218.246 331.197 219.165 332.116 219.896C339.92 226.097 342.503 238.869 339.205 247.952C339.152 248.098 338.648 248.232 338.502 248.285L203.683 248.31C204.267 247.371 203.144 242.438 203.052 240.965C202.762 236.397 203.465 232.483 205.121 228.284C208.66 221.663 211.611 218.609 218.189 214.902C225.035 211.818 232.815 211.542 239.861 214.131L242.98 208.576C245.889 204.938 246.885 203.822 250.34 200.741C258.939 194.602 263.697 193.498 273.914 193.487C277.784 193.732 282.805 194.794 286.33 196.442L286.582 196.837C287.675 191.596 288.499 190.498 290.257 185.795Z" fill="#FEF2B0"/>
<path d="M290.261 185.795C293.457 180.286 296.603 175.897 302.818 173.626C310.13 170.953 316.463 172.171 323.308 175.329C328.234 177.989 332.248 182.29 335.144 187.043L335.252 187.39C335.844 189.245 336.993 191.119 337.41 193.065C339.641 203.473 337.189 210.82 329.016 217.327C320.704 222.68 311.466 225.503 301.274 223.985C300.309 223.841 297.267 222.801 296.717 222.81C295.05 220.711 291.935 217.235 289.435 216.177C285.125 212.167 285.761 202.092 286.585 196.837C287.679 191.596 288.502 190.498 290.261 185.795Z" fill="#FE6339"/>
<path d="M302.425 202.9C308.817 203.342 308.762 210.143 301.85 212.615C295.12 214.641 296.476 204.575 302.425 202.9Z" fill="#FEF2B0"/>
<path d="M323.395 198.454C325.328 198.396 327.356 199.077 328.131 201.016C328.566 202.136 328.531 203.386 328.036 204.484C327.139 206.503 325.553 207.281 323.656 208.027C319.642 208.721 317.798 207.362 319.234 202.889C319.888 200.853 321.421 199.317 323.395 198.454Z" fill="#FEF2B0"/>
<path d="M305.858 181.008C307.725 180.865 309.737 181.572 310.539 183.389C311.031 184.516 311.047 185.791 310.581 186.928C309.741 188.956 308.23 189.654 306.364 190.409C298.107 192.141 300.855 183.456 305.858 181.008Z" fill="#FEF2B0"/>
<path d="M289.43 216.176C291.931 217.234 295.046 220.711 296.713 222.809C299.052 226.469 300.711 230.158 301.255 234.519C301.445 236.043 302.319 239.617 300.044 240.118C297.089 240.77 297.385 234.799 296.923 232.679C296.618 231.307 296.179 229.97 295.609 228.685C294.065 225.142 291.752 223.176 289.084 220.477C288.353 219.734 287.836 219.255 287.754 218.248C288.116 217.322 288.71 216.878 289.43 216.176Z" fill="black"/>
<path d="M244.136 216.291C250.681 218.58 257.339 231.751 256.046 238.592C255.872 239.522 255.192 239.94 254.436 240.333C252.437 239.785 252.433 238.634 252.192 236.598C251.664 231.129 250.226 227.157 246.433 223.132C244.134 220.694 240.434 218.977 244.136 216.291Z" fill="black"/>
<path d="M136.011 256.769L280.424 256.849L323.861 256.847C329.884 256.847 335.875 256.882 341.896 256.681C344.127 256.606 346.97 260.823 341.382 260.783C336.94 260.75 332.232 260.717 327.777 260.734L290.917 260.75L191.856 260.745C173.469 260.745 154.062 260.443 135.738 260.911C135.838 259.53 135.929 258.15 136.011 256.769Z" fill="black"/>
<path d="M181.514 39.442L192.629 39.3989C205.215 39.364 209.498 40.1979 215.489 52.1066C217.17 55.4478 219.571 59.4945 221.435 62.8092C228.215 74.7298 234.93 86.6873 241.578 98.6813L272.894 154.514L281.975 170.703C284.639 175.377 287.963 181.006 290.272 185.794C288.513 190.497 287.689 191.595 286.596 196.837L286.344 196.441C282.819 194.794 277.798 193.731 273.928 193.486C267.683 182.912 261.867 171.744 255.844 161.019L212.229 83.4723L197.553 57.1378C195.317 53.1788 192.918 48.5151 190.248 44.8998C187.827 41.6182 185.008 40.8952 181.514 39.442Z" fill="#FEA82D"/>
<path d="M192.967 200.844C196.236 200.393 214.674 200.223 216.909 201.524C218.44 204.23 218.111 211.414 218.208 214.902C211.63 218.608 208.679 221.663 205.14 228.283C203.665 227.85 195.45 228.049 193.217 227.998C192.666 227.552 191.982 226.898 191.54 226.359C191.136 225.869 190.871 225.281 190.773 224.654C190.109 220.382 190.698 208.436 190.782 203.612C190.804 202.355 192.017 201.56 192.967 200.844Z" fill="#FEA82D"/>
<path d="M145.586 200.608C149.139 200.696 161.746 199.874 163.833 202.021C164.331 202.532 164.47 203.163 164.562 203.848C164.895 206.322 164.586 209.019 164.601 211.52C164.627 215.681 164.879 219.922 164.653 224.075C164.628 224.546 164.581 224.998 164.508 225.465C163.623 226.516 163.369 226.825 162.266 227.7C160.201 227.932 145.348 228.409 144.113 227.791C143.81 226.947 143.907 226.505 143.949 225.586C144.452 217.256 144.998 208.931 145.586 200.608Z" fill="#FEA82D"/>
<path d="M158.889 113.173C166.184 112.921 165.73 114.85 165.877 120.976C166.52 147.682 165.1 138.941 143.318 140.563C143.174 137.815 144.492 127.753 144.674 124.041C146.432 124.034 148.217 123.996 149.969 123.981C156.444 123.927 160.63 119.844 158.889 113.173Z" fill="#FEA82D"/>
<path d="M243.045 203.088C244.598 200.661 247.699 200.133 250.357 200.74C246.902 203.822 245.906 204.937 242.997 208.575C242.528 207.685 242.957 204.305 243.045 203.088Z" fill="#FEA82D"/>
<path d="M207.53 113.064C211.256 113.046 218.278 111.999 217.923 117.545C217.602 122.538 219.217 135.27 216.644 139.453C215.65 141.066 204.378 140.535 201.895 140.514C190.364 140.453 190.501 141.703 190.526 129.007C190.501 124.703 190.55 120.399 190.676 116.096C191.486 114.716 191.816 114.327 192.933 113.237C197.649 113.071 202.781 113.109 207.53 113.064Z" fill="#FEA82D"/>
<path d="M221.585 154.569C224.874 154.357 241.541 153.955 243.597 155.309C244.425 155.855 244.934 156.796 245.09 157.754C245.596 160.854 245.503 174.785 245.079 178.004C244.956 178.94 244.774 179.848 244.171 180.603C243.493 181.447 242.647 181.553 241.629 181.699C240.608 181.77 239.586 181.818 238.561 181.84C233.308 181.931 227.346 182.037 222.08 181.781C220.013 181.529 218.029 180.265 217.978 177.939C217.828 171.187 217.636 163.902 218.031 157.176C219.144 155.459 219.635 155.013 221.585 154.569Z" fill="#FEA82D"/>
<path d="M168.98 154.565C173.022 154.483 187.422 153.776 190.106 155.296C190.777 155.678 191.471 156.442 191.665 157.193C192.123 158.967 192.103 176.395 191.791 178.474C191.712 179.004 191.48 179.483 191.193 179.93C190.358 181.231 189.233 181.504 187.782 181.778C184.802 182.013 168.431 182.392 166.536 181.451C165.71 181.043 165.216 179.645 164.986 178.829C164.282 176.344 164.067 157.759 165.458 155.861C166.242 154.792 167.781 154.732 168.98 154.565Z" fill="#FEA82D"/>
<path d="M172.059 71.7633C175.345 71.6654 189.038 71.0769 191.097 73.0506C191.603 73.5341 191.74 74.338 191.826 75.0011C192.168 77.6745 191.908 80.5784 191.892 83.2827C191.881 87.6186 191.903 91.9545 191.959 96.2901C191.234 97.3946 190.996 97.6416 190.046 98.5713C188.296 99.0007 186.503 98.9956 184.713 99.0287C179.732 99.0559 174.705 99.1012 169.726 99.0727C168.307 99.0405 166.413 98.642 165.471 97.4505C164.303 95.8592 164.495 93.4208 164.544 91.5255C164.695 85.7987 164.294 79.8302 164.83 74.1396C165.497 73.0908 165.821 72.7725 166.666 71.8861C168.452 71.8657 170.27 71.8048 172.059 71.7633Z" fill="#FEA82D"/>
<path d="M91.3521 0C91.7408 0.00662674 91.8506 -0.0242962 92.1066 0.104042C92.8674 0.485742 94.384 4.02287 94.7741 4.87883C97.6236 11.1314 102.954 13.8435 105.963 20.1985C107.602 23.729 108.435 27.58 108.401 31.4724C108.385 45.5752 99.9487 46.9566 95.8428 58.6628C95.3449 60.131 94.8943 61.9631 93.0744 62.154C90.7245 61.4323 90.7513 57.8463 90.8414 55.8928C91.0662 51.0058 92.7653 46.8488 95.2013 42.6088C98.6464 36.6129 99.2282 29.9798 96.3261 23.5974C94.506 19.5942 90.7733 15.6813 89.8396 11.1839C89.0897 7.57304 87.3491 2.14574 91.3521 0Z" fill="#FEF2B0"/>
<path d="M46.4707 18.9995C47.7475 19.1683 50.9223 22.4231 52.3639 23.4447C57.5714 27.1345 64.0605 28.0527 68.7352 32.8739C74.5798 38.9014 77.595 46.9102 75.8491 55.2694C75.1959 58.3968 73.9748 62.0713 73.5127 65.0569C73.1893 67.1459 73.527 71.8416 73.5518 74.2614C72.7935 74.9437 71.977 75.1748 71.0195 75.5583C62.1337 66.3451 69.5901 55.2829 64.6976 45.2319C61.1947 36.8287 51.9698 34.8213 47.3413 27.5573C45.9143 25.3177 43.4856 20.7203 46.4707 18.9995Z" fill="#FEF2B0"/>
<path d="M323.312 175.328C323.622 171.377 324.353 167.423 324.872 163.502C325.206 161.335 325.413 158.943 327.191 157.443C330.737 154.452 336.672 158.066 335.329 162.55C333.926 167.233 331.227 171.664 329.453 176.238C331.371 173.837 333.244 171.348 335.132 168.77C337.408 165.669 340.752 161.116 344.96 164.573C347.736 166.855 347.701 170.268 345 172.501C341.918 175.417 337.381 177.732 334.569 180.791C337.589 179.395 345.978 175.339 348.876 174.71C354.818 176.174 355.971 182.2 351.132 184.438C348.357 185.721 338.614 186.815 335.148 187.042C332.252 182.289 328.238 177.988 323.312 175.328Z" fill="#6880CD"/>
</svg>
