<svg width="1196" height="500" viewBox="0 0 1196 500" fill="none" xmlns="http://www.w3.org/2000/svg">
<g clip-path="url(#clip0_49_51)">
<rect width="1196" height="500" rx="24" fill="#0F3934"/>
<g opacity="0.1">
<line x1="10.675" y1="-356.9" x2="10.6749" y2="858.1" stroke="white" stroke-opacity="0.5" stroke-width="1.35"/>
<line x1="196.652" y1="-499.811" x2="-144.012" y2="666.454" stroke="white" stroke-opacity="0.5" stroke-width="1.35"/>
<line x1="56.5754" y1="-356.9" x2="56.5753" y2="858.1" stroke="white" stroke-opacity="0.5" stroke-width="1.35"/>
<line x1="240.71" y1="-486.941" x2="-99.9534" y2="679.324" stroke="white" stroke-opacity="0.5" stroke-width="1.35"/>
<line x1="102.476" y1="-356.9" x2="102.476" y2="858.1" stroke="white" stroke-opacity="0.5" stroke-width="1.35"/>
<line x1="284.769" y1="-474.072" x2="-55.8948" y2="692.193" stroke="white" stroke-opacity="0.5" stroke-width="1.35"/>
<line x1="148.376" y1="-356.9" x2="148.376" y2="858.1" stroke="white" stroke-opacity="0.5" stroke-width="1.35"/>
<line x1="328.828" y1="-461.203" x2="-11.8362" y2="705.062" stroke="white" stroke-opacity="0.5" stroke-width="1.35"/>
<line x1="194.275" y1="-356.9" x2="194.275" y2="858.1" stroke="white" stroke-opacity="0.5" stroke-width="1.35"/>
<line x1="372.886" y1="-448.333" x2="32.2224" y2="717.932" stroke="white" stroke-opacity="0.5" stroke-width="1.35"/>
<line x1="1297.21" y1="24.8857" x2="130.941" y2="-315.778" stroke="white" stroke-opacity="0.5" stroke-width="1.35"/>
<line x1="240.175" y1="-356.9" x2="240.175" y2="858.1" stroke="white" stroke-opacity="0.5" stroke-width="1.35"/>
<line x1="416.947" y1="-435.463" x2="76.283" y2="730.802" stroke="white" stroke-opacity="0.5" stroke-width="1.35"/>
<line x1="1284.34" y1="68.9453" x2="118.072" y2="-271.718" stroke="white" stroke-opacity="0.5" stroke-width="1.35"/>
<line x1="286.075" y1="-356.9" x2="286.075" y2="858.1" stroke="white" stroke-opacity="0.5" stroke-width="1.35"/>
<line x1="461.005" y1="-422.593" x2="120.342" y2="743.672" stroke="white" stroke-opacity="0.5" stroke-width="1.35"/>
<line x1="1271.47" y1="113.004" x2="105.202" y2="-227.659" stroke="white" stroke-opacity="0.5" stroke-width="1.35"/>
<line x1="331.976" y1="-356.9" x2="331.976" y2="858.1" stroke="white" stroke-opacity="0.5" stroke-width="1.35"/>
<line x1="505.064" y1="-409.724" x2="164.4" y2="756.54" stroke="white" stroke-opacity="0.5" stroke-width="1.35"/>
<line x1="1258.6" y1="157.063" x2="92.3313" y2="-183.601" stroke="white" stroke-opacity="0.5" stroke-width="1.35"/>
<line x1="377.876" y1="-356.9" x2="377.876" y2="858.1" stroke="white" stroke-opacity="0.5" stroke-width="1.35"/>
<line x1="549.123" y1="-396.855" x2="208.459" y2="769.41" stroke="white" stroke-opacity="0.5" stroke-width="1.35"/>
<line x1="1214.2" y1="21.7756" x2="-0.800781" y2="21.7755" stroke="white" stroke-opacity="0.5" stroke-width="1.35"/>
<line x1="1245.73" y1="201.122" x2="79.4621" y2="-139.542" stroke="white" stroke-opacity="0.5" stroke-width="1.35"/>
<line x1="423.777" y1="-356.9" x2="423.777" y2="858.1" stroke="white" stroke-opacity="0.5" stroke-width="1.35"/>
<line x1="593.181" y1="-383.985" x2="252.517" y2="782.28" stroke="white" stroke-opacity="0.5" stroke-width="1.35"/>
<line x1="1214.2" y1="67.676" x2="-0.800781" y2="67.6759" stroke="white" stroke-opacity="0.5" stroke-width="1.35"/>
<line x1="1232.86" y1="245.181" x2="66.593" y2="-95.4829" stroke="white" stroke-opacity="0.5" stroke-width="1.35"/>
<line x1="469.675" y1="-356.9" x2="469.675" y2="858.1" stroke="white" stroke-opacity="0.5" stroke-width="1.35"/>
<line x1="637.242" y1="-371.115" x2="296.578" y2="795.15" stroke="white" stroke-opacity="0.5" stroke-width="1.35"/>
<line x1="1214.2" y1="113.576" x2="-0.800781" y2="113.576" stroke="white" stroke-opacity="0.5" stroke-width="1.35"/>
<line x1="1219.99" y1="289.24" x2="53.7239" y2="-51.4241" stroke="white" stroke-opacity="0.5" stroke-width="1.35"/>
<line x1="515.575" y1="-356.9" x2="515.575" y2="858.1" stroke="white" stroke-opacity="0.5" stroke-width="1.35"/>
<line x1="681.3" y1="-358.246" x2="340.637" y2="808.019" stroke="white" stroke-opacity="0.5" stroke-width="1.35"/>
<line x1="1214.2" y1="159.476" x2="-0.800781" y2="159.476" stroke="white" stroke-opacity="0.5" stroke-width="1.35"/>
<line x1="1207.12" y1="333.299" x2="40.8547" y2="-7.36497" stroke="white" stroke-opacity="0.5" stroke-width="1.35"/>
<line x1="561.476" y1="-356.9" x2="561.476" y2="858.1" stroke="white" stroke-opacity="0.5" stroke-width="1.35"/>
<line x1="725.359" y1="-345.377" x2="384.695" y2="820.888" stroke="white" stroke-opacity="0.5" stroke-width="1.35"/>
<line x1="1214.2" y1="205.376" x2="-0.800781" y2="205.376" stroke="white" stroke-opacity="0.5" stroke-width="1.35"/>
<line x1="1194.25" y1="377.358" x2="27.9836" y2="36.6941" stroke="white" stroke-opacity="0.5" stroke-width="1.35"/>
<line x1="607.376" y1="-356.9" x2="607.376" y2="858.1" stroke="white" stroke-opacity="0.5" stroke-width="1.35"/>
<line x1="769.417" y1="-332.507" x2="428.754" y2="833.758" stroke="white" stroke-opacity="0.5" stroke-width="1.35"/>
<line x1="1214.2" y1="251.277" x2="-0.800781" y2="251.277" stroke="white" stroke-opacity="0.5" stroke-width="1.35"/>
<line x1="1181.38" y1="421.416" x2="15.1145" y2="80.7527" stroke="white" stroke-opacity="0.5" stroke-width="1.35"/>
<line x1="653.277" y1="-356.9" x2="653.276" y2="858.1" stroke="white" stroke-opacity="0.5" stroke-width="1.35"/>
<line x1="813.476" y1="-319.637" x2="472.812" y2="846.628" stroke="white" stroke-opacity="0.5" stroke-width="1.35"/>
<line x1="1214.2" y1="297.176" x2="-0.800781" y2="297.176" stroke="white" stroke-opacity="0.5" stroke-width="1.35"/>
<line x1="1168.51" y1="465.476" x2="2.24534" y2="124.812" stroke="white" stroke-opacity="0.5" stroke-width="1.35"/>
<line x1="699.177" y1="-356.9" x2="699.177" y2="858.1" stroke="white" stroke-opacity="0.5" stroke-width="1.35"/>
<line x1="857.535" y1="-306.768" x2="516.871" y2="859.497" stroke="white" stroke-opacity="0.5" stroke-width="1.35"/>
<line x1="1214.2" y1="343.076" x2="-0.800781" y2="343.076" stroke="white" stroke-opacity="0.5" stroke-width="1.35"/>
<line x1="1155.64" y1="509.535" x2="-10.6238" y2="168.871" stroke="white" stroke-opacity="0.5" stroke-width="1.35"/>
<line x1="745.075" y1="-356.9" x2="745.075" y2="858.1" stroke="white" stroke-opacity="0.5" stroke-width="1.35"/>
<line x1="901.595" y1="-293.898" x2="560.931" y2="872.366" stroke="white" stroke-opacity="0.5" stroke-width="1.35"/>
<line x1="1214.2" y1="388.976" x2="-0.800781" y2="388.976" stroke="white" stroke-opacity="0.5" stroke-width="1.35"/>
<line x1="1142.77" y1="553.594" x2="-23.4929" y2="212.93" stroke="white" stroke-opacity="0.5" stroke-width="1.35"/>
<line x1="790.976" y1="-356.9" x2="790.976" y2="858.1" stroke="white" stroke-opacity="0.5" stroke-width="1.35"/>
<line x1="945.654" y1="-281.029" x2="604.99" y2="885.236" stroke="white" stroke-opacity="0.5" stroke-width="1.35"/>
<line x1="1214.2" y1="434.876" x2="-0.800781" y2="434.876" stroke="white" stroke-opacity="0.5" stroke-width="1.35"/>
<line x1="1129.9" y1="597.652" x2="-36.364" y2="256.989" stroke="white" stroke-opacity="0.5" stroke-width="1.35"/>
<line x1="836.876" y1="-356.9" x2="836.876" y2="858.1" stroke="white" stroke-opacity="0.5" stroke-width="1.35"/>
<line x1="989.712" y1="-268.159" x2="649.049" y2="898.105" stroke="white" stroke-opacity="0.5" stroke-width="1.35"/>
<line x1="1214.2" y1="480.777" x2="-0.800781" y2="480.777" stroke="white" stroke-opacity="0.5" stroke-width="1.35"/>
<line x1="1117.03" y1="641.712" x2="-49.2332" y2="301.048" stroke="white" stroke-opacity="0.5" stroke-width="1.35"/>
<line x1="882.777" y1="-356.9" x2="882.776" y2="858.1" stroke="white" stroke-opacity="0.5" stroke-width="1.35"/>
<line x1="1033.77" y1="-255.289" x2="693.107" y2="910.975" stroke="white" stroke-opacity="0.5" stroke-width="1.35"/>
<line x1="1104.16" y1="685.771" x2="-62.1023" y2="345.107" stroke="white" stroke-opacity="0.5" stroke-width="1.35"/>
<line x1="928.677" y1="-356.9" x2="928.677" y2="858.1" stroke="white" stroke-opacity="0.5" stroke-width="1.35"/>
<line x1="1077.83" y1="-242.42" x2="737.166" y2="923.844" stroke="white" stroke-opacity="0.5" stroke-width="1.35"/>
<line x1="1091.29" y1="729.83" x2="-74.9715" y2="389.166" stroke="white" stroke-opacity="0.5" stroke-width="1.35"/>
<line x1="974.577" y1="-356.9" x2="974.577" y2="858.1" stroke="white" stroke-opacity="0.5" stroke-width="1.35"/>
<line x1="1121.89" y1="-229.55" x2="781.226" y2="936.714" stroke="white" stroke-opacity="0.5" stroke-width="1.35"/>
<line x1="1078.42" y1="773.888" x2="-87.8406" y2="433.224" stroke="white" stroke-opacity="0.5" stroke-width="1.35"/>
<line x1="1020.48" y1="-356.9" x2="1020.48" y2="858.1" stroke="white" stroke-opacity="0.5" stroke-width="1.35"/>
<line x1="1165.95" y1="-216.681" x2="825.285" y2="949.584" stroke="white" stroke-opacity="0.5" stroke-width="1.35"/>
<line x1="1065.55" y1="817.948" x2="-100.712" y2="477.284" stroke="white" stroke-opacity="0.5" stroke-width="1.35"/>
<line x1="1066.38" y1="-356.9" x2="1066.38" y2="858.1" stroke="white" stroke-opacity="0.5" stroke-width="1.35"/>
<line x1="1210.01" y1="-203.811" x2="869.344" y2="962.453" stroke="white" stroke-opacity="0.5" stroke-width="1.35"/>
<line x1="1112.28" y1="-356.9" x2="1112.28" y2="858.1" stroke="white" stroke-opacity="0.5" stroke-width="1.35"/>
<line x1="1254.07" y1="-190.941" x2="913.402" y2="975.323" stroke="white" stroke-opacity="0.5" stroke-width="1.35"/>
<line x1="1158.18" y1="-356.9" x2="1158.18" y2="858.1" stroke="white" stroke-opacity="0.5" stroke-width="1.35"/>
<line x1="1298.12" y1="-178.072" x2="957.461" y2="988.192" stroke="white" stroke-opacity="0.5" stroke-width="1.35"/>
<line x1="1342.18" y1="-165.203" x2="1001.52" y2="1001.06" stroke="white" stroke-opacity="0.5" stroke-width="1.35"/>
</g>
<g opacity="0.7">
<path d="M149.044 366.985C155.636 365.479 162.22 363.938 168.796 362.362C171.208 370.164 173.666 377.734 175.389 385.726C176.405 390.436 177.645 395.221 178.761 399.921L181.257 410.463C181.735 412.494 182.444 415.013 182.716 417.053C184.26 428.636 184.953 440.523 186.575 452.079C186.774 453.634 187.063 455.32 187.383 456.859C189.435 466.728 190.868 476.906 193.011 486.732C191.669 487.389 189.004 488.844 187.767 489.285C187.531 488.784 187.532 488.597 187.126 488.308C183.334 489.186 178.884 490.943 175.021 491.963C175.039 492.144 175.141 493.066 175.134 493.193C174.454 493.204 171.481 494.085 170.564 494.269C169.096 493.752 165.36 492.044 164.313 490.966C163.638 490.273 162.47 487.189 162 486.042C160.167 481.655 158.444 477.224 156.833 472.751C155.946 470.358 153.412 462.935 152.245 461.234C151.997 460.264 148.002 453.114 147.347 451.827C144.48 445.81 140.769 440.289 137.516 434.524C133.858 428.039 129.928 422.763 125.531 416.769C118.729 407.517 111.771 398.381 104.661 389.364L115.501 381.863C116.446 383.324 117.99 385.276 119.052 386.701L125.618 395.49L151.992 429.913L152.204 429.479C145.267 418.963 138.394 407.918 131.606 397.273L123.444 384.498C122.017 382.262 120.263 379.651 118.953 377.381C123.288 375.857 127.72 374.382 132.078 372.918C134.546 372.089 137.642 370.941 140.098 370.253C143.149 376.863 146.754 383.876 149.982 390.438L168.018 427.136C167.621 424.478 167.014 421.78 166.542 419.132C164.696 408.766 160.941 398.768 157.841 388.692C155.626 381.49 151.797 374.098 149.044 366.985Z" fill="#016839"/>
<path d="M152.244 461.234C153.169 460.604 162.786 458.251 164.741 457.742L186.574 452.079C186.773 453.634 187.062 455.32 187.382 456.859C189.435 466.728 190.867 476.906 193.01 486.732C191.669 487.389 189.004 488.844 187.766 489.285C187.53 488.784 187.532 488.597 187.125 488.308C183.333 489.186 178.883 490.943 175.02 491.963C175.038 492.144 175.141 493.066 175.133 493.193C174.454 493.204 171.48 494.085 170.563 494.269C169.095 493.752 165.359 492.044 164.312 490.966C163.637 490.273 162.469 487.189 161.999 486.042C160.166 481.655 158.443 477.224 156.832 472.751C155.946 470.358 153.411 462.935 152.244 461.234Z" fill="#C9D886"/>
<path d="M152.204 429.479C152.877 430.485 153.355 431.242 153.94 432.299C153.142 431.582 152.601 430.794 151.992 429.914L152.204 429.479Z" fill="#88DBAC"/>
<path d="M175.02 491.963C178.883 490.943 183.333 489.186 187.125 488.308C187.532 488.597 187.53 488.784 187.767 489.285C189.582 492.925 192.086 497.677 193.67 501.336C192.521 501.91 191.368 502.475 190.211 503.031C188.213 499.541 185.652 494.743 183.505 491.407C184.498 495.58 185.763 499.769 186.781 503.96C185.542 504.39 184.295 504.796 183.04 505.177C181.716 500.893 180.275 495.917 178.746 491.716C179.264 496.438 179.149 501.387 179.584 506.093L176.134 506.075C175.79 501.818 175.55 497.421 175.133 493.193C175.141 493.066 175.038 492.143 175.02 491.963Z" fill="#6B75B6"/>
</g>
<g opacity="0.7">
<path d="M721.386 43C724.856 43.1896 728.328 43.3499 731.802 43.481C732.542 45.6757 734.15 50.0212 734.646 52.1204C735.399 55.3122 735.972 59.6634 736.579 62.9905C738.172 62.0848 740.17 60.3863 741.929 59.3165C744.529 60.0253 747.718 61.7061 750.309 62.3837C750.354 64.6434 751.068 68.1387 750.846 70.2711C750.177 76.685 749.137 83.3252 748.157 89.7124C747.838 91.7855 746.513 94.9718 745.856 97.0342C743.956 103.003 741.723 109.179 738.827 114.746C737.102 115.297 735.119 115.648 733.345 116.064C731.703 116.405 729.967 116.917 728.282 116.926C724.37 116.95 720.477 116.512 716.571 116.401C715.411 116.368 714.101 116.419 713.092 115.753C710.538 114.07 708.022 112.319 705.501 110.585C703.753 109.352 701.539 108.209 700.008 106.766C699.173 102.784 698.974 98.3048 698.355 94.3011C697.422 88.2677 696.765 82.5514 697.079 76.4252C697.18 74.4693 696.869 71.442 697.212 69.5364C697.658 67.0613 698.494 63.3706 699.92 61.2854C700.149 60.9822 704.302 57.9876 704.498 57.927C707.224 57.0861 710.917 57.0987 713.808 56.9592C714.585 57.737 716.199 59.7943 716.982 60.7316C718.276 58.913 721.231 54.9378 721.964 52.8528C722.436 51.5107 722.388 47.8707 722.291 46.3545C722.16 45.2953 721.664 44.0003 721.386 43Z" fill="#EFCD3F"/>
<path d="M721.386 43C724.857 43.1896 728.329 43.3499 731.803 43.481C732.542 45.6757 734.151 50.0212 734.646 52.1204C735.399 55.3122 735.972 59.6634 736.58 62.9905C736.624 63.3511 736.645 63.3752 736.569 63.7416C736.037 63.8724 717.296 61.6472 716.629 61.4251C716.609 61.1125 716.743 61.0626 716.982 60.7316C718.276 58.913 721.231 54.9378 721.965 52.8528C722.437 51.5107 722.388 47.8707 722.291 46.3545C722.161 45.2953 721.664 44.0003 721.386 43Z" fill="#7E9A2A"/>
</g>
<g opacity="0.7">
<path d="M289.576 159.059C291.556 158.878 294.306 159.162 296.353 159.264C301.347 159.514 306.23 158.9 310.819 161.298C312.891 162.244 315.55 163.541 316.982 165.398C319.215 168.295 321.94 172.658 323.084 176.128C323.898 178.599 324.744 183.695 324.567 186.193C323.757 197.641 315.762 210.311 303.873 212.391C297.075 213.102 284.214 210.589 278.487 206.551C273.654 203.479 270.617 199.774 269.591 194.096C267.341 181.645 271.343 164.983 284.627 160.566C286.297 160.01 287.776 159.403 289.576 159.059Z" fill="#C9D886"/>
<path d="M304.829 167.259C309.989 166.84 311.036 172.179 309.441 175.968C307.989 179.417 305.682 180.382 302.492 181.712C301.416 182.164 300.347 182.631 299.283 183.113C298.974 179.9 298.446 176.837 299.517 173.777C300.601 170.682 301.777 168.743 304.829 167.259Z" fill="#016839"/>
<path d="M283.685 184.024C285.256 183.897 289.996 185.039 291.784 185.4C289.227 190.392 288.173 192.132 283.255 194.781C281.717 195.322 278.996 195.737 277.646 194.824C273.294 191.88 277.024 186.126 280.798 184.762C281.83 184.389 282.651 184.233 283.685 184.024Z" fill="#016839"/>
<path d="M295.183 189.054C295.624 189.289 298.033 192.849 298.362 193.386C300.262 196.5 301.147 201.608 298.988 204.799C298.174 206.003 296.786 206.301 295.457 206.505C292.42 206.011 290.649 203.067 290.194 200.227C289.48 195.762 292.721 192.415 295.183 189.054Z" fill="#016839"/>
<path d="M285.267 168.74C286.186 168.719 286.897 168.875 287.764 169.116C293.843 170.802 294.365 176.832 294.972 181.993L291.44 181.477C286.904 180.622 282.513 178.387 281.151 173.551C280.899 172.659 281.184 171.387 281.751 170.645C282.682 169.425 283.787 168.976 285.267 168.74Z" fill="#016839"/>
<path d="M307.843 184.699C309.462 184.58 311.073 184.859 312.633 185.276C319.697 187.167 320.556 194.79 311.893 195.188C306.209 195.202 304.079 190.403 301.34 186.327C303.55 185.679 305.57 185.088 307.843 184.699Z" fill="#016839"/>
</g>
<g opacity="0.7">
<path d="M1076.84 87.6284C1078.46 88.3666 1088.94 87.2381 1091.37 87.9234C1093.18 88.4778 1094.77 89.8192 1096.41 90.6395C1100.96 92.9123 1101.27 93.7022 1103.46 98.0283C1106.8 104.607 1106.22 113.42 1104.4 120.377C1103.44 124.058 1098.09 128.988 1095.19 131.437C1093.32 132.902 1088.03 134.935 1085.66 135.857C1084.55 136.288 1082.2 136.487 1080.78 136.983C1079.58 140.218 1078.23 143.365 1076.96 146.567C1076.37 144.482 1074.96 139.094 1074.22 137.277C1069.84 134.281 1065.73 134.58 1061.56 132.025C1059.09 130.504 1055.48 126.779 1053.75 124.435C1052.5 121.869 1051.97 118.934 1051.09 116.21C1050.7 115.014 1050.04 113.291 1049.84 112.085C1049.55 109.613 1050.73 107.016 1051.19 104.597C1051.49 103.025 1051.86 101.449 1052.23 99.9148C1052.64 98.2518 1053.89 97.3469 1055.14 96.3044C1058.42 93.5857 1061.9 90.6977 1065.92 89.1723C1067.14 88.7119 1069.92 88.5188 1070.73 88.0213C1071.84 88.2767 1075.71 87.9525 1076.84 87.6284Z" fill="#EC8DB9"/>
<path d="M1037.11 79.6592C1035.17 77.6616 1031.66 72.4782 1031.22 69.7423C1030.59 65.6967 1031.27 59.865 1033.66 56.3817C1035.98 52.975 1041.38 49.9944 1045.36 49.1913C1048.63 48.6661 1053 49.3223 1056.18 49.9534C1057.35 50.1862 1062.91 54.5811 1063.61 55.6209C1065.3 58.1319 1067.5 62.0559 1068.68 64.8539C1069.23 66.1703 1069.89 70.8483 1070.18 72.457L1072.88 87.2121L1075.3 72.6846C1075.43 71.8789 1076.31 66.2272 1076.54 65.6861C1077.97 62.5599 1079.69 58.7696 1081.7 55.994C1082.44 54.9621 1087.14 51.1824 1088.33 50.591C1090.56 49.8118 1093.38 49.706 1095.69 49.4043C1100.7 48.7508 1105.9 51.3094 1109.62 54.4038C1113.1 57.2972 1113.74 61.3573 1114.24 65.5498C1114.89 70.8972 1111.9 75.9007 1108.46 79.7757C1105.44 80.2532 1101.82 80.2665 1098.77 80.715C1095.28 81.227 1091.52 82.3568 1088.05 83.1505C1086.82 83.431 1083.2 84.1719 1082.33 84.5979C1080.79 85.3454 1078.4 86.7543 1076.84 87.6288C1075.71 87.9529 1071.84 88.2771 1070.74 88.0217C1068.37 86.9025 1065.72 85.094 1063.38 84.1163C1061.43 83.3887 1059.33 83.0831 1057.32 82.5883C1055.45 82.1292 1053.5 81.7905 1051.64 81.3288C1046.87 80.1474 1042 80.0191 1037.11 79.6592Z" fill="#016839"/>
</g>
<g opacity="0.7">
<path d="M1087.38 416.211L1087.52 416.294C1087.86 417.202 1081.3 500.484 1080.72 508.734C1075.89 504.925 1070.05 500.8 1065.04 497.08C1061.67 494.741 1058.75 491.668 1056.92 487.948C1055.71 485.471 1053.79 477.666 1053.49 474.887C1052.7 467.457 1053.46 449.55 1055.74 442.881C1056.53 440.591 1057.58 438.388 1058.58 436.186C1062.36 427.85 1065.5 426.929 1073.27 423.123L1087.38 416.211Z" fill="#016839"/>
<path d="M1071.82 428.258C1074.61 427.942 1076.74 428.413 1079.32 429.834C1083.4 432.085 1083.8 439.52 1081.67 443.167C1080.27 445.557 1076.77 446.998 1074.11 447.62C1071.49 447.912 1069.18 447.471 1067.03 445.903C1064.84 444.296 1063.37 441.879 1062.97 439.187C1062.3 434.691 1064.83 430.234 1069.21 428.788C1070.07 428.507 1070.93 428.382 1071.82 428.258Z" fill="#7E9A2A"/>
<path d="M1068.96 453.908C1072.31 453.597 1075.57 455.121 1077.48 457.894C1079.39 460.665 1079.65 464.253 1078.17 467.274C1076.68 470.296 1073.69 472.279 1070.32 472.46C1065.26 472.734 1060.91 468.906 1060.54 463.852C1060.17 458.796 1063.92 454.374 1068.96 453.908Z" fill="#7E9A2A"/>
<path d="M1070.26 477.734C1074.07 477.561 1078.08 479.463 1078.94 483.475C1080.37 490.235 1078.3 494.354 1071.47 495.915C1069.34 495.94 1067.66 495.562 1065.93 494.228C1063.88 492.61 1062.54 490.249 1062.21 487.655C1061.77 484.209 1063.21 480.619 1066.26 478.829C1067.53 478.09 1068.85 477.908 1070.26 477.734Z" fill="#7E9A2A"/>
<path d="M1048.3 414C1048.45 414.302 1042.32 498.391 1041.5 506.527C1036.59 503.172 1030.69 498.546 1025.82 494.953C1022.46 492.506 1019.56 489.564 1017.69 485.788C1016.51 483.406 1014.63 475.743 1014.33 473.013C1013.53 465.596 1014.16 447.774 1016.51 440.854C1017.3 438.528 1018.36 436.278 1019.38 434.045C1023.13 425.809 1026.21 424.834 1033.94 421.045L1048.3 414Z" fill="#016839"/>
<path d="M1032.95 425.723C1036.55 425.421 1040.03 427.082 1042.06 430.066C1044.09 433.051 1044.36 436.9 1042.76 440.135C1041.16 443.372 1037.93 445.493 1034.33 445.687C1028.87 445.982 1024.18 441.839 1023.81 436.383C1023.43 430.929 1027.5 426.182 1032.95 425.723Z" fill="#7E9A2A"/>
<path d="M1029.08 452.096C1032.89 451.692 1038.27 452.969 1039.25 457.128C1040.97 464.383 1038.86 468.145 1032 470.133C1027.02 470.9 1022.53 467.887 1021.43 463.011C1020.9 460.627 1021.34 458.131 1022.66 456.075C1024.32 453.447 1026.27 452.72 1029.08 452.096Z" fill="#7E9A2A"/>
<path d="M1030.25 475.646C1038.53 474.591 1042.04 482.199 1039.19 489.49C1038.39 491.549 1035.04 493.043 1032.93 493.638C1031 494.002 1028.99 493.61 1027.33 492.542C1025.21 491.135 1023.72 488.96 1023.17 486.476C1022.44 483.072 1023.47 479.391 1026.26 477.238C1027.59 476.209 1028.68 475.969 1030.25 475.646Z" fill="#7E9A2A"/>
</g>
<g opacity="0.7">
<path d="M156.01 83.9212C156.504 84.381 159.285 85.7032 159.991 86.048C160.37 86.2643 160.983 86.5489 161.387 86.7528C161.914 88.1364 162.426 89.9141 162.879 91.3514C161.471 92.7943 159.966 94.5348 158.589 96.0419L148.816 106.788L122.546 135.724L117.524 132.83C117.155 130.943 116.725 128.752 116.43 126.883C116.242 125.695 117.406 122.801 117.839 121.495L120.996 111.923L127.401 92.4672L129.912 84.8844C130.364 83.4986 131.307 80.1657 132.025 78.9658C132.559 78.4702 134.773 76.397 135.339 76.3251C137.092 76.1051 140.546 76.121 142.076 76.8401C143.175 77.4273 144.283 77.9989 145.4 78.5521C145.963 78.8627 146.441 79.11 147.023 79.3858C149.099 80.4876 151.227 81.5042 153.288 82.6143C153.751 82.8597 155.569 83.8583 156.01 83.9212Z" fill="#EC752E"/>
<path d="M160.171 68.3473C161.413 69.204 162.792 70.0216 163.985 70.8819C161.817 73.4624 159.637 76.045 157.445 78.6051C156.244 80.0075 154.661 81.3643 153.289 82.6145C151.228 81.5043 149.1 80.4878 147.024 79.386C149.112 74.5406 151.624 70.2221 154.171 65.609L156.857 66.8804C155.072 70.4413 152.778 74.8006 151.17 78.3714C154.188 75.0467 157.189 71.7051 160.171 68.3473Z" fill="#016839"/>
<path d="M164.421 71.4064C165.806 71.9813 167.97 72.8797 169.284 73.5535L163.374 81.4658C162.313 82.8827 160.962 84.6041 159.992 86.0479C159.286 85.7031 156.505 84.3809 156.011 83.9211C158.703 79.8504 161.638 75.3921 164.421 71.4064Z" fill="#016839"/>
<path d="M150.086 63.0159L151.867 64.3881C149.644 69.356 147.923 73.6987 145.4 78.5523C144.283 77.999 143.175 77.4274 142.077 76.8402C143.645 73.9824 145.393 71.0712 147.031 68.2393C147.885 66.7606 149.179 64.3813 150.086 63.0159Z" fill="#016839"/>
</g>
<g opacity="0.7">
<path d="M613.068 436.017C614.505 437.45 615.931 438.974 617.099 440.637C617.681 441.467 618.169 442.343 618.469 443.315C619.294 445.992 619.356 450.911 618.863 453.667C618.621 455.016 618.1 456.385 617.655 457.68C617.103 459.28 616.516 460.92 615.636 462.372C614.164 464.801 611.371 467.005 609.037 468.612C606.857 470.115 601.399 471.012 598.756 471.022C597.446 471.027 596.148 470.843 594.862 470.605C592.948 470.251 590.857 469.875 589.046 469.161C586.915 468.321 582.691 465.415 581.002 463.787C580.266 463.078 579.629 462.261 579.053 461.419C577.757 459.523 575.533 456.415 574.97 454.256C574.58 452.758 574.516 451.049 574.32 449.504C574.155 448.207 573.843 446.778 574.094 445.48C574.278 444.532 574.648 443.612 574.967 442.702C575.334 441.658 575.665 440.563 576.147 439.567C576.585 438.658 577.183 437.837 577.756 437.009C579.615 434.315 581.305 432.258 584.061 430.406C585.678 429.32 593.24 426.355 595.047 426.415C597.212 426.487 599.365 427.332 601.473 427.753C604.842 429.017 610.531 433.423 613.068 436.017Z" fill="#EC752E"/>
<path d="M614.594 417C615.857 417.911 617.19 418.896 618.481 419.765C617.384 421.824 616.313 423.896 615.267 425.981C614.64 427.212 613.833 428.697 613.274 429.93C615.89 430.265 619.332 430.78 621.911 430.956C618.972 432.658 616.024 434.345 613.068 436.017C610.531 433.423 604.842 429.017 601.473 427.753C601.693 424.826 602.061 421.828 602.327 418.895C604.063 421.101 605.655 423.462 607.34 425.71C607.666 426.144 608.023 426.624 608.321 427.073C610.347 423.69 612.578 420.376 614.594 417Z" fill="#016839"/>
</g>
<g opacity="0.7">
<path d="M1010.48 274.028C1015.99 273.599 1017.09 278.116 1018.51 282.089C1019.6 285.128 1021.22 288.818 1022.95 291.494C1025.2 294.973 1030.47 295.293 1034.31 295.88C1034.04 297.992 1033.91 300.639 1033.76 302.795C1031.24 302.753 1028.49 302.577 1025.96 302.465C1022.33 307.253 1021.11 311.835 1018.12 316.908C1017.3 318.704 1014.25 319.632 1012.4 318.891C1006.84 316.663 1010.19 307.799 1011.4 304.347L1009.88 304.281C1008.52 306.237 1007.02 308.317 1005.76 310.36C1004.42 312.529 1003.24 315.719 1001.63 317.664C1001.04 318.374 998.63 319.899 997.745 320.475C992.499 319.403 988.143 318.249 990.771 311.681C991.914 308.826 992.986 305.705 993.848 302.751C992.828 303.469 991.348 304.265 990.515 305.165C989.744 305.999 989.056 307.474 988.378 308.444C985.654 312.312 983.245 317.781 978.769 319.842C976.317 320.973 972.546 319.381 971.748 316.749C970.921 314.022 971.125 313.407 972.177 310.966C973.54 308.069 974.762 306.619 976.545 304.047C974.174 304.641 969.645 305.28 967.15 305.603C964.822 305.553 961.032 305.45 958.865 304.867C955.94 304.08 954.948 299.59 955.002 297.007C955.05 294.775 954.858 292.24 956.678 290.568C958.428 288.96 961.15 286.736 963.586 286.436C964.63 286.475 966.792 286.832 967.658 287.402C970.691 289.399 973.821 292.826 976.397 295.389C974.459 291.073 968.998 284.473 973.155 279.448C974.278 278.09 976.753 278.17 978.398 278.091C985.237 277.761 985.598 285.47 988.08 289.953C988.695 291.058 990.991 293.07 992.089 294.13C990.849 291.149 986.157 281.804 987.708 279.672C992.748 273.236 999.211 278.752 1001.9 284.191C1003.49 287.422 1004.14 289.512 1007.37 290.914C1006.66 288.83 1006.12 286.615 1005.55 284.492C1004.13 279.198 1004.01 275.342 1010.48 274.028Z" fill="#6B75B6"/>
</g>
</g>
<defs>
<clipPath id="clip0_49_51">
<rect width="1196" height="500" rx="24" fill="white"/>
</clipPath>
</defs>
</svg>
