<svg width="493" height="300" viewBox="0 0 493 300" fill="none" xmlns="http://www.w3.org/2000/svg">
<g clip-path="url(#clip0_334_6318)">
<path d="M110.636 158.715C113.934 157.285 117.784 154.503 121.096 152.743C136.543 144.538 150.727 134.322 165.745 125.421C167.079 124.631 169.036 123.732 170.584 123.875C170.277 126.903 170.639 127.029 173.322 128.46C177.364 128.024 180.138 126.575 182.625 126.218C183.517 127.713 184.905 130.122 186.209 131.26C196.848 139.81 212.159 139.511 225.112 141.826C250.17 146.306 274.595 144.503 299.759 144.448C320.775 144.562 341.792 144.532 362.807 144.357C370.105 144.23 377.389 143.364 384.608 143.296C403.385 143.121 422.232 144.017 441.017 144.174C448.008 144.232 455.365 144.249 462.299 144.536C472.349 145.014 482.378 145.828 492.372 146.976C501.035 147.895 510.413 148.817 518.694 151.438C534.813 156.537 545.142 164.797 553.49 179.66C559.985 191.22 570.178 202.16 578.932 212.179C581.982 215.632 585.837 218.988 589.184 222.183C592.056 224.882 600.442 229.633 602.176 232.262L602.105 232.728C598.445 233.655 586.027 228.745 582.155 227.108C575.059 224.107 569.043 218.284 562.293 214.607C560.624 220.657 560.906 228.822 559.621 235.201C557.779 244.349 556.723 253.771 555.018 262.963C554.396 266.324 552.748 269.881 551.918 273.216C549.307 281.178 547.565 292.229 540.653 297.736C537.999 299.85 525.761 299.786 523.824 296.897C520.944 292.599 528.427 287.862 530.246 284.841C533.053 278.445 533.772 261.317 531.575 254.863C527.917 259.383 526.96 272.554 522.296 277.417C520.53 279.259 509.146 279.401 507.233 277.599C505.083 273.601 512.22 270.645 513.123 267.803C515.092 261.617 514.379 255.088 516.151 248.552C515.438 247.283 515.409 246.33 515.256 244.912C502.311 241.704 491.953 240.891 479.181 238.957C447.465 233.628 415.479 232.403 383.431 231.042C349.178 229.299 314.716 231.245 280.464 232.57C249.067 233.785 217.808 233.322 186.579 237.317C184.021 237.644 170.15 238.325 169.404 238.563C169.248 240.15 168.752 240.964 167.083 241.412C163.819 240.41 159.314 240.065 155.798 238.904C153.086 238.009 150.847 236.296 148.544 235.571C148.411 235.27 148.287 234.965 148.169 234.658C147.676 233.352 147.798 232.925 148.353 231.684C147.613 229.941 144.001 227.989 142.268 227.271C137.77 233.359 137.751 248.899 136.371 256.279C135.394 259.555 134.494 262.271 133.843 265.644C132.901 270.53 133.129 279.922 130.307 283.785C127.222 288.009 116.318 290.906 111.763 287.933C111.193 287.561 110.514 286.591 110.527 285.851C111.018 279.076 117.707 280.773 121.714 276.3C122.823 272.021 122.442 261.018 122.373 256.086C122.05 232.894 120.326 210.164 117.105 187.195C116.533 183.117 116.111 177.653 115.146 173.748C114.883 169.56 110.773 167.669 110.432 163.445C110.326 162.127 110.531 160.071 110.636 158.715Z" fill="#FBAA2A"/>
<path d="M110.636 158.715C113.934 157.285 117.784 154.503 121.096 152.743C136.543 144.538 150.727 134.322 165.745 125.421C167.079 124.631 169.036 123.732 170.584 123.875C170.277 126.903 170.639 127.029 173.322 128.46C177.364 128.024 180.138 126.575 182.625 126.218C183.517 127.713 184.905 130.122 186.209 131.26C184.986 132.425 184.446 134.687 183.488 135.356C178.871 138.58 173.622 140.975 168.736 143.8C153.062 152.895 137.256 161.758 121.32 170.385C119.475 171.401 117.586 172.352 115.409 173.015C115.311 173.288 115.223 173.532 115.146 173.748C114.883 169.56 110.773 167.669 110.432 163.445C110.326 162.127 110.531 160.071 110.636 158.715Z" fill="#F79621"/>
<path d="M148.355 231.684C152.697 233.089 157.046 234.541 161.397 235.908C164.365 236.841 166.354 237.114 169.228 238.481L169.405 238.563C169.249 240.15 168.754 240.964 167.085 241.412C163.82 240.41 159.315 240.065 155.799 238.904C153.088 238.009 150.848 236.295 148.545 235.571C148.413 235.27 148.288 234.965 148.171 234.658C147.678 233.352 147.8 232.925 148.355 231.684Z" fill="#2D1712"/>
<path d="M239.192 167.278C243.456 167.21 243.076 169.865 240.733 172.397C239.05 171.867 237.319 170.795 237.431 168.833C238.032 167.771 238.028 168.002 239.192 167.278Z" fill="#F79621"/>
<path d="M333.53 190.454C335.569 190.375 337.077 191.157 337.517 193.253C337.112 194.156 337.379 193.867 336.522 194.349C334.836 194.392 332.691 194.784 332.078 192.932C332.251 191.885 332.861 191.285 333.53 190.454Z" fill="#F79621"/>
<path d="M291.567 222.178C292.324 221.901 293.172 222.059 293.778 222.591C294.385 223.124 294.652 223.944 294.475 224.731C294.298 225.518 293.706 226.145 292.93 226.367C291.79 226.694 290.595 226.058 290.228 224.93C289.861 223.802 290.453 222.585 291.567 222.178Z" fill="#F79621"/>
<path d="M309.115 156.332C310.485 157.069 311.585 158.177 311.267 159.783C310.693 160.555 309.864 160.584 308.9 160.77C307.645 160.668 307.002 160.832 306.756 159.519C307.184 158.265 308.209 157.319 309.115 156.332Z" fill="#F79621"/>
<path d="M343.677 202.168C345.178 202.217 346.789 202.367 347.352 203.936C346.845 204.97 346.877 204.711 345.689 205.38C344.589 205.744 344.14 205.859 343.11 205.411C342.269 204.547 342.459 204.966 342.312 203.851C342.588 202.871 342.873 202.744 343.677 202.168Z" fill="#F79621"/>
<path d="M160.225 195.019C162.836 196.293 163.225 198.009 161.033 200.041C157.522 199.449 158.503 196.923 160.225 195.019Z" fill="#F79621"/>
<path d="M175.849 143.995C178.633 144.2 179.693 146.695 177.212 148.749C176.173 147.932 174.73 146.984 174.461 145.742C174.788 144.605 174.782 144.885 175.849 143.995Z" fill="#F79621"/>
<path d="M161.225 217.918C162.77 217.863 165.524 218.865 166.059 220.407L165.788 220.922C162.555 223.071 161.283 221.059 161.225 217.918Z" fill="#F79621"/>
<path d="M128.256 169.763C129.305 169.837 129.596 170.087 129.972 170.965C129.894 172.126 128.534 174.463 127.927 175.708L127.289 176.158L126.828 175.938C126.334 174.013 127.226 171.403 128.256 169.763Z" fill="#F79621"/>
<path d="M324.635 178.347C326.824 178.919 325.011 182.965 323.341 183.722C322.087 183.13 321.965 182.995 321.85 181.721C322.274 180.477 323.665 179.311 324.635 178.347Z" fill="#F79621"/>
<path d="M377.635 199.877C379.207 199.814 381.026 199.643 381.759 201.291C381.66 202.11 381.355 202.302 380.771 202.86C379.31 202.837 377.629 202.81 376.676 201.621C376.814 200.508 376.773 200.835 377.635 199.877Z" fill="#F79621"/>
<path d="M316.287 203.035C317.568 203.08 318.634 202.918 318.818 204.355C318.437 205.392 317.437 205.993 316.542 206.669C315.908 207.036 315.499 206.856 314.932 206.603C313.977 204.817 314.817 203.999 316.287 203.035Z" fill="#F79621"/>
<path d="M328.502 184.381C329.599 184.637 330.292 184.646 330.297 185.888C329.67 186.858 328.209 187.587 327.179 188.21C326.006 188.078 326.29 188.287 325.607 187.554C325.349 185.863 327.003 184.677 328.502 184.381Z" fill="#F79621"/>
<path d="M345.543 178.254C347.441 178.275 350.527 179.73 348.624 182.009C348.054 182.008 347.485 181.953 346.925 181.845C345.828 181.624 345.488 181.195 344.957 180.372C344.778 179.423 345.077 179.079 345.543 178.254Z" fill="#F79621"/>
<path d="M361.481 161.119C362.903 161.092 364.652 161.104 364.602 162.976C364.141 163.747 363.695 163.828 362.874 164.144C361.563 164.135 360.117 163.979 359.779 162.523C360.313 161.544 360.345 161.755 361.481 161.119Z" fill="#F79621"/>
<path d="M374.215 164.327C375.679 164.311 377.013 164.349 377.694 165.782C377.298 166.712 377.336 166.485 376.438 167.162C375.599 167.701 375.465 167.801 374.435 167.885C373.555 167.475 373.839 167.754 373.408 166.779C373.455 165.556 373.581 165.389 374.215 164.327Z" fill="#F79621"/>
<path d="M345.219 166.401C346.175 166.39 346.328 166.433 347.237 166.685C348.07 167.488 347.894 167.099 347.994 168.126C347.56 169.143 347.181 169.265 346.222 169.822C344.849 169.589 343.916 169.582 343.605 168.095C343.855 167.224 344.477 166.914 345.219 166.401Z" fill="#F79621"/>
<path d="M458 194.458L459.118 194.662C459.825 195.321 459.667 194.99 459.752 195.889C459.159 197.387 457.968 198.115 456.613 198.861L455.78 198.847L455.416 198.441C455.434 196.878 456.936 195.506 458 194.458Z" fill="#F79621"/>
<path d="M450.83 169.851C451.739 170.004 451.493 169.828 452.036 170.405C451.71 171.956 449.774 173.15 448.466 174.154C447.521 174.066 447.245 173.875 447.066 173.031C447.583 171.632 449.569 170.57 450.83 169.851Z" fill="#F79621"/>
<path d="M483.616 220.696C484.777 220.883 485.566 220.852 486.047 222.004C485.901 222.981 485.018 223.586 484.255 224.289C483.076 224.158 482.125 223.289 481.85 222.156C482.337 221.039 482.243 221.359 483.616 220.696Z" fill="#F79621"/>
<path d="M242.867 191.937C244.181 192.127 245.086 192.017 245.51 193.365C245.317 194.279 244.581 194.656 243.815 195.197C243.045 195.28 242.902 195.223 242.15 195.015C241.329 194.244 241.519 194.629 241.379 193.585C241.897 192.385 241.701 192.755 242.867 191.937Z" fill="#F79621"/>
<path d="M256.848 169.885C258.338 169.823 259.319 169.635 259.834 171.207C259.653 172.199 259.188 172.531 258.468 173.243C257.098 173.297 256.598 172.897 255.977 171.737C256.026 170.501 255.913 170.935 256.848 169.885Z" fill="#F79621"/>
<path d="M317.48 152.201C317.75 152.257 318.02 152.316 318.288 152.378C319.635 152.686 319.918 152.714 320.585 153.781C320.638 154.737 320.237 155.162 319.701 155.94C318.347 155.807 317.468 155.603 316.857 154.25C316.836 152.919 316.757 153.392 317.48 152.201Z" fill="#F79621"/>
<path d="M225.97 220.568C227.173 220.805 227.589 220.989 227.712 222.17C227.355 223.227 226.403 223.881 225.542 224.609L224.331 224.371C223.721 223.641 223.836 223.985 223.86 223.09C224.466 221.84 224.926 221.513 225.97 220.568Z" fill="#F79621"/>
<path d="M460.575 214.345C462.661 214.463 464.368 215.873 463.385 218.078C460.654 218.374 459.419 216.931 460.575 214.345Z" fill="#F79621"/>
<path d="M207.086 184.421C209.134 185.436 210.275 187.081 208.386 188.959C208.057 188.925 207.487 188.805 207.14 188.743C205.647 187.309 206.181 186.057 207.086 184.421Z" fill="#F79621"/>
<path d="M303.65 212.939C305.016 213.021 305.393 213.069 305.918 214.379C305.891 215.497 305.521 215.955 304.948 216.917C304.705 216.856 304.466 216.786 304.228 216.709C303.257 216.393 302.916 216.078 302.502 215.275C302.461 214.357 303.097 213.692 303.65 212.939Z" fill="#F79621"/>
<path d="M335.433 206.817C335.709 207.006 336.055 207.358 336.31 207.596C337.067 209.599 336.384 210.367 334.621 211.307L333.615 210.629C332.749 208.877 334.175 207.95 335.433 206.817Z" fill="#F79621"/>
<path d="M285.137 210.048C286.793 210.07 287.785 209.943 288.945 211.17C289.206 212.07 288.994 212.37 288.627 213.208C286.415 213.882 285.171 212.035 285.137 210.048Z" fill="#F79621"/>
<path d="M252.127 180.879C253.402 180.955 254.998 180.896 255.91 181.77C256.202 182.836 256.154 182.461 255.738 183.618C254.627 183.979 253.692 184.12 252.701 183.35C252.046 182.442 252.125 182.002 252.127 180.879Z" fill="#F79621"/>
<path d="M383.831 169.542C385.127 169.661 386.365 170.394 386.497 171.786L386.072 172.196L385.253 172.139C384.062 172.264 382.549 172.698 381.859 171.598C382.167 170.618 382.989 170.166 383.831 169.542Z" fill="#F79621"/>
<path d="M174.321 216.399C175.688 216.527 176.277 216.696 176.567 218.031C176.375 218.972 175.932 219.203 175.193 219.791C174.718 219.79 174.155 219.747 173.674 219.723C172.833 219.16 173.057 219.48 172.809 218.54C173.074 217.432 173.479 217.17 174.321 216.399Z" fill="#F79621"/>
<path d="M446.707 200.06C447.998 200.08 448.852 200.175 449.603 201.383C449.781 202.33 449.743 202.439 449.297 203.298C447.699 203.19 446.792 203.355 445.909 201.945C445.889 200.999 446.141 200.785 446.707 200.06Z" fill="#F79621"/>
<path d="M401.349 180.002C403.863 180.674 404.329 182.301 402.651 184.249C401.654 183.79 400.75 183.371 400.357 182.287C400.387 181.206 400.715 180.882 401.349 180.002Z" fill="#F79621"/>
<path d="M329.305 212.866C329.704 212.976 330.082 213.203 330.452 213.397C331.569 214.995 330.918 216.057 329.56 217.101C328.304 216.601 328.046 216.603 327.75 215.318C327.973 214.337 328.659 213.655 329.305 212.866Z" fill="#F79621"/>
<path d="M399.727 161.688C400.851 162.19 400.915 162.196 401.297 163.082L401.006 163.699C400.012 164.473 399.616 164.462 398.352 164.62C397.595 164.35 397.477 164.293 396.832 163.813L396.756 163.267C397.334 162.541 398.809 162.062 399.727 161.688Z" fill="#F79621"/>
<path d="M151.66 166.636C152.568 166.45 153.459 167.02 153.669 167.923C153.878 168.826 153.33 169.731 152.432 169.963C151.832 170.118 151.194 169.936 150.767 169.486C150.339 169.036 150.19 168.39 150.375 167.798C150.561 167.206 151.053 166.762 151.66 166.636Z" fill="#F79621"/>
<path d="M354.27 149.384C356.446 149.231 358.951 149.259 358.673 152.012C356.458 152.402 354.668 151.759 354.27 149.384Z" fill="#F79621"/>
<path d="M265.137 180.209C266.41 180.162 267.536 179.886 268.36 180.935C268.307 181.881 267.571 182.417 266.882 183.087C264.697 183.609 264.243 181.752 265.137 180.209Z" fill="#F79621"/>
<path d="M260.565 222.642C262.176 222.779 262.875 222.72 263.755 224.189C263.833 225.113 263.726 225.24 263.237 226.043C262.23 225.714 260.686 225.228 260.072 224.404C259.9 223.371 259.914 223.72 260.565 222.642Z" fill="#F79621"/>
<path d="M297.033 194.272C297.973 194.52 298.777 194.623 299.017 195.617C298.466 196.374 297.52 196.488 296.596 196.728C295.733 196.715 294.897 196.811 294.239 196.271L294.203 195.762C294.929 194.888 295.955 194.649 297.033 194.272Z" fill="#F79621"/>
<path d="M467.234 188.025C468.161 188.279 468.763 188.653 469.162 189.511C468.798 190.783 468.842 190.457 467.798 191.494C466.56 191.153 465.909 191.099 465.58 189.783C465.85 188.845 466.434 188.568 467.234 188.025Z" fill="#F79621"/>
<path d="M306.503 220.533C308.024 220.793 308.46 220.962 308.877 222.444C308.791 223.457 308.419 223.721 307.732 224.444C306.906 223.822 306.031 223.296 305.59 222.38C305.662 221.265 305.683 221.556 306.503 220.533Z" fill="#F79621"/>
<path d="M240.392 208.516C241.513 208.744 242.135 208.937 242.59 209.99C242.206 211.219 242.245 210.904 241.12 211.861L240.28 211.815C239.32 211.21 239.561 211.545 239.262 210.596C239.364 209.501 239.638 209.316 240.392 208.516Z" fill="#F79621"/>
<path d="M265.945 200.265C266.945 200.595 268.208 200.879 268.861 201.656L268.794 202.223L267.922 202.854C266.79 203.511 266.988 203.619 265.846 203.609L265.459 203.027C265.376 201.866 265.596 201.371 265.945 200.265Z" fill="#F79621"/>
<path d="M457.558 157.167L458.359 157.625C459.057 159.457 458.386 160.1 456.79 160.887C455.772 160.309 455.608 160.299 455.361 159.41C455.614 158.557 456.819 157.756 457.558 157.167Z" fill="#F79621"/>
<path d="M248.528 169.916C249.853 169.886 250.912 170.02 251.919 170.923C252.242 171.903 252.247 171.498 251.923 172.45C250.81 172.53 249.203 172.607 248.372 171.749C248.063 170.711 248.122 171.07 248.528 169.916Z" fill="#F79621"/>
<path d="M178.282 227.578C179.674 227.676 179.938 227.687 180.663 228.908C180.693 230.02 180.521 230.175 179.862 231.057C178.905 230.657 177.867 230.355 177.41 229.461C177.505 228.304 177.498 228.622 178.282 227.578Z" fill="#F79621"/>
<path d="M490.749 214.839C491.77 214.714 492.186 214.815 492.785 215.574L492.582 216.247C491.547 217.136 491.787 216.88 490.312 217.185C489.376 217.267 489.124 217.146 488.596 216.515L488.716 215.925C489.605 214.946 489.329 215.234 490.749 214.839Z" fill="#F79621"/>
<path d="M460.301 182.65C461.386 182.918 461.814 183.222 462.316 184.16C462.102 185.253 462.172 184.929 461.342 185.834C460.013 185.895 459.494 186.124 458.986 184.823C459.165 183.811 459.62 183.425 460.301 182.65Z" fill="#F79621"/>
<path d="M138.755 205.024C139.712 205.287 140.187 205.473 140.675 206.219C140.388 207.376 140.261 207.218 139.329 208.207C138.109 208.176 137.58 208.219 137.283 206.943C137.547 205.951 137.973 205.695 138.755 205.024Z" fill="#F79621"/>
<path d="M282.278 172.37C283.219 172.663 283.823 173.09 284.353 173.91C284.438 175.132 284.51 174.69 283.664 175.82C282.316 175.608 281.829 175.649 281.205 174.373C281.285 173.401 281.656 173.098 282.278 172.37Z" fill="#F79621"/>
<path d="M234.503 155.731C235.278 155.462 236.128 155.843 236.444 156.6C236.759 157.358 236.431 158.23 235.695 158.591C235.177 158.845 234.56 158.791 234.094 158.45C233.629 158.109 233.39 157.538 233.476 156.967C233.562 156.396 233.957 155.92 234.503 155.731Z" fill="#F79621"/>
<path d="M246.257 178.119C247.224 178.332 248.425 178.571 248.984 179.386C248.946 180.401 248.999 180.067 248.243 180.969C247.106 180.864 245.927 180.682 245.271 179.643C245.45 178.604 245.347 178.941 246.257 178.119Z" fill="#F79621"/>
<path d="M335.54 172.724C335.904 172.941 335.816 172.972 336.012 173.465C335.608 174.704 334.296 175.297 333.141 175.641C332.39 174.821 332.102 174.41 332.516 173.403C333.396 172.762 334.434 172.809 335.54 172.724Z" fill="#F79621"/>
<path d="M304.847 167.822C305.83 168.025 305.546 167.827 306.072 168.475L305.983 169.062C305.247 170.124 305.025 170.209 303.869 170.821C302.872 170.308 302.434 170.185 302.355 169.102C302.952 168.307 303.88 168.137 304.847 167.822Z" fill="#F79621"/>
<path d="M343.473 196.129C344.215 195.762 345.112 196.053 345.499 196.784C345.887 197.515 345.623 198.42 344.901 198.828C344.417 199.102 343.825 199.091 343.349 198.8C342.877 198.509 342.598 197.983 342.625 197.428C342.651 196.873 342.974 196.375 343.473 196.129Z" fill="#F79621"/>
<path d="M276.363 168.581C277.39 169.138 277.686 169.403 277.73 170.51C277.346 171.356 276.732 171.616 275.939 172.084L275.176 171.917C274.559 171.279 274.692 171.6 274.675 170.717C275.176 169.588 275.431 169.406 276.363 168.581Z" fill="#F79621"/>
<path d="M279.132 163.918C280.821 164.217 282.802 165.107 282.242 167.122C280.627 167.181 278.263 166.01 279.132 163.918Z" fill="#F79621"/>
<path d="M134.55 188.782C135.083 188.65 135.644 188.822 136.01 189.23C136.376 189.638 136.488 190.214 136.3 190.729C136.112 191.244 135.656 191.613 135.113 191.689C134.331 191.799 133.601 191.277 133.451 190.503C133.301 189.728 133.784 188.971 134.55 188.782Z" fill="#F79621"/>
<path d="M330.258 157.744C331.352 157.886 331.883 158.042 332.596 158.872C332.646 159.907 332.763 159.494 332.036 160.42C330.792 160.352 330.085 160.397 329.234 159.539C329.369 158.474 329.431 158.699 330.258 157.744Z" fill="#F79621"/>
<path d="M415.189 172.511C416.577 172.567 417.832 172.647 418.557 173.905L418.231 174.557C416.967 174.859 416.107 175.18 415.043 174.527C414.726 173.768 414.96 173.291 415.189 172.511Z" fill="#F79621"/>
<path d="M390.86 188.689C391.904 189.153 392.151 189.539 392.095 190.595C391.233 191.469 391.541 191.214 390.156 191.439C389.197 190.909 389.115 191.06 388.672 190.232C389.077 189.388 389.96 189.127 390.86 188.689Z" fill="#F79621"/>
<path d="M278.312 220.978C279.564 221.018 280.502 220.887 280.863 222.25C280.303 223.02 280.357 222.829 279.375 223.256C278.324 223.122 277.591 222.922 277.02 221.974L277.246 221.383L278.312 220.978Z" fill="#F79621"/>
<path d="M153.123 192.949L153.957 193.227C154.683 194.059 154.493 193.66 154.685 194.737C154.276 195.694 154.547 195.375 153.654 195.931C152.761 195.641 152.118 195.55 151.572 194.823C151.854 193.77 152.141 193.813 153.123 192.949Z" fill="#F79621"/>
<path d="M429.339 164.192C430.741 164.37 430.911 164.42 431.377 165.648C431.266 166.768 431.096 166.995 430.571 167.974C429.919 167.362 429.503 166.897 428.919 166.232C428.693 165.01 428.696 165.446 429.339 164.192Z" fill="#F79621"/>
<path d="M187.135 149.255C187.845 148.965 188.656 149.295 188.964 149.997C189.272 150.699 188.964 151.519 188.27 151.845C187.804 152.063 187.257 152.012 186.84 151.711C186.423 151.41 186.203 150.906 186.264 150.396C186.325 149.886 186.659 149.449 187.135 149.255Z" fill="#F79621"/>
<path d="M211.832 164.242C212.818 164.39 213.207 164.377 213.956 165.074C214.184 166.072 214.211 165.646 213.667 166.738C212.42 166.763 211.837 166.887 210.961 166.151C211.074 164.982 211.069 165.294 211.832 164.242Z" fill="#F79621"/>
<path d="M387.852 200.385C389.494 200.448 391.254 200.63 391.656 202.428C390.638 202.553 389.271 202.753 388.394 202.271C387.702 201.377 387.901 201.674 387.852 200.385Z" fill="#F79621"/>
<path d="M162.264 189.612C163.944 189.431 166.32 189.624 167.392 191.024C165.147 191.819 163.632 191.609 162.264 189.612Z" fill="#F79621"/>
<path d="M480.173 200.737C481.232 200.697 482.59 200.517 483.479 201.006L483.631 201.55L483.009 202.392C482.039 202.757 481.314 202.916 480.387 202.372C479.903 201.414 479.97 201.845 480.173 200.737Z" fill="#F79621"/>
<path d="M190.374 160.991C191.495 161.022 191.677 161.228 192.364 161.862C192.496 162.99 192.587 162.529 191.912 163.598C190.836 163.596 190.326 163.654 189.592 163.036C189.618 161.872 189.689 162.116 190.374 160.991Z" fill="#F79621"/>
<path d="M475.6 212.345C476.586 212.436 477.454 212.406 478.223 213.013C478.563 213.862 478.522 213.484 478.199 214.531C477.193 214.568 476.237 214.737 475.433 214.183C475.075 213.257 475.195 213.507 475.6 212.345Z" fill="#F79621"/>
<path d="M298.389 218.538C299.317 218.552 300.038 218.458 300.744 219.065C301.138 219.862 300.944 220.312 300.776 221.206C299.727 221.008 299.414 220.992 298.493 220.43C298.023 219.41 298.131 219.779 298.389 218.538Z" fill="#F79621"/>
<path d="M302.135 202.699C303.102 203.001 303.552 203.049 303.962 203.945C303.489 204.827 303.399 204.661 302.365 205.234C301.218 204.775 301.223 204.997 300.723 204.135C301.178 203.156 301.142 203.389 302.135 202.699Z" fill="#F79621"/>
<path d="M186.711 221.138C187.786 221.249 188.151 221.279 188.778 221.959C188.813 222.795 188.307 223.231 187.771 223.872C186.918 224.102 186.681 223.95 186.221 223.361C186.093 222.38 186.325 222.023 186.711 221.138Z" fill="#F79621"/>
<path d="M280.209 185.67C281.369 185.707 282.806 185.73 282.999 187.059L282.434 187.754C281.541 187.825 280.583 187.915 279.871 187.379C279.638 186.444 279.705 186.726 280.209 185.67Z" fill="#F79621"/>
<path d="M309.71 181.208C310.59 181.316 310.997 181.291 311.667 181.902C311.763 182.984 311.653 182.763 310.978 183.887C310.122 183.773 309.672 183.814 309.065 183.225C308.974 182.128 309.083 182.343 309.71 181.208Z" fill="#F79621"/>
<path d="M403.535 194.381C405.38 194.755 407.61 194.739 407.648 196.888C406.287 196.991 403.691 195.856 403.535 194.381Z" fill="#F79621"/>
<path d="M310.638 170.694C311.061 170.453 311.584 170.47 311.991 170.737C312.398 171.005 312.62 171.479 312.566 171.963C312.511 172.447 312.19 172.859 311.734 173.031C311.102 173.268 310.394 172.98 310.107 172.369C309.821 171.757 310.051 171.029 310.638 170.694Z" fill="#F79621"/>
<path d="M298.297 187.382C298.859 186.973 299.645 187.09 300.064 187.645C300.483 188.2 300.38 188.988 299.833 189.417C299.471 189.701 298.982 189.768 298.557 189.591C298.131 189.414 297.834 189.021 297.78 188.563C297.726 188.105 297.924 187.654 298.297 187.382Z" fill="#F79621"/>
<path d="M318.421 169.765C319.434 170.138 319.63 170.184 320.406 170.964C320.638 171.921 320.68 171.513 320.135 172.504C319.23 172.281 318.514 172.196 317.875 171.508C317.807 170.445 317.795 170.791 318.421 169.765Z" fill="#F79621"/>
<path d="M459.515 164.485C460.439 164.581 460.6 164.585 461.419 165.012C461.923 165.933 461.794 165.602 461.662 166.767C460.87 166.921 460.41 167.084 459.638 166.803C459.192 165.852 459.401 165.699 459.515 164.485Z" fill="#F79621"/>
<path d="M390.849 158.081C391.43 157.974 391.999 158.326 392.16 158.894C392.322 159.462 392.028 160.06 391.477 160.277C391.072 160.436 390.612 160.352 390.286 160.059C389.963 159.766 389.834 159.315 389.954 158.895C390.075 158.475 390.421 158.16 390.849 158.081Z" fill="#F79621"/>
<path d="M328.506 198.132C329.653 198.081 329.829 198.097 330.938 198.397C331.797 199.155 331.565 198.764 331.829 199.863C330.172 199.792 328.834 199.982 328.506 198.132Z" fill="#F79621"/>
<path d="M371.903 175.103C372.587 175.32 372.648 175.377 373.065 175.963C372.722 176.985 372.645 176.79 371.636 177.575C370.774 177.408 371.035 177.587 370.539 176.986C370.677 176.191 371.308 175.713 371.903 175.103Z" fill="#F79621"/>
<path d="M424.205 225.791C424.533 225.55 424.964 225.505 425.334 225.675C425.704 225.844 425.95 226.2 425.982 226.605C426.012 227.01 425.821 227.4 425.484 227.623C424.976 227.957 424.298 227.827 423.952 227.33C423.603 226.833 423.718 226.15 424.205 225.791Z" fill="#F79621"/>
<path d="M490.755 158.361C491.095 158.144 491.529 158.133 491.878 158.334C492.23 158.534 492.442 158.913 492.427 159.317C492.415 159.721 492.178 160.084 491.817 160.261C491.295 160.513 490.67 160.317 490.388 159.812C490.107 159.308 490.268 158.671 490.755 158.361Z" fill="#F79621"/>
<path d="M273.451 180.094C273.81 179.934 274.228 179.979 274.544 180.213C274.86 180.447 275.026 180.834 274.977 181.225C274.928 181.615 274.672 181.949 274.307 182.097C273.757 182.321 273.128 182.063 272.895 181.517C272.661 180.97 272.908 180.337 273.451 180.094Z" fill="#F79621"/>
<path d="M313.724 188.852C314.227 188.559 314.871 188.718 315.18 189.211C315.489 189.704 315.352 190.353 314.869 190.678C314.543 190.899 314.122 190.923 313.772 190.743C313.422 190.562 313.198 190.205 313.188 189.812C313.178 189.418 313.383 189.05 313.724 188.852Z" fill="#F79621"/>
<path d="M249.363 158.458C250.223 158.438 250.701 158.365 251.495 158.736C251.811 159.614 251.715 159.356 251.312 160.431C250.631 160.341 250.258 160.175 249.628 159.943C249.093 159.197 249.2 159.569 249.363 158.458Z" fill="#F79621"/>
<path d="M206.77 204.509C207.314 204.55 208.067 204.713 208.621 204.815C209.505 205.53 209.254 205.138 209.511 206.336C208.652 206.376 208.439 206.325 207.593 206.147C206.792 205.398 207.026 205.691 206.77 204.509Z" fill="#F79621"/>
<path d="M354.652 170.283C355.101 169.98 355.705 170.075 356.042 170.499C356.377 170.923 356.33 171.534 355.931 171.901C355.646 172.165 355.238 172.246 354.872 172.112C354.508 171.978 354.25 171.651 354.203 171.265C354.156 170.879 354.329 170.5 354.652 170.283Z" fill="#F79621"/>
<path d="M189.884 177.492C190.166 177.237 190.567 177.16 190.924 177.294C191.28 177.427 191.533 177.747 191.579 178.125C191.625 178.503 191.457 178.875 191.143 179.09C190.7 179.394 190.098 179.302 189.766 178.88C189.434 178.459 189.485 177.852 189.884 177.492Z" fill="#F79621"/>
<path d="M180.211 211.499C180.456 211.264 180.812 211.185 181.133 211.294C181.455 211.403 181.689 211.682 181.741 212.017C181.792 212.353 181.653 212.689 181.379 212.89C180.992 213.173 180.453 213.107 180.144 212.74C179.837 212.374 179.866 211.831 180.211 211.499Z" fill="#F79621"/>
<path d="M479.543 227.449C480.37 227.356 480.581 227.361 481.409 227.449L481.708 227.861L481.526 228.857C480.138 228.748 479.848 228.875 479.543 227.449Z" fill="#F79621"/>
<path d="M42.7597 119.685C43.8901 119.53 45.0845 117.593 46.1919 116.761C50.1944 113.625 54.2349 110.544 58.2642 107.432C71.2322 97.4165 86.4343 90.535 99.4469 80.7688C107.966 74.3752 113.285 68.4667 124.936 70.7964C127.015 74.856 128.613 74.5057 132.849 74.8166C137.155 76.5881 140.271 78.4849 142.411 82.9437C138.236 91.2921 147.787 96.4376 154.663 97.3373C162.32 103.225 166.692 111.631 172.806 118.981C173.606 119.942 174.939 121.361 176.172 121.656C174.142 122.513 172.524 122.792 170.586 123.875C169.039 123.732 167.081 124.631 165.748 125.421C150.729 134.322 136.545 144.537 121.098 152.743C117.787 154.503 113.936 157.285 110.638 158.715C108.948 150.832 101.77 149.181 95.4492 146.573C80.0811 140.233 63.7714 138.275 47.9322 133.542C45.4507 132.8 43.1268 131.874 40.6163 131.181C38.1278 131.294 35.7458 131.368 33.6203 129.665C29.6708 126.5 30.6549 116.109 36.5877 115.914C39.0095 115.834 41.1321 118.018 42.7597 119.685Z" fill="#FBAA2A"/>
<path d="M40.6163 131.181C38.1278 131.294 35.7458 131.368 33.6203 129.665C29.6708 126.5 30.6549 116.109 36.5877 115.914C39.0095 115.834 41.1321 118.018 42.7597 119.685C44.0667 124.223 43.6878 127.388 40.6163 131.181Z" fill="black"/>
<path d="M126.479 97.6096C127.721 97.8047 127.424 97.5774 128.218 98.3617C129.652 102.719 126.119 111.097 122.346 113.66C118.405 116.337 114.268 115.582 111.813 111.418C110.74 109.597 110.517 108.079 110.012 106.062C109.62 104.445 109.701 102.647 109.694 100.97C110.495 100.121 111.573 98.8906 112.694 98.6797C114.86 99.9634 114.893 107.702 117.097 109.024C120.414 111.014 125.239 99.8945 126.479 97.6096Z" fill="#2D1712"/>
<path d="M88.4275 93.2534C93.7517 93.9293 92.3648 100.72 95.7552 103.825C96.2756 104.302 97.065 104.771 97.7878 104.741C100.566 102.532 102.85 93.809 105.679 93.7263C106.735 94.7888 106.1 98.1337 105.842 99.506C102.561 116.029 88.1993 110.17 87.4044 96.7492C87.3096 95.1484 87.3334 94.4324 88.4275 93.2534Z" fill="#2D1712"/>
<path d="M133.209 133.392C136.265 133.454 138.245 137.614 136.333 139.449C135.384 139.628 135.136 139.47 134.271 139.116C132.731 138.543 130.191 137.8 129.961 136.101C130.463 135.034 132.164 134.095 133.209 133.392Z" fill="#F79621"/>
<path d="M147.94 118.879C149.515 118.973 151.421 119.03 151.715 120.886C151.47 121.725 150.796 122.062 150.075 122.554C149.046 122.912 149.317 122.797 148.128 122.539C147.135 121.659 147.433 122.05 146.99 120.821C147.184 119.559 147.097 119.952 147.94 118.879Z" fill="#F79621"/>
<path d="M89.4779 113.419C91.147 113.339 92.8795 112.932 94.0188 114.28C94.0267 115.459 94.0734 115.061 93.4624 116.139C91.6912 116.413 90.2957 116.687 89.0423 115.182C89.0097 113.979 88.8886 114.442 89.4779 113.419Z" fill="#F79621"/>
<path d="M92.1587 123.726C92.8489 123.78 92.9495 123.842 93.6054 124.094C95.0056 125.587 94.4749 126.987 93.3546 128.395C91.7618 127.944 91.2924 127.944 90.8574 126.288C91.0487 125.094 91.4297 124.709 92.1587 123.726Z" fill="#F79621"/>
<path d="M118.701 136.99C120.041 137.104 121.257 137.334 121.377 138.771C121.039 139.735 120.162 140.089 119.257 140.623C118.346 140.774 117.66 140.319 117.066 139.725C116.771 138.126 117.601 137.832 118.701 136.99Z" fill="#F79621"/>
<path d="M105.888 131.181C106.89 131.208 107.132 131.265 107.84 131.784L107.912 132.383C107.411 133.571 106.473 134.197 105.478 135.01C104.851 135.241 104.484 135.064 103.984 134.769C103.279 132.702 104.145 132.031 105.888 131.181Z" fill="#F79621"/>
<path d="M83.6836 130.812C84.9845 131.274 85.722 131.355 85.9479 132.796C85.2339 134.002 85.294 133.714 83.9446 134.514C82.4785 134.376 81.9517 133.776 81.9473 132.44C82.2875 131.517 82.8428 131.302 83.6836 130.812Z" fill="#F79621"/>
<path d="M141.956 133.096C142.482 132.791 143.136 132.809 143.645 133.141C144.155 133.473 144.434 134.064 144.367 134.669C144.3 135.274 143.899 135.789 143.329 136.003C142.543 136.297 141.664 135.939 141.305 135.181C140.947 134.423 141.23 133.516 141.956 133.096Z" fill="#F79621"/>
<path d="M103.801 122.869C104.861 123.189 105.431 123.446 105.973 124.338C105.68 125.423 105.741 125.112 104.618 125.91C103.503 126.005 103.181 125.829 102.693 124.927C102.963 123.559 102.836 123.994 103.801 122.869Z" fill="#F79621"/>
<path d="M148.499 113.208C149.689 113.274 150.37 113.462 151.275 114.199C151.689 115.168 151.654 114.735 151.317 115.849C150.268 115.979 149.178 116.003 148.397 115.175C148.065 114.071 148.143 114.432 148.499 113.208Z" fill="#F79621"/>
<path d="M150.792 107.544C151.812 108.062 152.108 108.148 152.73 109.118C152.863 110.358 152.937 109.858 152.432 111.012C151.169 110.924 150.846 110.843 150.176 109.851C150.048 108.902 150.382 108.396 150.792 107.544Z" fill="#F79621"/>
<path d="M103.944 143.671C105.093 143.785 105.806 144.059 106.627 144.854C106.902 145.817 106.936 145.397 106.356 146.448C105.472 146.7 104.953 146.682 104.21 146.113C103.652 145.16 103.796 144.769 103.944 143.671Z" fill="#F79621"/>
<path d="M138.32 122.65C138.624 122.285 139.107 122.121 139.57 122.225C140.033 122.329 140.399 122.684 140.517 123.144C140.635 123.605 140.486 124.092 140.13 124.407C139.635 124.844 138.886 124.827 138.411 124.366C137.937 123.906 137.897 123.158 138.32 122.65Z" fill="#F79621"/>
<path d="M70.1007 115.569C70.4862 115.111 71.17 115.05 71.6299 115.434C72.0902 115.818 72.1532 116.501 71.7713 116.963C71.3873 117.427 70.6992 117.49 70.2366 117.105C69.7742 116.719 69.7132 116.03 70.1007 115.569Z" fill="#F79621"/>
<path d="M176.173 121.656C181.643 121.59 198.99 115.879 205.274 114.083L265.075 96.8026L432.209 48.6782C470.311 37.071 508.533 25.871 546.873 15.0805C554.2 13.0162 594.485 0.579866 599.281 2.40608L599.648 2.92909C598.668 5.21824 583.094 9.37071 579.997 10.2996L562.678 15.6582C554.186 18.2298 545.254 21.3263 536.791 23.7709L495.08 35.5934C490.363 36.8985 485.163 37.9924 480.569 39.3218L309.549 89.2916L230.722 111.898C214.952 116.445 198.1 121.015 182.628 126.218C180.142 126.575 177.367 128.024 173.325 128.46C170.643 127.029 170.281 126.903 170.587 123.875C172.525 122.792 174.143 122.513 176.173 121.656Z" fill="black"/>
<path d="M142.408 82.9436C153.019 83.7163 163.708 81.2038 173.855 82.5429C188.599 84.4889 206.966 87.1586 219.297 95.8204L217.068 99.0566C213.626 99.9401 211.067 99.6846 207.532 99.5957C205.421 99.9533 202.478 99.8102 200.352 99.6025C197.622 99.4819 194.841 99.8263 192.396 99.7312C187.294 99.5332 182.163 99.5966 177.101 99.4502C170.113 99.2481 161.483 97.0392 154.66 97.3373C147.784 96.4376 138.234 91.2921 142.408 82.9436Z" fill="#0A794A"/>
<path d="M200.351 99.6027C199.907 98.1274 200.429 96.2562 201.714 95.3647C203.272 95.9837 203.639 97.8312 204.507 99.1547C204.751 99.5258 206.925 99.5669 207.531 99.5959C205.42 99.9535 202.476 99.8103 200.351 99.6027Z" fill="#00673A"/>
<path d="M148.546 235.571C150.849 236.295 153.089 238.009 155.8 238.904C159.316 240.065 163.821 240.41 167.086 241.412C166.867 242.053 166.525 246.477 166.165 248.025C164.71 254.294 163.052 260.202 161.652 266.52C160.039 273.8 159.581 281.853 155.465 288.28C153.227 290.07 140.566 290.17 139.365 288.025C135.7 281.48 145.465 280.361 146.158 277.291C149.129 264.123 146.221 248.53 148.546 235.571Z" fill="#FBAA2A"/>
<path d="M125.886 68.6093C135.305 64.1796 147.195 62.6434 157.132 59.7939C168.179 56.6258 177.068 57.5604 188.402 58.7721C192.36 59.1951 202.496 62.9071 193.699 66.7548C177.366 72.9757 160.072 71.851 143.056 74.0297C140.67 74.3312 134.589 74.1341 132.846 74.8167C128.61 74.5058 127.012 74.856 124.934 70.7965C125.218 70.0493 125.467 69.2837 125.886 68.6093Z" fill="#0A794A"/>
<path d="M7.02148 27.0684C11.3212 26.6449 15.6588 27.289 19.6504 28.9424C23.642 30.5958 27.1644 33.208 29.9053 36.5479C32.6461 39.8876 34.5213 43.8514 35.3643 48.0889C35.4433 48.4863 35.5099 48.8856 35.5703 49.2852C32.4876 50.5964 29.0965 51.3232 25.5352 51.3232C12.403 51.3232 1.5758 41.4594 0.0566406 28.7363C2.28316 27.8686 4.62563 27.3043 7.02148 27.0684ZM16.2354 1.7373C17.0046 3.14989 17.9069 4.49288 18.9346 5.74512C21.6117 9.00716 25.0524 11.5589 28.9512 13.1738C32.8498 14.7886 37.0866 15.4165 41.2861 15.0029C43.62 14.7731 45.9018 14.2236 48.0713 13.3799C50.0636 17.0279 51.1963 21.2127 51.1963 25.6621C51.1962 34.2582 46.9689 41.8656 40.4805 46.5225C39.4189 41.6235 37.2106 37.0438 34.0273 33.165C30.7302 29.1474 26.4932 26.0046 21.6914 24.0156C16.8897 22.0267 11.6714 21.2523 6.49902 21.7617C4.28335 21.9799 2.10568 22.4324 0 23.1035C0.967508 13.3288 7.41885 5.16676 16.2354 1.7373ZM25.5352 0C33.6602 8.037e-05 40.9026 3.77686 45.6045 9.66992C44.0731 10.1878 42.4832 10.5347 40.8623 10.6943C37.3711 11.0382 33.8485 10.5163 30.6074 9.17383C27.3664 7.83132 24.5068 5.70983 22.2812 2.99805C21.6296 2.20405 21.0394 1.36596 20.5117 0.492188C22.1362 0.169798 23.816 0 25.5352 0Z" fill="#B54545"/>
</g>
<defs>
<clipPath id="clip0_334_6318">
<rect width="493.114" height="300" fill="white"/>
</clipPath>
</defs>
</svg>
