<svg width="1440" height="852" viewBox="0 0 1440 852" fill="none" xmlns="http://www.w3.org/2000/svg">
<g clip-path="url(#clip0_46_294)">
<rect width="1440" height="852" fill="#0F3934"/>
<g opacity="0.1" clip-path="url(#clip1_46_294)">
<line x1="15.0966" y1="-302.38" x2="15.0966" y2="1154.77" stroke="white" stroke-opacity="0.5" stroke-width="1.61906"/>
<line x1="238.14" y1="-473.773" x2="-170.418" y2="924.931" stroke="white" stroke-opacity="0.5" stroke-width="1.61906"/>
<line x1="70.1455" y1="-302.38" x2="70.1454" y2="1154.77" stroke="white" stroke-opacity="0.5" stroke-width="1.61906"/>
<line x1="290.98" y1="-458.337" x2="-117.579" y2="940.366" stroke="white" stroke-opacity="0.5" stroke-width="1.61906"/>
<line x1="125.194" y1="-302.38" x2="125.194" y2="1154.77" stroke="white" stroke-opacity="0.5" stroke-width="1.61906"/>
<line x1="343.818" y1="-442.904" x2="-64.7408" y2="955.8" stroke="white" stroke-opacity="0.5" stroke-width="1.61906"/>
<line x1="1588.9" y1="49.8171" x2="190.2" y2="-358.742" stroke="white" stroke-opacity="0.5" stroke-width="1.61906"/>
<line x1="180.243" y1="-302.38" x2="180.243" y2="1154.77" stroke="white" stroke-opacity="0.5" stroke-width="1.61906"/>
<line x1="396.658" y1="-427.47" x2="-11.9009" y2="971.233" stroke="white" stroke-opacity="0.5" stroke-width="1.61906"/>
<line x1="1573.47" y1="102.658" x2="174.767" y2="-305.901" stroke="white" stroke-opacity="0.5" stroke-width="1.61906"/>
<line x1="235.288" y1="-302.38" x2="235.288" y2="1154.77" stroke="white" stroke-opacity="0.5" stroke-width="1.61906"/>
<line x1="449.498" y1="-412.036" x2="40.9389" y2="986.668" stroke="white" stroke-opacity="0.5" stroke-width="1.61906"/>
<line x1="1558.04" y1="155.497" x2="159.333" y2="-253.062" stroke="white" stroke-opacity="0.5" stroke-width="1.61906"/>
<line x1="290.337" y1="-302.38" x2="290.337" y2="1154.77" stroke="white" stroke-opacity="0.5" stroke-width="1.61906"/>
<line x1="502.34" y1="-396.601" x2="93.7807" y2="1002.1" stroke="white" stroke-opacity="0.5" stroke-width="1.61906"/>
<line x1="1542.6" y1="208.338" x2="143.897" y2="-200.221" stroke="white" stroke-opacity="0.5" stroke-width="1.61906"/>
<line x1="345.386" y1="-302.38" x2="345.386" y2="1154.77" stroke="white" stroke-opacity="0.5" stroke-width="1.61906"/>
<line x1="555.179" y1="-381.166" x2="146.621" y2="1017.54" stroke="white" stroke-opacity="0.5" stroke-width="1.61906"/>
<line x1="1458.49" y1="41.6709" x2="1.33411" y2="41.6708" stroke="white" stroke-opacity="0.5" stroke-width="1.61906"/>
<line x1="1527.17" y1="261.177" x2="128.464" y2="-147.381" stroke="white" stroke-opacity="0.5" stroke-width="1.61906"/>
<line x1="400.435" y1="-302.38" x2="400.434" y2="1154.77" stroke="white" stroke-opacity="0.5" stroke-width="1.61906"/>
<line x1="608.019" y1="-365.732" x2="199.46" y2="1032.97" stroke="white" stroke-opacity="0.5" stroke-width="1.61906"/>
<line x1="1458.49" y1="96.7187" x2="1.33411" y2="96.7186" stroke="white" stroke-opacity="0.5" stroke-width="1.61906"/>
<line x1="1511.73" y1="314.017" x2="113.028" y2="-94.5415" stroke="white" stroke-opacity="0.5" stroke-width="1.61906"/>
<line x1="455.483" y1="-302.38" x2="455.483" y2="1154.77" stroke="white" stroke-opacity="0.5" stroke-width="1.61906"/>
<line x1="660.859" y1="-350.297" x2="252.3" y2="1048.41" stroke="white" stroke-opacity="0.5" stroke-width="1.61906"/>
<line x1="1458.49" y1="151.767" x2="1.33411" y2="151.766" stroke="white" stroke-opacity="0.5" stroke-width="1.61906"/>
<line x1="1496.3" y1="366.857" x2="97.5946" y2="-41.7017" stroke="white" stroke-opacity="0.5" stroke-width="1.61906"/>
<line x1="510.53" y1="-302.38" x2="510.53" y2="1154.77" stroke="white" stroke-opacity="0.5" stroke-width="1.61906"/>
<line x1="713.699" y1="-334.863" x2="305.14" y2="1063.84" stroke="white" stroke-opacity="0.5" stroke-width="1.61906"/>
<line x1="1458.49" y1="206.815" x2="1.33411" y2="206.815" stroke="white" stroke-opacity="0.5" stroke-width="1.61906"/>
<line x1="1480.86" y1="419.697" x2="82.1591" y2="11.1381" stroke="white" stroke-opacity="0.5" stroke-width="1.61906"/>
<line x1="565.577" y1="-302.38" x2="565.577" y2="1154.77" stroke="white" stroke-opacity="0.5" stroke-width="1.61906"/>
<line x1="766.541" y1="-319.427" x2="357.982" y2="1079.28" stroke="white" stroke-opacity="0.5" stroke-width="1.61906"/>
<line x1="1458.49" y1="261.863" x2="1.33411" y2="261.863" stroke="white" stroke-opacity="0.5" stroke-width="1.61906"/>
<line x1="1465.43" y1="472.537" x2="66.7255" y2="63.978" stroke="white" stroke-opacity="0.5" stroke-width="1.61906"/>
<line x1="620.626" y1="-302.38" x2="620.626" y2="1154.77" stroke="white" stroke-opacity="0.5" stroke-width="1.61906"/>
<line x1="819.381" y1="-303.994" x2="410.822" y2="1094.71" stroke="white" stroke-opacity="0.5" stroke-width="1.61906"/>
<line x1="1458.49" y1="316.911" x2="1.33411" y2="316.911" stroke="white" stroke-opacity="0.5" stroke-width="1.61906"/>
<line x1="1450" y1="525.378" x2="51.2919" y2="116.819" stroke="white" stroke-opacity="0.5" stroke-width="1.61906"/>
<line x1="675.675" y1="-302.38" x2="675.675" y2="1154.77" stroke="white" stroke-opacity="0.5" stroke-width="1.61906"/>
<line x1="872.218" y1="-288.56" x2="463.66" y2="1110.14" stroke="white" stroke-opacity="0.5" stroke-width="1.61906"/>
<line x1="1458.49" y1="371.959" x2="1.33411" y2="371.959" stroke="white" stroke-opacity="0.5" stroke-width="1.61906"/>
<line x1="1434.56" y1="578.217" x2="35.8564" y2="169.659" stroke="white" stroke-opacity="0.5" stroke-width="1.61906"/>
<line x1="730.722" y1="-302.38" x2="730.722" y2="1154.77" stroke="white" stroke-opacity="0.5" stroke-width="1.61906"/>
<line x1="925.058" y1="-273.126" x2="516.499" y2="1125.58" stroke="white" stroke-opacity="0.5" stroke-width="1.61906"/>
<line x1="1458.49" y1="427.008" x2="1.33411" y2="427.008" stroke="white" stroke-opacity="0.5" stroke-width="1.61906"/>
<line x1="1419.12" y1="631.057" x2="20.4208" y2="222.499" stroke="white" stroke-opacity="0.5" stroke-width="1.61906"/>
<line x1="785.77" y1="-302.38" x2="785.77" y2="1154.77" stroke="white" stroke-opacity="0.5" stroke-width="1.61906"/>
<line x1="977.898" y1="-257.69" x2="569.339" y2="1141.01" stroke="white" stroke-opacity="0.5" stroke-width="1.61906"/>
<line x1="1458.49" y1="482.056" x2="1.33411" y2="482.056" stroke="white" stroke-opacity="0.5" stroke-width="1.61906"/>
<line x1="1403.69" y1="683.898" x2="4.98722" y2="275.339" stroke="white" stroke-opacity="0.5" stroke-width="1.61906"/>
<line x1="840.819" y1="-302.38" x2="840.819" y2="1154.77" stroke="white" stroke-opacity="0.5" stroke-width="1.61906"/>
<line x1="1030.74" y1="-242.256" x2="622.179" y2="1156.45" stroke="white" stroke-opacity="0.5" stroke-width="1.61906"/>
<line x1="1458.49" y1="537.103" x2="1.33411" y2="537.103" stroke="white" stroke-opacity="0.5" stroke-width="1.61906"/>
<line x1="1388.26" y1="736.737" x2="-10.4464" y2="328.178" stroke="white" stroke-opacity="0.5" stroke-width="1.61906"/>
<line x1="895.866" y1="-302.38" x2="895.866" y2="1154.77" stroke="white" stroke-opacity="0.5" stroke-width="1.61906"/>
<line x1="1083.58" y1="-226.822" x2="675.021" y2="1171.88" stroke="white" stroke-opacity="0.5" stroke-width="1.61906"/>
<line x1="1458.49" y1="592.151" x2="1.33411" y2="592.151" stroke="white" stroke-opacity="0.5" stroke-width="1.61906"/>
<line x1="1372.82" y1="789.578" x2="-25.88" y2="381.019" stroke="white" stroke-opacity="0.5" stroke-width="1.61906"/>
<line x1="950.913" y1="-302.38" x2="950.913" y2="1154.77" stroke="white" stroke-opacity="0.5" stroke-width="1.61906"/>
<line x1="1136.42" y1="-211.387" x2="727.861" y2="1187.32" stroke="white" stroke-opacity="0.5" stroke-width="1.61906"/>
<line x1="1458.49" y1="647.199" x2="1.33411" y2="647.199" stroke="white" stroke-opacity="0.5" stroke-width="1.61906"/>
<line x1="1357.39" y1="842.417" x2="-41.3175" y2="433.858" stroke="white" stroke-opacity="0.5" stroke-width="1.61906"/>
<line x1="1005.96" y1="-302.38" x2="1005.96" y2="1154.77" stroke="white" stroke-opacity="0.5" stroke-width="1.61906"/>
<line x1="1189.26" y1="-195.953" x2="780.701" y2="1202.75" stroke="white" stroke-opacity="0.5" stroke-width="1.61906"/>
<line x1="1458.49" y1="702.248" x2="1.33411" y2="702.248" stroke="white" stroke-opacity="0.5" stroke-width="1.61906"/>
<line x1="1341.95" y1="895.258" x2="-56.7511" y2="486.699" stroke="white" stroke-opacity="0.5" stroke-width="1.61906"/>
<line x1="1061.01" y1="-302.38" x2="1061.01" y2="1154.77" stroke="white" stroke-opacity="0.5" stroke-width="1.61906"/>
<line x1="1242.1" y1="-180.518" x2="833.54" y2="1218.19" stroke="white" stroke-opacity="0.5" stroke-width="1.61906"/>
<line x1="1458.49" y1="757.296" x2="1.33411" y2="757.296" stroke="white" stroke-opacity="0.5" stroke-width="1.61906"/>
<line x1="1326.52" y1="948.097" x2="-72.1847" y2="539.539" stroke="white" stroke-opacity="0.5" stroke-width="1.61906"/>
<line x1="1116.06" y1="-302.38" x2="1116.06" y2="1154.77" stroke="white" stroke-opacity="0.5" stroke-width="1.61906"/>
<line x1="1294.94" y1="-165.084" x2="886.378" y2="1233.62" stroke="white" stroke-opacity="0.5" stroke-width="1.61906"/>
<line x1="1458.49" y1="812.344" x2="1.33411" y2="812.344" stroke="white" stroke-opacity="0.5" stroke-width="1.61906"/>
<line x1="1311.09" y1="1000.94" x2="-87.6182" y2="592.378" stroke="white" stroke-opacity="0.5" stroke-width="1.61906"/>
<line x1="1171.11" y1="-302.38" x2="1171.11" y2="1154.77" stroke="white" stroke-opacity="0.5" stroke-width="1.61906"/>
<line x1="1347.78" y1="-149.649" x2="939.222" y2="1249.05" stroke="white" stroke-opacity="0.5" stroke-width="1.61906"/>
<line x1="1295.65" y1="1053.78" x2="-103.052" y2="645.218" stroke="white" stroke-opacity="0.5" stroke-width="1.61906"/>
<line x1="1226.15" y1="-302.38" x2="1226.15" y2="1154.77" stroke="white" stroke-opacity="0.5" stroke-width="1.61906"/>
<line x1="1400.62" y1="-134.214" x2="992.06" y2="1264.49" stroke="white" stroke-opacity="0.5" stroke-width="1.61906"/>
<line x1="1280.21" y1="1106.62" x2="-118.489" y2="698.059" stroke="white" stroke-opacity="0.5" stroke-width="1.61906"/>
<line x1="1281.2" y1="-302.38" x2="1281.2" y2="1154.77" stroke="white" stroke-opacity="0.5" stroke-width="1.61906"/>
<line x1="1453.46" y1="-118.78" x2="1044.9" y2="1279.92" stroke="white" stroke-opacity="0.5" stroke-width="1.61906"/>
<line x1="1264.78" y1="1159.46" x2="-133.923" y2="750.9" stroke="white" stroke-opacity="0.5" stroke-width="1.61906"/>
<line x1="1336.25" y1="-302.38" x2="1336.25" y2="1154.77" stroke="white" stroke-opacity="0.5" stroke-width="1.61906"/>
<line x1="1506.3" y1="-103.345" x2="1097.74" y2="1295.36" stroke="white" stroke-opacity="0.5" stroke-width="1.61906"/>
<line x1="1249.35" y1="1212.3" x2="-149.357" y2="803.739" stroke="white" stroke-opacity="0.5" stroke-width="1.61906"/>
<line x1="1391.3" y1="-302.38" x2="1391.3" y2="1154.77" stroke="white" stroke-opacity="0.5" stroke-width="1.61906"/>
<line x1="1559.14" y1="-87.9117" x2="1150.58" y2="1310.79" stroke="white" stroke-opacity="0.5" stroke-width="1.61906"/>
<line x1="1611.98" y1="-72.4771" x2="1203.42" y2="1326.23" stroke="white" stroke-opacity="0.5" stroke-width="1.61906"/>
</g>
</g>
<defs>
<clipPath id="clip0_46_294">
<rect width="1440" height="852" fill="white"/>
</clipPath>
<clipPath id="clip1_46_294">
<rect width="1800" height="1800" fill="white" transform="translate(-180 -474)"/>
</clipPath>
</defs>
</svg>
