<svg width="1440" height="273" viewBox="0 0 1440 273" fill="none" xmlns="http://www.w3.org/2000/svg">
<g clip-path="url(#clip0_45_50)">
<path d="M1053.7 14.7913C1058.17 5.76103 1067.91 4.16894 1076.48 7.54932C1078.55 8.36264 1082.72 10.0818 1084.72 10.119C1089.36 10.141 1093.68 8.05792 1098.38 8.04628C1106.59 8.02582 1105.98 15.0549 1110.19 19.6404C1112.88 22.5749 1117.29 23.4924 1120.12 26.2898C1124.91 31.0456 1119.75 36.9515 1120.85 42.359C1121.25 43.6438 1122.27 44.9426 1123.05 45.9944C1127.29 51.6803 1130.78 57.868 1124.59 63.7736C1126.69 64.453 1131.47 65.3398 1133.97 65.9212C1136.75 66.5657 1140.48 67.7024 1143.09 68.2239C1143.59 66.7578 1144.11 65.171 1145.15 63.9784C1148.33 60.3497 1152 57.8494 1155.18 54.1615C1163.74 44.2652 1169.79 32.5506 1181.98 26.4776C1192.32 21.3324 1205.2 22.2155 1215.99 25.7735C1230.6 31.3971 1247.58 44.8301 1254.31 58.9466C1256.17 62.8696 1257.58 66.9914 1258.52 71.2326C1260.01 77.9695 1259.98 81.1501 1262.75 88.1151C1266.71 98.2358 1274.52 106.147 1277.24 116.815C1279.52 125.712 1277.22 133.237 1275.39 141.782C1273.45 150.872 1273.83 161.612 1278.45 169.833C1283.2 178.302 1288.55 186.112 1284.66 196.172C1279.61 209.641 1263.78 220.416 1251.12 226.292C1242.86 230.126 1233.58 233.073 1224.46 232.965C1222.77 238.819 1220.31 244.289 1214.79 247.427C1211.15 249.488 1207.52 248.491 1205.05 245.238C1186.43 257.351 1146.52 260.749 1124.39 260.12C1084.88 258.996 1040.82 248.634 1012.71 218.994C994.125 199.399 985.276 172.829 986.046 146.057C986.474 124.655 995.309 104.281 1010.64 89.3443C1012.99 87.0226 1015.01 85.1887 1017.6 83.1622C1018.86 82.1793 1021.91 79.9996 1022.91 79.0282L1023.14 78.7969C1021.59 77.6552 1019.85 75.9135 1019.81 73.8347C1019.83 68.5536 1025.99 66.8819 1028.08 62.7971C1028.4 61.9239 1028.47 60.7139 1028.47 59.8074C1028.53 42.6119 1031.13 15.7011 1053.7 14.7913Z" fill="#0A2623"/>
<path d="M1053.7 14.7913C1058.17 5.76103 1067.91 4.16894 1076.48 7.54932C1078.55 8.36264 1082.72 10.0818 1084.72 10.119C1089.36 10.141 1093.68 8.05792 1098.38 8.04628C1106.59 8.02582 1105.98 15.0549 1110.19 19.6404C1112.88 22.5749 1117.29 23.4924 1120.12 26.2898C1124.91 31.0456 1119.75 36.9515 1120.85 42.359C1121.25 43.6438 1122.27 44.9426 1123.05 45.9944C1127.29 51.6803 1130.78 57.868 1124.59 63.7736C1119.94 67.2396 1117.07 68.7701 1111.65 65.4156C1107.39 72.6202 1104.91 80.7355 1104.42 89.0891C1102.23 99.4223 1097.85 106.596 1088.89 112.67C1086.77 114.106 1084.13 115.219 1081.77 116.288C1079.65 122.314 1078.34 127.947 1077.98 134.353C1077.6 140.984 1077.9 148.317 1076.39 154.796C1075.06 160.523 1071.86 166.487 1068.75 171.487C1072.36 174.359 1075.72 177.459 1079.48 180.405C1086.14 185.542 1093.22 190.119 1100.64 194.088C1102.07 194.854 1107.28 197.518 1108.71 197.912C1109.79 198.919 1119.44 202.456 1121.29 203.115C1140.3 209.875 1160.13 213.065 1180.23 214.293C1184.54 214.532 1188.85 214.686 1193.17 214.757C1196.15 214.785 1199.38 214.592 1202.31 215.025C1206.65 221.771 1205.44 237.108 1205.05 245.238C1186.43 257.351 1146.52 260.749 1124.39 260.12C1084.88 258.996 1040.82 248.634 1012.71 218.994C994.125 199.399 985.276 172.829 986.046 146.057C986.474 124.655 995.309 104.281 1010.64 89.3443C1012.99 87.0226 1015.01 85.1887 1017.6 83.1622C1018.86 82.1793 1021.91 79.9996 1022.91 79.0282L1023.14 78.7969C1021.59 77.6552 1019.85 75.9135 1019.81 73.8347C1019.83 68.5536 1025.99 66.8819 1028.08 62.7971C1028.4 61.9239 1028.47 60.7139 1028.47 59.8074C1028.53 42.6119 1031.13 15.7011 1053.7 14.7913Z" fill="#7AD371"/>
<path d="M1053.7 14.7913C1058.16 5.76103 1067.91 4.16894 1076.48 7.54932C1078.55 8.36264 1082.72 10.0818 1084.71 10.119C1089.36 10.141 1093.68 8.05792 1098.37 8.04628C1106.59 8.02582 1105.97 15.0549 1110.19 19.6404C1112.88 22.5749 1117.29 23.4924 1120.11 26.2898C1124.91 31.0456 1119.75 36.9515 1120.85 42.359C1121.24 43.6438 1122.26 44.9426 1123.05 45.9944C1127.29 51.6803 1130.78 57.868 1124.59 63.7736C1119.94 67.2396 1117.07 68.7701 1111.65 65.4156C1107.39 72.6202 1104.91 80.7355 1104.42 89.0891C1102.23 99.4223 1097.85 106.596 1088.89 112.67C1086.77 114.106 1084.12 115.219 1081.77 116.288C1075.56 118.084 1069.23 118.353 1063.1 116.045C1047.81 107.841 1043.87 96.8851 1042.4 80.3255C1040 80.3689 1039.03 80.2487 1037.18 78.6069C1034.38 83.9047 1031.29 90.4144 1029.29 96.0352C1025.27 96.2545 1022.26 95.0285 1022.13 90.4856C1022.01 86.1926 1024.71 83.1941 1027.48 80.2812C1025.91 79.8041 1024.66 79.3825 1023.14 78.7969C1021.59 77.6552 1019.85 75.9135 1019.81 73.8347C1019.83 68.5536 1025.99 66.8819 1028.08 62.7971C1028.4 61.9239 1028.46 60.7139 1028.47 59.8074C1028.53 42.6119 1031.13 15.7011 1053.7 14.7913Z" fill="#0A2623"/>
<path d="M1045.01 68.728C1047.89 70.073 1050.34 70.862 1052.24 67.3584C1056.26 59.9203 1056.77 50.5816 1061.89 43.6575C1063.07 42.0534 1065.38 40.9906 1067.4 41.4943C1074.64 43.601 1079.72 51.9514 1087.39 53.6529C1091.99 54.6746 1093.98 51.6429 1097.44 51.1816C1101.04 50.7021 1105.7 58.7587 1107.72 61.1526C1109.18 62.8816 1109.77 63.7435 1111.65 65.4156C1107.39 72.6202 1104.91 80.7356 1104.42 89.0891C1102.23 99.4223 1097.85 106.596 1088.89 112.67C1086.77 114.106 1084.13 115.219 1081.77 116.288C1075.56 118.084 1069.23 118.353 1063.1 116.045C1047.81 107.841 1043.87 96.8851 1042.4 80.3255C1040 80.3689 1039.03 80.2487 1037.18 78.6069C1033.13 73.6823 1031.89 65.4276 1036.55 60.1107C1039.73 56.4894 1045.34 58.0732 1045.11 63.4097C1045.03 65.2275 1045.24 66.6302 1045.01 68.728Z" fill="#9A5936"/>
<path d="M1065.58 90.5918C1066.71 91.0653 1069.23 93.0231 1070.53 93.7544C1076.6 97.1558 1080.78 97.1697 1087.35 96.4716C1086.5 98.376 1085.93 98.9805 1084.43 100.291C1082.71 101.804 1080.75 102.963 1078.52 103.518C1069.96 105.651 1067 97.1344 1065.58 90.5918Z" fill="white"/>
<path d="M1090.81 72.3574C1091.79 73.0078 1092.45 74.3089 1094.43 75.3798C1097.45 77.0041 1103.38 74.8056 1104.34 75.0506L1104.18 75.3187C1099.9 77.9866 1092.34 78.6094 1090.81 72.3574Z" fill="#0E214A"/>
<path d="M1063.34 66.8441C1063.77 66.6263 1064.04 66.6952 1064.57 66.6862C1067.65 69.4121 1069.75 71.5884 1074.19 70.4636L1074.64 71.3017C1070.05 73.2462 1066.12 70.2582 1063.34 66.8441Z" fill="#0A2623"/>
<path d="M1084.52 71.96C1084.92 72.7491 1084.39 75.6743 1084.36 76.8072C1084.26 80.6171 1085.49 82.9337 1085.24 86.8854C1082.9 89.9928 1079.75 89.5531 1076.51 88.3271L1076.47 88.0532L1076.71 87.907C1078.68 88.4161 1081.02 89.3314 1082.99 88.0943C1085.92 86.2492 1083.91 81.3212 1083.9 78.4992C1083.89 76.1426 1083.8 74.5045 1084.45 72.1993L1084.52 71.96Z" fill="#F27879"/>
<path d="M1061.32 63.8662C1062.35 64.5995 1063.61 65.8088 1064.57 66.686C1064.05 66.695 1063.77 66.6261 1063.34 66.8439C1062.43 65.7542 1062.05 65.1006 1061.32 63.8662Z" fill="#1A2235"/>
<path d="M1074.2 70.4636C1075.36 69.9298 1076.53 69.3797 1077.68 68.8135C1076.63 69.9122 1076.01 70.5268 1074.64 71.3017L1074.2 70.4636Z" fill="#1A2235"/>
<path d="M1037.18 78.6064C1039.03 80.2483 1040 80.3684 1042.4 80.3251C1043.87 96.8847 1047.81 107.84 1063.1 116.045C1061.7 119.535 1056.78 128.697 1053.19 130.049C1041.89 134.303 1029.58 118.279 1027.55 108.606C1026.54 103.763 1027.71 100.586 1029.29 96.0348C1031.29 90.414 1034.38 83.9043 1037.18 78.6064Z" fill="#F27879"/>
<path d="M1211.8 117.913C1212.16 128.568 1215.01 131.264 1219.33 139.971C1222.51 148.168 1217.72 154.034 1214.1 161.219C1208.23 172.842 1208.74 181.088 1214.44 192.533C1212.92 193.532 1211.29 194.891 1209.96 195.742C1209.53 195.824 1209.09 195.894 1208.66 195.95C1190.36 198.336 1167.38 195.514 1152.44 183.9C1154.68 180.765 1158.82 172.643 1160.63 169.001C1165.79 158.626 1170.81 149.654 1178.46 140.85C1181.09 137.82 1184.37 134.099 1187.66 131.754C1189.84 132.075 1191.3 132.257 1193.49 132.05C1202.33 130.077 1206.71 125.094 1211.8 117.913Z" fill="#EE5EA2"/>
<path d="M1211.8 117.913C1212.16 128.568 1215.01 131.264 1219.33 139.971C1215.95 141.806 1213 145.64 1208.84 146.905C1206.26 147.692 1202.81 148.527 1200.29 147.171C1195.68 144.699 1195.79 137.208 1194.23 132.76C1194.03 132.187 1194.03 132.309 1193.49 132.05C1202.33 130.077 1206.72 125.094 1211.8 117.913Z" fill="#F27879"/>
<path d="M1161.49 97.5823C1160.65 92.1827 1158.15 86.1718 1158.52 80.2514C1159.04 72.0442 1165.24 67.791 1170.81 62.8428C1176.46 80.2061 1198.97 82.4754 1214.52 81.4498C1215.24 86.4106 1215.91 90.5269 1215.77 95.5886C1215.65 98.7594 1215.26 104.197 1214.21 107.127C1213.42 110.193 1212.06 114.891 1211.8 117.913C1206.71 125.095 1202.33 130.077 1193.49 132.051C1191.3 132.257 1189.85 132.075 1187.66 131.754C1180.09 128.855 1172.4 122.746 1167.94 115.989C1163.73 111.062 1162.36 103.746 1161.49 97.5823Z" fill="#9A5936"/>
<path d="M1214.21 107.128C1212.45 107.201 1210.49 109.613 1207.1 109.319C1190.78 107.899 1197.86 84.3941 1212.13 91.9565C1213.91 92.9041 1214.53 94.1053 1215.77 95.5889C1215.65 98.7597 1215.26 104.197 1214.21 107.128Z" fill="#F27879"/>
<path d="M1161.49 97.582C1165.01 97.5877 1168.13 97.8712 1170.83 100.524C1172.57 102.212 1173.55 104.547 1173.51 106.975C1173.46 109.881 1172.49 112.027 1170.27 113.869C1169.94 114.141 1168.14 115.707 1167.94 115.989C1163.73 111.062 1162.36 103.746 1161.49 97.582Z" fill="#F27879"/>
<path d="M1196.67 110.57C1196.86 110.578 1196.74 110.557 1197.02 110.732C1196.72 114.344 1193.1 119.922 1189.32 120.511C1186.37 120.97 1184.55 120.078 1182.22 118.546C1180.62 117.395 1179.83 116.364 1178.93 114.665C1183.73 114.768 1186.47 114.673 1191 112.697C1192.39 112.093 1195.08 110.961 1196.42 110.63L1196.67 110.57Z" fill="white"/>
<path d="M1202.93 86.2103C1203.73 86.1443 1203.98 86.1062 1204.77 86.2036L1204.81 86.4837C1201.6 90.8787 1197.31 92.3228 1192.04 91.6862L1188.95 90.8098C1191.97 90.9812 1195.48 90.9006 1198.16 89.2023C1199.96 88.06 1200.71 86.6347 1202.93 86.2103Z" fill="#0A2623"/>
<path d="M1172.36 95.5108C1169.99 96.4171 1167.69 96.3345 1165.3 95.5095C1164.07 95.0833 1162.38 94.7976 1162.21 93.3275C1163.63 92.2322 1167.05 94.3714 1168.83 94.5154C1169.96 94.6066 1170.44 94.5471 1171.55 94.4459C1171.88 94.9906 1171.88 95.1137 1172.36 95.5108Z" fill="#0A2623"/>
<path d="M1181.68 92.3008L1181.9 92.54C1182.91 96.5316 1181.46 100.096 1180.92 103.973C1180.83 104.664 1180.94 105.952 1181.5 106.45C1183.43 108.177 1186.21 107.043 1188.41 107.244C1187.4 107.679 1186.44 107.993 1185.34 107.993C1177.6 107.989 1181.14 102.265 1181.58 97.6179C1181.72 96.1584 1181.66 93.7979 1181.68 92.3008Z" fill="#F27879"/>
<path d="M1176.44 92.8721C1175.32 94.001 1173.79 94.8184 1172.36 95.511C1171.88 95.1139 1171.88 94.9908 1171.55 94.4461C1173.49 94.0451 1174.61 93.6291 1176.44 92.8721Z" fill="#1A2235"/>
<path d="M1117.86 156.953C1125.45 159.799 1129.45 162.111 1135.58 167.478C1141.9 173.606 1145.2 178.396 1152.44 183.9C1167.38 195.514 1190.36 198.336 1208.66 195.95C1209.09 195.894 1209.53 195.824 1209.96 195.742C1209.55 197.003 1207.73 198.868 1207.14 200.129C1205.04 204.592 1203.15 210.17 1202.31 215.025C1199.38 214.591 1196.15 214.785 1193.16 214.757C1188.85 214.685 1184.54 214.531 1180.23 214.293C1160.13 213.065 1140.3 209.875 1121.29 203.114C1119.43 202.455 1109.79 198.918 1108.7 197.912C1113.01 196.763 1120.58 193.507 1122.43 189.095C1125.1 182.718 1115.12 175.456 1113.21 169.68C1111.59 164.78 1113.69 163.967 1116.21 160.154C1116.95 159.037 1117.37 158.093 1117.86 156.953Z" fill="white"/>
<path d="M1142.15 109.207C1147.28 113.737 1152.86 114.195 1155.96 120.615C1156.84 122.411 1157.35 124.362 1157.48 126.356C1157.72 130.098 1156.81 133.537 1156.56 137.14C1156.29 142.804 1155.89 147.879 1152.77 152.905C1149.28 158.5 1144.93 164.337 1138.5 166.708C1137.49 167.078 1136.6 167.209 1135.58 167.478C1129.45 162.11 1125.46 159.799 1117.86 156.953C1118.49 154.966 1118.58 153.938 1118.73 151.856C1118.77 145.478 1117.42 142.093 1115.03 136.267C1113.68 132.728 1112.43 129.093 1113.92 125.334C1115.56 121.18 1121.54 122.967 1124.91 123.399C1134.62 124.642 1140.42 118.17 1142.15 109.207Z" fill="#9A5936"/>
<path d="M1115.03 136.268C1124.07 130.986 1132.28 144.091 1123.02 149.615C1122.02 150.206 1119.39 150.503 1118.89 151.075L1118.73 151.856C1118.76 145.478 1117.41 142.093 1115.03 136.268Z" fill="#F27879"/>
<path d="M1152.77 152.906C1149.94 150.976 1147.76 149.145 1147.52 145.415C1147.39 143.438 1148.07 141.494 1149.4 140.028C1151.46 137.745 1153.72 137.304 1156.56 137.141C1156.29 142.805 1155.89 147.88 1152.77 152.906Z" fill="#F27879"/>
<path d="M1128.11 150.657C1129.18 150.615 1131.86 151.44 1132.95 151.785C1137.34 153.163 1139.53 153.24 1144.01 152.722C1143.33 153.835 1143.06 154.235 1142.22 155.23C1136.93 159.753 1131.2 155.328 1128.11 150.657Z" fill="white"/>
<path d="M1120.83 131.943C1122.54 131.99 1127.21 134.117 1129.48 134.318C1131.9 134.531 1131.71 134.168 1133.64 134.104L1133.69 134.333L1133.25 134.767C1128.86 137.658 1124.35 134.628 1120.83 131.943Z" fill="#1A2235"/>
<path d="M1154.96 133.688L1155.17 133.749L1155.15 134.012C1152.76 136.158 1148.36 137.931 1145.52 135.655C1145.12 134.979 1145.01 134.865 1144.9 134.114C1145.56 134.02 1147.39 134.977 1148.33 134.998C1150.47 135.047 1152.82 134.181 1154.96 133.688Z" fill="#0A2623"/>
<path d="M1139.57 134.662C1139.99 135.46 1139.76 137.809 1140.1 138.808C1141.51 142.912 1143.51 149.378 1135.88 147.519C1135.57 147.408 1135.72 147.502 1135.48 147.196C1136.33 146.834 1138.44 147.333 1139.69 146.684C1143.37 144.77 1137.96 138.725 1139.57 134.662Z" fill="#F27879"/>
<path d="M1124.59 63.7734C1126.69 64.4529 1131.47 65.3396 1133.97 65.9211C1136.74 66.5656 1140.48 67.7022 1143.09 68.2238C1141.34 74.5431 1140.81 78.9674 1140.52 85.5442C1131.24 82.7922 1120.91 83.3685 1111.68 86.2039C1108.87 87.0677 1107 88.0819 1104.42 89.089C1104.91 80.7354 1107.39 72.62 1111.65 65.4155C1117.07 68.7699 1119.94 67.2394 1124.59 63.7734Z" fill="#7AD371"/>
<path d="M1209.96 195.742C1211.29 194.891 1212.92 193.532 1214.44 192.533C1218.79 202.42 1215.8 205.942 1212.69 215.737C1209.65 225.351 1213.83 232.857 1224.46 232.964C1222.77 238.818 1220.31 244.289 1214.79 247.427C1211.15 249.488 1207.52 248.491 1205.05 245.237C1205.44 237.108 1206.66 221.771 1202.31 215.025C1203.16 210.17 1205.04 204.592 1207.14 200.129C1207.73 198.868 1209.55 197.003 1209.96 195.742Z" fill="#9A5936"/>
<path d="M340.091 133.274C349.86 128.288 356.178 125.831 367.294 129.347C374.739 132.082 379.985 135.789 385.605 141.369C400.649 156.431 409.361 180.618 409.203 201.722C409.106 214.428 405.98 228.616 396.752 237.977C391.04 243.77 385.334 245.086 377.771 246.729L367.532 249.358C365.653 249.826 363.583 250.368 361.693 250.727C356.365 251.739 350.509 250.726 345.531 248.58C330.589 242.139 319.872 226.978 313.971 212.321C307.034 195.091 304.641 173.448 312.032 155.962C314.641 149.794 318.966 143.898 324.758 140.444C326.73 139.269 329.557 138.012 331.683 137.051C334.39 135.831 337.347 134.372 340.091 133.274Z" fill="#0A2623" fill-opacity="0.7"/>
<path d="M385.603 141.369C400.647 156.431 409.359 180.618 409.2 201.722C409.104 214.428 405.978 228.616 396.749 237.977C391.037 243.77 385.332 245.086 377.768 246.729C377.121 246.39 376.312 246.306 375.626 246.574C374.653 246.434 373.097 245.869 372.134 245.561C368.548 244.418 362.92 242.353 359.879 240.078C360.438 239.428 367.575 212.794 368.594 209.514C369.668 210.372 371.042 211.533 372.193 212.224C375.403 211.357 378.436 209.93 381.415 209.062C383.247 210.063 387.414 214.719 388.927 213.489C389.337 213.797 389.715 214.071 390.234 214.152C390.736 214.23 391.185 214.121 391.585 213.807C392.247 213.288 396.833 204.553 397.357 203.361C397.55 202.923 397.719 202.454 397.754 201.975C397.928 199.501 394.063 197.604 392.674 195.837C392.428 195.523 392.214 195.159 392.174 194.755C392.059 193.615 392.527 192.189 392.732 191.052C393.109 188.966 393.515 186.871 393.752 184.763C392.932 183.563 389.988 180.914 388.752 179.737C385.399 176.582 382.068 173.402 378.76 170.2C379.487 169.368 383.069 151.887 383.867 149.261C384.387 147.548 384.763 143.001 385.603 141.369Z" fill="white" fill-opacity="0.1"/>
<path d="M377.771 246.729L367.532 249.358C365.653 249.826 363.583 250.368 361.693 250.727C356.365 251.739 350.509 250.726 345.531 248.58C330.589 242.139 319.872 226.978 313.971 212.321C307.034 195.091 304.641 173.448 312.032 155.962C314.641 149.794 318.966 143.898 324.758 140.444C326.73 139.269 329.557 138.012 331.683 137.051C334.39 135.831 337.347 134.372 340.091 133.274C339.678 134.559 337.298 135.925 336.518 137.153C336.515 137.159 336.304 137.421 336.258 137.453C333.954 141.849 331.478 146.158 329.806 151.132C324.892 165.75 325.884 182.21 330.15 196.874C330.176 196.941 330.201 197.01 330.227 197.077L330.398 197.792C335.758 214.714 344.681 230.104 359.758 240.073L359.881 240.077C362.922 242.353 368.551 244.418 372.136 245.561C373.099 245.868 374.656 246.434 375.629 246.574C376.315 246.305 377.124 246.39 377.771 246.729Z" fill="white" fill-opacity="0.1"/>
<path d="M329.063 199.439C327.934 195.745 327.009 191.992 326.291 188.197C323.501 173.388 324.107 154.575 332.539 141.324C333.044 140.531 335.33 137.623 336.255 137.453C333.95 141.849 331.474 146.158 329.802 151.132C324.889 165.75 325.88 182.21 330.146 196.875C330.172 196.942 330.197 197.01 330.223 197.077L330.394 197.792C329.746 198.259 329.476 198.753 329.063 199.439Z" fill="#0A2623" fill-opacity="0.7"/>
<path d="M329.066 199.44C329.479 198.754 329.749 198.259 330.397 197.793C335.757 214.714 344.68 230.105 359.757 240.073C359.713 240.498 359.705 241.631 359.378 241.857C348.953 235.763 339.81 223.749 334.574 213.082C332.349 208.549 330.695 204.199 329.066 199.44Z" fill="#1F1F1C"/>
<path d="M359.878 240.077C362.919 242.353 368.547 244.418 372.133 245.561C373.096 245.868 374.652 246.433 375.625 246.574C375.507 246.636 375.341 246.717 375.209 246.735C370.45 247.381 363.163 244.501 359.375 241.856C359.702 241.63 359.711 240.497 359.755 240.072L359.878 240.077Z" fill="#3E3E3C"/>
<path d="M346.114 174.957C345.572 172.881 348.664 170.118 349.881 168.321C350.753 167.033 354.506 161.97 355.74 161.837C358.223 162.06 361.375 167.105 363.264 167.884C367.047 169.447 375.717 167.629 378.758 170.2C382.066 173.402 385.397 176.582 388.751 179.737C389.986 180.914 392.93 183.563 393.751 184.763C393.514 186.871 393.107 188.966 392.73 191.052C392.525 192.19 392.058 193.615 392.172 194.756C392.213 195.16 392.426 195.523 392.673 195.837C394.062 197.605 397.927 199.502 397.752 201.975C397.718 202.455 397.548 202.923 397.355 203.362C396.832 204.553 392.246 213.288 391.584 213.807C391.184 214.121 390.734 214.231 390.233 214.153C389.714 214.071 389.335 213.797 388.925 213.49C387.413 214.719 383.245 210.063 381.413 209.062C378.435 209.93 375.401 211.357 372.192 212.224C371.041 211.533 369.666 210.372 368.592 209.514C364.423 205.938 359.548 202.051 355.581 198.375C354.223 197.116 353.232 186.236 351.79 184.05C349.732 180.932 342.663 179.053 346.114 174.957Z" fill="#3E3E3C"/>
<path d="M346.114 174.957C346.942 176.344 348.524 177.516 349.755 178.617C350.927 179.665 352.104 180.79 353.359 181.775C354.606 182.754 356.949 182.643 358.482 182.782C360.994 182.989 363.619 182.99 366.135 183.252C366.605 183.265 367.863 183.279 368.239 183.418C370.202 184.138 372.674 186.992 374.301 188.537L381.213 195.099C382.061 195.908 384.091 197.768 384.726 198.581C384.612 199.438 384.503 200.14 384.335 200.986C383.992 202.873 382.683 207.373 383.668 208.637C384.747 210.022 387.785 212.143 388.925 213.49C387.413 214.719 383.245 210.063 381.413 209.062C378.435 209.93 375.401 211.357 372.192 212.224C371.041 211.533 369.666 210.372 368.592 209.514C364.423 205.938 359.548 202.051 355.581 198.375C354.223 197.116 353.232 186.236 351.79 184.05C349.732 180.932 342.663 179.052 346.114 174.957Z" fill="#0A2623"/>
<path d="M374.303 188.537L381.215 195.098C382.063 195.908 384.093 197.768 384.728 198.581C384.614 199.438 384.504 200.14 384.337 200.986L384.092 201.071C382.788 200.928 379.562 197.814 378.356 196.818C376.742 195.487 374.773 193.979 373.242 192.574C373.542 191.737 374.065 189.467 374.303 188.537Z" fill="black" fill-opacity="0.1"/>
<path d="M366.137 183.251C366.607 183.264 367.865 183.278 368.241 183.417C370.204 184.137 372.676 186.991 374.303 188.537C374.065 189.467 373.543 191.736 373.242 192.573C371.421 190.94 369.019 189.444 367.45 187.603C366.724 186.751 366.377 184.406 366.137 183.251Z" fill="black" fill-opacity="0.1"/>
<path d="M376.685 170.748C376.984 170.707 376.895 170.657 377.128 170.856C377.955 171.561 378.767 172.352 379.553 173.1L384.001 177.337C386.27 179.503 390.213 183.026 392.246 185.236C391.347 187.066 387.155 193.892 387.293 195.014C388.106 194.683 391.066 188.801 391.783 187.575C391.458 189.533 390.006 194.807 391.076 196.336C391.998 197.65 396.319 200.563 396.163 201.976C396.036 203.115 392.039 210.24 391.184 211.756C390.894 211.083 390.792 210.57 390.332 210.021C388.873 208.193 387.083 206.888 385.98 205.479C386.175 202.777 387.747 198.671 387.38 195.996C387.225 195.62 386.729 195.031 386.456 194.772C381.551 190.131 376.715 185.408 371.759 180.825C371.369 180.463 370.833 180.238 370.347 180.03L370.305 179.951C371.029 179.324 376.008 171.856 376.685 170.748Z" fill="#0A2623" fill-opacity="0.7"/>
<path d="M390.957 201.124C394.148 201.203 394.557 205.022 391.87 206.357C390.803 206.424 389.977 206.119 389.454 205.121C389.086 204.4 389.032 203.562 389.304 202.801C389.634 201.87 390.118 201.531 390.957 201.124Z" fill="#1F1F1C"/>
<path d="M390.95 202.064C393.102 202.099 393.113 204.197 391.715 205.458C389.643 205.355 389.657 203.333 390.95 202.064Z" fill="#0F3934"/>
<path d="M390.804 196.556C391.156 196.785 391.047 196.635 391.191 196.983C390.99 197.61 387.673 203.884 387.168 204.567C386.945 204.528 387.054 204.577 386.863 204.385C386.877 203.479 390.202 197.461 390.804 196.556Z" fill="#1F1F1C"/>
<path d="M355.823 163.282C357.843 164.642 360.987 168.579 362.904 169.474C365.25 170.393 375.136 170.027 376.152 170.6L376.689 170.748C376.012 171.856 371.032 179.325 370.309 179.951L370.351 180.03C368.36 179.868 357.641 179.586 356.642 179.11C356.382 179.264 356.521 179.232 356.223 179.211L356.284 178.916C356.065 178.966 356.018 178.98 355.815 178.81C353.799 177.109 351.915 175.223 349.636 173.868C348.885 173.622 348.827 173.513 348.219 173.025L352.799 167.036C353.666 165.908 354.859 164.26 355.823 163.282Z" fill="#0A2623" fill-opacity="0.7"/>
<path d="M355.823 163.282C357.843 164.642 360.987 168.579 362.904 169.474L363.025 169.767C361.533 171.679 360.064 173.612 358.622 175.562C358.043 176.336 356.642 178.106 356.284 178.916C356.065 178.966 356.018 178.98 355.815 178.81C353.799 177.109 351.915 175.223 349.636 173.868C348.885 173.622 348.827 173.513 348.219 173.025L352.799 167.036C353.666 165.908 354.859 164.26 355.823 163.282Z" fill="#0A2623" fill-opacity="0.7"/>
<path d="M355.625 167.457C357.001 167.584 358.077 168.336 358.452 169.706C358.701 170.61 358.57 171.578 358.089 172.384C357.466 173.41 356.814 173.663 355.732 173.908C355.265 173.844 354.879 173.805 354.462 173.575C353.645 173.135 353.059 172.362 352.855 171.457C352.383 169.416 353.608 167.805 355.625 167.457Z" fill="#3E3E3C"/>
<path d="M355.355 168.396C357.946 168.455 358.473 171.518 356.081 172.889C353.468 173.01 352.699 169.678 355.355 168.396Z" fill="#0F3934"/>
<path d="M376.151 170.6L376.688 170.747C376.011 171.856 371.031 179.324 370.307 179.95L370.152 179.761C370.144 178.9 375.274 171.876 376.151 170.6Z" fill="#1F1F1C"/>
<path d="M363.021 169.766L363.229 170.051C363.118 170.717 357.497 178.108 356.637 179.109C356.377 179.263 356.517 179.231 356.219 179.21L356.28 178.915C356.637 178.105 358.039 176.335 358.617 175.562C360.06 173.611 361.529 171.678 363.021 169.766Z" fill="#1F1F1C"/>
<path d="M386.403 198.643C386.126 198.084 385.813 197.479 385.366 197.034C380.609 192.305 375.646 187.764 370.809 183.116C369.082 181.456 368.032 181.853 365.827 181.717C363.773 181.552 361.703 181.494 359.651 181.347C358.461 181.262 356.915 181.279 355.758 181.07C355.277 180.988 354.816 180.822 354.393 180.579C353.463 180.046 347.698 174.957 347.572 174.322C347.473 173.829 347.937 173.376 348.214 173.024C348.822 173.513 348.881 173.621 349.632 173.868L349.578 173.93C349.82 174.813 354.965 179.722 355.828 179.901C360.169 180.793 365.075 180.534 369.509 180.935C371.146 181.084 373.035 183.355 374.21 184.475C376.117 186.253 378.004 188.052 379.872 189.871L384.076 193.861C384.865 194.606 385.955 195.548 386.587 196.391C386.504 197.143 386.456 197.889 386.403 198.643Z" fill="black" fill-opacity="0.1"/>
<path d="M385.012 205.461C385.174 205.792 385.407 206.256 385.641 206.524C386.417 207.415 389.253 209.901 390.334 210.021C390.794 210.57 390.896 211.083 391.186 211.756C391.078 212.067 390.768 212.525 390.584 212.828C389.276 211.788 385.603 208.645 384.633 207.382C384.708 206.68 384.849 206.141 385.012 205.461Z" fill="black" fill-opacity="0.1"/>
<path d="M340.09 133.274C349.858 128.288 356.176 125.831 367.292 129.347L366.993 130.154C366.468 131.57 365.413 133.505 364.708 134.86L361.081 141.836C356.099 151.631 350.906 161.316 345.506 170.886C343.764 174.004 341.805 177.153 340.048 180.276C338.071 183.834 336.061 187.374 334.023 190.897C333.267 192.225 331.17 196.177 330.225 197.077C330.199 197.01 330.174 196.941 330.148 196.874C325.882 182.21 324.891 165.75 329.804 151.132C331.476 146.158 333.952 141.849 336.257 137.453C336.302 137.421 336.513 137.159 336.517 137.153C337.297 135.925 339.676 134.559 340.09 133.274Z" fill="white" fill-opacity="0.1"/>
<path d="M216.516 104.224C226.72 109.872 234.617 112.161 246.076 114.389C257.506 116.608 269.139 117.599 280.78 117.345C298.805 116.954 320.424 112.828 336.913 105.155C339.622 103.895 342.896 101.764 345.366 100.097C345.414 101.93 345.493 103.861 345.443 105.685C345.363 104.967 345.346 104.63 345.344 103.907C341.481 105.948 336.725 108.445 332.676 110.114C326.157 112.692 319.843 115.294 313.039 117.095C297.428 121.225 280.93 122.534 264.853 121.032C261.145 120.698 257.45 120.241 253.772 119.664C251.872 119.366 249.8 118.922 247.96 118.662C247.99 119.627 248.086 120.978 248.067 121.902C246.113 119.554 242.967 119.767 240.419 118.891C232.602 116.206 235.677 125.191 236.259 129.221L238.458 145.607C234.593 144.802 231.86 144.238 227.973 143.271C227.615 140.995 227.219 138.671 226.969 136.387C228.648 134.903 232.775 133.216 232.146 130.44C231.473 127.471 228.409 126.898 225.783 127.313C225.561 124.676 225.457 121.989 225.166 119.365C224.719 115.337 223.46 113.85 219.577 112.903C219.438 112.837 218.21 112.604 217.974 112.556C217.54 109.77 217.053 106.992 216.516 104.224Z" fill="#0A2623" fill-opacity="0.7"/>
<path d="M303.348 222.873C302.568 220.67 302.219 217.845 301.905 215.517C300.354 204.057 301.01 192.407 303.837 181.194C304.262 179.527 304.805 177.225 305.506 175.649C305.647 175.332 305.688 175.355 305.84 174.903L305.874 174.801C305.693 178.988 305.644 183.307 306.066 187.474C306.425 191.006 307.071 193.928 306.77 197.524C306.52 200.532 306.598 203.691 306.299 206.716C305.828 212.539 304.747 217.632 312.842 214.349C313.486 215.88 314.174 217.392 314.906 218.883C311.72 220.304 306.803 222.236 303.348 222.873Z" fill="#9B9B97"/>
<path d="M278.142 124.394C280.596 124.382 283.842 123.889 284.353 126.924C284.633 128.59 284.794 130.112 284.953 131.79L285.644 139.175C286.708 150.745 287.425 162.344 287.793 173.958C287.9 179.512 287.908 185.067 287.818 190.621C287.69 196.476 287.484 202.365 286.97 208.199C286.696 211.151 287.314 215.415 285.203 217.765C284.049 219.048 279.327 218.397 277.602 218.317C270.956 217.903 270.166 217.858 271.022 210.861C271.15 209.812 271.26 208.593 271.366 207.529C271.714 203.994 271.979 200.452 272.159 196.906C272.92 182.616 273.218 166.799 272.397 152.495C272.08 147.264 271.653 142.041 271.116 136.827C270.948 135.284 270.744 133.746 270.505 132.213C270.155 130.046 269.51 127.776 269.813 125.647C271.667 124.441 275.874 124.466 278.142 124.394Z" fill="#245841"/>
<path d="M345.362 100.097C345.41 101.93 345.49 103.861 345.439 105.685C345.359 104.967 345.342 104.63 345.341 103.907C341.477 105.948 336.721 108.445 332.672 110.114C332.813 110.824 332.957 112.147 333.481 112.579C332.015 113.772 331.182 114.711 330.966 116.732C330.691 119.298 331.304 121.893 331.631 124.45C332.067 127.825 332.445 131.206 332.769 134.594C328.221 136.669 324.662 138.005 320.65 141.1C320.152 136.827 319.978 132.492 319.458 128.178C319.133 125.481 319.537 121.664 317.486 119.5C316.961 118.947 315.357 119.239 314.657 119.299C311.763 119.788 308.533 120.451 305.76 121.4C305.066 121.638 304.319 122.294 303.848 122.816C303.1 123.645 303.301 125.43 303.485 126.516C304.026 129.687 304.509 132.857 304.923 136.058C305.732 142.651 306.292 149.273 306.6 155.909C306.762 159.229 306.915 162.661 306.875 165.984C306.862 167.127 306.489 169.144 306.31 170.374C306.1 171.843 305.955 173.32 305.874 174.801C305.692 178.988 305.643 183.306 306.065 187.474C306.424 191.005 307.071 193.927 306.771 197.523C306.52 200.531 306.598 203.691 306.299 206.716C305.828 212.539 304.746 217.631 312.842 214.349C313.485 215.879 314.174 217.392 314.906 218.883C311.72 220.304 306.803 222.236 303.348 222.873C282.91 227.507 265.388 225.958 245.961 218.274C246.601 216.325 247.431 214.638 247.955 212.63C248.534 212.278 249.165 211.871 249.536 211.286C250.787 209.317 251.441 205.909 252.099 203.571C253.432 198.831 254.809 193.561 255.507 188.71C255.762 186.939 255.536 182.954 255.439 181.081C255.307 178.154 255.127 175.229 254.9 172.308C254.623 168.677 254.216 162.372 253.632 158.816C257.195 154.774 255.528 152.274 258.148 148.014C259.1 146.466 260.895 143.982 262.381 142.88C263.509 142.083 264.697 141.557 265.617 140.495C267.221 138.645 266.227 136.574 264.474 135.258C263.069 134.204 261.155 133.902 259.429 134.193C255.902 134.787 253.294 137.199 251.265 140.009C251.087 138.216 250.607 135.114 250.312 133.319C249.764 129.978 249.441 124.812 248.063 121.901C246.109 119.554 242.963 119.767 240.415 118.892C232.599 116.206 235.673 125.191 236.255 129.221L238.454 145.607C234.589 144.802 231.856 144.237 227.969 143.271C227.611 140.995 227.215 138.671 226.965 136.388C228.643 134.903 232.77 133.216 232.142 130.44C231.469 127.472 228.405 126.897 225.779 127.312C225.557 124.676 225.453 121.989 225.162 119.364C224.716 115.337 223.456 113.85 219.573 112.903C219.434 112.838 218.206 112.604 217.971 112.556C217.536 109.77 217.05 106.992 216.512 104.225C226.716 109.872 234.614 112.161 246.072 114.389C257.502 116.608 269.135 117.599 280.775 117.346C298.801 116.955 320.42 112.828 336.909 105.155C339.618 103.895 342.892 101.764 345.362 100.097ZM285.177 126.093C284.591 122.85 280.873 123.376 278.062 123.39C275.464 123.467 270.644 123.44 268.52 124.729C268.173 127.003 268.911 129.43 269.312 131.745C269.586 133.383 269.82 135.027 270.013 136.676C270.628 142.247 271.116 147.829 271.479 153.418C272.421 168.703 272.079 185.604 271.208 200.874C271.001 204.663 270.698 208.449 270.299 212.227C270.178 213.363 270.052 214.667 269.905 215.787C268.925 223.264 269.829 223.312 277.442 223.754C279.418 223.84 284.829 224.536 286.15 223.165C288.569 220.654 287.862 216.097 288.175 212.943C288.764 206.708 289 200.415 289.146 194.159C289.25 188.224 289.24 182.288 289.118 176.353C288.696 163.942 287.875 151.547 286.655 139.184L285.864 131.292C285.682 129.5 285.498 127.873 285.177 126.093Z" fill="#0A2623" fill-opacity="0.7"/>
<path d="M341.743 54.3105C344.595 55.6255 349.83 57.7119 350.143 61.4567C350.236 62.5732 350.117 63.9263 350.156 65.0907C350.219 66.6941 350.317 68.2958 350.455 69.8945C350.877 74.7754 351.594 80.2119 352.438 85.0197C353.933 92.2616 350.243 94.3823 344.999 98.1389C331.896 107.525 314.662 111.65 298.92 114.015C291.883 115.053 284.781 115.589 277.668 115.62C256.639 115.676 230.372 111.953 212.675 99.6329C208.178 96.502 208.418 90.4877 207.456 85.6647C206.798 82.361 205.964 78.9736 205.438 75.6453C204.965 72.6565 204.842 69.7675 206.904 67.3236C210.799 62.5493 217.667 59.7395 223.307 57.6459C233.07 54.0217 243.707 50.7562 254.073 49.3398C253.554 50.9974 252.967 52.1034 251.794 53.365C251.074 53.3859 249.724 53.543 249.028 53.6993C246.471 54.2733 245.099 53.3627 242.836 52.2803C241.353 53.7621 240.593 55.2037 239.767 57.093C237.755 56.8711 235.479 57.0779 233.661 57.9604C232.676 58.4392 230.48 60.187 229.509 60.0737C227.891 59.7966 226.46 58.3497 224.786 58.2035C220.869 57.861 217.876 61.5509 216.333 64.7166C215.386 66.6593 215.12 68.3656 214.963 70.5007C214.034 70.0251 213.271 69.6715 212.311 69.2625L213.596 70.3777C220.443 75.9022 231.222 79.702 239.704 81.7063C239.316 82.8387 238.913 83.9755 238.576 85.1234C238.081 86.7524 237.619 88.5629 237.353 90.2455C237.078 91.9863 236.126 95.5428 238.212 96.4044C240.509 96.408 249.393 91.5037 252.07 90.2036C254.396 89.0751 256.75 88.0024 259.128 86.9867C262.699 85.4592 263.158 85.0729 267.136 85.5017C268.236 85.5192 269.335 85.5923 270.43 85.639C292.093 86.563 314.612 84.0814 334.077 73.9298C338.899 71.4152 343.827 67.9227 346.517 63.0739C345.486 64.05 344.495 64.886 343.411 65.7987C343.809 61.0266 343.484 58.715 341.743 54.3105Z" fill="#0A2623" fill-opacity="0.7"/>
<path d="M238.582 85.1237C236.774 84.4304 234.853 84.0415 233.032 83.3796C230.972 82.6312 228.875 81.8856 226.846 81.0604C224.26 80.009 210.696 74.0829 209.57 72.2913C209.413 72.0419 209.326 71.7828 209.424 71.4939C210.033 69.7063 212.26 70.9123 213.495 70.4226C213.531 70.4083 213.566 70.3928 213.601 70.3779C220.448 75.9025 231.228 79.7023 239.709 81.7065C239.321 82.839 238.918 83.9757 238.582 85.1237Z" fill="#FEFEFE"/>
<path d="M238.211 96.4043C240.508 96.4078 249.392 91.5035 252.069 90.2035C254.395 89.0749 256.749 88.0023 259.127 86.9866C262.698 85.4591 263.157 85.0727 267.135 85.5016C266.368 85.5288 265.783 85.5309 265.017 85.4999C264.293 86.3018 261.117 88.0116 260.057 88.682C255.911 91.2875 251.798 94.0259 247.573 96.4957C245.368 97.7854 242.823 99.6682 240.318 100.087C239.056 100.298 238.823 96.8004 238.211 96.4043Z" fill="#B0B0AB"/>
<path d="M207.252 74.1045C208.359 74.4911 210.548 77.1104 211.224 78.1661C211.845 79.1379 212.243 81.0562 212.599 82.2052C214.041 86.8629 214.226 92.4341 217.17 96.4453C219.266 99.1573 225.205 100.828 228.369 102.09C234.632 104.588 241.11 105.827 247.666 107.099C260.321 109.618 273.138 110.364 286.019 110.286C292.236 110.249 298.47 109.916 304.678 109.84C304.724 109.847 304.77 109.853 304.815 109.859C303.584 110.091 302.324 110.464 301.111 110.796C288.298 115.105 273.658 114.024 260.438 112.562C253.904 111.84 247.324 110.894 240.923 109.392C235.69 108.147 230.544 106.566 225.515 104.66C222.95 103.701 218.794 102.324 216.617 100.696C208.9 94.9261 210.079 83.2238 206.741 75.0433C206.627 74.7651 207.079 74.2917 207.252 74.1045Z" fill="white" fill-opacity="0.1"/>
<path d="M329.786 239.902C326.823 241.508 323.261 243.076 320.116 244.262C312.089 247.293 303.688 249.217 295.143 249.979C277.765 251.525 253.848 247.802 238.017 240.628C233.242 238.464 219.836 231.24 218.147 226.383C217.911 225.705 217.851 224.949 217.913 224.238C218.107 222.011 218.726 219.765 219.039 217.542C219.3 215.737 219.52 213.925 219.696 212.11C219.943 209.519 220.08 205.103 220.956 202.711C221.533 201.137 223.73 200.235 225.235 199.685C224.868 201.804 224.382 203.891 224.032 206.01C228.567 211.081 235.904 215.096 241.929 218.109C261.74 226.901 282.378 229.536 303.588 224.338C307.706 223.364 311.712 221.967 315.543 220.17C319.871 228.278 323.375 233.348 329.786 239.902Z" fill="#0A2623"/>
<path d="M329.786 239.902C326.823 241.508 323.261 243.076 320.116 244.262C312.089 247.293 303.688 249.217 295.143 249.979C277.765 251.525 253.848 247.802 238.017 240.628C233.242 238.464 219.836 231.24 218.147 226.383C217.911 225.705 217.851 224.949 217.913 224.238C218.107 222.011 218.726 219.765 219.039 217.542C219.3 215.737 219.52 213.925 219.696 212.11C219.943 209.519 220.08 205.103 220.956 202.711C221.533 201.137 223.73 200.235 225.235 199.685C224.868 201.804 224.382 203.891 224.032 206.01C228.567 211.081 235.904 215.096 241.929 218.109C241.225 218.591 240.808 219.368 240.505 220.148C239.684 222.26 239.557 224.604 238.945 226.779C238.307 229.049 237.22 231.135 236.79 233.471C236.598 234.514 236.551 235.695 237.178 236.607C239.963 240.655 261.802 245.526 267.451 246.437C279.856 248.441 291.36 248.891 303.771 246.735C306.499 246.261 309.124 245.358 311.838 244.855C308.98 240.081 306.671 234.51 304.94 229.229C304.553 228.045 303.911 225.124 303.588 224.338C307.706 223.364 311.712 221.967 315.543 220.17C319.871 228.278 323.375 233.348 329.786 239.902Z" fill="white" fill-opacity="0.1"/>
<path d="M268.707 61.0398C271.832 44.3162 293.024 37.355 307.883 36.6116C310.333 36.489 312.984 36.2994 315.41 36.7739C321.196 38.0527 329.17 42.3928 333.583 46.188C335.471 47.7975 337.131 49.6569 338.517 51.715C341.492 56.1613 342.817 61.1034 341.736 66.4163C341.682 66.6856 341.62 66.9533 341.552 67.2193C332.186 74.4747 321.235 78.4237 309.778 81.0872C304.319 78.0885 298.152 74.0371 292.773 70.7306C291.109 69.6851 289.432 68.6586 287.745 67.6513C286.706 67.0358 284.571 65.8342 283.649 65.1143C279.246 63.0837 277.207 59.4246 272.505 59.6693C271.08 60.0232 270.042 60.4198 268.707 61.0398Z" fill="#7A7A7C"/>
<path d="M272.508 59.6693C273.509 55.8896 274.521 52.2504 278.161 49.9593C278.686 49.6287 279.58 49.1908 280.189 49.3045C280.585 49.5367 280.79 49.9646 280.868 50.3999C281.247 52.5356 280.93 54.3783 281.394 56.567C281.793 58.4461 282.126 59.9327 282.722 61.7681C282.914 62.3591 283.592 64.5937 283.652 65.1142C279.25 63.0837 277.21 59.4245 272.508 59.6693Z" fill="#585A63"/>
<path d="M317.932 57.984C319.381 57.7649 322.859 57.9193 324.316 58.3758C327.434 59.3518 327.351 60.7494 328.625 63.0573C330.468 63.0416 333.895 62.7907 335.008 64.7161C335.99 66.4127 333.725 68.0325 332.403 68.7901C329.277 70.5829 324.574 71.0587 321.13 70.0633C319.427 69.258 319.206 68.741 318.929 66.9718C318.799 67.0728 318.664 67.169 318.528 67.2605C316.253 68.7562 312.639 68.8034 310.081 68.247C307.567 67.7 306.085 66.7857 304.686 64.6626C304.66 64.0871 304.69 63.4352 304.702 62.8532C306.967 59.3604 313.988 58.2995 317.932 57.984Z" fill="#9B9B97"/>
<path d="M308.864 39.3006C309.676 39.1864 311.104 39.2731 311.996 39.4499C318.612 40.7593 325.923 43.6372 330.467 48.7799C330.833 49.1951 330.967 49.7212 330.866 50.2409C330.063 51.3144 328.504 50.5473 327.481 50.1698C324.74 49.0939 322.15 47.8247 319.339 46.8157C315.806 45.5473 312.556 44.7591 308.894 44.0064C307.585 43.7371 305.071 42.9754 304.333 41.787C304.189 40.164 307.594 39.4545 308.864 39.3006Z" fill="#9B9B97"/>
<path d="M315.025 54.0803C315.909 54.0508 316.793 54.058 317.675 54.1018C323.196 54.3503 330.673 56.4253 334.526 60.6171C326.381 55.4974 318.582 54.1862 309.171 55.6123C303.834 56.6263 299.918 58.1232 295.082 60.6008C293.736 61.2905 292.424 62.0935 291.066 62.724C297.853 56.9414 306.252 54.4416 315.025 54.0803Z" fill="#1F1F1C"/>
<path d="M306.093 32.2821C304.958 29.7955 303.539 24.0952 303.271 21.4571C302.359 11.1711 314.645 7.38381 322.663 5.76204C327.788 4.72549 335.069 3.34396 339.499 6.82017C342.443 9.13121 338.605 13.4741 337.175 15.581C335.419 18.1679 334.523 19.209 334.611 22.4297C335.576 24.9275 338.47 27.1611 336.375 29.7295C333.087 32.9508 329.464 33.7563 325.064 34.5605C322.904 32.4482 320.954 31.5692 318.001 30.8342C319.504 28.8869 326.091 22.2741 328.636 23.157C329.588 24.3451 327.125 26.9455 326.4 27.9576C327.9 26.9535 330.941 24.7254 329.511 22.6145C329.28 22.2748 328.77 22.081 328.365 22.0643C325.787 22.0655 322.202 25.0746 320.516 26.6765C319.219 27.9068 318.013 29.2282 316.906 30.6307C314.787 30.285 312.625 30.2966 310.51 30.665C309.459 30.9492 308.413 31.2546 307.374 31.581C306.916 31.795 306.527 32.0293 306.093 32.2821Z" fill="#87878A"/>
<path d="M307.373 31.5806C307.306 31.3437 306.42 29.8241 306.25 29.4686C304.703 26.2548 303.973 22.848 304.928 19.329C305.283 18.0221 305.563 15.6916 307.323 16.0989C308.168 17.1329 308.127 23.337 308.687 25.3829C309.321 27.7054 309.334 28.2557 310.509 30.6645C309.458 30.9487 308.412 31.2541 307.373 31.5806Z" fill="#585A63"/>
<path d="M334.613 22.4297C335.578 24.9275 338.472 27.1611 336.377 29.7295C335.274 28.5927 333.75 23.5691 334.613 22.4297Z" fill="#9B9B97"/>
<path d="M228.775 154.087C226.022 153.425 219.134 151.807 216.937 150.581C216.003 150.07 215.196 149.354 214.576 148.486C210.328 142.507 216.576 134.469 221.622 131.281C223.829 129.885 228.206 126.724 230.417 130.09C231.627 131.934 228.822 133.18 227.571 134.092C225.378 135.69 221.147 139.19 222.854 142.328C223.928 144.142 228.661 144.985 230.678 145.491C234.199 146.397 237.927 147.162 241.554 147.473C243.332 147.625 246.605 147.933 248.136 147.09C250.226 145.94 251.257 142.93 252.487 141.05C254.6 137.905 258 134.885 262.05 135.775C263.432 136.063 265.177 137.253 264.775 138.892C264.411 140.38 262.687 140.712 261.676 141.515C259.384 143.336 257.104 146.525 255.918 149.144C254.665 151.912 254.987 156.473 251.913 158.146C251.398 158.428 250.827 158.593 250.241 158.63C249.08 158.707 247.038 158.38 245.834 158.182C240.08 157.238 234.401 155.618 228.775 154.087Z" fill="#0F3934"/>
<path d="M228.775 154.087C226.022 153.425 219.134 151.807 216.937 150.581C216.003 150.07 215.196 149.354 214.576 148.486C210.328 142.507 216.576 134.469 221.622 131.281C223.829 129.885 228.206 126.724 230.417 130.09C231.627 131.934 228.822 133.18 227.571 134.092C225.378 135.69 221.147 139.19 222.854 142.328C223.928 144.142 228.661 144.985 230.678 145.491C229.092 146.653 228.029 149.312 227.932 151.22L228.089 151.272C229.458 151.727 231.768 152.208 233.22 152.543C236.337 153.252 239.458 153.945 242.582 154.62C243.58 154.836 247.175 155.353 247.643 156.118C247.532 157.802 243.745 156.467 242.679 156.498C240.284 156.566 230.226 153.307 228.641 153.568C228.578 153.895 228.575 153.726 228.775 154.087Z" fill="black" fill-opacity="0.1"/>
<path d="M229.383 147.57C232.179 147.497 232.759 147.722 235.415 148.075L243.45 149.2C244.729 149.373 248.882 149.449 249.468 150.411L249.403 150.642L248.988 150.785C244.052 152.326 235.055 150.722 230.132 149.106C229.651 148.517 229.414 148.307 229.383 147.57Z" fill="black" fill-opacity="0.1"/>
<path d="M259.581 137.664C260.023 137.626 259.992 137.617 260.388 137.817C260.643 138.206 260.59 137.999 260.563 138.455C259.954 139.241 258.344 140.56 257.555 141.379C255.787 143.214 254.202 145.614 252.057 146.964C251.589 147.108 251.689 147.152 251.277 147.054C250.857 146.324 251.713 144.545 252.172 143.975C254.009 141.69 256.534 138.197 259.581 137.664Z" fill="black" fill-opacity="0.1"/>
<path d="M241.184 158.829C243.194 159.332 245.265 159.621 247.31 159.933C249.471 160.262 250.474 160.235 252.539 159.56C253.079 163.714 253.486 168.88 253.77 173.059C254.037 176.989 254.49 182.722 254.454 186.662C254.064 192.636 252.188 198.657 250.62 204.411C250.022 206.609 249.536 209.717 247.963 211.261C247.84 211.302 247.713 211.339 247.584 211.358C246.812 211.473 240.254 208.462 239.517 207.876C238.932 207.409 238.777 207.011 238.799 206.277C238.848 204.641 239.575 203.088 240.042 201.54C240.534 199.909 240.977 198.261 241.432 196.621C242.054 194.38 242.48 191.96 243.267 189.781C243.9 188.03 245.113 186.526 245.584 184.698C246.481 181.223 243.948 181.296 243.379 178.795C242.908 176.728 242.848 174.226 242.625 172.096L241.184 158.829Z" fill="#245841"/>
<path d="M230.124 156.043C233.309 156.904 236.678 157.844 239.884 158.569L241.332 171.767C241.593 174.23 241.868 176.918 242.229 179.372C242.8 181.664 244.979 181.668 244.378 184.363C243.977 186.164 242.582 187.645 242.118 189.228C240.951 193.208 240.165 197.031 238.881 201.027C238.204 203.133 236.299 207.034 238.631 208.807C240.213 209.776 246.256 212.834 247.953 212.63C247.428 214.638 246.599 216.325 245.958 218.274C236.926 214.412 233.354 211.907 225.633 206.18C226 204.549 226.336 202.911 226.642 201.266C228.874 205.359 231.416 203.423 231.883 199.723C232.244 196.86 234.799 187.145 234.016 184.688C234.016 183.163 234.392 182.981 235.737 182.928C236.353 182.928 236.889 182.907 237.511 182.814C238.622 182.769 239.852 181.375 239.362 180.265C238.216 177.671 233.692 175.585 231.316 174.389C231.339 173.718 231.369 173.152 231.311 172.479C231.668 166.779 230.942 161.681 230.124 156.043Z" fill="#0A2623" fill-opacity="0.7"/>
<path d="M238.521 94.9945C238.165 90.7545 239.85 86.1558 241.069 82.1577C242.517 77.4065 246.184 76.052 250.18 73.6951L262.211 66.6947C264.799 65.2063 267.173 63.4519 269.893 62.1621C270.003 64.639 269.283 66.9045 269.057 69.2231C268.871 71.1377 268.91 79.5488 269.698 81.1414C268.52 82.1625 263.922 83.5146 262.184 84.1666C260.332 84.8702 258.496 85.6155 256.678 86.4016C251.339 88.7046 246.297 91.5476 241.028 93.9902C240.207 94.3706 239.378 94.7037 238.521 94.9945Z" fill="#D8D080"/>
<path d="M216.188 71.0111C216.283 67.2172 217.458 64.0393 220.214 61.3103C221.368 60.1672 222.803 59.3887 224.483 59.4335C226.267 59.4813 227.998 61.374 229.547 61.3253C231.365 61.2681 233.107 59.3925 234.837 58.7895C236.494 58.2117 237.676 58.1816 239.409 58.2028C238.905 61.6866 239.079 63.4043 241.243 66.4163C243.333 69.3267 246.642 71.0887 250.016 72.12C246.899 73.8691 243.34 75.5916 241.159 78.449C240.735 79.1346 240.525 79.5513 240.179 80.2802C232.266 78.1773 227.758 76.7075 220.53 73.1673L216.188 71.0111Z" fill="#BAD790"/>
<path d="M216.188 71.0111C216.283 67.2172 217.458 64.0393 220.214 61.3103C221.368 60.1672 222.803 59.3887 224.483 59.4335C226.267 59.4813 227.998 61.374 229.547 61.3253C231.365 61.2681 233.107 59.3925 234.837 58.7895C236.494 58.2117 237.676 58.1816 239.409 58.2028C238.905 61.6866 239.079 63.4043 241.243 66.4163C243.333 69.3267 246.642 71.0887 250.016 72.12C246.899 73.8691 243.34 75.5916 241.159 78.449C240.283 77.5964 239.761 77.0561 239.076 75.9863C238.683 75.371 238.107 74.3516 237.799 73.6406C237.664 73.5916 237.528 73.5428 237.393 73.4939C238.538 73.2495 240.59 73.1153 241.968 72.8724C240.177 72.3241 239.324 72.3693 237.447 72.5062C236.592 70.8509 236.118 66.9367 236.124 65.0061C236.141 59.5882 231.674 60.9169 229.876 64.5971C227.41 59.6506 221.968 62.2568 221.029 66.6833C220.632 68.557 220.274 71.2958 220.53 73.1673L216.188 71.0111Z" fill="#9CB489"/>
<path d="M226.609 66.8164C227.836 68.2102 228.532 70.1047 230.321 71.455C232.574 73.1558 234.833 72.7961 237.446 72.5068C239.323 72.37 240.176 72.3247 241.967 72.8731C240.589 73.116 238.537 73.2501 237.392 73.4945C231.851 74.1764 227.665 72.8698 226.609 66.8164Z" fill="#0C1E02"/>
<path d="M249.939 37.104C251.113 33.1124 257.12 29.8834 261.21 31.0936C263.706 32.1645 265.001 34.2874 267.143 35.3153C270.56 36.9552 274.722 35.9322 275.593 40.9903C276.147 45.2004 273.927 47.9896 270.722 50.4525L270.123 49.7189C269.482 49.2719 269.218 49.1966 268.446 49.1153C265.241 49.7277 261.296 51.9024 260.29 55.2251C260.069 55.956 259.991 56.7298 259.958 57.491C259.701 57.0515 259.419 56.5878 259.18 56.142C259.238 55.6154 259.357 55.1097 259.178 54.632C258.15 53.5994 256.427 56.0562 253.745 54.4892C253.432 54.3116 253.446 54.2716 253.21 54.1087C252.907 53.8999 253.948 52.577 254.203 52.1716C255.068 50.7893 255.551 49.2026 255.602 47.5732C255.649 46.099 255.356 44.0126 254.281 42.9514C252.994 41.6823 251.552 42.0105 249.98 42.0329C249.642 41.7816 249.717 41.5965 249.598 41.0422C249.314 39.7096 249.364 38.353 249.939 37.104Z" fill="#E86940"/>
<path d="M253.746 54.4892C254.568 53.6123 254.826 53.8713 255.94 52.3158C258.394 48.8916 256.705 46.0243 258.38 42.8979C258.852 42.1481 260.406 40.7947 261.298 40.7517C262.954 40.6721 262.716 43.4149 262.825 44.5154L262.984 44.6044C265.422 43.93 267.697 46.9518 268.549 48.9038L268.447 49.1153C265.243 49.7278 261.297 51.9025 260.292 55.2251C260.07 55.956 259.992 56.7298 259.959 57.4911C259.703 57.0515 259.42 56.5879 259.182 56.1421C259.24 55.6155 259.359 55.1097 259.18 54.6321C258.151 53.5995 256.428 56.0563 253.746 54.4892Z" fill="#E8E3A3"/>
<path d="M254.399 39.1899C256.319 39.3998 256.125 40.8377 257.21 40.7874C257.557 40.3277 257.778 39.4622 258.106 39.1609C259.6 37.7881 262.146 37.7563 263.772 38.9161C265.191 39.9288 264.31 41.4693 264.758 42.7299C266.064 43.3468 269.523 40.1386 269.273 46.664C269.26 47.009 270.198 46.9528 270.284 48.1873L270.165 48.4071L270.222 48.5536C270.374 48.9489 270.486 49.1055 270.365 49.5032L270.127 49.7181C269.486 49.271 269.221 49.1957 268.449 49.1144L268.55 48.9029C267.698 46.9509 265.424 43.9291 262.986 44.6034L262.827 44.5145C262.717 43.414 262.956 40.6712 261.3 40.7508C260.407 40.7937 258.853 42.1471 258.382 42.897C256.707 46.0234 258.396 48.8907 255.942 52.3149C254.827 53.8704 254.57 53.6114 253.748 54.4883C253.435 54.3107 253.45 54.2707 253.213 54.1078C252.911 53.899 253.952 52.5761 254.207 52.1707C255.071 50.7884 255.554 49.2017 255.606 47.5723C255.653 46.0981 255.359 44.0118 254.284 42.9505C252.998 41.6814 251.556 42.0096 249.984 42.032C249.646 41.7807 249.721 41.5956 249.602 41.0413C250.145 40.4367 250.258 40.2973 251.067 40.1924C252.22 39.8116 253.215 39.4803 254.399 39.1899Z" fill="#D8D080"/>
<path d="M261.211 31.0938C263.707 32.1647 265.002 34.2876 267.144 35.3154C270.561 36.9553 274.723 35.9324 275.594 40.9905C275.049 41.6818 274.123 43.6782 273.119 43.3457C270.73 42.5547 270.074 38.5183 267.789 37.0342C265.694 35.6728 264.075 35.0519 262.231 33.5599C261.435 32.9154 261.213 32.0079 261.211 31.0938Z" fill="#ED916F"/>
<path d="M272.412 37.9443C273.246 38.2788 273.985 39.4569 273.478 40.3557C272.364 39.7164 271.593 39.25 272.412 37.9443Z" fill="#FABA9A"/>
<path d="M256.805 39.271C259.258 35.754 265.805 36.5813 265.708 41.355C265.702 41.6743 267.924 41.2177 268.212 41.5428C268.913 41.9167 269.306 42.4267 269.683 43.1242C270.148 43.9839 270.097 45.1924 270.361 46.052C270.649 46.9937 271.52 47.196 270.517 48.3668L270.327 48.3901L270.28 48.1883C270.194 46.9538 269.256 47.01 269.269 46.665C269.519 40.1396 266.06 43.3479 264.754 42.7309C264.307 41.4703 265.187 39.9298 263.768 38.9171C262.142 37.7573 259.596 37.7892 258.102 39.162C257.775 39.4632 257.553 40.3287 257.206 40.7884C256.121 40.8387 256.315 39.4009 254.395 39.1909L254.463 39.0425C254.382 38.8231 254.415 38.7275 254.419 38.493L254.16 38.3193L254.955 38.2264C255.739 38.5427 256.172 38.6831 256.805 39.271Z" fill="#2A1509"/>
<path d="M249.939 37.1042C250.589 36.7438 250.815 35.5142 251.502 35.1963L251.685 35.3776C251.335 35.9562 250.085 37.7379 251.341 38.2145C251.921 38.4346 253.308 37.8649 253.867 37.5718C253.717 37.8989 253.707 37.7593 253.751 38.0455C254.237 38.1022 254.476 38.0623 254.956 38.2266L254.161 38.3195L254.419 38.4932C254.415 38.7277 254.383 38.8232 254.464 39.0426L254.396 39.191C253.211 39.4814 252.217 39.8127 251.063 40.1936C250.255 40.2985 250.142 40.4379 249.598 41.0425C249.314 39.7098 249.364 38.3533 249.939 37.1042Z" fill="#ED916F"/>
<path d="M251.062 40.1925C250.943 40.114 251.015 40.1715 250.879 39.9867C251.308 39.0944 253.243 38.4653 254.16 38.3184L254.418 38.4921C254.414 38.7266 254.382 38.8221 254.463 39.0415L254.395 39.1899C253.21 39.4803 252.216 39.8116 251.062 40.1925Z" fill="#1F1F1C"/>
<path d="M251.684 35.3776C252.138 34.7151 252.671 33.4601 253.686 33.643C253.83 34.4188 252.261 35.6264 253.469 36.3251C253.893 36.5704 254.198 36.7346 254.638 36.9559L253.866 37.5718C253.308 37.8649 251.921 38.4346 251.341 38.2145C250.084 37.738 251.334 35.9562 251.684 35.3776Z" fill="#C64F30"/>
<path d="M315.13 120.467C315.549 120.395 316.303 120.401 316.751 120.391C317.264 121.141 317.758 122.2 317.83 123.112C318.326 129.4 319.103 135.898 319.493 142.171C313.868 147.043 310.632 153.863 308.394 160.805L308.238 161.203L308.141 161.166C307.886 158.188 307.877 154.936 307.678 151.891C307.237 144.472 306.453 137.077 305.328 129.73C305.123 128.427 304.228 124.479 304.868 123.612C306.17 121.847 313.022 120.845 315.13 120.467Z" fill="#245841"/>
<path d="M269.893 62.1628C275.629 59.6554 276.087 62.395 280.607 65.1061L307.616 81.5708C301.352 83.0534 291.705 84.015 285.293 84.2145C283.927 81.6487 282.534 79.0974 281.114 76.561C279.238 73.1894 277.782 70.4049 275.224 67.4631C274.458 66.0556 273.181 64.7477 272.43 63.5095C273.227 63.5428 273.804 63.8388 274.524 64.1772C273.898 63.6227 272.299 62.3443 271.608 63.6137C269.893 66.7638 270.452 71.5489 270.57 75.0808C270.641 77.2007 271.633 79.6565 269.698 81.1421C268.911 79.5495 268.871 71.1384 269.058 69.2239C269.284 66.9053 270.004 64.6397 269.893 62.1628Z" fill="#E8E3A3"/>
<path d="M243.375 53.4814C247.695 56.1199 248.066 53.9554 251.702 54.5489C254.597 55.0215 253.444 56.9608 258.112 55.4818C258.355 57.2568 259.099 58.0427 260.604 58.8983C260.855 58.6544 261.077 58.4802 261.348 58.2629C263.014 58.6641 264.399 58.6556 266.097 58.697C266.228 59.2244 266.074 59.0905 265.996 59.6268C266.134 60.4484 265.992 61.8093 265.899 62.6613C261.964 65.3455 258.316 67.0787 254.245 69.4347C253.292 69.9672 252.363 70.62 251.455 71.2318C249.713 70.7146 247.659 70.2057 246.196 69.1267C243.09 67.3962 240.146 63.877 240.443 60.1469C240.649 57.558 241.752 55.4534 243.375 53.4814Z" fill="#E86940"/>
<path d="M242.894 56.0371C243.728 59.7778 244.533 61.378 247.356 64.1302C247.889 64.6489 249.394 66.1437 250.164 66.1246C250.444 66.1178 250.665 66.1635 250.945 66.1959C252.014 66.4124 253.805 66.744 253.137 68.2944C253.12 68.9207 253.777 68.9313 254.243 69.4351C253.29 69.9675 252.361 70.6204 251.453 71.2322C249.711 70.715 247.657 70.2061 246.193 69.1271C246.212 69.11 246.231 69.0929 246.25 69.0758C246.606 69.054 245.931 68.2922 245.697 68.0345C243.84 65.9935 242.484 63.6317 241.997 60.8815C241.606 58.6758 241.659 57.8337 242.894 56.0371Z" fill="#C64F30"/>
<path d="M250.949 66.1953C252.018 66.4117 253.809 66.7434 253.141 68.2938C252.306 68.1555 251.903 68.2831 251.083 68.3121C250.455 68.0045 250.723 67.7639 250.549 67.6288C250.101 67.2803 249.73 67.085 249.305 66.6235L249.392 66.4176C249.903 66.1822 250.378 66.2181 250.949 66.1953Z" fill="#2A1509"/>
<path d="M261.349 58.2627C263.015 58.6638 264.4 58.6554 266.098 58.6968C266.23 59.2241 266.075 59.0902 265.997 59.6266C264.021 59.6073 262.427 59.7399 260.605 58.8981C260.857 58.6542 261.078 58.48 261.349 58.2627Z" fill="#2A1509"/>
<path d="M237.413 119.568C238.966 119.663 244.969 121.038 246.31 121.975C246.834 122.298 247.284 122.897 247.441 123.517C248.906 129.297 249.249 135.741 250.371 141.573C249.714 143 249.238 143.93 248.24 145.128C246.473 146.815 242.081 145.993 239.685 145.776C239.554 143.786 239.165 141.297 238.902 139.299L237.295 127.693C237.108 126.402 236.814 125.141 236.597 123.859C236.324 122.251 235.977 120.694 237.413 119.568Z" fill="#245841"/>
<path d="M338.549 111.681C339.031 111.627 339.728 111.475 340.154 111.771C341.459 112.675 342.711 127.309 343.08 129.833C341.486 130.76 337.552 132.422 335.744 133.242C335.176 133.533 334.59 133.768 334.003 134.016C333.449 129.88 333.15 125.473 332.478 121.366C331.465 115.177 332.672 113.555 338.549 111.681Z" fill="#245841"/>
<path d="M267.086 84.0262C273.228 81.7899 272.453 79.8918 271.942 74.1919C271.671 71.1676 271.688 67.4552 271.974 64.423C271.997 64.1779 272.283 63.7246 272.428 63.5098C273.178 64.7479 274.456 66.0559 275.221 67.4634C275.243 68.9736 282.739 82.0145 283.951 84.3063C278.328 84.4457 272.701 84.3523 267.086 84.0262Z" fill="#D8D080"/>
<path d="M332.672 110.114C336.721 108.445 341.477 105.948 345.34 103.907C345.342 104.63 345.359 104.967 345.439 105.684C345.599 113.063 345.613 121.137 346.083 128.476L344.181 129.372C343.873 126.294 343.504 123.264 343.075 120.115C342.834 118.355 342.328 111.897 340.932 110.823C339.192 109.482 335.265 111.613 333.481 112.579C332.956 112.148 332.813 110.823 332.672 110.114Z" fill="#0A2623" fill-opacity="0.7"/>
<path d="M233.18 177.258C235.155 178.481 236.547 179.15 238.001 180.965C236.449 181.773 234.822 182.004 233.104 182.376C234.127 182.697 234.664 182.772 235.739 182.928C234.394 182.982 234.018 183.164 234.018 184.688C232.227 185.728 231.628 200.798 229.687 202.191C228.771 202.261 227.762 201.071 226.711 200.821C227.354 197.641 227.924 194.379 228.469 191.165C229.023 187.901 229.146 184.199 230.407 181.086C230.962 179.716 232.207 178.352 233.18 177.258Z" fill="#245841"/>
<path d="M217.969 112.557C218.204 112.604 219.432 112.838 219.571 112.904L219.443 113.011C219.543 113.587 221.323 114.314 221.836 114.798C224.613 117.42 224.383 124.136 224.638 127.856C223.16 128.481 221.988 129.248 220.641 130.099C219.614 124.458 218.831 118.268 217.969 112.557Z" fill="#245841"/>
<path d="M311.727 31.7211C316.232 31.4028 323.112 32.2833 325.032 37.175C325.225 37.6658 325.292 38.487 325.352 39.0279C323.64 38.204 322.003 37.4028 320.24 36.6886C314.139 34.3518 310.579 34.8746 304.113 35.397C306.256 33.0121 308.582 32.2441 311.727 31.7211Z" fill="#9CB489"/>
<path d="M224.914 154.65C226.256 155 227.603 155.332 228.92 155.764C229.39 158.679 229.658 161.635 229.989 164.56C230.217 166.574 230.166 170.871 231.315 172.479C231.373 173.153 231.343 173.718 231.32 174.389C228.47 173.137 227.901 173.046 227.493 169.833C226.862 164.853 225.333 159.658 224.914 154.65Z" fill="#245841"/>
<path d="M261.35 58.2629C261.197 56.7075 261.222 55.3325 262.253 53.9993C263.286 52.6645 267.616 49.6246 269.215 50.5742C269.561 51.0518 269.521 51.3574 269.628 51.9224C270.448 51.5903 270.84 51.3941 271.612 50.9582C269.794 53.613 268.531 55.8665 267.792 59.0766C267.54 60.1713 267.357 61.7751 267.027 62.7619C266.938 61.4665 267.225 59.8454 266.828 58.8497C266.505 58.6247 266.577 58.6994 266.099 58.697C264.401 58.6556 263.016 58.664 261.35 58.2629Z" fill="#9CB489"/>
<path d="M268.146 27.8017C267.9 28.7945 266.435 32.4474 265.707 33.0614C265.637 33.0244 265.567 32.9873 265.497 32.9502C265.381 32.1154 265.585 30.3062 265.523 29.5434C265.462 28.8016 265.276 27.6368 265.048 27.1034C264.074 24.8586 261.379 24.08 260.019 22.2129C259.784 21.8899 260.423 21.2153 260.786 21.1146C262.083 20.7546 263.835 21.769 264.978 22.3137C267.803 23.623 268.784 24.5631 268.146 27.8017Z" fill="#9D8278"/>
<path d="M268.143 27.8015C268.063 27.7603 267.984 27.7191 267.904 27.678C267.146 27.3339 264.797 23.4382 264.617 22.8102C264.74 22.4021 264.626 22.5629 264.975 22.3135C267.8 23.6228 268.781 24.5629 268.143 27.8015Z" fill="#B0B0AB"/>
<path d="M307.962 199.36C308.196 199.835 309.034 203.346 309.289 204.208C310.175 207.258 311.226 210.26 312.439 213.196L310.938 213.73C309.142 214.309 307.171 214.607 307.22 212.073C307.253 210.378 307.404 208.724 307.526 207.037C307.713 204.48 307.858 201.921 307.962 199.36Z" fill="#245841"/>
<path d="M225.884 137.483C226.203 138.769 226.546 141.531 226.752 142.909C226.261 142.775 225.762 142.591 225.279 142.424C222.676 140.949 224.395 139.078 225.884 137.483Z" fill="#245841"/>
<path d="M278.652 42.8448C279.503 42.7587 280.35 42.7606 281.205 42.7471C279.831 43.5267 278.504 44.3861 277.23 45.321L275.684 46.5292C276.236 45.1731 276.475 44.5153 276.682 43.0745C277.299 42.9486 278.018 42.9041 278.652 42.8448Z" fill="#9CB489"/>
<path d="M448.461 39C448.708 62.0528 454.301 76.7851 470.301 94.2598C523.106 151.924 617.171 179.139 692.756 184.101C701.766 184.692 710.986 184.986 720.352 184.979C729.717 184.986 738.937 184.692 747.947 184.101C823.532 179.139 917.597 151.924 970.402 94.2598C986.403 76.7851 991.995 62.0528 992.242 39H1042.13C1042.36 41.3223 1042.47 44.1961 1042.59 47.1611V47.1943C1042.79 52.3451 1043 57.7823 1043.85 61.1553C1049.14 82.2372 1068.77 102.812 1085.15 116.224C1151.32 171.53 1233.59 193.13 1440.35 188.501V205.563C1434.83 205.328 1417.85 206.049 1402.4 205.563C1350.06 203.919 1257.65 201.016 1239.14 198.054C1239.02 211.194 1239.03 224.334 1239.17 237.474L1440.35 237.472V273.876L1044.23 273.886C1044.24 278.291 1044.28 282.974 1044.33 287.784V287.86C1044.47 301.911 1044.61 317.048 1043.86 329.569C1032.33 330.08 1018.52 329.923 1005.62 329.776L1005.57 329.775C1000.54 329.718 995.647 329.663 991.088 329.649C990.772 317.3 990.864 304.161 990.956 291.277C990.997 285.386 991.038 279.546 991.04 273.857L720.352 273.855L449.663 273.857C449.665 279.546 449.706 285.386 449.747 291.277C449.839 304.161 449.931 317.3 449.615 329.649C445.056 329.663 440.163 329.718 435.129 329.775L435.082 329.776C422.185 329.923 408.368 330.08 396.846 329.569C396.093 317.048 396.238 301.911 396.373 287.86V287.784C396.42 282.974 396.463 278.291 396.471 273.886L0.349609 273.876V237.472L201.531 237.474C201.676 224.334 201.688 211.194 201.561 198.054C183.057 201.016 90.6387 203.919 38.3057 205.563C22.8543 206.049 5.87774 205.328 0.349609 205.563V188.501C207.11 193.13 289.384 171.53 355.555 116.224C371.933 102.812 391.563 82.2372 396.857 61.1553C397.706 57.7823 397.917 52.3451 398.117 47.1943V47.1611C398.231 44.1961 398.343 41.3223 398.57 39H448.461ZM396.414 96.7549C393.762 99.3461 391.264 102.124 388.737 104.937L388.708 104.972C385.844 108.157 382.939 111.386 379.724 114.436C360.471 132.701 340.28 146.01 317.093 158.542L317.157 236.994C319.772 237.982 366.592 237.68 387.379 237.546L393.077 237.511L396.443 237.497L396.426 144.137C396.428 140.07 396.453 135.939 396.482 131.781L396.506 128.907V128.892C396.588 118.111 396.671 107.198 396.414 96.7549ZM1044.29 96.7549C1044.03 107.198 1044.11 118.111 1044.2 128.892V128.907L1044.22 131.781C1044.25 135.939 1044.28 140.07 1044.28 144.137L1044.26 237.497L1047.63 237.511L1053.32 237.546C1074.11 237.68 1120.93 237.982 1123.55 236.994L1123.61 158.542C1100.42 146.01 1080.23 132.701 1060.98 114.436C1057.76 111.386 1054.86 108.157 1052 104.972L1051.97 104.937C1049.44 102.124 1046.94 99.3461 1044.29 96.7549ZM541.986 160.992C541.289 162.67 541.466 209.053 541.542 229.088L541.562 234.479L541.567 237.439L617.608 237.604L618.447 236.996C618.88 234.106 618.824 227.624 618.783 223.036V222.676C618.773 221.603 618.763 220.646 618.765 219.882L618.747 186.523C589.646 179.036 570.202 172.66 542.71 160.815L541.986 160.992ZM897.993 160.815C870.502 172.66 851.057 179.036 821.956 186.523L821.938 219.882C821.94 220.646 821.93 221.603 821.92 222.676V223.036C821.879 227.624 821.823 234.106 822.256 236.996L823.095 237.604L899.136 237.439L899.142 234.479L899.161 229.088C899.238 209.053 899.415 162.67 898.717 160.992L897.993 160.815ZM300.33 166.776C273.964 178.664 246.466 187.861 218.251 194.226C218.523 204.554 218.488 215.29 218.453 225.858V226L218.434 232.991L218.43 237.289C220.501 237.645 232.473 237.56 239.058 237.514L239.213 237.513C240.707 237.502 241.912 237.493 242.638 237.493L300.283 237.455L300.33 166.776ZM1140.42 237.455L1198.07 237.493C1198.79 237.493 1200 237.502 1201.49 237.513L1201.65 237.514C1208.23 237.56 1220.2 237.645 1222.27 237.289L1222.27 232.991L1222.25 226V225.858C1222.21 215.29 1222.18 204.554 1222.45 194.226C1194.24 187.861 1166.74 178.664 1140.37 166.776L1140.42 237.455ZM636.224 190.244C634.979 191.783 635.238 220.639 635.346 232.809V232.97C635.365 235.069 635.379 236.654 635.379 237.489L710.25 237.482C710.65 237.467 710.948 237.472 711.184 237.476C711.973 237.487 712.052 237.488 712.854 236.706C713.469 230.206 713.294 217.537 713.157 207.507V207.095C713.108 203.703 713.063 200.631 713.062 198.229C687.887 197.622 662.796 194.996 638.041 190.377L636.224 190.244ZM802.662 190.377C777.907 194.996 752.816 197.622 727.642 198.229C727.64 200.631 727.595 203.703 727.546 207.095V207.507C727.409 217.537 727.234 230.206 727.85 236.706C728.651 237.488 728.73 237.487 729.52 237.476C729.755 237.472 730.053 237.467 730.453 237.482L805.324 237.489C805.324 236.654 805.338 235.069 805.357 232.97V232.809C805.465 220.639 805.724 191.783 804.479 190.244L802.662 190.377ZM450.356 95.2666C449.372 96.6582 449.572 190.122 449.646 225.372V226.056L449.669 237.45L524.32 237.457C525.451 235.615 525.167 180.645 525.06 159.626L525.058 159.516V159.457L525.025 152.45C492.48 133.693 475.125 123.532 450.356 95.2666ZM990.347 95.2666C965.578 123.532 948.223 133.693 915.678 152.45L915.646 159.457V159.516L915.644 159.626C915.536 180.645 915.252 235.615 916.383 237.457L991.034 237.45L991.057 226.056V225.372C991.131 190.122 991.331 96.6582 990.347 95.2666Z" fill="#0F3934"/>
</g>
<defs>
<clipPath id="clip0_45_50">
<rect width="1440" height="273" fill="white"/>
</clipPath>
</defs>
</svg>
