<svg width="183" height="170" viewBox="0 0 183 170" fill="none" xmlns="http://www.w3.org/2000/svg">
<path d="M49.4707 0.026546C50.0094 0.0268661 50.5221 -2.85201e-05 51.0481 0.107867C67.8706 -0.09928 85.0131 0.0553613 101.86 0.0569621L116.385 0.0584009C119.799 0.0576004 124.418 -0.250077 127.679 0.577552C139.145 3.48754 144.887 12.6107 144.99 23.8134L144.974 52.181C144.975 56.9606 144.823 62.5862 145.175 67.2499C145.446 67.9818 145.521 68.2914 145.68 69.0542L156.125 80.2539C158.222 82.4906 161.424 85.6923 163.105 88.0911C168.367 95.6 169.516 106.456 169.241 115.41C169.205 116.585 169.145 119.821 168.708 120.818C175.713 132.105 179.241 140.9 181.359 154.189C182.185 159.369 182.971 164.411 182.731 169.742C180.802 170.104 175.71 169.979 173.524 169.979L156.167 169.973H120.372C114.169 169.973 107.965 169.99 101.763 169.947C100.842 169.941 98.9555 169.753 98.9351 168.511C98.7743 158.828 98.0484 149.242 94.3058 140.188C93.851 139.088 93.3606 137.644 92.7494 136.616C92.6284 136.563 92.4173 136.461 92.2988 136.431C89.8042 136.475 86.0809 136.587 83.6759 136.343C81.6445 136.626 73.4524 136.474 71.0704 136.475L60.7503 136.49C59.3493 136.491 53.9889 136.7 53.0718 136.014C52.0533 135.243 49.4926 133.864 48.2691 133.176L39.8769 128.471L13.1707 113.394C9.90793 111.559 4.31528 108.934 1.80373 106.503C0.220192 104.97 0.139989 102.413 0.114376 100.345C0.0735545 97.063 0.135026 93.7755 0.121899 90.4922C0.10525 86.2964 -0.37996 81.391 0.709565 77.3239C3.33252 67.5329 13.8256 68.0666 15.5848 61.0552C16.3077 58.1743 15.8949 54.4918 15.8834 51.4992L15.8757 31.8525C15.8685 27.985 15.4699 21.5828 16.3023 17.9225C20.0682 1.36548 35.2606 0.0580823 49.4707 0.026546Z" fill="#9EC6E8"/>
<path d="M145.462 106.256C147.322 106.052 151.771 105.884 153.448 106.506C154.689 106.966 157.258 109.004 158.356 109.885C160.865 111.876 163.169 114.115 165.23 116.567C166.367 117.91 167.572 119.537 168.706 120.818C175.711 132.105 179.239 140.9 181.357 154.188C182.183 159.369 182.969 164.411 182.729 169.742C180.8 170.104 175.708 169.979 173.523 169.979L156.165 169.973H120.37C114.167 169.973 107.963 169.99 101.761 169.947C100.84 169.941 98.9538 169.753 98.9333 168.511C98.7726 158.828 98.0466 149.242 94.304 140.188C93.8492 139.088 93.3589 137.644 92.7477 136.616C92.6267 136.563 92.4155 136.461 92.2971 136.43C89.8025 136.475 86.0791 136.587 83.6742 136.342C82.9362 134.228 74.1043 121.441 72.442 119.16C71.133 117.106 69.7867 115.076 68.404 113.07L67.8341 112.849C66.9665 111.327 69.6327 107.901 71.0068 107.069L71.3212 107.153C72.376 105.773 80.6829 106.211 82.7966 106.213L99.3002 106.23C114.6 106.242 130.189 106.069 145.462 106.256Z" fill="#FCD27F"/>
<path d="M145.462 106.256C147.322 106.052 151.771 105.884 153.448 106.506C154.689 106.966 157.258 109.004 158.356 109.885C160.865 111.876 163.169 114.115 165.23 116.567C166.367 117.91 167.572 119.537 168.706 120.818C175.711 132.105 179.239 140.9 181.357 154.188C182.183 159.369 182.969 164.411 182.729 169.742C180.8 170.104 175.708 169.979 173.523 169.979L156.165 169.973H120.37C114.167 169.973 107.963 169.99 101.761 169.947C100.84 169.941 98.9538 169.753 98.9333 168.511C98.7726 158.828 98.0466 149.242 94.304 140.188C93.8492 139.088 93.3589 137.644 92.7477 136.616C92.6267 136.563 92.4155 136.461 92.2971 136.43C89.8025 136.475 86.0791 136.587 83.6742 136.342C82.9362 134.228 74.1043 121.441 72.442 119.16C71.133 117.106 69.7867 115.076 68.404 113.07L67.8341 112.849C66.9665 111.327 69.6327 107.901 71.0068 107.069L71.3212 107.153C73.0109 108.337 75.0326 109.279 76.8479 110.589C80.2474 113.041 83.1185 115.614 86.1494 118.363C94.1529 125.621 98.5939 131.565 101.505 141.971C102.517 145.587 103.5 149.189 104.142 152.954C104.788 156.748 104.415 160.313 105.099 164.096C105.491 164.138 105.883 164.171 106.276 164.198C109.543 164.427 113.642 164.328 116.958 164.328L135.099 164.314L163.879 164.286C165.341 164.278 175.943 164.48 176.548 163.952C177.795 160.933 173.017 143.157 171.65 139.461C166.589 125.937 157.434 114.329 145.462 106.256Z" fill="#0E67E6"/>
<path d="M68.4043 113.071C75.9737 116.651 85.1997 125.57 90.1639 132.416C90.7244 133.189 92.1874 135.56 92.2973 136.431C89.8028 136.475 86.0794 136.587 83.6745 136.342C82.9365 134.228 74.1045 121.441 72.4422 119.161C71.1332 117.106 69.7869 115.076 68.4043 113.071Z" fill="black"/>
<path d="M133.393 125.749C136.838 125.697 139.955 125.648 143.311 126.587C149.191 129.057 153.002 130.553 155.989 137.207C156.324 137.953 156.841 139.708 156.763 140.532C157.85 142.005 159.995 145.392 161.738 145.61C163.145 145.784 165.799 145.043 167.274 145.653L167.461 145.901C166.851 146.943 163.531 147.609 162.911 149.066C162.255 150.608 163.931 154.39 163.294 155.671C161.92 155.91 158.868 150.537 157.406 150.02C156.551 149.716 155.159 149.906 154.328 149.982C154.235 150.131 154.137 150.275 154.033 150.415C147.132 159.884 130.671 160.816 121.805 153.816C118.625 151.306 116.081 147.856 115.618 143.753C114.443 133.345 124.211 126.855 133.393 125.749Z" fill="#FE2D00"/>
<path d="M154.327 149.981C153.156 149.967 150.678 150.306 149.771 149.879L149.783 149.631C150.662 148.608 154.654 147.599 155.703 146.805C157.58 145.381 154.934 141.484 155.214 139.72L155.464 139.552C156.06 139.678 156.327 140.074 156.762 140.532C157.849 142.004 159.994 145.392 161.738 145.61C163.145 145.784 165.799 145.043 167.273 145.653L167.461 145.901C166.851 146.943 163.531 147.609 162.911 149.066C162.255 150.607 163.931 154.39 163.294 155.671C161.92 155.909 158.867 150.537 157.406 150.02C156.551 149.716 155.158 149.906 154.327 149.981Z" fill="white"/>
<path d="M125.452 131.864C126.061 132.014 126.127 132.128 126.393 132.624C126.266 133.891 124.361 134.879 123.212 135.99C120.676 138.199 121.38 141.367 122.081 144.241C122.383 145.477 122.869 146.272 121.728 147.119C120.964 146.517 120.48 145.874 120.12 144.974C117.923 139.48 120.254 134.212 125.452 131.864Z" fill="white"/>
<path d="M89.4536 109.13C90.143 109.026 90.5247 109.095 91.1817 109.297C97.8586 111.347 103.152 117.693 106.296 123.687C107.377 125.748 110.527 131.445 109.867 133.907C109.633 134.782 108.579 135.788 107.659 136.201C106.828 136.242 106.107 136.049 105.293 135.881C103.83 133.724 103.046 131.306 101.958 129.002C99.3888 123.563 95.8635 118.072 90.119 115.616C89.7115 115.369 87.562 114.399 87.3971 114.012C86.2628 111.348 87.4541 110.259 89.4536 109.13Z" fill="white"/>
<path d="M133.393 125.749C133.506 118.331 138.289 112.962 145.551 111.718C146.294 111.56 147.005 111.325 147.77 111.305C148.82 111.277 149.603 112.087 149.64 113.129C149.8 117.569 148.282 122.216 144.957 125.269C144.447 125.738 143.87 126.17 143.31 126.586C139.955 125.648 136.837 125.697 133.393 125.749Z" fill="#0E67E6"/>
<path d="M109.497 140.012C112.829 140.116 113.687 141.982 112.519 144.947C111.914 145.302 111.265 145.571 110.623 145.856C108.593 146.143 106.547 144.492 107.233 142.346C107.693 140.903 108.285 140.716 109.497 140.012Z" fill="white"/>
<path d="M145.678 69.0542L156.124 80.2539C158.221 82.4906 161.422 85.6923 163.103 88.0911C168.365 95.6 169.515 106.456 169.239 115.41C169.204 116.585 169.143 119.821 168.706 120.818C167.573 119.537 166.367 117.911 165.231 116.567C163.169 114.115 160.865 111.876 158.357 109.885C157.259 109.004 154.689 106.966 153.449 106.506C151.771 105.884 147.322 106.052 145.462 106.257C130.19 106.07 114.6 106.242 99.3006 106.23L82.797 106.213C80.6832 106.212 72.3764 105.773 71.3216 107.153L71.0072 107.069C69.633 107.901 66.9668 111.327 67.8345 112.85L68.4044 113.071C69.787 115.076 71.1333 117.106 72.4423 119.161C74.1046 121.441 82.9366 134.228 83.6745 136.343C81.6431 136.626 73.451 136.474 71.069 136.475L60.7489 136.49C59.3478 136.491 53.9875 136.7 53.0703 136.014C53.3633 135.344 53.2437 130.811 53.2399 129.841L53.2135 118.072C53.246 102.501 53.7088 92.4284 44.4547 78.6048C42.3489 75.4593 39.835 72.7081 37.541 69.3795C40.5219 69.2541 44.1731 69.343 47.2107 69.343L64.7548 69.3439L118.164 69.3504L135.396 69.3531C137.971 69.3537 143.426 69.4877 145.678 69.0542Z" fill="#9EC6E8"/>
<path d="M67.8347 112.85L68.4046 113.071C69.7873 115.076 71.1336 117.106 72.4426 119.161C69.8327 119.491 67.6937 115.161 67.8347 112.85Z" fill="#FCD27F"/>
<path d="M54.5248 95.2451C66.6578 95.0154 79.3573 95.2052 91.527 95.2062L108.198 95.2057C111.073 95.2022 113.967 95.1803 116.842 95.199C117.329 95.2022 118.273 95.3255 118.647 95.6267C118.975 95.8909 118.893 95.9111 118.947 96.3177C118.759 96.8093 118.722 96.8618 118.345 97.2292C116.309 97.3973 112.543 97.2903 110.382 97.2903L95.2156 97.2884L69.6558 97.2897C65.2671 97.2902 60.8687 97.293 56.4802 97.2815C55.9368 97.2802 54.9799 97.2276 54.4831 97.0107C54.0256 96.811 54.0387 96.6594 53.9316 96.2898C54.0525 95.7255 54.1217 95.666 54.5248 95.2451Z" fill="white"/>
<path d="M128.22 95.2718C132.84 95.1101 137.734 95.2436 142.378 95.1932C144.028 95.1752 148.969 95.1008 150.27 95.359C150.842 95.8977 150.741 96.6594 150.201 97.1792C148.251 97.3878 128.839 97.4809 128.241 97.1103C128.042 96.9869 127.96 96.7305 127.932 96.5017C127.877 96.0461 127.963 95.6443 128.22 95.2718Z" fill="white"/>
<path d="M49.4707 0.0264338C50.0094 0.0267539 50.5221 -0.000140719 51.0481 0.107755C50.5048 0.523651 49.5115 0.595208 48.8044 0.701503C44.9346 1.58836 40.3737 2.60793 38.2756 6.30441C34.8308 12.3733 35.4775 20.6808 35.5564 27.3387L35.7466 44.805L35.8688 55.7587C35.9021 58.7763 35.7842 62.6 36.4873 65.4522C36.6368 66.0512 36.795 66.6482 36.9618 67.2427C57.333 66.9856 78.114 67.2118 98.5371 67.212L128.642 67.2136C134.061 67.2141 139.774 67.1247 145.175 67.2498C145.446 67.9817 145.521 68.2913 145.68 69.0541C143.427 69.4876 137.972 69.3536 135.398 69.3529L118.166 69.3502L64.7562 69.3438L47.2121 69.3429C44.1745 69.3429 40.5233 69.254 37.5424 69.3794C39.8364 72.708 42.3504 75.4592 44.4561 78.6046C53.7102 92.4283 53.2474 102.501 53.2149 118.072L53.2413 129.84C53.2451 130.811 53.3647 135.343 53.0718 136.014C52.0533 135.243 49.4926 133.864 48.2691 133.176L39.8769 128.471L13.1707 113.394C9.90794 111.559 4.31528 108.934 1.80373 106.503C0.220192 104.97 0.139989 102.413 0.114376 100.345C0.0735545 97.0628 0.135026 93.7754 0.121899 90.4921C0.10525 86.2963 -0.37996 81.3909 0.709565 77.3238C3.33253 67.5328 13.8256 68.0665 15.5848 61.055C16.3077 58.1742 15.8949 54.4916 15.8834 51.499L15.8757 31.8524C15.8685 27.9849 15.4699 21.5827 16.3023 17.9224C20.0682 1.36537 35.2606 0.0579701 49.4707 0.0264338Z" fill="#0E67E6"/>
<path d="M49.4693 0.0264338C50.008 0.0267539 50.5208 -0.000140719 51.0468 0.107755C50.5035 0.523651 49.5102 0.595208 48.8031 0.701503C48.2786 0.550705 48.2963 0.649156 48.0254 0.304017C48.4755 0.0368381 48.9326 0.0648537 49.4693 0.0264338Z" fill="#1E52A7"/>
<path d="M89.915 10.2306C103.246 9.03162 115.018 18.8844 116.184 32.2184C117.351 45.5523 107.47 57.3 94.1334 58.4347C80.8421 59.5655 69.1431 49.7252 67.9803 36.4367C66.8174 23.1482 76.6294 11.4255 89.915 10.2306Z" fill="black"/>
<path d="M91.3229 22.338C97.9074 21.8977 103.61 26.8609 104.083 33.4432C104.556 40.0257 99.6209 45.7528 93.041 46.2584C86.4147 46.7673 80.6384 41.7901 80.1622 35.1614C79.6861 28.5327 84.6919 22.7811 91.3229 22.338Z" fill="#0E67E6"/>
<path d="M89.7135 25.5677C90.3306 25.5849 90.5107 25.6278 90.9992 25.9812C91.2984 26.6854 91.0399 27.1966 90.389 27.4892C86.8765 29.0675 86.6901 31.368 85.7469 34.9882C82.9991 34.993 84.301 31.9674 84.8781 30.4304C85.7583 28.0859 87.4412 26.5382 89.7135 25.5677Z" fill="white"/>
<path d="M84.9093 37.0256C85.534 36.7772 86.2423 37.0764 86.4996 37.6973C86.7569 38.3184 86.4676 39.031 85.8501 39.2967C85.443 39.472 84.973 39.4145 84.6202 39.1464C84.2674 38.8783 84.0862 38.4407 84.1461 38.0016C84.2059 37.5625 84.4976 37.1895 84.9093 37.0256Z" fill="white"/>
<path d="M50.6705 12.5243C52.6098 12.4095 59.7326 12.0402 60.9251 13.3277C61.2632 14.168 61.4052 15.0459 61.4718 15.9469C61.6479 18.3327 61.7814 35.2149 61.1758 36.4471C60.8375 37.135 59.717 37.3849 59.0494 37.5856C57.0245 37.6002 48.2429 38.5182 48.0943 35.8823C47.7191 29.2214 47.9512 22.3398 47.9587 15.6453C47.9614 13.1875 48.4955 12.8955 50.6705 12.5243Z" fill="white"/>
<path d="M122.972 12.518C124.674 12.4075 126.557 12.4357 128.265 12.4394C136.089 12.4562 136.725 11.274 136.643 19.059C136.62 21.3482 136.609 23.6375 136.611 25.9269C136.069 26.8413 135.753 27.2834 134.841 27.8237C132.534 27.9679 124.167 27.9598 122.164 27.7544C120.581 25.1873 120.977 16.3619 121.579 13.2113C121.66 12.7913 122.614 12.6036 122.972 12.518Z" fill="#FE2D00"/>
<path d="M53.4532 44.9627C56.9158 44.2785 60.2753 46.5376 60.9479 50.0025C61.6205 53.4673 59.3501 56.8191 55.883 57.4801C52.4324 58.1377 49.0998 55.8806 48.4305 52.4322C47.7612 48.9837 50.0071 45.6437 53.4532 44.9627Z" fill="#FE2D00"/>
<path d="M127.854 44.9284C131.334 44.4131 134.572 46.8166 135.087 50.2962C135.602 53.7759 133.198 57.0139 129.718 57.5281C126.239 58.0421 123.002 55.6388 122.487 52.1599C121.973 48.6811 124.376 45.4436 127.854 44.9284Z" fill="#FE2D00"/>
<path d="M164.934 32.6838C165.325 32.7536 165.754 32.7435 165.911 33.1311C167.358 36.7315 166.69 40.5714 168.616 44.0938C171.233 48.8785 174.895 47.7729 178.714 50.1238C178.948 50.2674 178.853 50.576 178.823 50.8048C177.762 51.993 173.648 51.4744 171.198 53.2331C166.748 56.063 166.878 60.6087 166.679 65.2788C166.626 66.5137 166.854 68.4749 165.674 69.1415C165.134 69.0004 165.326 69.0989 164.939 68.5285C162.941 61.825 163.868 53.8772 154.322 52.8092C153.213 52.6848 150.7 52.8377 150.16 51.7953C150.559 50.5754 155.299 49.4011 156.645 49.0019C165.259 46.4495 162.302 38.4307 164.934 32.6838Z" fill="#FCD27F"/>
<path d="M166.197 43.782L166.798 44.004C167.565 44.7284 167.864 46.5685 168.765 47.4456C169.574 48.2313 170.604 48.186 170.923 49.1873C170.8 49.7113 170.481 49.8751 170.047 50.2255C167.344 50.2269 163.974 45.7889 166.197 43.782Z" fill="white"/>
</svg>
