<svg width="167" height="170" viewBox="0 0 167 170" fill="none" xmlns="http://www.w3.org/2000/svg">
<path d="M48.0544 0.520658C53.5852 0.240028 55.9534 0.403611 61.4319 1.18456C61.6745 1.23936 62.0011 1.3016 62.231 1.37424C63.7082 1.72101 64.9719 1.98724 66.3712 2.60436C66.827 3.46988 67.1186 3.73303 68.0172 4.16472C68.6914 4.61909 68.839 5.317 69.3279 5.49724C70.5134 6.81346 72.1276 8.04087 73.92 8.31134C74.0995 8.53776 74.6356 8.78272 74.88 8.82146C75.4929 8.78579 75.7278 8.83894 76.3182 8.93839C76.5095 8.98268 76.7032 9.01906 76.8968 9.04729C77.9643 9.19268 78.8203 9.07823 79.6717 8.40973C80.7864 9.07752 82.2624 10.0433 83.279 10.8645C89.6164 15.048 95.8994 22.4658 99.6733 29.0065L99.8445 29.3282C107.351 41.9517 109.58 57.0259 106.05 71.2827C103.847 79.9607 99.2517 87.8446 92.7857 94.0359C91.2896 95.4509 89.3365 96.9261 87.7011 98.2147C85.3679 99.8741 81.7121 102.111 79.1569 103.466C78.1733 104.17 75.5413 105.174 74.3085 105.449C73.7122 105.915 73.4784 106.142 72.7558 106.375C66.9994 108.478 63.368 109.377 57.1416 109.569L56.9732 109.491C56.931 108.821 57.4459 107.721 57.7159 107.072L56.5809 106.987C54.6036 106.515 51.9158 106.44 49.6895 105.952C40.0297 103.836 32.5315 99.5989 24.7943 93.6249L24.5818 93.3544C23.9694 93.0273 21.5691 90.7229 20.9836 90.1324C13.9947 83.0859 10.2822 76.6302 6.6867 67.5662L6.61822 67.1819C5.06216 63.7915 3.84889 56.1399 3.58581 52.4405C2.77318 41.1231 5.884 29.8712 12.3947 20.5796C14.5933 17.5026 16.1165 16.1425 18.4714 13.4258C20.0151 11.9764 22.5296 10.1106 24.3345 9.03926C31.1617 4.3361 39.0645 1.43094 47.3118 0.59247L48.0544 0.520658Z" fill="#F8BC6B"/>
<path d="M66.3712 2.60436C66.827 3.46988 67.1186 3.73303 68.0172 4.16472C68.6914 4.61909 68.839 5.317 69.3279 5.49724C70.5134 6.81346 72.1276 8.04087 73.92 8.31134C74.0995 8.53776 74.6356 8.78272 74.88 8.82146C75.4929 8.78579 75.7278 8.83894 76.3182 8.93839C76.5095 8.98268 76.7032 9.01906 76.8968 9.04729C77.9643 9.19268 78.8203 9.07823 79.6717 8.40973C74.2363 5.50012 71.7363 4.50012 66.3712 2.60436Z" fill="#F8BC6B"/>
<path d="M24.3345 9.03918C24.3761 9.28934 24.4407 9.33186 24.2729 9.48245C23.1688 10.473 21.7224 11.4641 20.5762 12.4307C19.0346 13.7348 17.5749 15.1327 16.2054 16.6166C6.58244 27.1116 2.64518 41.598 4.41355 55.5811C4.84383 58.9834 5.76415 63.5708 6.97034 66.7901L7.01721 66.8917C9.74498 74.8878 14.1666 82.2 19.98 88.3299C20.9496 89.3563 22.4958 90.9319 23.5828 91.8201L24.2115 92.367C25.5977 93.6685 26.9196 94.6453 28.4407 95.7697C38.3419 103.1 50.4099 106.905 62.7237 106.583C66.3605 106.492 69.975 105.979 73.4938 105.056C74.5411 104.786 78.4248 103.364 79.1569 103.466C78.1733 104.17 75.5413 105.174 74.3085 105.449C73.7122 105.915 73.4784 106.142 72.7558 106.375C66.9994 108.478 63.368 109.377 57.1416 109.569L56.9732 109.491C56.931 108.821 57.4459 107.721 57.7159 107.072L56.5809 106.987C54.6036 106.515 51.9158 106.44 49.6895 105.952C40.0297 103.835 32.5315 99.5989 24.7943 93.6248L24.5818 93.3544C23.9694 93.0272 21.5691 90.7229 20.9836 90.1323C13.9947 83.0858 10.2822 76.6302 6.6867 67.5661L6.61822 67.1818C5.06216 63.7914 3.84889 56.1399 3.58581 52.4404C2.77318 41.1231 5.884 29.8712 12.3947 20.5795C14.5933 17.5025 16.1165 16.1425 18.4714 13.4257C20.0151 11.9764 22.5296 10.1106 24.3345 9.03918Z" fill="#131111"/>
<path d="M57.7139 107.072C63.7647 107.665 68.5513 106.501 74.3065 105.449C73.7102 105.916 73.4764 106.142 72.7538 106.375C66.9974 108.479 63.366 109.377 57.1396 109.569L56.9712 109.491C56.929 108.821 57.4439 107.721 57.7139 107.072Z" fill="#F4AB56"/>
<path d="M23.582 91.8201C23.9313 90.9874 23.7798 90.1748 23.9118 89.348C24.1648 87.7642 24.5149 84.4169 25.8979 83.4862L26.1408 83.472L26.2255 83.602C25.5526 85.9642 24.6831 88.2969 24.6632 90.789C24.6586 91.3642 24.7964 92.1024 24.2108 92.3669L23.582 91.8201Z" fill="#FDD183"/>
<path d="M6.96875 66.7903C7.0148 65.7123 12.572 59.5089 13.8729 58.988L13.9333 58.9987C13.9031 59.5075 11.157 62.62 10.5696 63.2156C9.74658 64.0498 8.05496 66.6836 7.01562 66.8919L6.96875 66.7903Z" fill="#FDD183"/>
<path d="M47.3105 0.592563L48.0532 0.520752L47.9934 0.739372C49.3406 3.01359 49.4969 5.46427 49.1827 8.08277C49.1662 8.22037 49.0441 8.35927 48.9502 8.454L48.7536 8.42246C48.5002 7.92108 48.5444 5.60045 48.3474 4.55068C48.0834 3.14399 47.5575 1.82705 47.3105 0.592563Z" fill="#FDD183"/>
<path d="M61.4299 1.18457C61.6726 1.23937 61.9992 1.30162 62.2291 1.37425C61.9314 2.11622 62.6975 6.22399 62.0229 7.03092L61.8311 6.9858C61.3659 6.19033 61.4174 2.32056 61.4299 1.18457Z" fill="#FDD183"/>
<path d="M99.6713 29.0063L99.8425 29.328L99.6276 29.7207C99.2805 30.3708 95.9128 33.7773 95.3402 33.7304L95.2988 33.4348C95.5988 32.572 98.84 29.7706 99.6713 29.0063Z" fill="#FDD183"/>
<path d="M24.1138 16.753C31.9097 11.0636 43.1493 8.98027 52.5879 10.461C65.3996 12.5271 76.8593 19.618 84.427 30.1629C95.8241 45.8498 97.8102 67.4697 86.3706 83.7023C86.0471 84.1606 84.7978 85.7775 84.3881 86.0066C83.0278 88.4161 79.6436 90.281 77.6079 92.0196C76.8368 92.746 76.6137 93.1334 75.5073 93.0614C75.2239 93.5751 74.9724 94.0665 74.6051 94.5271L74.3737 94.2377L74.506 93.8196C73.3417 93.796 71.0214 95.9291 69.7273 95.4673C69.608 95.8759 69.4144 96.4665 69.3553 96.8704C68.9385 97.1137 69.1593 97.0582 68.6669 97.0275C68.3256 97.3641 65.3276 98.3716 64.3381 98.8736L64.3404 97.2307C64.3156 97.7633 64.3156 98.0751 64.1799 98.6007L63.8835 98.7826C64.1692 99.157 64.3263 99.2952 64.4314 99.7405C63.3025 99.62 62.3425 99.6555 61.3554 100.245C61.0448 100.43 60.7508 100.622 60.3978 100.669L60.4273 100.507C60.7378 100.379 60.8547 100.35 61.1145 100.128L61.0779 99.8988C60.5513 99.7618 60.4308 100.154 59.9798 100.016L59.9467 99.7653L59.7885 99.5941L59.2654 99.8244C59.3421 99.8917 59.4555 99.946 59.5499 99.9992L59.3764 100.114C58.3089 99.6956 55.7121 100.104 54.5057 99.9519C53.1406 99.7807 52.8933 100.868 51.7917 100.527C51.6959 100.383 51.5207 100.131 51.3628 100.091C49.5368 99.6295 47.4065 99.6637 45.5673 99.1322L45.4864 98.9409C40.387 97.6594 36.6411 96.4783 31.9907 93.7216L31.5017 93.4936C28.5795 91.6051 25.1251 89.3527 22.778 86.7838C21.8703 86.0125 21.2592 85.5283 20.4787 84.62L20.3036 84.4346L18.6698 82.5436C15.8529 79.9437 11.6351 72.3643 10.3415 68.6112C9.67462 67.5135 8.81878 64.5406 8.60281 63.2034C8.2932 62.3229 8.0888 61.7389 7.88771 60.8348C7.4912 59.7384 7.27016 57.3427 7.15916 56.1207C7.12268 55.9727 7.08997 55.8237 7.06092 55.6741C6.91923 54.9629 6.51433 52.1139 6.89549 51.5486C6.80693 51.1176 6.87117 50.4627 6.89159 50.0004C7.12126 44.8209 7.99045 39.7103 9.93251 34.8862C10.2483 34.1018 10.5841 33.3205 10.8619 32.526C11.619 30.1076 13.9338 27.1524 15.2748 24.932C15.8112 24.044 16.3903 23.9319 17.0351 23.0838L17.1447 22.938C17.4523 21.7668 22.7927 17.4044 24.1138 16.753Z" fill="#FFF0E9"/>
<path d="M13.2783 50.011C15.9764 48.135 17.9455 49.1992 19.6033 51.68C21.792 54.9554 22.6736 59.8738 22.3877 63.7912C22.9411 63.3718 24.2153 62.4883 24.5496 61.9484L24.6356 61.8919C24.898 61.9419 24.8007 61.9506 25.0542 61.8717C27.9689 60.8721 29.6449 61.0483 31.94 63.0645C32.6143 62.8514 35.0778 61.4903 35.7651 61.1142L36.3966 59.7898C36.7819 59.6134 36.6343 59.7463 36.8461 59.3672C37.202 59.1636 38.6781 57.9282 38.9005 57.5762C39.1154 57.4457 39.1322 57.4125 39.3211 57.2417C39.6897 57.1744 40.1995 56.7598 40.5308 56.5278C40.9433 56.4182 41.1119 56.3024 41.4907 56.0944C42.2617 56.1618 43.5424 55.6791 45.1584 55.9183C45.6957 56.0698 45.9614 56.1324 46.4692 56.3937L46.7684 56.4444C49.8001 58.7471 50.2875 59.6887 51.9105 63.131C53.2628 62.0996 54.1483 62.0052 55.8431 62.1642C56.8001 62.254 59.1722 63.0899 59.9213 63.6597C62.0368 63.1841 64.9244 61.8629 66.8325 60.841C66.8632 61.8649 66.6944 62.9135 66.646 63.9278C66.5397 66.1831 66.2752 69.3856 66.5787 71.6044C69.3807 79.0497 70.532 84.13 70.787 92.1946C70.787 93.3615 70.7658 94.5273 70.7233 95.693C70.6985 96.2257 70.6985 96.5375 70.5627 97.0631L70.2663 97.245C70.552 97.6194 70.7091 97.7576 70.8142 98.2029C69.6853 98.0824 68.7254 98.1178 67.7382 98.7072C67.4277 98.8927 67.1336 99.084 66.7806 99.1312L66.8101 98.9694C67.1206 98.8419 67.2375 98.8123 67.4973 98.5903L67.4607 98.3611C66.9341 98.2241 66.8136 98.6163 66.3626 98.4781L66.3295 98.2277L66.1713 98.0564L65.6482 98.2867C65.7249 98.3541 65.8383 98.4084 65.9328 98.4616L65.7592 98.5761C64.6917 98.158 62.0949 98.5667 60.8885 98.4143C59.5234 98.243 59.2761 99.3308 58.1745 98.9895C58.0787 98.8454 57.9036 98.5938 57.7456 98.5537C55.9196 98.0919 53.7893 98.1261 51.9501 97.5946L51.8692 97.4033C46.7698 96.1218 43.0239 94.9407 38.3735 92.184L37.8845 91.956C34.9623 90.0674 31.508 87.8151 29.1608 85.2462C28.2531 84.4749 27.642 83.9906 26.8615 83.0824L26.6864 82.8969L25.0526 81.006C22.2357 78.406 18.0179 70.8267 16.7243 67.0736C16.0574 65.9759 15.2016 63.003 14.9856 61.6658C14.676 60.7852 14.4716 60.2013 14.2705 59.2972C13.874 58.2008 13.653 55.8051 13.542 54.583C13.5055 54.435 13.4728 54.2861 13.4437 54.1365C13.302 53.4253 12.8971 50.5763 13.2783 50.011Z" fill="#FC6F5B"/>
<path d="M66.8302 60.8411C66.8609 61.865 66.692 62.9136 66.6436 63.9279C66.5374 66.1832 66.2729 69.3856 66.5763 71.6045C69.3784 79.0498 70.5296 84.1301 70.7847 92.1947C70.7847 93.3616 70.7634 94.5274 70.7209 95.6931C70.6961 96.2258 70.6961 96.5376 70.5603 97.0632L70.264 97.2451C70.5497 97.6195 70.7068 97.7577 70.8119 98.203C69.683 98.0825 68.723 98.1179 67.7359 98.7073C67.4253 98.8927 67.1313 99.0841 66.7783 99.1313L66.8078 98.9695C67.1183 98.8419 67.2352 98.8124 67.495 98.5904L67.4584 98.3612C66.9317 98.2242 66.8113 98.6163 66.3602 98.4781L66.3272 98.2278L66.169 98.0565L65.6624 97.0691C62.9445 89.797 60.3357 85.8521 56.2108 79.4445L56.3323 79.1243C56.2323 78.9345 55.4687 77.8689 55.3054 77.6306C54.9955 76.6043 54.8287 73.892 54.6707 72.662C54.2044 69.0323 53.1208 66.5231 51.9082 63.1311C53.2605 62.0997 54.1459 62.0053 55.8407 62.1643C56.7978 62.254 59.1699 63.09 59.919 63.6598C62.0345 63.1841 64.922 61.863 66.8302 60.8411Z" fill="#F8B6D4"/>
<path d="M66.8311 60.8411C66.8618 61.865 66.693 62.9136 66.6446 63.9279C66.5383 66.1832 66.2738 69.3856 66.5773 71.6045L66.3104 72.0362C64.7435 67.8396 62.742 66.5432 59.9199 63.6598C62.0354 63.1841 64.923 61.863 66.8311 60.8411Z" fill="#262246"/>
<path d="M66.3105 72.0362L66.5774 71.6045C69.3794 79.0498 70.5307 84.1301 70.7858 92.1947C70.7858 93.3616 70.7645 94.5274 70.722 95.6931C70.6972 96.2258 70.6972 96.5376 70.5614 97.0632L70.265 97.2451L70.0879 97.1482L70.0986 96.6321C70.9924 89.4321 68.9945 78.7569 66.3105 72.0362Z" fill="#131111"/>
<path d="M56.3324 79.1244C59.1374 82.8238 61.2533 86.6435 63.4044 90.7502C64.4286 92.7062 65.2091 94.7908 66.234 96.7644C66.384 97.055 66.554 97.4105 66.7347 97.6739C66.6048 97.9077 66.5446 98.0695 66.3273 98.2278L66.1691 98.0566L65.6625 97.0692C62.9447 89.7971 60.3358 85.8522 56.2109 79.4446L56.3324 79.1244Z" fill="#FC6F5B"/>
<path d="M70.0878 97.1481L70.2649 97.245C70.5507 97.6194 70.7077 97.7576 70.8128 98.2029C69.684 98.0824 68.724 98.1178 67.7368 98.7072C67.4263 98.8926 67.1323 99.084 66.7792 99.1312L66.8087 98.9694C67.1193 98.8418 67.2362 98.8123 67.4959 98.5903L67.4593 98.3611C66.9327 98.2241 66.8123 98.6162 66.3612 98.4781L66.3281 98.2277C66.5454 98.0694 66.6056 97.9076 66.7355 97.6737C67.4251 98.1273 68.6153 97.1127 70.0878 97.1481Z" fill="#F4AB56"/>
<path d="M70.098 96.6319L70.0873 97.1481C68.6149 97.1127 67.4246 98.1272 66.735 97.6737C66.5544 97.4103 66.3843 97.0548 66.2344 96.7642C67.009 96.6001 69.2891 96.5894 70.098 96.6319Z" fill="#FD9586"/>
<path d="M13.2783 50.011C15.9764 48.135 17.9455 49.1992 19.6033 51.68C21.792 54.9554 22.6736 59.8738 22.3877 63.7912C22.9411 63.3718 24.2153 62.4883 24.5496 61.9484L24.6356 61.8919C24.898 61.9419 24.8007 61.9506 25.0542 61.8717C27.9689 60.8721 29.6449 61.0483 31.94 63.0645C32.6143 62.8514 35.0778 61.4903 35.7651 61.1142C36.6103 61.0567 38.059 60.4725 39.1052 60.4182C40.4102 60.3505 42.2338 60.1067 43.3243 60.9799C43.4628 61.3047 43.4492 61.4815 43.8125 61.604L43.8535 61.6778C44.108 61.9842 44.076 61.8257 44.0489 62.1429L43.8349 62.2173C43.6625 62.5428 43.4872 62.8667 43.3089 63.189C43.0504 63.4293 42.8983 63.5183 42.7375 63.8193C40.5243 64.9935 38.7746 65.8703 36.4349 66.7774C34.9688 67.3457 32.3155 68.0972 31.0214 68.7216C29.7251 70.8955 26.9132 77.9641 26.636 80.3351C26.2368 80.5153 25.3245 80.8559 25.0526 81.006C22.2357 78.406 18.0179 70.8267 16.7243 67.0736C16.0574 65.9759 15.2016 63.003 14.9856 61.6658C14.676 60.7852 14.4716 60.2013 14.2705 59.2972C13.874 58.2008 13.653 55.8051 13.542 54.583C13.5055 54.435 13.4728 54.2861 13.4437 54.1365C13.302 53.4253 12.8971 50.5763 13.2783 50.011Z" fill="#131111"/>
<path d="M35.7635 61.1141C36.6087 61.0566 38.0574 60.4724 39.1036 60.4181C40.4086 60.3504 42.2321 60.1066 43.3227 60.9798C43.4612 61.3046 43.4475 61.4814 43.8108 61.6039L43.8518 61.6777C44.1064 61.9841 44.0744 61.8256 44.0472 62.1428L43.8333 62.2172C43.6609 62.5428 43.4855 62.8666 43.3072 63.1889C43.0488 63.4292 42.8967 63.5182 42.7358 63.8192C40.5227 64.9934 38.773 65.8702 36.4332 66.7773C34.9671 67.3456 32.3139 68.0971 31.0197 68.7215C29.9849 69.0114 24.1191 70.6943 23.4863 70.6242C23.5569 70.3688 23.5432 70.3787 23.6593 70.1436L23.6036 69.8997C24.5845 67.5169 29.7354 64.4187 31.9384 63.0645C32.6126 62.8513 35.0761 61.4902 35.7635 61.1141Z" fill="#7761E3"/>
<path d="M23.6593 70.1436C25.126 69.7994 27.9735 67.8962 29.4851 67.1267C33.5361 65.0646 39.3279 62.758 43.8333 62.2172C43.6609 62.5427 43.4855 62.8665 43.3072 63.1889C43.0488 63.4291 42.8967 63.5181 42.7358 63.8191C40.5227 64.9933 38.773 65.8701 36.4332 66.7772C34.9671 67.3455 32.3139 68.0971 31.0197 68.7214C29.9849 69.0114 24.1191 70.6942 23.4863 70.6242C23.5569 70.3687 23.5432 70.3786 23.6593 70.1436Z" fill="#7761E3"/>
<path d="M43.8518 61.6779C44.1063 61.9842 44.0743 61.8257 44.0472 62.143L43.8332 62.2174C39.3279 62.7582 33.536 65.0648 29.4851 67.1269C27.9734 67.8964 25.1259 69.7996 23.6592 70.1438L23.6035 69.8999C24.3815 69.6939 27.6789 67.7278 28.6263 67.2032C30.1459 66.3583 31.7091 65.5949 33.3096 64.9157C36.1011 63.7336 38.9863 62.654 41.9714 62.1109C42.6058 61.9953 43.2451 61.8978 43.8518 61.6779Z" fill="#0A0329"/>
<path d="M13.541 54.5831C14.3236 54.8882 14.9645 55.8479 15.5316 56.4527C18.707 59.8403 20.9094 63.7283 22.4539 68.0905C22.6169 68.551 22.8234 69.1701 23.023 69.6038C23.1781 70.1366 23.1151 70.2243 22.8186 70.6817C22.6848 70.8275 22.7243 70.7788 22.5232 70.8623C21.137 70.6487 17.7564 68.2295 16.7234 67.0737C16.0565 65.9759 15.2006 63.0031 14.9847 61.6659C14.6751 60.7853 14.4707 60.2014 14.2696 59.2973C13.8731 58.2008 13.652 55.8052 13.541 54.5831Z" fill="#624ADB"/>
<path d="M14.9844 61.6659C16.1009 62.0383 18.8828 65.8385 19.8673 66.9988C20.7496 68.1578 21.6977 69.4788 22.6988 70.5319C22.8036 70.6422 22.7372 70.5492 22.8183 70.6817C22.6845 70.8275 22.724 70.7788 22.523 70.8623C21.1367 70.6488 17.7561 68.2295 16.7231 67.0737C16.0562 65.976 15.2003 63.0031 14.9844 61.6659Z" fill="#624ADB"/>
<path d="M14.2676 59.297C14.6388 59.7961 14.9029 60.3406 15.2416 60.7682C16.8644 62.8162 18.5884 64.8015 20.1861 66.8723L19.8656 66.9985C18.8811 65.8382 16.0992 62.038 14.9827 61.6656C14.6731 60.7851 14.4687 60.2011 14.2676 59.297Z" fill="#0A0329"/>
<path d="M20.1877 66.8723C20.916 67.6556 22.0615 69.6819 22.879 70.0811C23.0505 69.8276 22.9967 69.9387 23.0225 69.6036C23.1777 70.1364 23.1146 70.2241 22.8181 70.6815C22.737 70.549 22.8035 70.6419 22.6986 70.5316C21.6975 69.4785 20.7495 68.1576 19.8672 66.9986L20.1877 66.8723Z" fill="#1C1779"/>
<path d="M31.0182 68.7216C32.3123 68.0973 34.9656 67.3458 36.4317 66.7774C38.7714 65.8703 40.5211 64.9936 42.7343 63.8193C42.5691 64.5268 42.3229 65.3126 42.1788 65.9824C41.3687 69.5377 39.4789 76.4327 39.3047 79.7217C36.7393 79.2284 30.0537 79.496 27.6097 80.1735L26.6328 80.3352C26.9101 77.9641 29.7219 70.8956 31.0182 68.7216Z" fill="#FC6F5B"/>
<path d="M55.4189 82.6395C55.4588 81.7147 55.2528 79.3683 55.6468 78.844C56.0127 78.9882 55.9435 79.0347 56.2111 79.4445C60.336 85.8521 62.9449 89.797 65.6627 97.069L66.1693 98.0564L65.6462 98.2867C65.7229 98.3541 65.8363 98.4084 65.9307 98.4616L65.7572 98.5761C64.6897 98.158 62.0929 98.5667 60.8865 98.4143C59.5214 98.2431 59.2741 99.3308 58.1725 98.9895C58.0767 98.8454 57.9015 98.5938 57.7436 98.5537C55.9176 98.0919 53.7873 98.1261 51.9481 97.5946L51.8672 97.4033C52.9791 97.558 54.0885 97.7316 55.1947 97.923L55.3971 98.034C55.4117 96.3533 55.3366 93.2092 55.5153 91.6714C55.4926 89.6824 55.7756 84.3875 55.4189 82.6395Z" fill="#F8B6D4"/>
<path d="M65.6627 97.0689L66.1693 98.0563L65.6462 98.2866C65.7229 98.3539 65.8363 98.4083 65.9307 98.4614L65.7572 98.576C64.6897 98.1579 62.0929 98.5665 60.8865 98.4142C59.5214 98.2429 59.2741 99.3307 58.1725 98.9894C58.0767 98.8453 57.9015 98.5937 57.7436 98.5535C55.9176 98.0917 53.7873 98.126 51.9481 97.5945L51.8672 97.4031C52.9791 97.5579 54.0885 97.7315 55.1947 97.9228L55.3971 98.0338C56.6097 98.126 57.8031 98.1968 59.0204 98.2039C59.7282 98.2087 60.2711 98.0657 60.9716 98.1496L61.014 98.061C61.5356 97.8862 61.2031 97.572 61.4735 97.4327C62.3444 96.9862 64.744 97.0465 65.6627 97.0689Z" fill="#F5A1A9"/>
<path d="M51.8672 97.4034C52.9791 97.5582 54.0885 97.7318 55.1947 97.9231L55.3971 98.0341C56.6097 98.1263 57.8031 98.1971 59.0204 98.2042C59.7282 98.209 60.2711 98.0661 60.9716 98.1499C62.0632 98.2172 64.9046 98.0991 65.6462 98.2869C65.7229 98.3542 65.8363 98.4086 65.9307 98.4617L65.7572 98.5763C64.6897 98.1582 62.0929 98.5668 60.8865 98.4145C59.5214 98.2432 59.2741 99.331 58.1725 98.9897C58.0767 98.8456 57.9015 98.594 57.7436 98.5538C55.9176 98.092 53.7873 98.1263 51.9481 97.5948L51.8672 97.4034Z" fill="#F4AB56"/>
<path d="M55.5163 91.6713C55.6483 93.5197 55.4909 95.4449 55.5833 97.2922C56.5822 97.3193 57.5676 97.337 58.5515 97.5248C59.3986 97.6866 60.1619 97.9288 61.0151 98.0611L60.9727 98.1496C60.2721 98.0658 59.7293 98.2087 59.0214 98.204C57.8041 98.1969 56.6108 98.126 55.3981 98.0339C55.4128 96.3532 55.3377 93.2091 55.5163 91.6713Z" fill="#F5A1A9"/>
<path d="M27.611 80.1733C30.055 79.4959 36.7406 79.2282 39.306 79.7216L39.4722 79.7927C39.9403 81.2669 40.346 80.6413 41.3525 81.6224C41.3895 81.659 41.5293 82.2378 41.631 82.4362C42.4226 82.5898 43.0374 82.7008 43.8367 82.7882C43.9133 82.9453 43.9342 82.9335 43.944 83.0929C43.0081 84.313 42.219 84.5669 40.803 85.1374C40.1984 85.2461 39.578 85.3701 38.968 85.4315L38.3449 85.5047C38.2949 86.1661 38.2099 86.9965 38.2147 87.6437C38.1828 87.9957 38.037 89.9528 37.9556 90.1169L37.9299 91.4823L37.8827 91.9559C34.9604 90.0673 31.5061 87.815 29.1589 85.2461C28.2512 84.4748 27.6402 83.9905 26.8597 83.0823L26.6845 82.8968L25.0508 81.0059C25.3226 80.8558 26.2349 80.5152 26.6341 80.335L27.611 80.1733Z" fill="#7761E3"/>
<path d="M27.611 80.1733C30.055 79.4959 36.7406 79.2282 39.306 79.7216L39.4722 79.7927C39.9403 81.2669 40.346 80.6413 41.3525 81.6224C41.3895 81.659 41.5293 82.2378 41.631 82.4362C40.5835 82.3134 39.5307 82.1858 38.4811 82.0831C35.0244 81.7417 31.4703 82.1457 28.0192 82.4209C27.5051 82.5165 27.0571 82.5354 26.6845 82.8968L25.0508 81.0059C25.3226 80.8558 26.2349 80.5152 26.6341 80.335L27.611 80.1733Z" fill="#7761E3"/>
<path d="M26.6341 80.3352L27.611 80.1735C27.3236 80.8199 27.4191 81.5304 27.6126 82.1954C27.7948 82.3643 27.7791 82.356 28.0192 82.421C27.5051 82.5167 27.0571 82.5356 26.6845 82.897L25.0508 81.006C25.3226 80.8559 26.2349 80.5153 26.6341 80.3352Z" fill="#624ADB"/>
<path d="M29.1602 85.2461C30.3069 85.2662 31.3668 85.6701 32.4775 85.7114C34.3944 85.7835 36.417 85.5957 38.3462 85.5047C38.2961 86.1662 38.2111 86.9965 38.2159 87.6437C38.1841 87.9957 38.0382 89.9528 37.9569 90.117L37.9311 91.4823L37.8839 91.9559C34.9617 90.0674 31.5073 87.815 29.1602 85.2461Z" fill="#FB533E"/>
<path d="M38.2148 87.6438C38.1829 87.9958 38.037 89.9529 37.9557 90.117C37.7435 90.2222 37.5323 90.3296 37.3218 90.4383C36.4838 90.4135 35.415 89.7863 35.3223 88.904C35.8418 87.8198 37.3021 88.1245 38.2148 87.6438Z" fill="#FC6F5B"/>
<path d="M28.0183 82.4209C31.4694 82.1457 35.0235 81.7418 38.4801 82.0831C39.5298 82.1859 40.5826 82.3134 41.63 82.4362C42.4217 82.5898 43.0365 82.7008 43.8358 82.7882C43.9124 82.9453 43.9333 82.9335 43.9431 83.0929C42.7558 83.1744 39.9854 82.6784 38.6465 82.5614C35.7732 82.3134 29.5407 82.4173 26.8587 83.0823L26.6836 82.8969C27.0561 82.5355 27.5041 82.5166 28.0183 82.4209Z" fill="#0A0329"/>
<path d="M38.3711 92.1838C38.4559 91.7987 38.5182 91.0877 38.7348 90.8964C42.6097 93.2172 48.4954 95.1838 52.8985 96.1417C53.3682 96.2432 55.1356 96.4546 55.2712 96.9318C55.3563 97.2306 55.3136 97.6417 55.1943 97.9228C54.0881 97.7314 52.9788 97.5578 51.8668 97.4031C46.7674 96.1216 43.0216 94.9405 38.3711 92.1838Z" fill="#FB533E"/>
<path d="M42.1807 65.9823C42.2915 65.9966 42.6174 66.0306 42.7059 66.056C41.887 70.0677 40.909 74.0363 40.1064 78.0498C39.995 78.6064 39.9256 79.2119 39.7987 79.7553L39.4729 79.7927L39.3066 79.7216C39.4808 76.4326 41.3707 69.5375 42.1807 65.9823Z" fill="#F8B6D4"/>
<path d="M39.7965 79.7554C41.2308 80.2355 42.7984 80.5497 43.5007 81.9816C43.6308 82.2427 43.7426 82.5119 43.8352 82.7883C43.0359 82.7009 42.4211 82.5899 41.6294 82.4364C41.5278 82.2379 41.388 81.6592 41.351 81.6226C40.3445 80.6414 39.9388 81.2671 39.4707 79.7928L39.7965 79.7554Z" fill="#8F7AF6"/>
<path d="M45.2329 56.0977L45.5192 56.2278C45.6137 56.6856 44.0922 61.1073 43.8124 61.6041C43.449 61.4816 43.4627 61.3048 43.3242 60.98C43.886 59.8775 44.3774 57.4651 44.9309 56.2755C45.0315 56.2162 45.1321 56.1569 45.2329 56.0977Z" fill="#F1BDBF"/>
<path d="M38.3447 85.5047L38.9678 85.4315L38.7892 86.8985C38.6835 88.1575 38.664 90.404 38.252 91.428C38.0181 91.513 38.1269 91.5059 37.9297 91.4823L37.9554 90.117C38.0368 89.9528 38.1826 87.9957 38.2145 87.6437C38.2097 86.9965 38.2947 86.1662 38.3447 85.5047Z" fill="#F5A1A9"/>
<path d="M55.3067 77.6305C55.47 77.8688 56.2337 78.9344 56.3337 79.1242L56.2122 79.4444C55.9446 79.0347 56.0138 78.9882 55.6479 78.844C55.2538 79.3683 55.4599 81.7146 55.42 82.6394C55.3474 82.3028 55.3488 82.2627 55.1965 81.9402C54.7247 81.6367 54.5834 81.5741 54.2188 81.1442L54.2484 80.9222C54.5945 80.5645 54.814 80.5513 55.3043 80.4129C55.3114 79.5618 55.0114 78.2636 55.3067 77.6305Z" fill="#FD9586"/>
<path d="M38.9677 85.4318C39.5777 85.3704 40.1981 85.2464 40.8027 85.1377C40.2933 85.896 39.6265 86.7346 39.0423 87.4468L38.9187 87.4432L38.7891 86.8987L38.9677 85.4318Z" fill="#FB533E"/>
<path d="M42.7353 63.8193C42.8961 63.5184 43.0482 63.4293 43.3066 63.1891C43.1289 64.1493 42.9283 65.1053 42.7049 66.0561C42.6163 66.0307 42.2904 65.9967 42.1797 65.9824C42.3239 65.3126 42.5701 64.5268 42.7353 63.8193Z" fill="#F5A1A9"/>
<path d="M48.365 65.4258C50.3201 65.2931 50.7655 70.5936 50.7064 71.9245C50.6392 73.433 50.4996 74.7011 49.3986 75.8004C47.1977 75.2795 46.8939 69.1407 47.2564 67.4104C47.464 66.4191 47.5752 66.044 48.365 65.4258Z" fill="#F1BDBF"/>
<path d="M48.4604 65.8809C49.487 66.3392 49.798 68.8759 49.9185 69.8506C50.1489 71.7135 50.0946 73.4664 49.3212 75.1899C47.4857 74.3613 47.5011 67.6766 48.4604 65.8809Z" fill="#FC6F5B"/>
<path d="M45.184 64.2247C45.8789 64.5399 46.4152 65.377 46.0525 66.0971C45.7199 66.1049 45.5897 66.1209 45.2571 66.0474C44.6893 65.5509 44.8317 64.8193 45.184 64.2247Z" fill="#FB533E"/>
<path d="M27.733 21.3996C29.5479 19.861 30.2831 18.9964 32.6977 18.7578C33.6218 19.2621 34.079 19.7538 34.5558 20.6631C34.9252 22.9075 34.7266 24.5809 34.2585 26.8074C34.1589 27.2811 33.8561 28.4882 33.8123 28.8884C34.7773 29.7055 35.5271 30.4672 36.5534 31.2315C35.4297 31.6254 34.4231 32.0439 33.6466 32.9832C31.4366 35.6562 32.1702 39.5701 33.2124 42.565C33.3251 42.8887 33.4353 43.1982 33.6869 43.431C33.8385 43.2696 33.7915 43.3588 33.8453 43.1736L33.8799 43.3159C34.1179 44.3226 34.1593 45.5598 34.4492 46.6844C34.7554 47.8723 35.7117 49.6895 35.8402 50.7371C35.4184 51.0364 35.4726 50.8995 35.3902 51.2903C35.6629 52.1121 36.3353 52.649 36.9579 53.2675C37.0364 53.3816 37.1105 53.4684 37.1607 53.5923C37.639 53.9692 38.8557 54.8227 39.0544 55.2694C39.0062 56.0358 38.8357 56.8683 38.8982 57.5761C38.6759 57.9281 37.1997 59.1635 36.8438 59.3672C36.632 59.7463 36.7796 59.6133 36.3943 59.7898L35.7628 61.1141C35.0755 61.4902 32.612 62.8513 31.9377 63.0645C29.6426 61.0482 27.9666 60.872 25.0519 61.8717C24.7984 61.9506 24.8957 61.9418 24.6333 61.8919L24.5473 61.9483C24.2131 62.4882 22.9389 63.3717 22.3854 63.7911C22.6713 59.8737 21.7897 54.9554 19.601 51.6799C17.9433 49.1991 15.9742 48.135 13.276 50.0109C13.1875 49.5799 13.2517 48.925 13.2721 48.4627C13.5018 43.2832 14.371 38.1726 16.313 33.3485C16.6288 32.5641 16.9646 31.7828 17.2425 30.9883C17.9996 28.57 20.3143 25.6147 21.6553 23.3944C22.1918 22.5063 22.7708 22.3942 23.4157 21.5462L23.5253 21.4003C24.5775 21.4299 25.63 21.4488 26.6826 21.4569L27.733 21.3996Z" fill="#FAEBDB"/>
<path d="M33.8146 28.8883C34.7797 29.7054 35.5295 30.4671 36.5557 31.2314C35.4321 31.6253 34.4255 32.0439 33.649 32.9831C31.439 35.6562 32.1726 39.57 33.2148 42.5649C33.3274 42.8887 33.4377 43.1981 33.6892 43.4309C33.8408 43.2696 33.7938 43.3587 33.8477 43.1735L33.8823 43.3159C34.1202 44.3225 34.1617 45.5597 34.4516 46.6844C34.7577 47.8722 35.7141 49.6895 35.8425 50.737C35.4208 51.0363 35.475 50.8994 35.3925 51.2902C35.6653 52.112 36.3376 52.649 36.9603 53.2674C37.0388 53.3815 37.1128 53.4683 37.163 53.5922C37.6414 53.9691 38.8581 54.8227 39.0568 55.2693C39.0086 56.0358 38.8381 56.8682 38.9006 57.576C38.6782 57.928 37.2021 59.1635 36.8462 59.3671C36.6344 59.7462 36.782 59.6132 36.3967 59.7897L35.7652 61.114C35.0779 61.4901 32.6143 62.8512 31.9401 63.0644C29.645 61.0481 27.969 60.8719 25.0543 61.8716C24.9221 61.5525 25.1688 60.7609 25.2567 60.3723L24.75 60.1914L24.6037 59.6857C23.6252 57.487 22.9331 53.3113 22.5369 50.9078C22.36 49.8353 22.3214 48.7129 22.0801 47.5963C23.5379 46.5 24.4401 45.6924 25.708 44.3917L26.2965 43.6194C26.3886 43.4027 27.6611 41.6457 27.881 41.3342C28.5176 40.4322 29.0098 39.6268 29.5782 38.674C29.9924 37.7461 30.7198 36.7801 31.0954 35.9049C32.0708 33.6322 32.9676 31.2122 33.8146 28.8883Z" fill="#F8B6D4"/>
<path d="M29.5782 38.6742C30.1797 42.4237 27.6496 54.9482 25.9655 58.3829C25.6705 59.078 25.487 59.6521 25.2567 60.3725L24.75 60.1916L24.6037 59.6859C23.6252 57.4872 22.9331 53.3115 22.5369 50.908C22.36 49.8355 22.3214 48.7131 22.0801 47.5965C23.5379 46.5002 24.4401 45.6926 25.708 44.3919L26.2965 43.6196C26.3886 43.4029 27.6611 41.6458 27.881 41.3344C28.5176 40.4324 29.0098 39.627 29.5782 38.6742Z" fill="#7761E3"/>
<path d="M25.708 44.3918C25.9788 45.4338 25.2739 51.4369 25.2771 53.126C25.2838 53.5402 25.2197 54.825 25.358 55.0661L25.5269 55.1288L25.5338 55.2699C25.5829 56.4338 25.2347 57.6964 25.9067 58.2573C25.9263 58.2991 25.9459 58.3411 25.9655 58.3829C25.6705 59.0779 25.487 59.6521 25.2567 60.3724L24.75 60.1915L24.6037 59.6859C23.6252 57.4871 22.9331 53.3114 22.5369 50.9079C22.36 49.8354 22.3214 48.713 22.0801 47.5964C23.5379 46.5001 24.4401 45.6925 25.708 44.3918Z" fill="#624ADB"/>
<path d="M24.6035 59.686C25.2676 58.4733 25.033 54.8088 25.2769 53.1261C25.2837 53.5403 25.2195 54.8251 25.3578 55.0662L25.5268 55.1289L25.5336 55.27C25.5828 56.4339 25.2345 57.6965 25.9065 58.2574C25.9261 58.2992 25.9457 58.3412 25.9653 58.383C25.6704 59.078 25.4869 59.6522 25.2565 60.3725L24.7498 60.1916L24.6035 59.686Z" fill="#1C1779"/>
<path d="M26.2941 43.6194C26.2307 45.7542 26.006 48.1544 25.8664 50.3007C25.7703 51.779 25.6922 53.7073 25.5246 55.1287L25.3556 55.0659C25.2173 54.8249 25.2815 53.5401 25.2747 53.1259C25.2715 51.4368 25.9765 45.4337 25.7056 44.3917L26.2941 43.6194Z" fill="#0A0329"/>
<path d="M37.1615 53.5923C37.6399 53.9692 38.8566 54.8228 39.0553 55.2694C39.0071 56.0359 38.8366 56.8683 38.8991 57.5761C38.6767 57.9281 37.2006 59.1636 36.8447 59.3672C36.6527 58.1753 36.361 54.3979 37.1615 53.5923Z" fill="#F8B6D4"/>
<path d="M36.9592 53.2675C37.0378 53.3816 37.1118 53.4684 37.162 53.5923C36.3614 54.3979 36.6532 58.1753 36.8452 59.3672C36.6333 59.7463 36.7809 59.6133 36.3956 59.7898C36.2977 58.0999 36.1583 56.2463 36.3018 54.5608C36.3536 53.951 36.5116 53.6712 36.9592 53.2675Z" fill="#131111"/>
<path d="M23.5253 21.4004C24.5775 21.43 25.63 21.4489 26.6826 21.4569L27.733 21.3997C27.1319 21.6408 26.9635 22.3548 26.501 22.9313C24.0742 26.0414 21.8162 29.5601 20.2992 33.2409C18.7172 37.0793 16.632 42.7751 17.9597 46.8646C18.5871 48.7972 20.6527 48.3127 22.0777 47.5964C22.3191 48.7131 22.3577 49.8355 22.5346 50.9079C22.9307 53.3115 23.6228 57.4871 24.6013 59.6859L24.7476 60.1915L25.2543 60.3725C25.1664 60.761 24.9198 61.5526 25.0519 61.8718C24.7984 61.9507 24.8957 61.9419 24.6333 61.8919L24.5473 61.9484C24.2131 62.4883 22.9389 63.3718 22.3854 63.7912C22.6713 59.8738 21.7897 54.9554 19.601 51.68C17.9433 49.1992 15.9742 48.135 13.276 50.011C13.1875 49.58 13.2517 48.9251 13.2721 48.4628C13.5018 43.2833 14.371 38.1726 16.313 33.3485C16.6288 32.5642 16.9646 31.7829 17.2425 30.9883C17.9996 28.57 20.3143 25.6148 21.6553 23.3944C22.1918 22.5064 22.7708 22.3943 23.4157 21.5462L23.5253 21.4004Z" fill="#F8B6D4"/>
<path d="M23.525 21.4004C24.5772 21.43 25.6298 21.4489 26.6823 21.457C26.0695 21.7915 24.4547 21.3439 23.6689 21.6308C23.5232 21.9901 23.4956 22.7932 23.3703 22.9729C22.531 24.1766 21.6166 25.4497 20.7639 26.641C19.9781 27.7388 18.9541 29.7742 18.1474 30.6983C17.8214 30.8139 17.5651 30.8853 17.2422 30.9884C17.9993 28.5701 20.314 25.6148 21.6551 23.3944C22.1915 22.5064 22.7706 22.3943 23.4154 21.5463L23.525 21.4004Z" fill="#F5A1A9"/>
<path d="M24.748 60.1914L25.2547 60.3723C25.1669 60.7609 24.9202 61.5525 25.0523 61.8716C24.7988 61.9505 24.8961 61.9418 24.6337 61.8918L24.5478 61.9483C24.5327 61.7746 24.7144 60.4652 24.748 60.1914Z" fill="#262246"/>
<path d="M70.1982 47.4606C70.6398 46.8001 71.1204 45.2862 71.4711 44.5004C73.4607 40.0517 76.774 34.0349 82.3663 34.0574L82.7678 34.0991C82.7253 34.2012 82.6828 34.3032 82.6403 34.4051C82.9071 35.8963 83.0287 37.2933 83.063 38.8062C83.1386 43.4947 82.9969 48.1843 82.6379 52.8597C81.8538 62.2946 80.6199 71.6867 78.9408 81.0036C78.0859 85.5261 77.0055 89.5678 76.1081 93.9296C75.9888 94.3383 75.7952 94.9289 75.7361 95.3328C75.3193 95.5761 75.5401 95.5206 75.0477 95.4899C74.7065 95.8265 71.7084 96.834 70.7189 97.336L70.7213 95.693C70.7638 94.5273 70.785 93.3615 70.785 92.1946C70.53 84.13 69.3787 79.0497 66.5767 71.6044C66.2732 69.3856 66.5377 66.1831 66.644 63.9278C66.6924 62.9135 66.8612 61.8649 66.8305 60.841C67.4457 60.1712 68.4199 52.766 69.1142 51.4453C69.322 51.0494 70.2159 47.9517 70.1982 47.4606Z" fill="#F8B6D4"/>
<path d="M82.3655 34.0574L82.7669 34.0991C82.7244 34.2011 82.6819 34.3032 82.6394 34.4051C82.9063 35.8962 83.0279 37.2932 83.0621 38.8061C83.1377 43.4946 82.996 48.1842 82.6371 52.8596C81.853 62.2945 80.6191 71.6867 78.94 81.0036C78.0851 85.526 77.0046 89.5678 76.1072 93.9296C75.988 94.3382 75.7943 94.9288 75.7353 95.3327C75.3185 95.576 75.5393 95.5205 75.0469 95.4898L75.0492 95.3859C75.7943 94.1812 76.2962 91.0064 76.6929 89.478C78.1252 83.9575 78.8231 78.2863 79.7559 72.6951C81.3642 63.0647 82.4092 53.3993 82.5591 43.6279C82.6087 40.3438 82.7622 37.3432 82.3655 34.0574Z" fill="#FC6F5B"/>
<path d="M70.7849 92.1946C70.9986 92.5619 70.8982 95.3198 70.8888 95.9292C72.0802 95.6056 73.8042 95.2158 75.0499 95.3859L75.0476 95.4899C74.7063 95.8265 71.7083 96.834 70.7188 97.3359L70.7211 95.693C70.7636 94.5273 70.7849 93.3615 70.7849 92.1946Z" fill="#F5A1A9"/>
<path d="M76.1074 93.9296C77.0048 89.5678 78.0853 85.5261 78.9402 81.0036C80.6193 71.6867 81.8532 62.2946 82.6373 52.8597C82.9962 48.1843 83.1379 43.4947 83.0623 38.8062C83.0281 37.2933 82.9065 35.8963 82.6396 34.4051C82.6821 34.3032 82.7246 34.2012 82.7671 34.0991C85.2527 34.5616 86.9058 35.6882 88.2933 37.8267C93.5478 45.9242 93.1759 58.9398 91.4047 67.9684L91.3551 68.2164C91.2465 68.6407 91.2665 68.7066 91.2961 69.154C92.4993 68.2334 94.5881 65.7387 95.9378 64.5194C96.7088 66.0944 94.7794 72.6648 94.385 74.5745C94.3083 74.9466 93.8619 77.2527 93.6482 77.4261C93.3955 78.101 92.8394 79.4506 92.6587 80.0876C92.1143 81.7088 91.3823 82.9489 90.7682 84.469C89.408 86.8784 86.0238 88.7434 83.9881 90.482C83.217 91.2084 82.9939 91.5958 81.8874 91.5237C81.6041 92.0375 81.3525 92.5289 80.9853 92.9895L80.7539 92.7001L80.8861 92.282C79.7219 92.2584 77.4016 94.3914 76.1074 93.9296Z" fill="#F8B6D4"/>
<path d="M91.2982 69.1538C92.5015 68.2333 94.5903 65.7385 95.94 64.5193C96.711 66.0943 94.7816 72.6647 94.3872 74.5744C94.3105 74.9464 93.8641 77.2525 93.6504 77.4259C91.8816 77.7042 89.2047 79.4607 88.1113 80.9492C87.9778 81.1322 87.8468 81.3177 87.7181 81.5031L87.7051 80.9037C87.8574 80.5815 88.482 79.9216 88.6568 79.4492C89.8435 76.2386 90.3465 72.3266 91.2982 69.1538Z" fill="#262246"/>
<path d="M87.7171 81.5031C87.8458 81.3176 87.9769 81.1322 88.1103 80.9491C89.2037 79.4607 91.8806 77.7042 93.6494 77.4259C93.3967 78.1008 92.8406 79.4504 92.6599 80.0874C92.1156 81.7086 91.3835 82.9487 90.7695 84.4688C89.4092 86.8783 86.025 88.7432 83.9893 90.4818C83.2182 91.2082 82.9951 91.5956 81.8887 91.5236C83.5666 88.0358 85.5149 84.6861 87.7171 81.5031Z" fill="#F8B6D4"/>
<path d="M83.9883 90.4818C85.0274 88.3936 87.5602 86.2712 88.9311 84.4641C90.5028 82.3913 90.0789 81.3767 92.6589 80.0874C92.1146 81.7086 91.3825 82.9487 90.7684 84.4688C89.4082 86.8783 86.024 88.7432 83.9883 90.4818Z" fill="#F5A1A9"/>
<path d="M87.7029 80.9038L87.7159 81.5032C85.5137 84.6863 83.5654 88.0359 81.8875 91.5237C81.6041 92.0375 81.3526 92.5288 80.9853 92.9895L80.7539 92.7001L80.8862 92.282C83.2005 87.7595 84.7344 85.1103 87.7029 80.9038Z" fill="#131111"/>
<path d="M33.8459 43.1736C33.3289 39.8304 33.678 34.2378 37.0087 32.2243C38.2977 31.445 39.5812 31.8234 40.9294 32.1837C42.5049 33.4111 43.6788 34.3532 44.5965 36.206L44.7476 36.0534C44.9279 36.3461 45.2869 36.8904 45.4242 37.1775C47.5791 41.1962 48.5296 44.8684 48.4273 49.4403C51.6939 47.924 54.7093 46.7368 58.2013 45.7821C59.6137 45.396 61.2685 45.2428 62.5797 44.89L63.0025 45.0011L62.973 45.2466C64.853 44.8559 67.3917 45.4771 68.987 46.5102C69.4215 46.7861 69.8265 47.1044 70.1985 47.4605C70.2162 47.9517 69.3223 51.0493 69.1145 51.4452C68.4202 52.766 67.446 60.1711 66.8308 60.8409C64.9226 61.8628 62.0351 63.184 59.9196 63.6596C59.1705 63.0899 56.7984 62.2539 55.8414 62.1641C54.1466 62.0051 53.2611 62.0995 51.9088 63.131C50.2858 59.6887 49.7984 58.7471 46.7667 56.4444L46.4675 56.3936C45.9597 56.1323 45.694 56.0697 45.1567 55.9182C43.5407 55.679 42.26 56.1617 41.489 56.0943C41.1102 56.3023 40.9416 56.4182 40.5291 56.5278C40.1978 56.7597 39.688 57.1743 39.3194 57.2416C39.1304 57.4124 39.1137 57.4456 38.8988 57.5761C38.8363 56.8683 39.0068 56.0358 39.055 55.2694C38.8563 54.8227 37.6396 53.9691 37.1612 53.5923C37.111 53.4684 37.037 53.3815 36.9585 53.2675C36.3358 52.649 35.6635 52.1121 35.3907 51.2903C35.4732 50.8995 35.419 51.0363 35.8407 50.7371C35.7123 49.6895 34.7559 47.8723 34.4498 46.6844C34.1599 45.5598 34.1184 44.3226 33.8805 43.3159L33.8459 43.1736Z" fill="#FAEBDB"/>
<path d="M45.4256 37.1776C47.5804 41.1963 48.5309 44.8685 48.4287 49.4404C51.6953 47.9241 54.7107 46.7369 58.2026 45.7822C59.615 45.3961 61.2699 45.2429 62.581 44.8901L63.0039 45.0012L62.9744 45.2467C60.7381 45.9536 58.2169 46.257 55.6816 47.0641C54.3284 47.498 52.9894 47.9747 51.6664 48.4934C50.5237 48.9483 49.1456 49.5761 47.987 49.8571C48.0286 45.1588 47.2416 41.6105 45.2168 37.4071L45.4256 37.1776Z" fill="#131111"/>
<path d="M46.4668 56.3936C48.8587 54.1016 57.5725 49.9472 54.7094 56.868C56.7197 55.538 59.035 54.2435 61.5541 54.6011C63.1966 54.8343 64.8759 57.5735 63.711 58.7965L63.4971 58.7862C63.4369 58.4957 63.4631 58.5032 63.5128 58.2304C63.6406 57.5029 63.4769 56.7542 63.0573 56.1464C61.1905 53.4767 56.5205 55.9616 54.6908 57.5344C53.967 58.1566 53.3673 58.8903 52.5962 59.4474C53.2222 58.2921 56.1531 54.396 54.2898 53.6155C52.2349 52.7547 48.28 55.5023 46.766 56.4443L46.4668 56.3936Z" fill="#131111"/>
<path d="M35.8406 50.7372C37.6541 52.5173 39.7772 54.3243 41.4889 56.0944C41.1101 56.3024 40.9414 56.4183 40.529 56.5279C40.1977 56.7599 39.6879 57.1744 39.3193 57.2418C39.1303 57.4125 39.1136 57.4457 38.8987 57.5763C38.8362 56.8684 39.0067 56.036 39.0549 55.2696C38.8562 54.8229 37.6395 53.9693 37.1611 53.5924C37.1109 53.4685 37.0369 53.3817 36.9584 53.2676C36.3357 52.6492 35.6634 52.1122 35.3906 51.2904C35.473 50.8996 35.4188 51.0365 35.8406 50.7372Z" fill="#131111"/>
<path d="M39.3198 57.2417C39.3109 56.7806 39.2107 56.1524 39.5793 55.8511C39.9469 55.9054 40.242 56.2606 40.5295 56.5278C40.1982 56.7598 39.6884 57.1744 39.3198 57.2417Z" fill="#F1BDBF"/>
<path d="M44.7468 36.0535C44.9272 36.3461 45.2861 36.8904 45.4234 37.1775L45.2147 37.407L44.5957 36.2061L44.7468 36.0535Z" fill="#414345"/>
<path d="M39.2024 36.1717C42.3267 35.9983 42.2261 43.0701 38.5646 44.7869C35.2916 44.5128 35.9547 37.899 39.2024 36.1717Z" fill="#131111"/>
<path d="M39.1438 36.5188C41.157 36.724 41.1386 39.2788 40.853 40.7858C40.5611 42.3248 39.9475 43.4698 38.6455 44.3606C35.892 44.1556 36.5354 37.9574 39.1438 36.5188Z" fill="#FAEBDB"/>
<path d="M30.4961 15.2154C38.292 9.52602 49.5316 7.44267 58.9703 8.92342C71.7819 10.9895 83.2416 18.0804 90.8093 28.6253C102.206 44.3122 104.193 65.9321 92.7529 82.1647C92.4294 82.623 91.1801 84.2399 90.7704 84.469C91.3844 82.9489 92.1165 81.7088 92.6608 80.0876C92.8415 79.4506 93.3976 78.101 93.6503 77.4261C93.8641 77.2527 94.3104 74.9466 94.3872 74.5746C94.7815 72.6648 96.711 66.0945 95.9399 64.5195C96.1796 64.2969 96.3886 63.9614 96.5787 63.6858C96.6744 63.3987 96.5941 61.2694 96.5952 60.8692C96.6153 56.0227 96.2422 51.6888 95.0543 46.9654C94.7662 45.8184 94.5489 44.2948 94.0447 43.2202L93.9255 43.2142C93.5464 42.8684 92.6915 41.4664 92.3397 40.9599C91.5308 39.809 90.6948 38.6771 89.8316 37.5655C86.4569 33.1042 82.6783 28.9636 78.5444 25.1962C75.0775 22.0952 71.3403 19.4294 67.4968 16.8237C66.3514 16.0476 61.5811 13.5989 61.0813 12.8641C60.6928 12.5833 59.4101 12.4488 58.864 12.3721C53.9669 11.6847 48.4973 11.6082 43.5962 12.2344C41.8177 12.4617 39.9495 13.1716 38.1555 13.4795C36.8605 13.7017 35.5147 13.4725 34.312 13.6705C33.2332 13.8483 31.6554 15.3489 30.4961 15.2154Z" fill="#1E1C21"/>
<path d="M61.0801 12.864C63.0116 13.3346 65.2887 14.9113 67.0292 16.0081C75.4365 21.1903 82.8672 27.8112 88.9814 35.5684C90.5531 37.532 93.3799 40.8705 94.0435 43.2202L93.9243 43.2142C93.5452 42.8683 92.6903 41.4664 92.3384 40.9599C91.5296 39.8089 90.6936 38.6771 89.8304 37.5654C86.4557 33.1041 82.6771 28.9635 78.5432 25.1962C75.0763 22.0952 71.3391 19.4293 67.4956 16.8237C66.3502 16.0476 61.5799 13.5989 61.0801 12.864Z" fill="#7761E3"/>
<path d="M34.5554 20.6631C35.7793 20.0132 46.9494 18.3478 49.1383 17.8887C49.6047 17.8386 50.1532 17.8826 50.5925 18.0184C51.3292 18.246 51.9719 18.8773 52.3022 19.5619C53.1329 21.2845 50.8976 23.1065 49.7475 24.0503C47.9314 25.5405 46.0451 26.9306 44.3139 28.5202C43.0599 29.6467 42.0784 30.9867 40.9285 32.1837C39.5802 31.8235 38.2968 31.4451 37.0077 32.2244C33.6771 34.2379 33.328 39.8304 33.845 43.1737C33.7911 43.3589 33.8381 43.2697 33.6865 43.431C33.435 43.1982 33.3247 42.8888 33.2121 42.5651C32.1699 39.5701 31.4362 35.6563 33.6462 32.9832C34.4227 32.044 35.4294 31.6254 36.553 31.2315C35.5268 30.4672 34.777 29.7055 33.8119 28.8884C33.8557 28.4883 34.1586 27.2812 34.2581 26.8075C34.7262 24.581 34.9248 22.9076 34.5554 20.6631Z" fill="#FC6F5B"/>
<path d="M44.748 36.0536C44.7689 35.8957 44.7971 35.689 44.8661 35.5435C47.3658 30.276 51.6848 30.1132 53.9878 35.5983L54.1505 36.1577C54.7967 38.2628 54.9177 39.4159 54.9435 41.632C54.942 42.3229 54.9105 43.1971 54.942 43.8668L54.8962 45.449C57.2783 44.7337 60.1322 44.1912 62.5801 44.8902C61.269 45.243 59.6141 45.3962 58.2017 45.7823C54.7097 46.737 51.6943 47.9242 48.4278 49.4405C48.53 44.8686 47.5795 41.1964 45.4246 37.1777C45.2873 36.8906 44.9284 36.3463 44.748 36.0536Z" fill="#FAEBDB"/>
<path d="M54.1504 36.1576C54.3188 35.5752 56.3632 34.9759 56.9561 34.7907C61.9641 33.2266 61.2586 35.3877 58.4646 38.3306C57.5825 39.2595 55.9674 40.8695 54.9434 41.6319C54.9176 39.4158 54.7965 38.2626 54.1504 36.1576Z" fill="#262246"/>
<path d="M53.9863 35.5981C55.3249 34.7571 58.9306 33.3596 60.2384 33.8376C63.8357 35.1526 55.854 41.4236 55.0671 42.2321C55.0408 42.665 55.0156 43.4685 54.9405 43.8665C54.909 43.1968 54.9405 42.3227 54.9421 41.6317C55.9661 40.8693 57.5812 39.2594 58.4632 38.3304C61.2572 35.3876 61.9627 33.2265 56.9547 34.7905C56.3619 34.9757 54.3174 35.575 54.149 36.1574L53.9863 35.5981Z" fill="#7761E3"/>
<path d="M91.3558 68.2162C91.383 68.2911 91.448 68.3711 91.4952 68.4421C92.8767 66.951 94.6125 64.7577 96.3247 63.6158L96.5773 63.6856C96.3872 63.9612 96.1782 64.2968 95.9385 64.5193C94.5889 65.7385 92.5 68.2333 91.2968 69.1538C91.2673 68.7064 91.2472 68.6405 91.3558 68.2162Z" fill="#7761E3"/>
<path d="M76.1074 93.9297C77.4016 94.3915 79.7219 92.2584 80.8862 92.2821L80.7539 92.7002L80.9853 92.9895C80.859 93.4632 79.5814 94.8238 79.6569 96.0108C79.1882 96.4348 78.4395 96.1809 77.8503 96.0498C75.8063 97.186 74.8098 97.147 72.5686 97.6124C72.0113 97.7269 71.3488 98.0435 70.8116 98.2029C70.7065 97.7577 70.5494 97.6195 70.2637 97.2451L70.5601 97.0632C70.6958 96.5376 70.6958 96.2258 70.7206 95.6931L70.7183 97.336C71.7078 96.834 74.7058 95.8266 75.0471 95.4899C75.5395 95.5206 75.3187 95.5762 75.7355 95.3328C75.7945 94.9289 75.9882 94.3384 76.1074 93.9297Z" fill="#F4AB56"/>
<path d="M76.1083 93.9297C77.4024 94.3915 79.7227 92.2584 80.887 92.2821L80.7547 92.7002C79.8986 93.4762 76.9443 94.708 75.7363 95.3328C75.7954 94.9289 75.989 94.3384 76.1083 93.9297Z" fill="#F5A1A9"/>
<path d="M14.1888 37.7512C14.4022 37.8306 14.3274 37.7927 14.5017 37.9482C14.2593 38.8466 11.8854 41.1024 11.0549 41.822C9.1274 43.4923 6.99158 45.1399 4.68205 46.2293L4.38945 46.2346C4.19131 45.952 4.26747 46.109 4.22461 45.7129C4.67638 44.9052 6.32041 44.7298 7.09183 44.0942C9.49641 42.1129 11.9156 39.8709 14.1888 37.7512Z" fill="#FDD183"/>
<path d="M80.8589 11.4095C81.0207 11.4335 81.2474 11.3598 81.5119 11.3853L81.5839 11.5246C81.1836 12.4566 78.6567 13.9386 77.8844 14.6725C77.5349 15.0002 77.6766 14.9576 77.2598 15.0424L77.2031 14.9291C77.9435 13.9239 79.8292 12.1573 80.8589 11.4095Z" fill="#FDD183"/>
<path d="M87.7012 98.2147C88.1629 98.9553 89.7653 101.63 89.6921 102.389L89.5586 102.651C90.5883 103.123 92.8554 104.196 93.558 104.977L94.1449 105.392L114.233 112.024C117.376 113.065 120.161 113.997 123.242 115.199C131.982 118.61 137.394 125.423 142.999 132.657C147.537 138.513 151.291 145.257 155.123 151.624C156.064 153.188 157.801 155.874 158.561 157.363C159.167 158.109 160.72 160.82 161.309 161.81L166.248 170H163.147H110.567H110.116H100.398H99.3144H88.2102C85.159 167.015 85.1354 165.559 85.7848 161.568L85.6195 161.342C83.8896 160.017 81.7075 155.925 81.0238 153.819C79.9469 150.498 79.9115 147.431 81.4725 144.272L81.5198 144.117C81.6178 143.582 81.5776 143.409 81.5138 142.863C85.0492 141.839 87.8075 135.826 89.1926 132.697L89.0509 132.336C87.4474 129.65 86.217 126.547 84.6064 123.844C84.3678 123.441 83.7739 122.47 83.8636 122.038L84.8472 120.748C84.761 120.421 81.5493 115.534 81.1714 115.147L80.3177 115.198C79.9729 115.232 79.8914 115.179 79.6659 115.358C79.301 115.426 78.1415 115.54 77.9136 115.297C76.3349 113.616 75.3347 110.758 74.148 108.732C73.7147 107.993 72.8928 106.839 72.7559 106.375C73.4785 106.142 73.7123 105.916 74.3086 105.449C75.5414 105.174 78.1734 104.17 79.157 103.466C81.7122 102.111 85.368 99.8742 87.7012 98.2147Z" fill="#A85B50"/>
<path d="M96.3863 138.651C99.0089 141.332 102.496 150.707 103.658 154.587C105.501 160.746 107.457 164.389 110.567 170H110.115H100.397H99.3135H88.2093C85.1581 167.015 85.1345 165.559 85.7839 161.568L85.6186 161.343C83.8887 160.017 81.7066 155.925 81.0229 153.819C79.946 150.498 79.9106 147.431 81.4716 144.272L81.5189 144.117L81.7727 144.114C82.4222 145.463 83.0067 146.814 83.9218 148.017C85.9835 150.727 89.6959 152.893 92.877 153.996C93.0139 154.043 93.1521 154.089 93.2914 154.132L93.4662 153.607C86.7722 148.062 92.5404 143.424 99.6099 145.265C98.657 143.445 97.1101 140.518 96.3863 138.651Z" fill="#131111"/>
<path d="M85.6186 161.342C83.8887 160.017 81.7066 155.925 81.0229 153.819C79.946 150.497 79.9106 147.431 81.4716 144.272C81.3972 145.405 83.2794 148.194 84.0706 149.027C89.4042 154.641 96.1891 155.967 103.432 156.319L103.625 156.327C104.057 157.459 104.411 158.442 104.777 159.594C101.6 158.853 95.4098 157.61 94.1227 162.089C93.6634 163.689 94.8725 165.888 95.7558 167.196C95.9825 167.533 96.2151 167.863 96.4548 168.19C93.9669 166.792 91.4128 165.346 89.0169 163.783C88.286 163.304 86.2432 161.198 85.6918 161.126L85.6186 161.342Z" fill="#A85B50"/>
<path d="M100.398 170L100.277 169.934C98.3408 168.877 96.9203 168.91 95.8623 166.607C95.1964 165.156 93.8904 163.097 94.8834 161.391C97.0904 158.354 101.992 159.663 105.03 160.154C106.338 163.075 107.686 165.894 109.369 168.619C109.642 169.06 109.914 169.521 110.116 170H100.398Z" fill="#A85B50"/>
<path d="M85.7832 161.568C86.7491 162.389 87.5532 163.298 88.5958 164.078C90.5146 165.513 92.7983 166.725 94.8942 167.9C96.1577 168.607 98.0965 169.212 99.3128 170H88.2085C85.1574 167.015 85.1337 165.559 85.7832 161.568Z" fill="#A85B50"/>
<path d="M93.4658 153.607C93.9393 153.975 94.3963 154.313 94.8343 154.725C94.3585 154.554 93.7303 154.354 93.291 154.132L93.4658 153.607Z" fill="#885945"/>
<path d="M95.8786 145.487C97.54 145.49 98.1918 145.53 99.8107 145.889C101.262 148.955 102.467 152.533 103.448 155.79C102.116 155.716 100.786 155.622 99.4576 155.51C98.8282 155.461 98.1717 155.425 97.5565 155.294C92.3492 154.187 86.9565 146.032 95.8786 145.487Z" fill="#A85B50"/>
<path d="M87.7012 98.2147C88.1629 98.9553 89.7653 101.63 89.6921 102.389L89.5586 102.651C90.5883 103.123 92.8554 104.196 93.558 104.977C93.5934 105.708 95.4366 107.482 95.8287 108.199C102.638 120.683 90.2789 120.579 83.1056 114.526C82.5777 114.079 79.9434 111.743 79.6647 111.678C79.9446 112.453 80.2244 112.868 80.6554 113.575C80.8679 114.081 81.1502 114.617 81.1714 115.147L80.3177 115.198C79.9729 115.232 79.8914 115.179 79.6659 115.358C79.301 115.426 78.1415 115.54 77.9136 115.297C76.3349 113.616 75.3347 110.758 74.148 108.732C73.7147 107.993 72.8928 106.839 72.7559 106.375C73.4785 106.142 73.7123 105.916 74.3086 105.449C75.5414 105.174 78.1734 104.17 79.157 103.466C81.7122 102.111 85.368 99.8742 87.7012 98.2147Z" fill="#A85B50"/>
<path d="M87.7012 98.2147C88.1629 98.9553 89.7653 101.63 89.6921 102.389L89.5586 102.651C88.7616 102.414 88.3117 102.253 87.282 102.141C81.3899 101.495 77.9714 106.019 79.601 111.575C79.6222 111.61 79.6435 111.644 79.6647 111.678C79.9446 112.453 80.2244 112.868 80.6554 113.575C80.8679 114.081 81.1502 114.617 81.1714 115.147L80.3177 115.198C79.9729 115.232 79.8914 115.179 79.6659 115.358C79.301 115.426 78.1415 115.54 77.9136 115.297C76.3349 113.616 75.3347 110.758 74.148 108.732C73.7147 107.993 72.8928 106.839 72.7559 106.375C73.4785 106.142 73.7123 105.916 74.3086 105.449C75.5414 105.174 78.1734 104.17 79.157 103.466C81.7122 102.111 85.368 99.8742 87.7012 98.2147Z" fill="#FDFBFB"/>
<path d="M84.8443 120.748C88.323 125.954 91.6304 131.391 94.9874 136.682C95.5435 137.558 96.1481 138.52 96.65 139.423C95.357 138.939 93.9294 138.531 92.6919 138.025C92.3235 137.812 91.9669 137.545 91.6197 137.297C91.2076 136.316 89.7871 133.491 89.1897 132.697L89.048 132.336C87.4444 129.65 86.2141 126.547 84.6034 123.843C84.3649 123.441 83.771 122.47 83.8607 122.038L84.8443 120.748Z" fill="#F8BC6B"/>
<path d="M93.5574 104.977L94.1442 105.392C95.4077 106.888 96.6593 108.001 98.0515 109.347C104.257 115.344 110.328 121.433 116.942 126.991C118.738 128.501 120.454 130.128 122.306 131.577C123.917 131.28 131.597 130.409 132.456 131.43L132.388 131.581C131.465 131.765 129.379 131.546 128.296 131.535C126.366 131.499 124.435 131.623 122.525 131.906C123.729 132.883 128.457 136.835 129.279 137.876C128.176 137.378 127.217 136.699 126.31 135.898C119.884 130.219 113.225 124.76 107.007 118.855C104.812 116.751 102.638 114.624 100.486 112.475C99.3256 111.326 97.9452 109.89 96.729 108.843C97.6665 110.951 98.9867 113.932 98.0338 116.164C96.2555 120.327 90.8474 119.245 87.8187 117.982C86.5481 117.438 85.3307 116.781 84.1806 116.016C83.1344 115.332 81.6466 113.737 80.6548 113.575C80.2238 112.868 79.9439 112.453 79.6641 111.678C79.9427 111.743 82.5771 114.079 83.1049 114.526C90.2783 120.579 102.638 120.683 95.828 108.199C95.436 107.482 93.5928 105.708 93.5574 104.977Z" fill="#131111"/>
<path d="M163.147 170L162.621 169.446C162.212 169.012 161.444 168.343 161.462 167.749C161.543 167.609 161.749 167.289 161.744 167.129C161.721 166.375 159.75 165.045 159.885 164.358C160.223 164.243 160.493 164.203 160.702 163.929C160.695 163.772 160.675 163.656 160.586 163.523C160.416 163.273 158.486 160.549 158.407 160.539C158.121 160.507 157.917 160.766 157.543 160.681L157.409 160.458C157.491 160.061 157.58 160.119 158.016 159.79C157.983 159.018 156.393 157.957 156.019 157.045C155.789 156.487 155.852 155.858 155.536 155.577C154.932 155.039 154.129 155.451 153.64 154.699C153.699 153.624 153.372 153.868 152.729 153.055C152.796 152.942 152.776 152.992 152.976 152.94C153.559 153.158 153.854 154.115 153.822 154.696C153.798 155.106 155.215 154.787 155.613 155.393C156.349 156.522 156.246 157.629 157.403 158.519C158.328 159.232 158.904 160.916 159.634 161.867C159.975 162.311 160.943 163.551 160.967 163.98C160.706 164.334 160.623 164.266 160.116 164.45C160.093 164.764 160.365 165.145 160.622 165.281C161.929 165.971 163.613 171.04 165.612 169.549C165.556 169.028 164.905 168.61 164.694 168.095C163.878 166.11 158.486 158.442 158.56 157.363C159.166 158.108 160.719 160.82 161.308 161.81L166.247 170H163.147Z" fill="#B66C5F"/>
<path d="M88.1113 137.126C89.6157 136.986 90.1022 137.057 91.623 137.297C91.9702 137.546 92.3268 137.812 92.6952 138.025L92.6739 138.109C92.3858 138.218 88.6687 137.28 88.1113 137.126Z" fill="#131111"/>
<path d="M131.748 123.292C132.467 123.474 133.074 124.473 133.925 124.959C134.616 125.353 134.973 125.512 135.717 125.823C136.293 127.448 137.542 128.629 138.532 130.028C138.873 130.512 139.395 130.895 139.687 131.377L139.547 131.406L139.15 131.055C138.617 130.543 136.803 128.507 136.69 127.84L136.553 127.757C136.229 128.054 136.099 128.269 135.713 128.365L135.543 128.178C135.394 127.297 135.814 127.364 135.824 126.81C135.851 125.455 134.055 125.511 133.533 125.066C133.074 124.675 132.188 123.736 131.748 123.292Z" fill="#B66C5F"/>
<path d="M105.102 112.351C105.568 112.428 105.626 112.426 106.039 112.634C106.253 113.004 106.207 112.8 106.108 113.278C105.701 113.263 105.698 113.241 105.338 113.085C105.06 112.675 105.135 112.857 105.102 112.351Z" fill="#B66C5F"/>
<path d="M156.596 158.827C156.764 158.973 156.814 159.082 156.939 159.268C156.931 159.718 156.928 159.584 156.647 160.022L156.313 159.833C156.235 159.419 156.396 159.272 156.596 158.827Z" fill="#B66C5F"/>
<path d="M6.68528 67.5664C10.2808 76.6304 13.9932 83.0861 20.9822 90.1326C21.5677 90.7232 23.9679 93.0275 24.5804 93.3546L24.7928 93.6251C32.53 99.5992 40.0282 103.836 49.6881 105.952C51.9144 106.44 54.6021 106.516 56.5795 106.987L57.7145 107.072C57.4444 107.722 56.9296 108.821 56.9718 109.491L57.1401 109.569C56.2747 109.686 55.1821 109.63 54.3118 109.546C47.4864 109.879 37.1732 106.525 31.1668 103.354C18.0976 96.4527 7.11073 83.4263 2.78711 69.2562C3.64201 69.1183 3.29662 69.9342 4.82293 69.5573C5.43163 69.256 6.55327 68.2475 6.68528 67.5664Z" fill="#F4AB56"/>
<path d="M24.7931 93.6247C24.7484 94.1326 24.6774 94.7172 24.7472 95.218C24.8907 96.2468 26.1803 98.8972 26.1025 99.7712C25.0274 99.9306 23.3985 94.4125 24.151 93.4121L24.5807 93.3542L24.7931 93.6247Z" fill="#F8BC6B"/>
<path d="M56.5783 106.987L57.7133 107.072C57.4432 107.721 56.9284 108.821 56.9705 109.491L57.1389 109.569C56.2735 109.686 55.1809 109.63 54.3105 109.546C54.7819 109.505 55.4375 109.591 55.8563 109.428C56.4321 109.205 56.1077 108.306 56.3656 107.825C56.4664 107.636 56.5377 107.215 56.5783 106.987Z" fill="#F8BC6B"/>
<path d="M81.17 115.147C81.5479 115.534 84.7597 120.421 84.8459 120.748L83.8623 122.038C83.7725 122.47 84.3665 123.441 84.605 123.843C86.2156 126.547 87.446 129.65 89.0495 132.336L89.1912 132.697C87.8061 135.826 85.0478 141.839 81.5125 142.863L81.4794 142.706C80.8323 141.743 75.3133 142.661 73.2988 137.359L73.3213 137.099C73.7889 137.074 74.2564 137.026 74.7229 136.983L75.56 136.441C74.8634 134.386 77.6678 125.143 78.4766 122.909C78.2582 122.677 78.0303 122.457 77.8036 122.234L77.656 122.263C78.4258 119.909 79.1662 117.79 79.6645 115.358C79.89 115.179 79.9715 115.232 80.3163 115.198L81.17 115.147Z" fill="#A85B50"/>
<path d="M78.4759 122.909C81.9251 126.161 79.3958 134.061 75.5594 136.441C74.8627 134.386 77.6671 125.143 78.4759 122.909Z" fill="#A85B50"/>
<path d="M81.1709 115.147C81.5487 115.534 84.7605 120.421 84.8467 120.748L83.8631 122.038C83.5809 121.818 80.4329 116.036 80.166 115.375L80.3172 115.198L81.1709 115.147Z" fill="#131111"/>
<path d="M77.8034 122.234L77.9238 121.973C78.1942 121.915 78.2225 121.956 78.4587 122.127C81.8287 124.575 80.6574 131.39 78.4835 134.292C77.5436 135.546 76.4006 136.664 74.9824 137.231L74.7227 136.983L75.5598 136.441C79.3963 134.061 81.9255 126.161 78.4764 122.909C78.258 122.677 78.0301 122.457 77.8034 122.234Z" fill="#131111"/>
<path d="M81.4805 142.706C81.5655 142.478 83.8433 140.625 84.3392 140.222C85.9486 138.916 87.9831 133.187 89.0506 132.336L89.1923 132.697C87.8072 135.826 85.0488 141.839 81.5135 142.863L81.4805 142.706Z" fill="#131111"/>
<path d="M74.7229 136.983L74.9826 137.231C74.3734 137.516 73.9813 137.426 73.2988 137.359L73.3213 137.099C73.7889 137.074 74.2564 137.026 74.7229 136.983Z" fill="#581413"/>
<path d="M2.36653 67.538C1.70504 64.3705 0.776815 61.6845 0.374398 58.242C-0.891655 47.7887 1.07107 36.8186 5.99146 27.5106C7.82619 24.0398 14.7424 14.4646 18.4703 13.4257C16.1153 16.1424 14.5922 17.5025 12.3935 20.5795C5.88283 29.8711 2.77201 41.123 3.58464 52.4404C3.84772 56.1398 5.06099 63.7914 6.61705 67.1818L6.68553 67.5661C6.55352 68.2472 5.43188 69.2557 4.82318 69.557C3.29688 69.9339 3.64226 69.1179 2.78736 69.2559C2.54258 68.529 2.47457 68.2935 2.36653 67.538Z" fill="#F4AB56"/>
<path d="M2.36719 67.5381C3.22539 67.8825 3.40901 68.6546 4.67577 69.3185L4.82384 69.5571C3.29754 69.934 3.64292 69.118 2.78802 69.256C2.54324 68.5291 2.47523 68.2936 2.36719 67.5381Z" fill="#F8BC6B"/>
<path d="M4.67578 69.3185C5.19096 68.556 5.67616 67.2218 6.61773 67.1819L6.68621 67.5662C6.55419 68.2474 5.43256 69.2558 4.82385 69.5571L4.67578 69.3185Z" fill="#FDD183"/>
<path d="M77.657 122.263L77.8046 122.234C78.0313 122.457 78.2592 122.676 78.4776 122.909C77.6688 125.143 74.8644 134.386 75.5611 136.441L74.7239 136.983C74.2575 137.026 73.7899 137.074 73.3223 137.099C73.6068 136.413 74.2067 133.948 74.4405 133.106C75.0757 130.877 75.7228 128.653 76.3817 126.431C76.7525 125.171 77.2095 123.445 77.657 122.263Z" fill="#B66C5F"/>
</svg>
