<svg width="202" height="160" viewBox="0 0 202 160" fill="none" xmlns="http://www.w3.org/2000/svg">
<g clip-path="url(#clip0_334_7330)">
<path d="M53.7039 7.3358C53.1918 5.77485 52.6489 4.57915 51.7636 3.15552C51.0902 1.95265 50.4907 1.1954 52.2004 0.486148C53.1483 0.0635637 54.9487 -0.494164 55.3644 0.825676C56.5619 4.62765 58.2435 8.23421 59.7301 11.9382C62.4162 10.7947 65.816 10.3368 68.6937 11.2334C81.0443 15.0817 80.0837 27.9123 88.8923 34.6192C90.4085 35.7737 95.5011 40.0561 96.8533 40.7124C100.861 44.0556 104.3 46.7586 107.455 50.8132C111.59 56.1248 114.571 61.8882 114.555 68.4969C114.554 69.2169 114.6 69.6857 114.459 70.4373C118.965 72.8401 120.664 76.1086 124.329 77.8417C131.98 87.6827 146.366 92.5536 159.328 93.3483C165.053 93.086 170.379 93.3048 176.033 91.9201C176.916 91.7038 178.536 91.1471 179.31 91.3685C186.046 97.0776 190.389 105.987 190.797 114.261C190.826 114.841 190.735 115 190.606 115.527L190.571 115.656L190.745 115.944C192.28 116.21 200.033 114.828 200.407 116.379C202.624 125.555 199.985 133.144 193.88 140.49C178.338 159.188 150.166 161.114 126.214 161.086C126.24 162.961 126.061 164.612 125.937 166.473C125.809 168.409 126.015 170.453 125.89 172.398C125.792 173.927 125.588 175.083 125.657 176.628C125.598 178.737 125.859 181.097 125.621 183.093C122.904 183.092 119.528 182.946 116.87 183.121C106.428 183.808 96.0147 183.619 85.5542 183.624C81.9856 183.625 78.4377 183.358 74.8287 183.34C74.565 181.1 74.8573 179.327 74.8102 177.198C74.6996 172.2 74.6409 167.137 74.7514 162.138C74.7516 161.577 74.822 161.199 74.5122 160.721C72.6616 160.41 69.11 160.597 67.1277 160.545C65.622 160.57 63.997 160.292 62.5124 160.319C56.4488 160.427 51.1795 160.349 45.1592 159.519C37.1215 158.41 29.9791 156.854 22.6919 153.51C20.1685 152.351 17.5162 151.505 15.1717 149.981C12.803 148.538 11.4248 147.643 9.38678 145.735C7.96037 144.399 6.50093 143.294 5.32151 141.674C1.89298 136.997 0.594805 131.834 0.309465 126.332C0.169308 123.631 0.682834 119.392 0 116.881C0.592077 115.201 0.526162 115.103 2.62995 114.94C4.82852 114.767 7.23703 115.034 9.40473 114.89C12.9849 114.65 16.2882 114.586 19.873 114.742C15.1397 105.212 15.7715 94.1328 21.3515 84.9894C26.0227 77.335 36.8436 70.7136 46.2868 68.796C45.689 63.5661 47.1413 58.699 48.7315 53.7428C48.1238 53.9683 46.049 56.6264 45.423 57.2637C41.3306 61.446 36.1784 64.7909 30.1988 66.4579C28.9601 66.8032 27.2164 67.5525 26.5145 66.2505C25.6783 64.6996 25.5532 62.9244 25.3313 61.2523C24.1995 52.7243 25.682 44.2995 28.0459 36.0381C29.822 30.1131 34.6834 22.2391 38.8753 17.443C41.6187 14.5484 44.9941 11.9663 48.3475 9.64773C49.8037 8.64118 52.0799 8.19658 53.7039 7.3358Z" fill="#0E67E6"/>
<path d="M53.7052 7.3358C53.1931 5.77485 52.6502 4.57915 51.7648 3.15552C51.0915 1.95265 50.4919 1.1954 52.2017 0.486148C53.1496 0.0635637 54.95 -0.494164 55.3657 0.825676C56.5632 4.62765 58.2448 8.23421 59.7314 11.9382C62.4175 10.7947 65.8173 10.3368 68.695 11.2334C81.0456 15.0817 80.085 27.9123 88.8936 34.6192C90.4098 35.7737 95.5024 40.0561 96.8546 40.7124C100.862 44.0556 104.302 46.7586 107.457 50.8132C111.591 56.1248 114.572 61.8882 114.556 68.4969C114.555 69.2169 114.601 69.6857 114.46 70.4373C110.607 68.8132 107.287 68.8163 103.23 70.0271C95.5952 72.3058 91.5724 76.5306 88.1462 82.859C87.8699 83.3695 87.5985 84.1069 87.3528 84.5474C84.6009 79.9676 79.3548 76.0293 74.452 73.3105C65.1365 68.1445 56.9259 66.6174 46.2881 68.796C45.6903 63.5661 47.1425 58.699 48.7328 53.7428C48.1251 53.9683 46.0503 56.6264 45.4243 57.2637C41.3319 61.446 36.1797 64.7909 30.2001 66.4579C28.9614 66.8032 27.2177 67.5525 26.5158 66.2505C25.6796 64.6996 25.5545 62.9244 25.3326 61.2523C24.2008 52.7243 25.6833 44.2995 28.0472 36.0381C29.8233 30.1131 34.6847 22.2391 38.8766 17.443C41.62 14.5484 44.9954 11.9663 48.3488 9.64773C49.8049 8.64118 52.0812 8.19658 53.7052 7.3358Z" fill="#0A7CC9"/>
<path d="M53.7052 7.3358C53.1931 5.77485 52.6502 4.57915 51.7648 3.15552C51.0915 1.95265 50.4919 1.1954 52.2017 0.486148C53.1496 0.0635637 54.95 -0.494164 55.3657 0.825676C56.5632 4.62765 58.2448 8.23421 59.7314 11.9382L57.0733 13.2279C57.4702 15.2036 57.9296 17.2153 58.1216 19.2057C59.0256 28.5719 57.925 37.8671 53.1898 46.3642C52.0536 48.403 50.744 50.3703 49.4764 52.3478C49.1741 52.8321 49.0114 53.3099 48.7328 53.7428C48.1251 53.9683 46.0503 56.6264 45.4243 57.2637C41.3319 61.446 36.1797 64.7909 30.2001 66.4579C28.9614 66.8032 27.2177 67.5525 26.5158 66.2505C25.6796 64.6996 25.5545 62.9244 25.3326 61.2523C24.2008 52.7243 25.6833 44.2995 28.0472 36.0381C29.8233 30.1131 34.6847 22.2391 38.8766 17.443C41.62 14.5484 44.9954 11.9663 48.3488 9.64773C49.8049 8.64118 52.0812 8.19658 53.7052 7.3358Z" fill="#014230"/>
<path opacity="0.2" d="M91.1885 45.7174C92.4176 45.9704 96.1395 51.183 97.2293 52.4474C95.7786 53.9947 91.3798 56.4291 89.4001 57.8788C88.3749 58.6295 85.7826 60.5898 84.7867 61.0628C83.4045 60.0366 79.4858 55.2815 78.6367 53.7611C79.3231 53.1592 80.9249 52.1501 81.7605 51.6281C84.9415 49.641 88.1618 47.9263 91.1885 45.7174Z" fill="#EAE1CC"/>
<path d="M87.3546 84.5472C87.6003 84.1067 87.8717 83.3693 88.148 82.8588C91.5742 76.5304 95.597 72.3056 103.232 70.0269C107.289 68.8161 110.609 68.8131 114.462 70.4371C118.968 72.8399 120.667 76.1085 124.332 77.8415C131.983 87.6826 146.369 92.5534 159.331 93.3481C160.51 99.6268 158.575 110.075 155.665 115.894C136.422 115.875 117.18 115.741 97.9398 115.492C97.1053 114.601 95.1593 112.073 94.3029 111.027C91.2239 107.263 88.8732 105.347 84.7462 102.697C84.288 98.4724 84.9399 93.7474 85.8427 89.5728C86.1897 87.9679 87.1099 86.1379 87.3546 84.5472Z" fill="#FC9DD5"/>
<path d="M46.2895 68.796C56.9274 66.6174 65.1379 68.1446 74.4534 73.3106C79.3562 76.0294 84.6023 79.9676 87.3542 84.5475C87.1095 86.1381 86.1893 87.9682 85.8423 89.573C84.9395 93.7477 84.2875 98.4726 84.7458 102.697C78.4933 98.6915 71.0332 96.3776 63.5206 95.0339C60.9596 94.5757 58.4714 94.5847 55.8924 94.4234C55.1579 93.4521 54.4268 92.6983 53.017 92.4897C52.1474 92.3604 51.2565 92.5588 50.5573 93.0374C49.8684 93.5096 49.4245 94.211 49.3277 94.9814C49.2411 95.6776 49.4718 96.3764 49.9679 96.9203C50.7691 97.8033 51.5836 97.9607 52.7403 98.1629C52.9912 99.5016 53.2777 101.389 53.6486 102.651C54.8725 106.816 57.4779 111.237 60.0316 114.894C55.5442 114.993 51.064 114.878 46.5453 115.068C42.3552 115.243 37.6472 114.813 33.4436 114.854C31.5858 114.873 20.8031 115.338 19.8757 114.743C15.1424 105.212 15.7742 94.1329 21.3542 84.9895C26.0254 77.3351 36.8463 70.7136 46.2895 68.796Z" fill="#FE6224"/>
<path d="M52.739 98.1631C51.5823 97.9609 50.7678 97.8034 49.9666 96.9204C49.4705 96.3765 49.2399 95.6777 49.3265 94.9815C49.4232 94.2111 49.8671 93.5098 50.556 93.0375C51.2552 92.5589 52.1461 92.3605 53.0158 92.4898C54.4255 92.6984 55.1566 93.4522 55.8911 94.4235C58.4701 94.5848 60.9583 94.5758 63.5194 95.034C71.032 96.3778 78.492 98.6916 84.7445 102.697C88.8715 105.348 91.2222 107.264 94.3012 111.027C95.1576 112.073 97.1036 114.602 97.9381 115.493C100.861 119.843 103.345 124.226 104.444 129.244C104.473 129.707 105.244 131.446 104.643 131.646C97.3898 134.064 89.7874 131.901 82.9556 129.778C72.7064 126.591 66.4618 122.566 60.0304 114.894C57.4767 111.237 54.8713 106.816 53.6473 102.651C53.2764 101.389 52.9899 99.5017 52.739 98.1631Z" fill="#D6DF0D"/>
<path d="M159.33 93.3484C165.056 93.0861 170.382 93.3049 176.036 91.9202C176.919 91.7039 178.539 91.1472 179.313 91.3686C186.049 97.0777 190.392 105.988 190.8 114.261C190.828 114.841 190.738 115 190.609 115.527L190.574 115.656L190.463 115.947C189.507 116.227 184.738 116.018 183.334 116.044C174.143 116.213 164.84 115.708 155.664 115.894C158.575 110.075 160.509 99.627 159.33 93.3484Z" fill="#0A7CC9"/>
<path d="M96.8566 40.7124C96.514 38.0529 95.7877 35.6381 95.3337 33.0435C94.2732 26.9813 92.44 21.0479 91.9988 14.9194C91.8936 13.4582 90.7015 9.93341 91.5429 8.85417L91.7975 8.7793C92.0913 8.97728 92.536 10.13 92.7385 10.5334C98.8237 22.6539 103.667 35.5397 110.262 47.4639C110.707 45.5363 111.382 43.9138 111.982 42.0357C112.946 39.0239 113.971 36.1559 115.087 33.1864C117.093 27.8477 118.265 22.4004 120.842 17.2022C121.618 15.6387 121.927 13.4765 122.673 11.8637C122.892 11.3067 123.285 10.6326 124.01 10.6634C125.34 11.886 123.275 21.3965 123.088 23.6413L121.466 41.8147C121.207 44.6819 121.15 48.5369 120.537 51.2494C123.239 48.643 125.721 45.3816 128.264 42.6034C133.849 36.5045 139.413 30.3905 144.909 24.2306C145.518 23.5481 147.795 21.4141 148.822 21.9813C149.408 23.3339 146.466 27.6524 145.811 29.2835C143.312 35.5003 140.618 41.6544 137.78 47.7553C136.396 50.716 135.336 53.9231 133.872 56.8419C136.488 55.7272 139.046 54.5569 141.615 53.3381C150.909 48.9295 160.799 45.6765 170.421 41.9093C171.408 41.5228 172.725 41.0703 173.799 41.0425C174.319 41.264 174.132 41.1033 174.418 41.5013C174.28 42.1175 173.568 42.7525 173.032 43.1424C169.653 45.6031 166.187 47.9712 162.75 50.3683C156.94 54.4206 151.852 59.1748 145.984 63.1741C144.681 64.0632 143.42 65.0585 142.054 65.8708C141.837 66.0002 141.616 66.1237 141.392 66.2411C143.958 65.7738 146.616 65.3889 149.197 65.0504C157.832 63.9176 166.711 62.5217 175.44 62.5001C176.876 62.4965 182.866 61.2897 183.138 62.7719C182.129 63.7974 179.69 64.4265 178.325 65.0986C173.637 67.409 168.726 69.1059 163.836 71.0298C165.487 71.6103 167.503 71.7525 169.211 72.2711C173.681 73.6197 178.09 75.3629 182.002 77.735C184.677 79.3576 186.719 81.683 189.144 83.5027C191.274 85.1008 191.784 85.4564 189.093 87.1632C186.192 89.0112 182.938 90.3754 179.489 91.1855L179.313 91.3685C178.539 91.1471 176.92 91.7038 176.036 91.9201C170.383 93.3048 165.056 93.086 159.331 93.3483C146.369 92.5536 131.983 87.6828 124.332 77.8417C120.667 76.1087 118.968 72.8401 114.462 70.4373C114.603 69.6857 114.557 69.2169 114.558 68.4969C114.574 61.8882 111.593 56.1248 107.459 50.8132C104.304 46.7586 100.864 44.0556 96.8566 40.7124Z" fill="#D6DF0D"/>
<path d="M124.328 77.8415C124.34 73.8332 124.533 68.04 125.506 64.0198C125.679 63.3012 127.935 63.029 128.725 63.394C129.005 63.746 128.955 64.1977 128.859 64.6046C127.849 68.8711 126.369 72.6858 126.316 77.1106C130.163 75.7752 133.354 74.3166 137.443 72.9733C138.203 73.8944 139.082 74.6715 140.402 74.8705C141.256 74.9968 142.131 74.8076 142.824 74.3467C144.022 73.5638 144.435 72.4375 144.682 71.2052C148.821 70.784 152.049 70.4077 156.235 70.4629C157.723 70.4825 163.071 71.1801 163.832 71.0296C165.483 71.6101 167.5 71.7523 169.207 72.2709C173.677 73.6195 178.086 75.3627 181.998 77.7348C184.673 79.3574 186.715 81.6828 189.141 83.5025C191.27 85.1005 191.78 85.4562 189.089 87.1629C186.188 89.0109 182.934 90.3752 179.485 91.1853L179.31 91.3683C178.536 91.1469 176.916 91.7036 176.033 91.9199C170.379 93.3046 165.053 93.0857 159.327 93.3481C146.366 92.5534 131.979 87.6825 124.328 77.8415Z" fill="#002118"/>
</g>
<defs>
<clipPath id="clip0_334_7330">
<rect width="201.657" height="160" fill="white"/>
</clipPath>
</defs>
</svg>
