<svg width="175" height="179" viewBox="0 0 175 179" fill="none" xmlns="http://www.w3.org/2000/svg">
<g clip-path="url(#clip0_334_7353)">
<path d="M53.9124 56.6036C54.693 61.9131 55.8342 62.9753 59.0253 67.0616L53.6458 66.3864C52.2011 69.8037 51.4078 71.9247 50.4611 75.6448C49.448 79.625 49.4847 81.6054 47.5794 85.3353C46.2964 85.2832 44.9276 85.1988 43.6536 85.2828C43.7635 84.5205 44.8516 81.153 45.1492 80.2999C45.9468 78.2433 46.3402 75.506 47.1087 73.5186C49.4284 67.5202 50.9661 64.0401 50.2356 57.4671L53.9124 56.6036Z" fill="#014230"/>
<path d="M99.7812 88.8714C97.7724 85.3071 98.5395 81.5241 97.9977 77.6758L94.1122 75.8319C95.62 73.5766 95.5318 71.255 95.0896 68.7301L101.465 72.2783C101.885 76.3366 102.361 80.3887 102.894 84.4337C103.071 85.8491 103.508 88.2298 103.562 89.5599C102.329 89.4178 101.095 89.2822 99.86 89.153C99.8472 89.024 99.8469 88.9883 99.7812 88.8714Z" fill="#014230"/>
<path d="M43.6506 85.2828L43.5065 85.2986C40.7643 85.5843 35.5645 85.2039 32.8513 84.9644C26.3988 84.3946 14.2999 80.9777 12.5286 90.4324C10.2327 102.689 7.33087 114.886 5.90977 127.299C5.34532 132.233 3.90761 137.293 3.36641 142.269C2.7538 147.155 2.39355 152.024 1.80751 156.94C1.53027 159.256 0.756653 162.727 1.48878 165.023C1.75275 165.85 3.51749 166.297 4.36581 166.381C12.1018 167.144 19.929 167.046 27.6503 167.894L84.9868 173.713C88.6188 174.059 92.2072 174.144 95.9679 174.534C99.0145 174.85 102.11 175.505 105.141 175.74C112.72 176.328 119.058 177.036 126.794 177.428C128.642 177.521 140.854 178.982 143.541 177.403C145.197 171.673 142.853 163.832 142.508 157.848C142.18 154.677 142.088 151.525 141.755 148.352C141.402 144.992 140.248 141.496 139.873 138.159C139.041 130.761 137.866 123.367 136.786 116.004C136.253 112.368 135.157 108.935 135.091 105.162C134.921 102.945 134.042 100.314 133.637 98.1055C133.313 96.802 132.757 94.6228 131.462 94.1346C128.001 92.9059 123.745 91.3728 120.144 90.7751C116.519 90.1731 112.338 90.579 108.65 90.1613C107.577 90.0398 104.19 90.3348 103.559 89.5599C102.326 89.4178 101.092 89.2821 99.857 89.153C95.0706 88.3215 89.5569 88.9521 84.688 88.5254C80.2481 88.1363 75.7663 87.2639 71.3148 87.0031C66.5128 86.722 61.6772 86.684 56.8729 86.3008C53.5018 86.0664 50.9008 86.2928 47.5764 85.3353C46.2934 85.2831 44.9246 85.1988 43.6506 85.2828Z" fill="#85DB79"/>
<path d="M125.555 157.043C125.196 153.879 125.46 145.879 125.422 142.37C125.311 133.128 125.116 123.886 124.838 114.648C124.802 112.885 124.931 106.494 124.425 105.323C124.039 104.943 123.684 104.773 123.149 104.713C119.906 104.349 120.61 105.1 120.323 107.405C120.329 118.85 120.768 130.439 120.909 141.876C120.908 145.66 121.134 153.446 120.734 156.938C120.519 158.809 111.587 165.724 111.572 168.514C111.509 168.944 111.527 169.614 111.873 169.95C114.097 172.114 117.199 167.771 118.427 166.443C119.968 164.744 121.587 163.117 123.279 161.567C124.312 162.296 125.287 163.066 126.207 163.932C127.666 165.306 131.579 170.074 133.261 170.343C133.802 170.43 134.28 170.277 134.707 169.951C135.168 169.6 135.475 169.135 135.534 168.553C135.821 165.696 127.53 159.432 125.555 157.043Z" fill="#014230"/>
<path d="M105.636 171.124C106.298 168.233 106.52 161.411 106.852 158.067C108.512 141.347 109.146 124.597 109.351 107.802C109.365 103.389 109.997 98.8909 109.454 94.4996C109.214 92.56 106.807 93.3287 105.577 93.6307C105.511 94.3842 105.439 95.1371 105.361 95.8893C105.335 98.0203 105.339 104.084 105.038 105.857C105.131 108.903 105.039 112.03 104.912 115.076C104.522 124.447 104.539 134.11 103.644 143.433C103.524 145.225 103.34 149.93 103.067 151.527C102.982 154.633 101.326 169.087 102.284 170.99C103.061 171.58 104.639 171.235 105.636 171.124Z" fill="#014230"/>
<path d="M74.9163 112.925C75.7508 112.821 76.6618 112.852 77.239 113.554C78.1733 114.689 77.3486 116.296 76.6088 117.274C74.7116 119.784 72.5983 122.122 70.5281 124.487L61.7348 134.6C60.1196 136.453 58.5219 138.322 56.9416 140.205C56.1583 141.144 51.4735 147.106 50.3662 146.382C45.793 143.388 41.4033 136.902 38.0302 132.615C37.11 131.403 33.8294 126.932 38.2072 126.426C38.5713 126.384 39.7648 127.484 40.0311 127.864C43.23 132.441 47.1027 136.537 50.4575 140.943C51.7702 139.512 53.317 137.442 54.6663 135.89L67.6006 120.944C69.2812 118.988 72.9784 114.245 74.9163 112.925Z" fill="#014230"/>
<path d="M59.0246 67.0616C58.7634 66.7271 58.5159 66.4129 58.2813 66.115C58.2803 66.1137 58.2793 66.1125 58.2783 66.1112C55.6483 62.772 54.6281 61.4767 53.9117 56.6036C52.2495 45.298 58.1673 34.5909 66.8713 27.7519C73.7741 22.3283 82.3777 23.974 89.6811 27.5819C90.0281 27.7533 90.4159 27.9116 90.8056 28.0707C91.3328 28.2859 91.8633 28.5025 92.3008 28.7547C102.413 34.5831 112.701 40.12 122.981 45.6528C123.936 46.1671 124.892 46.6813 125.847 47.1957C126.13 47.3478 126.435 47.5212 126.759 47.7046C128.814 48.8708 131.576 50.4378 133.586 49.4648C134.345 49.064 134.113 47.9751 133.815 47.3016C133.178 46.7852 132.47 46.4063 131.759 46.0257C131.337 45.7999 130.914 45.5735 130.504 45.3174C128.546 44.0948 126.518 42.9719 124.492 41.8501C122.671 40.8419 120.851 39.8345 119.086 38.7563C117.807 37.6854 117.113 36.4192 116.301 34.9401C116.26 34.8646 116.218 34.7885 116.176 34.7118C115.424 33.3445 114.847 32.3891 114.187 31.2976C113.817 30.6869 113.422 30.0336 112.957 29.2417C112.799 28.9731 112.61 28.5887 112.392 28.1439C111.243 25.8057 109.275 21.7992 106.668 24.1784C105.558 25.1921 107.274 27.837 108.76 30.1262C109.752 31.655 110.642 33.0253 110.517 33.6453L87.2889 -6.5L139.211 -8.5L166.04 36.7837C165.483 35.9495 164.839 35.1756 164.192 34.399C163.569 33.6518 162.945 32.9021 162.395 32.0936L162.251 32.0208C161.131 31.4475 160.79 30.8408 160.262 29.9024C160.17 29.7383 160.072 29.5641 159.963 29.3782L159.716 29.468C159.72 29.5434 159.723 29.6271 159.727 29.7159C159.744 30.1404 159.766 30.6815 159.901 30.9841L159.489 31.8178C159.54 31.9401 159.579 32.0469 159.613 32.1425C159.724 32.4495 159.793 32.6405 160.095 32.8541C159.887 33.2621 159.992 33.4358 160.091 33.6014C160.167 33.728 160.24 33.8498 160.169 34.0678C160.919 35.7145 161.91 37.3398 162.915 38.9866C164.172 41.0463 165.45 43.1397 166.3 45.3509C166.557 46.0207 166.833 46.7048 167.112 47.399C168.114 49.8931 169.17 52.5189 169.656 55.0902C171.779 66.3298 171.093 80.9847 158.779 86.053C149.892 89.7106 137.673 86.2674 128.999 83.2011C121.626 80.3605 114.176 76.2836 107.749 71.8658C107.118 71.4318 100.442 66.1887 100.33 66.0165C100.49 65.598 100.707 65.3511 100.978 65.0409L100.98 65.0395C101.021 64.9925 101.063 64.944 101.107 64.8933C102.453 63.3322 103.821 61.2804 104.492 59.3171L104.47 59.2639C104.17 58.511 103.941 57.9342 103.142 57.5924C102.729 57.4159 102.336 57.4344 101.926 57.6113C101.123 57.9579 100.405 58.9215 99.557 60.0588C98.153 61.9423 96.3939 64.3022 93.3065 65.1244C91.4974 65.6061 89.8888 65.3896 88.3881 65.1877C87.3037 65.0417 86.2758 64.9034 85.2694 65.0415C84.6659 65.1244 84.1376 65.3649 83.8914 65.9622C83.6728 66.4927 83.6736 67.3428 83.9412 67.8585C84.1722 68.3034 84.5631 68.5295 85.0258 68.668C88.3954 69.6758 91.6726 69.2992 95.0889 68.7301C95.5311 71.255 95.6193 73.5766 94.1115 75.8319C91.8326 79.2412 86.4509 79.2048 83.1128 77.54C82.6169 77.2366 82.0766 76.9267 81.5149 76.6045C78.5414 74.8989 74.9681 72.8492 74.1989 69.6061C72.9573 64.3707 73.4701 56.3895 76.1471 51.7244C79.0896 46.597 74.441 45.5017 73.3232 47.8953C70.4488 54.0505 69.0339 60.8563 70.101 67.6294C70.2023 68.3133 70.3279 69.0062 70.454 69.7026C70.601 70.514 70.7489 71.33 70.8602 72.1418C67.653 71.2264 65.5492 70.273 62.586 68.7775C62.6966 66.6233 62.573 64.5779 62.4508 62.5534C62.265 59.4776 62.0822 56.4498 62.7274 53.1611C62.9168 52.1956 63.4864 50.9145 64.1019 49.5302C65.2407 46.9689 66.5366 44.0542 65.8724 42.1307C63.9647 40.1321 62.2819 43.7615 61.5469 45.3467C61.4843 45.4819 61.4285 45.6022 61.3801 45.7029C58.8967 50.8641 58.9679 56.3138 59.0395 61.7961C59.0624 63.5507 59.0854 65.3087 59.0246 67.0616Z" fill="#A85B50"/>
<path fill-rule="evenodd" clip-rule="evenodd" d="M58.2813 66.115L58.2783 66.1112C55.6483 62.772 54.6281 61.4767 53.9117 56.6036C52.2495 45.298 58.1673 34.5909 66.8713 27.7519C73.7741 22.3283 82.3777 23.974 89.6811 27.5819C90.0281 27.7533 90.4159 27.9116 90.8056 28.0707C91.3328 28.2859 91.8633 28.5025 92.3008 28.7547C102.413 34.5831 112.701 40.12 122.981 45.6528C123.936 46.1671 124.892 46.6813 125.847 47.1957C126.13 47.3478 126.435 47.5212 126.759 47.7046C128.814 48.8708 131.576 50.4378 133.586 49.4648C134.345 49.064 134.113 47.9751 133.815 47.3016C133.178 46.7852 132.47 46.4063 131.759 46.0257C131.337 45.7999 130.914 45.5735 130.504 45.3174C128.546 44.0948 126.518 42.9719 124.492 41.8501C122.671 40.8419 120.851 39.8345 119.086 38.7563C117.807 37.6854 117.113 36.4192 116.301 34.9401L116.176 34.7118C115.424 33.3445 114.847 32.3891 114.187 31.2976C113.817 30.6869 113.422 30.0336 112.957 29.2417C112.799 28.9731 112.61 28.5887 112.392 28.1439C111.243 25.8057 109.275 21.7992 106.668 24.1784C105.558 25.1921 107.274 27.837 108.76 30.1262C109.752 31.655 110.642 33.0253 110.517 33.6453C109.548 34.0243 105.344 31.4724 102.97 30.0314C102.392 29.6807 101.923 29.3958 101.635 29.2349C91.983 23.8433 80.7615 17.7037 69.4524 21.8119C61.9362 24.629 55.7445 32.4693 52.3521 39.4217C49.8972 44.4526 49.6281 52.0068 50.2349 57.4671L53.6451 66.3864C57.2551 70.3588 62.6159 73.9278 67.7559 75.2759C68.3557 75.4332 68.9085 75.5733 69.4253 75.7042C72.7987 76.5586 74.6354 77.0239 77.9653 79.3702C80.1229 80.8902 84.6994 82.3223 87.2889 82.3792C91.693 82.601 95.0754 80.9805 97.997 77.6758L101.464 72.2783C102.55 73.0274 103.671 73.8689 104.807 74.7211C106.605 76.0707 108.44 77.4472 110.225 78.5261C117.942 83.1892 130.524 88.6216 139.211 90.4474C146.255 91.6336 158.46 92.4378 164.279 87.8743C179.797 75.7035 175.754 51.3437 166.04 36.7837C165.483 35.9495 164.839 35.1756 164.192 34.399C163.569 33.6518 162.945 32.9021 162.395 32.0936L162.251 32.0208C161.131 31.4475 160.79 30.8408 160.262 29.9024C160.17 29.7383 160.072 29.5641 159.963 29.3782L159.716 29.468C159.72 29.5434 159.723 29.6271 159.727 29.7159C159.744 30.1404 159.766 30.6815 159.901 30.9841L159.489 31.8178C159.54 31.9401 159.579 32.0469 159.613 32.1425C159.724 32.4495 159.793 32.6405 160.095 32.8541C159.887 33.2621 159.992 33.4358 160.091 33.6014C160.167 33.728 160.24 33.8498 160.169 34.0678C160.919 35.7145 161.91 37.3398 162.915 38.9866C164.172 41.0463 165.45 43.1397 166.3 45.3509C166.557 46.0207 166.833 46.7048 167.112 47.399C168.114 49.8931 169.17 52.5189 169.656 55.0902C171.779 66.3298 171.093 80.9847 158.779 86.053C149.892 89.7106 137.673 86.2674 128.999 83.2011C121.626 80.3605 114.176 76.2836 107.749 71.8658C107.118 71.4318 100.442 66.1887 100.33 66.0165C100.49 65.598 100.707 65.3511 100.978 65.0409L100.98 65.0395C101.021 64.9925 101.063 64.944 101.107 64.8933C102.453 63.3322 103.821 61.2804 104.492 59.3171L104.47 59.2639C104.17 58.511 103.941 57.9342 103.142 57.5924C102.729 57.4159 102.336 57.4344 101.926 57.6113C101.123 57.9579 100.405 58.9215 99.557 60.0588C98.153 61.9423 96.3939 64.3022 93.3065 65.1244C91.4974 65.6061 89.8888 65.3896 88.3881 65.1877C87.3037 65.0417 86.2758 64.9034 85.2694 65.0415C84.6659 65.1244 84.1376 65.3649 83.8914 65.9622C83.6728 66.4927 83.6736 67.3428 83.9412 67.8585C84.1722 68.3034 84.5631 68.5295 85.0258 68.668C88.3954 69.6758 91.6726 69.2992 95.0889 68.7301C95.5311 71.255 95.6193 73.5766 94.1115 75.8319C91.8326 79.2412 86.4509 79.2048 83.1128 77.54C82.6169 77.2366 82.0766 76.9267 81.5149 76.6045C78.5414 74.8989 74.9681 72.8492 74.1989 69.6061C72.9573 64.3707 73.4701 56.3895 76.1471 51.7244C79.0896 46.597 74.441 45.5017 73.3232 47.8953C70.4488 54.0505 69.0339 60.8563 70.101 67.6294C70.2023 68.3133 70.3279 69.0062 70.454 69.7026C70.601 70.514 70.7489 71.33 70.8602 72.1418C67.653 71.2264 65.5492 70.273 62.586 68.7775C62.6966 66.6233 62.573 64.5779 62.4508 62.5534C62.265 59.4776 62.0822 56.4498 62.7274 53.1611C62.9168 52.1956 63.4864 50.9145 64.1019 49.5302C65.2407 46.9689 66.5366 44.0542 65.8724 42.1307C63.9647 40.1321 62.2819 43.7615 61.5469 45.3467C61.4843 45.4819 61.4285 45.6022 61.3801 45.7029C58.8967 50.8641 58.9679 56.3138 59.0395 61.7961C59.0624 63.5507 59.0854 65.3087 59.0246 67.0616C58.7634 66.7271 58.5159 66.4129 58.2813 66.115ZM160.483 31.9974C160.282 32.1276 160.229 32.3059 160.172 32.5435C160.251 32.4263 160.374 32.402 160.473 32.3828C160.625 32.3528 160.717 32.3348 160.483 31.9974Z" fill="#A85B50"/>
<path opacity="0.43" d="M53.9117 56.6036C54.6923 61.9131 55.8335 62.9753 59.0246 67.0616C59.2751 59.832 58.1019 52.516 61.3801 45.7029C61.9966 44.4212 63.802 39.9617 65.8724 42.1307C66.8956 45.0937 63.2673 50.4091 62.7274 53.1611C61.6575 58.6146 62.8646 63.3507 62.586 68.7775C65.5492 70.273 67.653 71.2264 70.8602 72.1418C70.6534 70.6333 70.3203 69.1101 70.101 67.6294C69.0339 60.8563 70.4488 54.0505 73.3232 47.8953C74.441 45.5017 79.0896 46.597 76.1471 51.7244C73.4701 56.3895 72.9573 64.3707 74.1989 69.6061C75.1134 73.4618 79.9914 75.6307 83.1128 77.54C86.4509 79.2048 91.8326 79.2412 94.1115 75.8319C95.6193 73.5766 95.5311 71.255 95.0889 68.7301C91.6726 69.2992 88.3954 69.6758 85.0258 68.668C84.5631 68.5295 84.1722 68.3034 83.9412 67.8585C83.6736 67.3428 83.6728 66.4927 83.8914 65.9622C84.1376 65.3649 84.6659 65.1244 85.2694 65.0415C87.6686 64.7121 90.1902 65.9543 93.3065 65.1244C98.2581 63.8057 99.7931 58.5319 101.926 57.6113C102.336 57.4344 102.729 57.4159 103.142 57.5924C103.941 57.9342 104.17 58.511 104.47 59.2639L104.492 59.3171C103.821 61.2804 102.453 63.3322 101.107 64.8933C100.774 65.2796 100.515 65.5339 100.33 66.0165C100.442 66.1887 107.118 71.4318 107.749 71.8658C114.176 76.2836 121.626 80.3605 128.999 83.2011C137.673 86.2674 149.892 89.7106 158.779 86.053C171.093 80.9847 171.779 66.3298 169.656 55.0902C169.035 51.8031 167.483 48.4272 166.3 45.3509C164.77 41.3717 161.856 37.7739 160.169 34.0678C160.333 33.5645 159.729 33.5739 160.095 32.8541C160.127 32.7408 160.15 32.6375 160.172 32.5435C160.373 32.244 160.867 32.5516 160.483 31.9974C160.282 32.1276 160.229 32.3059 160.172 32.5435C160.127 32.6108 160.097 32.7088 160.095 32.8541C159.699 32.574 159.704 32.3328 159.489 31.8178L159.901 30.9841C159.738 30.6182 159.74 29.9035 159.716 29.468L159.963 29.3782C160.694 30.6276 160.935 31.3473 162.251 32.0208L162.395 32.0936C163.517 33.7424 164.948 35.1469 166.04 36.7837C175.754 51.3437 179.797 75.7035 164.279 87.8743C158.46 92.4378 146.255 91.6336 139.211 90.4474C130.524 88.6216 117.942 83.1892 110.225 78.5261C107.312 76.7659 104.269 74.2137 101.464 72.2783C100.33 74.5 99.5 75.8319 97.997 77.6758C95.0754 80.9805 91.693 82.601 87.2889 82.3792C84.6994 82.3223 80.1229 80.8902 77.9653 79.3702C74.1252 76.6644 72.271 76.4603 67.7559 75.2759C62.6159 73.9278 57.2551 70.3588 53.6451 66.3864C52.5593 65.2742 50.6398 60.5663 50.2815 57.9129C50.2671 57.7658 50.2516 57.6172 50.2349 57.4671C49.6281 52.0068 49.8972 44.4526 52.3521 39.4217C55.7445 32.4693 61.9362 24.629 69.4524 21.8119C80.7615 17.7037 91.983 23.8433 101.635 29.2349C103.107 30.057 109.312 34.1165 110.517 33.6453C110.828 32.0969 104.816 25.8691 106.668 24.1784C109.771 21.3466 111.969 27.561 112.957 29.2417C114.255 31.4489 115.004 32.5795 116.176 34.7118C117.043 36.2893 117.742 37.6307 119.086 38.7563C122.816 41.0342 126.787 42.996 130.504 45.3174C131.605 46.0052 132.8 46.4788 133.815 47.3016C134.113 47.9751 134.345 49.064 133.586 49.4648C131.26 50.5909 127.927 48.3151 125.847 47.1957C114.614 41.1467 103.353 35.1248 92.3008 28.7547C91.5399 28.316 90.4975 27.9852 89.6811 27.5819C82.3777 23.974 73.7741 22.3283 66.8713 27.7519C58.1673 34.5909 52.2495 45.298 53.9117 56.6036Z" fill="black"/>
</g>
<defs>
<clipPath id="clip0_334_7353">
<rect width="175" height="179" fill="white" transform="matrix(-1 0 0 1 175 0)"/>
</clipPath>
</defs>
</svg>
