<svg width="198" height="170" viewBox="0 0 198 170" fill="none" xmlns="http://www.w3.org/2000/svg">
<path d="M82.343 20.6873C81.4783 20.1344 81.0172 19.7126 80.7181 18.6407C80.008 16.0954 81.0462 12.453 82.7549 10.4891C83.5045 9.70211 84.5439 9.09054 85.0968 8.13354C86.4391 5.81106 86.6386 2.75519 88.7616 0.916184C89.3868 0.374686 89.9146 0.218198 90.6806 0L179.048 50.9622C180.644 51.9135 180.111 53.2478 179.859 54.8653C179.237 58.8677 178.898 63.1085 179.873 67.0834C181.006 70.9692 182.618 75.0824 183.988 78.9239L189.456 94.2198C193.857 106.486 197.721 117.786 197.47 131.093C197.396 135.014 196.786 140.47 194.994 143.907C193.45 144.946 191.192 146.172 189.545 147.127L179.681 152.844C171.831 157.4 163.966 161.963 156.125 166.537C155.909 166.664 155.872 166.66 155.633 166.637L155.324 166.434C153.987 165.784 151.888 164.479 150.557 163.707L141.322 158.356L110.007 140.217L100.083 134.481C98.5926 133.62 96.6393 132.393 95.1653 131.642L95.0008 131.712L94.8723 132.239C94.5244 134.835 93.7048 136.438 92.527 138.735C89.8748 143.905 87.4395 149.203 84.7564 154.358C84.0366 155.74 82.7881 156.902 82.1024 158.333C77.0466 169.899 54.1579 171.516 43.3703 168.945C37.603 167.572 30.7692 165.422 27.2297 160.273C26.593 159.49 26.1579 157.828 25.5698 157.106C23.2692 154.28 21.9803 151.563 20.3859 148.334C18.6322 144.77 16.9171 141.187 15.2409 137.586C13.3484 134.222 13.0602 130.978 13.7699 127.252C10.3213 125.662 6.42818 123.151 5.65705 119.139C5.37702 117.682 5.36362 115.743 5.26159 114.225C5.09846 111.941 4.91825 109.66 4.72119 107.379L2.46657 82.5453C2.18002 79.4869 1.90294 75.7572 1.44048 72.7037C1.39549 72.4074 0.401372 70.4418 0.30893 69.9157C-0.0388342 67.9316 -0.124761 64.2341 0.216242 62.3708C1.03605 57.8596 4.30262 55.5239 7.77129 53.0813C10.1646 51.396 11.1807 50.0665 14.1503 48.8538C20.0758 46.4339 26.5074 45.967 32.777 47.1774C35.6376 47.833 39.8025 49.032 42.0969 51.0105C44.948 53.469 48.5597 55.2967 50.6575 58.477C52.3191 60.996 52.5234 63.2783 52.4141 66.1959C52.3787 67.1387 52.4762 67.9992 52.2856 68.9298C52.0782 71.1941 50.9338 72.1235 50.7218 73.7879C49.5304 83.1317 48.9731 93.1946 47.6812 102.474C51.6735 102.06 55.6951 102.005 59.6973 102.312C59.5225 100.21 59.2295 97.9925 59.3198 95.8867C60.44 69.7473 72.8211 44.511 82.343 20.6873Z" fill="#262A23"/>
<path d="M82.567 20.7708L110.765 36.9468C109.77 40.6251 108.602 44.6466 107.737 48.3304C112.965 51.4545 118.33 54.3991 123.582 57.4863C125.155 58.4106 126.763 59.3358 128.363 60.2069C129.404 56.898 130.444 52.2388 131.406 48.7653C132.642 49.5377 134.121 50.3458 135.397 51.0826C133.938 54.9442 132.157 59.0689 130.592 62.9284C127.501 70.5156 124.477 78.131 121.521 85.7723C117.818 95.368 114.579 104.338 112.559 114.451C115.521 116.345 119.698 118.578 122.835 120.381L143.028 131.998C145.813 119.274 151.077 105.878 155.903 93.781C159.201 85.5129 162.575 76.844 166.065 68.6729C166.997 69.2347 167.944 69.7707 168.904 70.2821C168.927 70.228 168.943 70.0485 168.952 69.9809C168.531 66.427 171.288 62.4686 173.082 59.5229C174.556 57.1006 176.726 52.8334 178.878 51.1785L179.046 50.9623C180.642 51.9135 180.11 53.2479 179.858 54.8654C179.236 58.8678 178.896 63.1086 179.871 67.0835C181.005 70.9692 182.616 75.0824 183.987 78.9239L189.455 94.2199C193.856 106.486 197.719 117.786 197.468 131.093C197.395 135.014 196.785 140.47 194.993 143.907C193.449 144.946 191.19 146.172 189.543 147.127L179.679 152.844C171.829 157.4 163.964 161.963 156.124 166.537C155.908 166.664 155.871 166.66 155.631 166.637L155.322 166.434C155.319 166.253 155.298 166.185 155.265 166.008L155.021 165.902C154.243 165.65 151.469 163.98 150.632 163.494L141.583 158.227L110.782 140.4C105.786 137.505 100.007 133.964 94.9787 131.275C95.0607 126.98 93.9444 124.945 91.8893 121.316C91.6745 120.936 91.3634 119.525 91.2165 119.008C90.6989 117.189 89.7796 115.671 88.5885 114.21C81.4799 105.995 70.1255 103.379 59.9464 102.277C59.8048 101.095 59.6897 99.9987 59.6366 98.8112C59.6515 97.1677 59.6509 95.5229 59.6348 93.8781C59.6376 90.8295 60.4018 85.8608 60.9443 82.8736C63.4233 69.2224 67.9941 56.6955 73.0906 43.8837C76.1922 36.1561 79.3511 28.4516 82.567 20.7708Z" fill="#85DB79"/>
<path d="M179.049 50.9622C180.644 51.9134 180.112 53.2478 179.86 54.8653C179.238 58.8677 178.899 63.1084 179.874 67.0833C181.007 70.9691 182.619 75.0823 183.989 78.9238L189.457 94.2197C193.858 106.486 197.722 117.786 197.471 131.093C197.397 135.013 196.787 140.47 194.995 143.907C193.451 144.946 191.193 146.172 189.546 147.127L179.682 152.844C171.832 157.4 163.967 161.963 156.126 166.537C155.91 166.664 155.873 166.66 155.633 166.637L155.325 166.434C155.321 166.253 155.3 166.184 155.267 166.007L155.024 165.902C148.649 159.7 147.122 153.17 147.813 144.532C149.863 118.893 161.471 94.741 170.744 71.0465C169.923 70.8806 169.599 70.7269 168.906 70.2819C168.929 70.2278 168.945 70.0484 168.954 69.9808C168.534 66.4269 171.291 62.4685 173.084 59.5228C174.558 57.1005 176.728 52.8332 178.88 51.1784L179.049 50.9622Z" fill="#85DB79"/>
<path d="M179.049 50.9622C180.644 51.9134 180.112 53.2478 179.86 54.8653C179.238 58.8677 178.899 63.1084 179.874 67.0833C181.007 70.9691 182.619 75.0823 183.989 78.9238L189.457 94.2197C193.858 106.486 197.722 117.786 197.471 131.093C197.397 135.013 196.787 140.47 194.995 143.907C193.451 144.946 191.193 146.172 189.546 147.127L179.682 152.844C171.832 157.4 163.967 161.963 156.126 166.537C155.91 166.664 155.873 166.66 155.633 166.637L155.325 166.434C155.321 166.253 155.3 166.184 155.267 166.007L155.024 165.902C148.649 159.7 147.122 153.17 147.813 144.532C149.863 118.893 161.471 94.741 170.744 71.0465C169.923 70.8806 169.599 70.7269 168.906 70.2819C168.929 70.2278 168.945 70.0484 168.954 69.9808C168.534 66.4269 171.291 62.4685 173.084 59.5228C174.558 57.1005 176.728 52.8332 178.88 51.1784L179.049 50.9622Z" fill="#355830"/>
<path d="M175.626 55.4708C176.304 55.6122 177.082 56.1366 177.696 56.5C176.685 59.6146 175.67 62.7581 174.458 65.7989C173.72 67.6514 172.712 70.1751 170.673 70.839L170.307 70.6853L170.355 70.6078C173.66 69.6478 176.115 60.0998 177.175 56.7338C176.642 56.3477 175.783 56.0935 175.626 55.4708Z" fill="white"/>
<path d="M1.98047 73.4645C9.3038 83.1143 25.1352 84.2834 36.2202 81.8396C41.6783 80.3509 46.9646 78.282 50.4249 73.5259L48.3823 92.9707C48.0739 95.8927 47.555 99.6826 47.37 102.541C41.7749 102.821 34.9122 104.924 29.8682 107.331C25.7917 109.277 21.5154 112.401 19.2334 116.362C18.5887 117.48 18.2543 118.788 17.6501 119.926C15.6954 122.738 14.9358 123.668 13.8336 126.932C10.0495 125.216 6.05788 122.426 5.86168 117.955C5.79555 116.445 5.6634 114.901 5.55633 113.393C5.35054 110.665 5.12731 107.94 4.88637 105.216C3.97326 94.7102 2.76684 83.9121 1.98047 73.4645Z" fill="#014230"/>
<path d="M131.475 48.5216C132.451 44.8803 134.899 34.6759 136.704 32.0073C137.716 30.512 138.97 29.6043 140.75 29.2539C141.892 29.6862 145.338 31.7683 146.548 32.4671L157.591 38.8471L171.817 47.0483C173.571 48.0596 177.354 50.0915 178.879 51.1785C176.727 52.8334 174.557 57.1006 173.083 59.5229C171.29 62.4686 168.533 66.427 168.953 69.9809C168.252 69.8199 163.736 67.0822 162.76 66.5106C152.391 60.4377 141.81 54.6447 131.475 48.5216Z" fill="#85DB79"/>
<path d="M15.2402 137.586L15.5174 137.585C20.3061 145.51 29.4527 149.759 38.1584 151.899C48.8579 154.53 59.1506 154.296 69.8552 151.995L69.999 152.267C69.47 155.405 69.1032 158.617 68.6143 161.763C68.4143 163.05 68.2303 164.881 67.9377 166.114L68.0522 166.286C73.4182 164.644 77.7772 162.515 81.7193 158.407L81.8724 158.229L82.1018 158.333C77.046 169.899 54.1572 171.516 43.3697 168.945C37.6024 167.572 30.7685 165.422 27.2291 160.273C26.5923 159.49 26.1572 157.828 25.5692 157.106C23.2686 154.28 21.9797 151.563 20.3853 148.334C18.6316 144.77 16.9165 141.187 15.2402 137.586Z" fill="#FCD27F"/>
<path d="M26.2168 157.801C34.062 165.702 43.2078 167.959 54.0303 168.08C58.4808 168.129 63.7716 167.534 68.053 166.286C73.419 164.644 77.7779 162.515 81.7201 158.407C81.355 160.337 78.4729 162.989 76.8764 164.005C67.5204 169.959 54.6605 170.794 43.9785 168.822C37.3593 167.6 28.9044 164.463 26.2168 157.801Z" fill="#355830"/>
<path d="M15.2402 137.586L15.5174 137.585C20.3061 145.51 29.4527 149.759 38.1584 151.899C48.8579 154.53 59.1506 154.296 69.8552 151.995L69.999 152.267C66.6608 152.964 63.3355 153.586 59.9293 153.838C44.9736 154.943 26.3715 151.905 16.4314 139.59C17.747 142.393 19.0859 145.186 20.4482 147.968C21.389 149.889 22.3321 151.917 23.4585 153.727C32.1206 167.644 51.0688 169.645 65.7762 166.599C66.4815 166.452 67.2389 166.234 67.9377 166.114L68.0522 166.286C63.7708 167.534 58.48 168.129 54.0295 168.08C43.207 167.96 34.0612 165.703 26.216 157.801C28.9036 164.463 37.3585 167.601 43.9777 168.822C54.6598 170.794 67.5196 169.96 76.8756 164.005C78.4721 162.99 81.3542 160.337 81.7193 158.407L81.8724 158.229L82.1018 158.333C77.046 169.899 54.1572 171.516 43.3697 168.945C37.6024 167.572 30.7685 165.422 27.2291 160.273C26.5923 159.49 26.1572 157.828 25.5692 157.106C23.2686 154.28 21.9797 151.563 20.3853 148.334C18.6316 144.77 16.9165 141.187 15.2402 137.586Z" fill="#262A23"/>
<path d="M37.3373 68.1208C33.8089 69.4189 30.0777 70.079 26.3179 70.0704C20.3089 70.0987 13.2602 68.5363 8.80421 64.2395C5.12608 60.6925 5.37415 55.7858 9.11756 52.4054C13.8803 48.1478 21.0559 46.6824 27.2889 46.911C33.988 47.1569 39.9352 48.8217 44.5836 53.7789C47.9103 58.9452 45.8738 63.2051 41.0275 66.2867C39.8611 67.0194 38.625 67.6328 37.3373 68.1208Z" fill="#02982F"/>
<path d="M25.0686 49.0084C29.6493 48.7036 35.3369 49.8992 38.9843 52.8771C42.0097 55.3471 42.9185 59.2347 40.0562 62.3222C36.8588 65.7707 31.9154 66.9262 27.3733 67.2188C22.7235 67.4991 17.2222 66.3411 13.622 63.4748C7.44747 58.4361 11.8229 52.5655 17.7508 50.4583C20.4813 49.4876 22.1322 49.1831 25.0686 49.0084Z" fill="black"/>
<path d="M24.6844 49.3758C28.9197 48.8433 34.9285 50.2438 38.3733 52.8026C41.3947 55.0467 42.6986 58.8516 39.9593 61.9562C36.9413 65.3769 32.1828 66.4697 27.8418 66.8631C22.4625 67.1753 12.1701 65.5687 11.0358 58.5899C10.799 57.1331 11.6048 55.2537 12.6025 54.1589C15.6044 50.8647 20.3973 49.6767 24.6844 49.3758Z" fill="#014230"/>
<path d="M36.9426 58.2928C37.646 58.2443 38.3716 58.3455 38.811 58.9517C39.3012 60.6634 36.5351 62.5578 35.1872 63.1623C34.1601 63.2904 33.2679 62.5678 33.4729 61.619C33.7169 60.4902 36.0584 58.9364 36.9426 58.2928Z" fill="#85DB79"/>
<path d="M44.5857 53.7787L45.0144 53.8033C47.276 54.7146 50.3986 58.0689 51.2794 60.3877C51.8545 61.9018 52.0131 62.6201 52.0582 64.2126C52.5253 64.879 52.2011 67.9031 52.2856 68.9295C52.0782 71.1939 50.9339 72.1232 50.7218 73.7876C49.5304 83.1314 48.9732 93.1943 47.6812 102.474L47.6945 102.691L47.6028 103.067L47.3509 103.145L47.3029 102.784L47.3692 102.541C47.5542 99.6825 48.0731 95.8926 48.3815 92.9706L50.4241 73.5258C46.9638 78.2819 41.6775 80.3508 36.2193 81.8394L35.9315 81.5555C32.072 82.3471 28.4401 82.7393 24.4879 82.6163C15.5173 82.3361 -0.150686 77.9008 0.458669 66.6566L0.598315 65.8858C-0.161504 60.0717 2.78189 56.7545 7.44087 53.7012C7.0057 54.4299 6.66618 55.0161 6.33943 55.8069C5.59375 57.6116 5.59387 59.6757 5.14064 61.5042C3.84768 66.7193 6.30673 70.5608 10.9933 73.0894C18.6844 77.2407 29.1404 77.5148 37.4935 75.1276C37.7089 75.0649 37.6478 75.0821 37.8826 74.9911C37.6148 74.701 37.6908 74.5941 37.6282 74.1097C37.4826 72.8263 37.5636 69.8134 37.5658 68.4022L37.3395 68.1207C38.6271 67.6326 39.8632 67.0192 41.0297 66.2866C45.876 63.205 47.9124 58.945 44.5857 53.7787Z" fill="#02982F"/>
<path d="M0.458669 66.657C2.19761 71.5114 6.10697 74.6793 10.6819 76.7949C19.2265 80.747 28.6419 80.9204 37.5732 78.4311L37.5894 81.1121L35.9315 81.5559C32.072 82.3475 28.4401 82.7397 24.4879 82.6168C15.5173 82.3365 -0.150686 77.9012 0.458669 66.657Z" fill="#85DB79"/>
<path d="M44.5841 53.7792L45.0128 53.8038C46.1758 55.7225 48.2415 61.7535 48.4965 64.0321C48.5828 64.8057 48.5304 65.5888 48.3418 66.3448C47.2518 70.7911 41.9446 73.8078 37.881 74.9916C37.6133 74.7014 37.6892 74.5945 37.6266 74.1101C37.481 72.8268 37.562 69.8138 37.5642 68.4026L37.3379 68.1211C38.6256 67.6331 39.8616 67.0196 41.0281 66.287C45.8744 63.2054 47.9108 58.9455 44.5841 53.7792Z" fill="black"/>
<path d="M52.0565 64.2129C52.5237 64.8793 52.1995 67.9033 52.2839 68.9298C52.0766 71.1941 50.9322 72.1234 50.7202 73.7879C49.5288 83.1317 48.9715 93.1946 47.6795 102.474L47.6928 102.691L47.6011 103.067L47.3492 103.146L47.3013 102.784L47.3676 102.541C47.5526 99.6827 48.0714 95.8929 48.3799 92.9708L50.4224 73.5261C46.9621 78.2821 41.6758 80.351 36.2177 81.8397L35.9298 81.5557L37.5877 81.112L37.5715 78.4309C28.6403 80.9202 19.2249 80.7469 10.6802 76.7947C6.10534 74.6791 2.19597 71.5113 0.457031 66.6568L0.596678 65.8861C3.05315 74.7738 14.3654 78.8906 22.6484 79.5827C31.0079 80.2822 40.4075 78.528 47.0129 73.1032C49.8642 70.7626 51.7317 67.9193 52.0565 64.2129Z" fill="black"/>
<path d="M17.6674 120.438C17.5709 121.215 17.5536 121.951 17.3788 122.716L17.4434 122.98C17.4609 123.946 17.5698 128.717 17.4401 129.504L17.4616 129.873C16.8832 130.015 16.1945 130.87 15.9326 131.368C13.4897 136.022 20.3606 142.017 23.5168 144.237L23.4496 144.42C28.0565 147.52 35.1931 150.327 40.7129 151.173L40.858 150.988C43.8745 151.517 49.2858 152.307 52.3548 152.201L52.2533 151.783L52.7432 151.922C53.7307 151.791 53.7558 151.737 54.3881 150.973L60.0437 150.766C66.1408 150.048 68.8515 149.648 74.8043 147.713C79.7875 145.621 84.0042 143.826 87.7671 139.799C88.34 139.186 90.2597 136.383 90.5577 136.25L90.7053 136.137L90.6156 136.047C90.5063 135.611 91.1736 134.465 91.3141 133.916C92.0609 130.994 91.8465 127.65 91.8622 124.647L91.9484 124.311C91.7533 123.747 91.8567 122.738 91.865 122.088C93.8554 125.193 94.8625 127.978 94.6079 131.718L94.8731 132.239C94.5252 134.835 93.7055 136.438 92.5277 138.735C89.8756 143.905 87.4402 149.203 84.7572 154.358C84.0373 155.741 82.7889 156.902 82.1032 158.333L81.8738 158.229L81.7208 158.407C77.7786 162.515 73.4197 164.644 68.0536 166.287L67.9391 166.114C68.2317 164.881 68.4157 163.05 68.6157 161.763C69.1046 158.617 69.4715 155.405 70.0004 152.267L69.8566 151.995C59.152 154.296 48.8593 154.53 38.1598 151.899C29.4541 149.759 20.3075 145.51 15.5189 137.585C12.3337 131.015 13.2909 126.13 17.6674 120.438Z" fill="#F3FBA7"/>
<path d="M94.6082 131.718L94.8734 132.239C94.5255 134.835 93.7058 136.438 92.5281 138.735C89.8759 143.905 87.4405 149.203 84.7575 154.357C84.0376 155.74 82.7892 156.902 82.1035 158.333L81.8741 158.228L81.7211 158.407C77.7789 162.515 73.42 164.644 68.0539 166.286L67.9395 166.114C68.232 164.881 68.416 163.05 68.616 161.763C69.1049 158.617 69.4718 155.405 70.0007 152.266L69.8569 151.995C79.8567 149.435 93.4231 143.347 94.6082 131.718Z" fill="#FCD27F"/>
<path d="M94.6082 131.718L94.8734 132.239C94.5255 134.835 93.7058 136.438 92.5281 138.735C89.8759 143.905 87.4405 149.203 84.7575 154.357C84.0376 155.74 82.7892 156.902 82.1035 158.333L81.8741 158.228L81.7211 158.407C77.7789 162.515 73.42 164.644 68.0539 166.286L67.9395 166.114C68.232 164.881 68.416 163.05 68.616 161.763C69.1049 158.617 69.4718 155.405 70.0007 152.266L69.8569 151.995C79.8567 149.435 93.4231 143.347 94.6082 131.718Z" fill="black" fill-opacity="0.2"/>
<path d="M74.8016 147.713C79.7847 145.621 84.0014 143.826 87.7644 139.799C88.3372 139.186 90.257 136.383 90.555 136.25C90.9469 136.433 91.4402 136.614 91.7138 136.925C91.6317 137.69 89.8102 139.819 89.2249 140.458C87.6063 142.227 85.5259 143.76 83.5098 145.046C82.7283 145.544 81.4552 146.019 80.8117 146.574C78.4665 147.653 76.6335 148.421 74.2109 149.299L74.8016 147.713Z" fill="#97CC4B"/>
<path d="M80.8137 146.574L81.0896 146.614C75.3121 149.68 67.367 151.642 60.8515 152.145L60.6701 152.062L60.6228 151.854L60.043 150.766C66.1401 150.048 68.8508 149.648 74.8036 147.713L74.2129 149.299C76.6355 148.421 78.4684 147.653 80.8137 146.574Z" fill="#4D5701"/>
<path d="M91.8602 124.647C93.4724 127.465 93.8937 130.809 93.0305 133.938C92.7432 134.982 92.4216 135.713 91.9541 136.678C91.5864 136.496 91.0906 136.22 90.7033 136.137L90.6136 136.047C90.5043 135.611 91.1716 134.465 91.3121 133.916C92.0589 130.994 91.8445 127.65 91.8602 124.647Z" fill="#F3FBA7"/>
<path d="M17.4411 122.98C17.4586 123.946 17.5675 128.717 17.4378 129.504C15.854 130.5 15.483 131.631 14.9679 133.285C14.6601 129.066 14.9245 126.572 17.4411 122.98Z" fill="#F3FBA7"/>
<path d="M54.3851 150.973L60.0407 150.765L60.6205 151.853C59.438 152.228 55.4212 152.258 54.0589 152.188L52.7402 151.922C53.7277 151.791 53.7528 151.737 54.3851 150.973Z" fill="#97CC4B"/>
<path d="M23.4488 144.42C15.7422 139.844 11.4993 130.55 17.378 122.716L17.4427 122.98C14.9261 126.572 14.6616 129.066 14.9695 133.285C15.4845 131.63 15.8555 130.499 17.4393 129.504L17.4608 129.872C16.8825 130.015 16.1937 130.869 15.9319 131.367C13.4889 136.021 20.3599 142.017 23.516 144.237L23.4488 144.42Z" fill="#6B8127"/>
<path d="M91.9484 124.311C93.6687 127.168 94.16 130.599 93.3108 133.823C91.9435 139.047 87.447 143.046 82.9304 145.655C82.361 145.985 81.6972 146.368 81.0904 146.614L80.8145 146.574C81.458 146.019 82.731 145.543 83.5126 145.046C85.5286 143.76 87.6091 142.227 89.2277 140.458C89.8129 139.819 91.6345 137.69 91.7166 136.925C91.443 136.614 90.9496 136.433 90.5577 136.25L90.7054 136.137C91.0926 136.219 91.5885 136.496 91.9562 136.678C92.4237 135.713 92.7453 134.981 93.0325 133.938C93.8957 130.809 93.4745 127.464 91.8623 124.647L91.9484 124.311Z" fill="#6B8127"/>
<path d="M40.8561 150.988C43.8725 151.517 49.2838 152.307 52.3529 152.201L52.2513 151.783L52.7413 151.922L54.06 152.188C55.4222 152.258 59.4391 152.228 60.6216 151.853L60.6689 152.062L60.8503 152.145C60.5712 152.228 58.9224 152.339 58.5014 152.36C53.463 152.622 45.5736 152.455 40.7109 151.172L40.8561 150.988Z" fill="#6B8127"/>
<path d="M52.25 151.783L52.74 151.922L54.0586 152.188L52.3515 152.201L52.25 151.783Z" fill="#BED586"/>
<path d="M5.80854 59.6624C5.94241 60.0898 6.08365 60.5147 6.23215 60.9372C7.35805 64.081 10.631 66.5425 13.5649 67.8579C21.0144 71.1978 29.9776 71.2064 37.5659 68.4024C37.5637 69.8136 37.4827 72.8266 37.6284 74.11C37.5883 74.3251 37.5508 74.614 37.387 74.7013C36.5831 75.1278 35.4178 75.3528 34.5431 75.5163C29.8099 76.421 24.9558 76.4985 20.1964 75.7437C15.4911 74.9619 9.57986 73.011 6.62688 68.9507C4.45264 65.9611 5.24602 63.0409 5.80854 59.6624Z" fill="#85DB79"/>
<path d="M59.9961 102.61C69.2507 103.179 81.5704 106.69 87.8751 113.796C89.9508 116.137 90.8076 118.01 91.4832 120.997C84.3604 112.759 74.1507 109.184 63.6219 107.711C63.0436 107.631 61.5613 107.588 61.2419 107.143C60.7554 105.468 60.3534 104.353 59.9961 102.61Z" fill="#BED586"/>
<path d="M18.0859 119.577C18.8796 117.433 19.4543 116.126 20.9606 114.31C26.8446 107.217 38.3803 103.656 47.3032 102.785L47.3511 103.146C47.1588 103.907 47.0146 106.356 46.8468 107.416C36.1729 108.759 25.8793 111.705 18.0859 119.577Z" fill="#FCD27F"/>
<path d="M53.0676 102.406C54.1985 102.423 55.2708 102.438 56.404 102.406C57.549 102.44 58.5912 102.475 59.7366 102.574L59.9979 102.61C60.3552 104.353 60.7572 105.468 61.2437 107.143L61.1058 107.174C61.0323 107.236 60.9588 107.297 60.8854 107.359C59.576 107.256 57.3361 107.136 56.1066 107.098C53.0274 107.004 50.1788 107.17 47.1465 107.376C47.3272 105.989 47.4573 104.467 47.6044 103.067L47.6961 102.691C49.4824 102.644 51.2041 102.438 53.0676 102.406Z" fill="#F3FBA7"/>
<path d="M59.7363 102.574L59.9977 102.61C60.355 104.353 60.757 105.468 61.2434 107.143L61.1056 107.174C60.4011 105.816 60.0521 104.065 59.7363 102.574Z" fill="#6B8127"/>
<path d="M23.5152 144.237C20.359 142.017 13.488 136.022 15.931 131.368C16.1928 130.87 16.8816 130.015 17.46 129.873C17.4907 135.761 20.5834 139.636 25.2402 142.983C25.7056 143.317 26.4346 143.754 26.8287 144.105C26.8277 144.816 26.8104 145.544 26.883 146.248C25.8194 145.694 24.5068 144.93 23.5152 144.237Z" fill="#97CC4B"/>
<path d="M26.828 144.105C31.1261 146.559 34.0603 147.696 38.8201 149.013C38.1485 149.721 37.8961 149.793 36.9771 150.136C38.265 150.436 39.5549 150.752 40.8557 150.988L40.7106 151.173C35.1908 150.327 28.0542 147.52 23.4473 144.42L23.5145 144.237C24.5062 144.93 25.8188 145.694 26.8824 146.248C26.8097 145.544 26.8271 144.816 26.828 144.105Z" fill="#4D5701"/>
<path d="M38.8215 149.012C43.0347 150.025 47.3349 150.756 51.6756 150.886C51.8628 151.193 52.0323 151.501 52.2523 151.783L52.3539 152.201C49.2849 152.307 43.8736 151.517 40.8571 150.988C39.5563 150.752 38.2664 150.436 36.9785 150.136C37.8975 149.793 38.1499 149.721 38.8215 149.012Z" fill="#97CC4B"/>
<path d="M59.6381 98.811C59.3727 97.8497 59.4007 94.8798 59.6363 93.8779C59.6524 95.5227 59.653 97.1675 59.6381 98.811Z" fill="#828283"/>
<path d="M53.0664 102.406C53.8675 102.213 55.6154 102.186 56.4028 102.406C55.2696 102.438 54.1973 102.423 53.0664 102.406Z" fill="#6B8127"/>
<path d="M135.617 51.2073C138.965 53.0331 142.472 55.1283 145.806 57.041L165.863 68.559C165.024 70.516 164.213 72.5099 163.421 74.4902C157.602 89.0376 151.416 103.5 146.536 118.397C145.131 122.685 143.776 127.096 142.913 131.524C142.489 131.517 115.238 115.741 112.811 114.334C115.222 102.541 119.438 91.6523 123.822 80.4781C127.686 70.6942 131.619 60.937 135.617 51.2073Z" fill="white" fill-opacity="0.9"/>
<path d="M134.061 103.959C134.419 104.161 134.774 104.396 135.121 104.617C133.294 109.382 131.828 113.666 130.57 118.583L129.498 117.93C130.44 113.613 132.523 108.124 134.061 103.959Z" fill="black"/>
<path d="M140.649 107.767L141.696 108.362C139.877 113.3 138.542 117.231 137.133 122.297C136.913 122.23 136.279 121.831 136.049 121.696C137.34 116.812 138.847 112.49 140.649 107.767Z" fill="black"/>
<path d="M142.868 109.003L143.907 109.644C142.13 114.767 140.799 118.245 139.36 123.61L138.293 122.983C139.402 118.31 141.208 113.502 142.868 109.003Z" fill="black"/>
<path d="M123.319 97.7883L124.4 98.3956C122.532 103.427 121.21 107.239 119.834 112.4L118.76 111.754C119.926 106.998 121.635 102.38 123.319 97.7883Z" fill="black"/>
<path d="M129.723 101.481L130.777 102.081C128.954 107.035 127.595 110.98 126.208 116.064L125.15 115.427C126.316 110.659 128.018 106.074 129.723 101.481Z" fill="black"/>
<path d="M135.248 59.7627C135.536 59.8517 135.818 59.9743 136.083 60.1193C144.114 64.5279 152.145 68.9386 160.158 73.3763C160.579 73.6086 160.592 73.632 160.73 74.0499C160.044 74.0155 155.513 71.3861 154.521 70.8403L144.061 65.0761L138.24 61.8724C137.356 61.392 136.418 60.8973 135.539 60.4024C135.216 60.2201 135.266 60.0489 135.248 59.7627Z" fill="black"/>
<path d="M126.244 82.2554C126.674 82.3857 126.966 82.5356 127.354 82.7446L143.329 91.5278L148.533 94.3933C149.436 94.8912 150.391 95.4025 151.274 95.9324C151.69 96.1819 151.629 96.1573 151.747 96.5495C150.615 96.3589 137.083 88.6685 134.892 87.4626L129.183 84.3242C128.301 83.8375 127.338 83.3347 126.483 82.7999C126.222 82.6377 126.313 82.6623 126.244 82.2554Z" fill="black"/>
<path d="M138.745 106.664C138.9 106.753 139.088 106.887 139.242 106.988C139.301 107.454 138.284 109.984 138.061 110.596C136.825 114.021 135.734 117.495 134.794 121.012C134.477 120.822 134.477 120.82 134.219 120.557C134.844 117.024 137.448 110.155 138.745 106.664Z" fill="black"/>
<path d="M127.895 100.398C128.064 100.509 128.24 100.646 128.403 100.767C128.46 101.116 127.018 104.864 126.79 105.511C125.743 108.571 124.788 111.662 123.929 114.78L123.465 114.444C123.077 113.442 127.223 102.228 127.895 100.398Z" fill="black"/>
<path d="M125.935 99.2856L126.127 99.4565C126.218 100.024 123.866 106.343 123.518 107.448C122.889 109.447 122.434 111.606 121.645 113.539L121.43 113.217C121.585 110.995 125.024 101.605 125.935 99.2856Z" fill="black"/>
<path d="M132.242 102.869L132.446 103.056C132.492 103.428 131.861 104.947 131.668 105.436C130.172 109.237 129.295 113.281 127.97 117.121L127.801 116.989C127.384 115.923 131.459 104.779 132.242 102.869Z" fill="black"/>
<path d="M145.341 110.465L145.541 110.643C145.621 111.062 143.031 118.055 142.719 119.191C142.361 120.498 141.541 123.429 141.063 124.705L140.89 124.488C140.584 123.296 144.611 112.414 145.341 110.465Z" fill="black"/>
<path d="M121.573 96.8247L121.789 96.9525C121.853 97.2218 119.505 103.732 119.241 104.558C118.583 106.687 117.956 108.825 117.36 110.973L117.114 110.764C116.955 109.274 120.883 98.6477 121.573 96.8247Z" fill="black"/>
<path d="M136.542 105.421L136.755 105.543C136.847 105.944 135.919 108.162 135.705 108.737C134.375 112.31 133.361 115.906 132.337 119.575L132.084 119.387C131.913 117.92 135.83 107.271 136.542 105.421Z" fill="black"/>
<path d="M133.498 63.6956C134.329 63.9092 152.701 74.0757 153.11 74.5244C152.289 74.3007 133.968 64.1735 133.498 63.6956Z" fill="#262A23"/>
<path d="M122.91 89.9026C124.673 90.7741 141.573 99.9778 142.157 100.602C142.177 100.606 141.869 100.564 141.684 100.463C135.45 97.0742 129.186 93.6716 123.02 90.1632C122.983 90.0771 122.947 89.9899 122.91 89.9026Z" fill="#262A23"/>
<path d="M155.098 75.6121C155.773 75.7252 158.441 77.1278 158.792 77.7068C158.047 77.4449 155.704 76.1124 155.098 75.6121Z" fill="#262A23"/>
<path d="M153.953 78.3389C154.505 78.4741 157.213 79.9013 157.575 80.4114C156.964 80.259 154.385 78.849 153.953 78.3389Z" fill="#262A23"/>
<path d="M141.562 79.676C142.154 79.7141 143.598 80.6213 144.06 81.043C143.409 80.9532 142.078 80.1173 141.562 79.676Z" fill="#262A23"/>
<path d="M133.115 75.0137C133.688 75.0112 135.231 75.8459 135.531 76.3524C134.92 76.1618 133.671 75.38 133.115 75.0137Z" fill="#262A23"/>
<path d="M17.9105 120.255C18.8776 118.993 20.4642 117.615 21.7269 116.65C28.3091 111.621 36.9752 109.041 45.081 107.927C58.2945 106.112 75.8565 108.355 86.6877 116.743C88.5184 118.144 90.1525 119.785 91.5461 121.623C91.5411 122.131 91.5586 122.942 91.484 123.419L91.3682 123.63C91.702 124.472 90.8787 126.524 90.5329 127.335C90.4243 127.59 90.3078 127.839 90.1839 128.086L90.0332 128.315C89.0287 130.22 87.6011 131.865 85.967 133.262L85.6319 133.471C85.1097 134.109 83.8815 134.957 83.1838 135.417C79.1831 138.053 75.0797 139.54 70.5202 140.844C69.8919 140.985 69.2624 141.121 68.6317 141.251L68.249 141.406C67.9926 141.446 67.4788 141.504 67.2669 141.6L67.247 141.797C66.7742 141.952 63.0032 142.537 62.2962 142.599C62.2669 143.167 62.2587 143.631 62.0715 144.177C61.2565 146.555 58.1651 147.732 59.7502 150.474C58.8946 150.527 55.0873 150.827 54.662 150.544L54.636 149.959L54.4946 150.371C53.9838 150.795 52.4447 150.896 51.9761 150.413L52.0547 150.002C51.8513 150.113 51.8924 150.172 51.7466 150.464C50.3826 151.111 40.6108 149.19 38.6411 148.656C34.4962 147.547 30.5848 146.027 26.9166 143.776C27.0407 143.484 27.0232 143.317 27.041 143L27.174 142.856C27.8576 141.688 28.1086 141.374 29.1378 140.508C29.0221 139.369 28.9796 138.626 29.2162 137.504L29.4389 137.611C30.4896 138.128 31.3658 138.544 32.4523 138.993L32.5948 139.03L32.7799 138.894C31.6572 138.404 30.5476 137.884 29.4523 137.334L29.3353 137.327C26.9606 135.926 23.9063 134.202 22.1148 132.085L21.9057 131.879C20.9842 130.995 20.3145 130.019 19.6048 128.967C19.6037 128.782 19.5829 128.838 19.4336 128.63C18.6209 127.329 17.1267 123.507 18.0033 122.111L17.9268 122.003C17.6665 121.539 17.8521 120.89 17.9105 120.255Z" fill="#6B8127"/>
<path d="M60.374 128.95C64.3927 127.449 67.4912 128.492 69.8052 132.118L69.9868 132.049C70.9339 134.137 71.6542 136.381 71.1867 138.705C71.08 139.236 70.5539 140.474 70.5196 140.844C69.8914 140.986 69.2618 141.121 68.6311 141.251L68.2484 141.406C67.992 141.447 67.4783 141.504 67.2663 141.6L67.2464 141.797C66.7737 141.952 63.0026 142.537 62.2956 142.6C62.2664 143.168 62.2581 143.631 62.0709 144.177C61.2559 146.555 58.1645 147.732 59.7497 150.474C58.8941 150.527 55.0867 150.827 54.6614 150.544L54.6355 149.959L54.494 150.371C53.9832 150.795 52.4442 150.896 51.9756 150.413L52.0541 150.002C51.8508 150.113 51.8918 150.172 51.746 150.465C50.382 151.111 40.6102 149.19 38.6405 148.656C34.4956 147.548 30.5842 146.027 26.916 143.776C27.0402 143.485 27.0226 143.318 27.0404 143L27.1734 142.857C27.857 141.689 28.1081 141.374 29.1372 140.509C29.0215 139.369 28.979 138.627 29.2156 137.504L29.4384 137.611C30.489 138.129 31.3653 138.544 32.4517 138.993L32.5942 139.03L32.7793 138.895L33.0038 138.96C34.8923 139.469 36.7192 140.353 38.6743 140.756C39.0734 140.838 40.8454 141.251 41.0888 141.372C42.0664 139.421 41.2869 138.877 43.5267 137.416C46.3414 136.379 48.0017 137.342 50.42 138.731L50.5073 138.598C50.3123 137.55 50.4163 135.798 50.7613 134.794C52.3951 130.039 57.0789 130.623 60.374 128.95Z" fill="#97CC4B"/>
<path d="M60.3743 128.95C64.393 127.449 67.4915 128.492 69.8055 132.117L69.9871 132.049C70.9342 134.137 71.6545 136.381 71.187 138.705C71.0803 139.236 70.5543 140.474 70.52 140.844C69.8917 140.985 69.2622 141.121 68.6314 141.251L68.2488 141.406C67.9923 141.446 67.4786 141.504 67.2667 141.6C66.2256 141.754 65.189 141.936 64.158 142.147C63.5925 142.196 62.6531 142.414 62.266 142.415C62.195 140.013 60.9464 137.827 58.5798 137.046C57.8478 136.806 57.0738 136.722 56.3076 136.8C55.217 136.905 54.5645 137.199 53.8973 138.057C52.5264 139.823 52.2686 139.739 50.4204 138.731L50.5076 138.598C50.3127 137.55 50.4167 135.798 50.7616 134.794C52.3954 130.039 57.0793 130.623 60.3743 128.95Z" fill="#4D5701"/>
<path d="M60.3743 128.95C64.393 127.449 67.4915 128.492 69.8055 132.117L69.9871 132.049C70.9342 134.137 71.6545 136.381 71.187 138.705C71.0803 139.236 70.5543 140.474 70.52 140.844C69.8917 140.985 69.2622 141.121 68.6314 141.251L68.2488 141.406C67.9923 141.446 67.4786 141.504 67.2667 141.6C66.2256 141.754 65.189 141.936 64.158 142.147C64.556 141.767 66.1537 141.075 67.0371 140.252C68.1257 139.24 68.7655 137.836 68.8145 136.351C68.9074 132.688 65.9242 129.477 62.2496 129.685C61.4383 129.62 60.0192 129.974 60.1745 131.103C60.5703 133.979 61.6163 137.004 62.0358 139.869L62.0583 140.032C61.0661 138.25 60.7675 137.998 59.0456 136.946C58.8579 135.981 58.2682 132.05 57.5922 131.585C56.2492 130.661 53.7548 132.843 53.0473 133.944C51.8558 135.8 51.9637 137.309 52.3598 139.358C51.5821 139.132 51.2346 138.951 50.5076 138.598C50.3127 137.55 50.4167 135.798 50.7616 134.794C52.3954 130.039 57.0793 130.623 60.3743 128.95Z" fill="#FCD27F"/>
<path d="M69.9865 132.049C70.9337 134.137 71.6539 136.381 71.1864 138.705C71.0797 139.236 70.5537 140.474 70.5194 140.844C69.8911 140.986 69.2616 141.121 68.6309 141.251C70.9216 138.419 71.2999 135.422 69.8049 132.118L69.9865 132.049Z" fill="#4D5701"/>
<path d="M61.0984 129.98C61.596 129.95 62.2134 129.898 62.7058 129.929C68.2849 130.276 70.5494 136.662 66.5186 140.458C65.8065 141.028 63.8684 142.192 62.9749 141.958C62.4727 141.057 60.4004 131.863 60.3867 130.726C60.5173 130.334 60.7566 130.225 61.0984 129.98Z" fill="#BED586"/>
<path d="M63.459 138.943C63.9528 139.07 64.0032 139.08 64.44 139.331C64.7323 139.692 64.7059 139.771 64.7255 140.231C64.1475 140.291 64.4041 140.344 63.9157 140.136C63.5972 139.777 63.5701 139.418 63.459 138.943Z" fill="#FCD27F"/>
<path d="M56.5607 131.568C56.791 131.569 57.2004 131.525 57.3355 131.647C58.1524 132.384 58.5465 135.688 58.842 136.91C57.5722 136.542 56.8668 136.583 55.5607 136.588C55.0863 136.222 54.779 135.872 54.158 136.052L54.0765 136.256C54.1136 136.683 54.1078 136.717 54.3941 137.071L54.3721 137.219C53.9303 137.556 53.0272 138.736 52.5404 139.267C51.8672 135.404 52.7482 133.13 56.5607 131.568Z" fill="#BED586"/>
<path d="M55.7314 133.485C56.4438 133.453 56.914 133.951 56.8881 134.648C56.3722 134.538 56.1969 134.541 55.7856 134.24C55.5836 133.772 55.6143 134.014 55.7314 133.485Z" fill="#FCD27F"/>
<path d="M50.4211 138.731C52.2693 139.739 52.5271 139.823 53.898 138.057C54.5652 137.199 55.2177 136.905 56.3084 136.8C57.0746 136.722 57.8485 136.806 58.5806 137.046C60.9472 137.827 62.1958 140.013 62.2667 142.415C60.831 142.409 58.9217 142.663 57.4024 142.722C54.3249 142.843 51.243 142.761 48.1764 142.474C48.1618 142.437 48.1472 142.402 48.1326 142.365L48.0548 142.186C46.9667 139.631 45.9657 140.264 44.5345 141.829C43.7882 142.051 41.9331 141.555 41.0898 141.371C42.0675 139.421 41.288 138.877 43.5278 137.416C46.3424 136.379 48.0027 137.342 50.4211 138.731Z" fill="#97CC4B"/>
<path d="M29.2156 137.504L29.4384 137.611C30.489 138.129 31.3653 138.544 32.4517 138.993L32.5942 139.03C34.9521 140.225 38.2298 140.893 40.7529 141.67C39.0569 142.008 37.4783 141.336 36.2438 143.019C34.4654 145.444 37.6713 146.82 38.6405 148.656C34.4956 147.547 30.5842 146.027 26.916 143.776C27.0402 143.485 27.0226 143.317 27.0404 143L27.1734 142.856C27.857 141.689 28.1081 141.374 29.1372 140.509C29.0215 139.369 28.979 138.626 29.2156 137.504Z" fill="#4D5701"/>
<path d="M29.4381 137.611C30.4887 138.129 31.365 138.544 32.4514 138.993C32.2147 139.15 30.2559 139.825 29.3027 140.384C29.2483 139.483 29.1462 138.468 29.4381 137.611Z" fill="#FCD27F"/>
<path d="M29.2786 142.001C29.8628 142.539 29.8106 141.987 30.3267 142.045L30.2227 142.572C30.4235 142.891 30.4184 142.839 30.7316 143.064C30.0479 143.803 30.2331 143.085 29.8947 144.1L29.8463 144.153C29.6563 144.02 29.5765 143.976 29.3704 143.869L28.9553 144.027L28.8621 143.922L28.9593 143.507C28.8257 143.335 28.7736 143.261 28.6484 143.071C29.0794 142.642 29.1629 142.594 29.2786 142.001Z" fill="#BED586"/>
<path d="M32.5938 139.03L32.7789 138.895L33.0033 138.96C34.8919 139.469 36.7187 140.352 38.6739 140.756C39.0729 140.838 40.8449 141.251 41.0883 141.372C41.9316 141.555 43.7867 142.051 44.533 141.829C45.9642 140.264 46.9652 139.631 48.0533 142.187L48.1311 142.365C48.1456 142.402 48.1603 142.437 48.1749 142.474C51.2415 142.761 54.3234 142.843 57.4009 142.723C58.9202 142.664 60.8295 142.409 62.2652 142.415C62.6523 142.414 63.5917 142.196 64.1572 142.147C65.1882 141.936 66.2248 141.754 67.2659 141.6L67.246 141.797C66.7732 141.952 63.0021 142.537 62.2952 142.6C58.6424 143.08 51.9145 143.272 48.2171 142.727C48.3519 143.569 48.4815 144.495 48.6527 145.322C47.9182 145.011 46.2769 144.38 45.7755 143.883C45.4852 143.577 45.1209 143.244 44.8123 142.947C44.7242 142.838 44.771 142.908 44.6907 142.702L44.6224 142.522C44.0516 142.035 41.5241 141.718 40.7525 141.67C38.2294 140.893 34.9516 140.225 32.5938 139.03Z" fill="#182806"/>
<path d="M44.8125 142.947L44.8461 142.528C45.3942 142.231 47.3715 142.642 48.0432 142.785C48.1825 143.541 48.3148 144.298 48.4401 145.057C47.8394 144.797 46.2948 144.055 45.7756 143.883C45.4854 143.577 45.121 143.243 44.8125 142.947Z" fill="#FCD27F"/>
<path d="M45.614 140.773C46.5515 140.709 47.187 140.881 47.7723 141.816C47.909 142.035 47.8236 142.169 47.7194 142.365L47.1777 142.415C46.4854 142.279 45.067 142.351 44.875 141.687C45.0331 141.251 45.2727 141.091 45.614 140.773Z" fill="#FCD27F"/>
<path d="M52.0532 150.002C52.639 149.525 54.0705 148.976 54.8158 149.284C54.8638 149.597 54.7797 149.661 54.6345 149.959L54.493 150.371C53.9823 150.795 52.4432 150.896 51.9746 150.413L52.0532 150.002Z" fill="#FCD27F"/>
<path d="M17.9105 120.255C18.8776 118.993 20.4642 117.615 21.7269 116.65C28.3091 111.621 36.9752 109.041 45.081 107.927C58.2945 106.112 75.8565 108.355 86.6877 116.743C88.5184 118.144 90.1525 119.785 91.5461 121.623C91.5411 122.131 91.5586 122.942 91.484 123.419L91.3682 123.63C91.702 124.472 90.8787 126.524 90.5329 127.335C90.4243 127.59 90.3078 127.839 90.1839 128.086C88.6687 127.532 88.1454 127.92 86.7093 127.59C85.865 127.396 85.8953 125.866 85.4631 125.061C84.7152 123.668 83.7763 123.339 82.3886 122.873C83.2278 122.194 83.9012 121.638 83.443 120.469C82.4049 117.822 78.902 115.202 75.99 115.622C73.9375 115.851 72.0938 117.436 70.1539 117.883C69.556 118.022 67.6233 117.781 66.7721 117.806C65.3181 116.843 65.1382 115.385 63.7413 114.468C62.3156 113.533 60.4891 114.836 59.232 114.36C58.1368 113.945 58.8745 112.58 58.3642 111.54C57.8764 111.12 57.3451 111.033 56.7225 110.902C53.7813 110.29 51.4086 112.121 49.3887 113.944C47.9253 113.265 46.5447 112.663 45.0132 112.148C44.4936 112.956 44.2104 113.55 43.9889 114.507C41.8347 113.931 39.2725 115.377 38.1203 117.177C37.4434 118.277 37.3689 118.752 37.1255 120C35.8524 119.097 34.5984 118.437 32.9441 118.609C31.0359 118.808 30.1449 121.21 29.2784 121.515C27.3503 122.192 25.4321 119.513 23.3447 122.488C22.9356 123.071 23.0682 123.65 23.1785 124.311C23.3624 125.416 24.6637 127.076 24.4383 128.084C23.8477 128.665 20.7649 128.44 19.4336 128.63C18.6209 127.329 17.1267 123.507 18.0033 122.111L17.9268 122.003C17.6665 121.539 17.8521 120.89 17.9105 120.255Z" fill="#F3FBA7"/>
<path d="M17.9098 120.255C18.8769 118.993 20.4635 117.615 21.7262 116.65C28.3084 111.621 36.9745 109.041 45.0803 107.927C58.2938 106.112 75.8558 108.355 86.687 116.743C88.5177 118.144 90.1518 119.785 91.5454 121.623C91.5404 122.131 91.5579 122.942 91.4833 123.419L91.3675 123.63C90.289 122.485 89.6346 121.253 88.1467 119.896C78.8945 111.455 63.8121 108.825 51.7187 109.214C41.9039 109.53 30.675 111.996 22.621 117.833C20.8615 119.108 19.4742 120.556 18.0026 122.111L17.9261 122.003C17.6658 121.539 17.8514 120.89 17.9098 120.255Z" fill="#F3FBA7"/>
<path d="M17.9277 122.003C21.7078 116.172 33.0591 111.728 39.9048 110.372C54.5042 107.48 71.5704 108.619 84.4424 116.696C87.766 118.811 89.1767 120.469 91.4849 123.419L91.3691 123.63C90.2906 122.485 89.6362 121.253 88.1483 119.896C78.8961 111.455 63.8137 108.825 51.7203 109.214C41.9055 109.53 30.6766 111.996 22.6226 117.833C20.8631 119.108 19.4758 120.556 18.0042 122.111L17.9277 122.003Z" fill="#6B8127"/>
<path d="M50.8477 124.546C49.1754 123.902 47.7514 123.078 46.9634 121.375C46.2466 119.823 46.3092 117.531 46.9358 115.934C47.009 115.747 47.1625 115.419 47.3715 115.362C48.1928 115.141 56.8853 118.846 57.9805 119.59C58.2363 119.763 58.5054 119.96 58.547 120.277C58.651 121.07 58.0215 121.918 57.5399 122.491C56.7509 123.431 55.9367 124 54.839 124.531C55.3138 124.715 56.7468 125.435 57.0859 125.119L57.164 125.195L57.1353 125.485C57.4275 125.753 58.0016 126.348 58.2856 126.541C59.2958 127.231 58.9255 129.525 60.2084 128.833L60.3713 128.949C57.0762 130.622 52.3924 130.039 50.7586 134.793C50.4136 135.798 50.3096 137.549 50.5046 138.598L50.4173 138.731C47.9989 137.342 46.3387 136.379 43.524 137.416C41.2842 138.877 42.0637 139.42 41.0861 141.371C40.8427 141.251 39.0707 140.838 38.6716 140.755C36.7165 140.352 34.8896 139.468 33.0011 138.959L32.7766 138.894C31.6539 138.404 30.5443 137.884 29.4491 137.334L29.332 137.327C29.9807 133.989 33.9337 132.379 37.0352 133.095C38.7593 133.503 40.2519 134.576 41.1876 136.081C41.6507 136.84 41.824 137.427 42.0322 138.262C42.5514 137.845 42.7736 137.64 43.3735 137.329C43.7241 137.1 44.2517 136.958 44.6613 136.823C44.1917 135.372 43.8003 134.701 42.9992 133.39C43.2157 132.972 43.1583 133.193 43.1385 132.694C43.1445 131.831 43.3288 131.086 43.6244 130.267C44.492 127.866 46.6087 126.466 48.6989 125.216C48.7436 125.178 48.7883 125.14 48.833 125.101L48.9424 124.983C49.4344 125.103 50.3165 124.722 50.8477 124.546Z" fill="#4D5701"/>
<path d="M29.4512 137.335C32.0062 131.105 40.4529 131.9 41.8501 138.526L41.1098 140.987C38.0432 139.138 36.5595 138.876 33.0032 138.96L32.7787 138.895C31.656 138.404 30.5465 137.884 29.4512 137.335Z" fill="#FCD27F"/>
<path d="M47.4236 115.396C48.2725 115.506 56.6876 119.053 57.9901 119.811C58.2238 119.946 58.302 120.239 58.2972 120.506C58.278 121.582 57.1504 122.686 56.432 123.377C54.718 124.691 51.7396 124.852 49.8255 123.945C48.4391 123.302 47.385 122.107 46.9185 120.652C46.3826 118.952 46.6206 116.976 47.4236 115.396Z" fill="#BED586"/>
<path d="M55.4777 127.184L55.9087 127.49C56.4289 127.434 56.6488 127.548 56.9681 127.963C57.1075 128.656 56.9386 128.435 56.9019 129.008L56.8895 129.227L56.4494 129.137C56.1124 129.377 56.2477 129.349 55.8803 129.408L55.7089 128.748C55.3719 128.587 55.2869 128.6 55.0703 128.329C55.6675 127.825 55.573 127.875 55.4777 127.184Z" fill="#BED586"/>
<path d="M28.8898 122.127C30.4778 121.243 30.0745 120.778 31.203 119.752C33.8486 117.348 36.9332 120.03 38.6566 121.865C36.0806 122.538 35.5004 125.067 38.3768 125.606C39.0052 125.724 39.952 124.273 40.4251 123.771C40.5787 123.755 41.5087 123.659 41.5567 123.617C44.03 121.501 46.859 122.337 48.8342 125.101C48.7895 125.14 48.7448 125.178 48.7001 125.216C46.6099 126.466 44.4932 127.867 43.6256 130.267C43.33 131.086 43.1457 131.831 43.1397 132.694L43.0207 132.945C43.1332 132.985 40.9157 130.807 40.6192 130.562C36.5129 127.188 29.9334 125.638 24.9095 127.972C24.2655 125.961 21.9102 122.903 24.6993 121.597C26.1267 120.928 27.5304 121.627 28.8898 122.127Z" fill="#97CC4B"/>
<path d="M69.4531 131.162C71.1012 129.741 72.3907 128.857 74.4511 128.099C79.1899 126.353 86.2489 126.33 85.6439 133.345L85.6321 133.471C85.1099 134.109 83.8817 134.957 83.184 135.417C79.1833 138.054 75.0799 139.54 70.5204 140.844C70.5547 140.474 71.0807 139.236 71.1874 138.705C71.6549 136.381 70.9347 134.137 69.9875 132.049L69.4531 131.162Z" fill="#F3FBA7"/>
<path d="M22.1113 132.085C22.5213 130.436 23.1115 129.265 24.6594 128.354C27.4199 126.731 31.6247 126.936 34.6005 127.762C38.4382 128.828 40.5204 130.39 42.999 133.39C43.8002 134.701 44.1916 135.372 44.6612 136.823C44.2516 136.958 43.724 137.1 43.3734 137.329C42.7735 137.64 42.5512 137.845 42.0321 138.262C41.8239 137.427 41.6505 136.84 41.1875 136.081C40.2517 134.576 38.7591 133.503 37.0351 133.095C33.9336 132.379 29.9806 133.99 29.3319 137.327C26.9572 135.926 23.9029 134.202 22.1113 132.085Z" fill="#F3FBA7"/>
<path d="M57.1673 125.195C60.9052 120.326 64.6969 116.546 71.1757 118.711L71.2437 118.758C73.1819 119.95 73.9237 120.935 74.4909 123.19C74.6146 123.682 74.6237 123.987 74.3731 124.401C74.2063 124.458 74.0148 124.581 73.8741 124.42C72.7275 123.114 71.7314 122.54 69.8835 122.676C68.4229 122.787 67.0671 123.478 66.1181 124.593C65.1683 125.712 64.9119 126.717 64.6332 128.096C62.9974 127.901 61.7012 128.029 60.2118 128.833C58.9289 129.525 59.2991 127.231 58.2889 126.541C58.0049 126.348 57.4309 125.753 57.1387 125.485L57.1673 125.195Z" fill="#F3FBA7"/>
<path d="M71.1282 118.475L70.5523 118.219L70.543 118.079C73.0417 116.859 75.7109 115.183 78.5482 116.22C80.764 117.031 83.2958 119.147 83.3338 121.674C82.9592 122.043 82.5666 122.456 82.1535 122.775C81.5491 122.815 81.1239 122.839 80.5263 122.96C79.9144 123.084 78.6672 123.679 78.1833 123.672L78.0697 123.328C77.4086 123.306 75.5592 123.772 74.8893 124C74.5373 121.732 73.8338 120.349 72.0024 118.901C71.6343 118.644 71.5778 118.58 71.1282 118.475Z" fill="#97CC4B"/>
<path d="M46.2471 112.837C50.1541 114.411 56.0165 117.001 59.7748 118.892C59.5652 121.141 59.6673 121.841 58.1044 123.644C57.9269 123.849 57.2142 124.854 57.0867 125.119C56.7475 125.435 55.3146 124.715 54.8398 124.532C55.9374 124.001 56.7517 123.431 57.5407 122.491C58.0223 121.918 58.6518 121.07 58.5478 120.277C58.5061 119.96 58.237 119.763 57.9812 119.59C56.8861 118.846 48.1936 115.141 47.3723 115.362C47.1633 115.419 47.0098 115.747 46.9366 115.934C46.3099 117.531 46.2474 119.823 46.9642 121.375C47.7521 123.079 49.1761 123.902 50.8484 124.546C50.3173 124.722 49.4351 125.103 48.9432 124.983C48.0839 123.489 47.0554 122.892 45.4738 122.326C44.2376 119.83 44.6036 117.442 45.4708 114.888C45.7107 114.197 45.9695 113.514 46.2471 112.837Z" fill="#FCD27F"/>
<path d="M77.9048 124.219C81.5385 122.385 84.5318 122.42 85.7771 126.736C86.3705 128.792 88.3255 127.592 90.0328 128.315C89.0282 130.221 87.6006 131.865 85.9665 133.262C85.8232 132.921 85.8595 132.159 85.837 131.747C85.6904 129.074 84.0416 127.532 81.4611 127.032C79.5158 126.654 78.0673 127.026 76.1035 127.19C76.9078 126.674 77.5318 125.101 77.9048 124.219Z" fill="#97CC4B"/>
<path d="M38.118 117.177C39.2702 115.377 41.8323 113.931 43.9865 114.507L43.8569 114.749C43.55 115.757 43.3018 116.783 43.27 117.843C43.115 118.196 43.1054 118.764 43.2642 119.116C43.3052 120.234 43.5494 121.059 43.9921 122.067C42.7532 122.437 41.4738 123.408 40.8841 123.495L40.7331 123.352C40.6869 122.737 41.0515 122.009 41.2789 121.375C40.4762 121.515 39.6715 121.644 38.865 121.762C38.3689 121.125 37.8882 120.686 37.3086 120.128C37.5031 119.317 37.6375 118.574 38.0277 117.835L38.118 117.177Z" fill="#97CC4B"/>
<path d="M38.1195 117.177C39.2717 115.377 41.8339 113.931 43.9881 114.507L43.8584 114.749C41.3185 114.38 39.2728 115.689 38.0293 117.835L38.1195 117.177Z" fill="#7DA32F"/>
<path d="M43.5667 117.162C43.6896 116.332 43.8509 115.443 44.155 114.658C44.4826 113.812 44.5785 112.015 45.8785 112.773C45.9184 113.215 45.5477 114.233 45.3582 114.658C44.3533 116.915 44.1171 119.742 45.0852 122.094C44.8382 122.374 44.993 122.303 44.6407 122.364C43.8998 121.933 43.6623 120.342 43.5287 119.526L43.2672 119.117C43.1084 118.764 43.118 118.196 43.273 117.843L43.5667 117.162Z" fill="#F3FBA7"/>
<path d="M43.5667 117.162C43.523 118.015 43.489 118.674 43.5287 119.526L43.2672 119.117C43.1084 118.764 43.118 118.196 43.273 117.843L43.5667 117.162Z" fill="#7DA32F"/>
<path d="M20.6795 128.741C21.4606 128.73 22.2414 128.71 23.0218 128.742L23.5638 128.812C22.5286 130.042 22.3335 130.312 21.9044 131.879C20.9829 130.995 20.3132 130.019 19.6035 128.967C19.9794 128.717 20.2258 128.757 20.6795 128.741Z" fill="#97CC4B"/>
<path d="M20.6777 128.74C21.6239 128.574 22.0433 128.537 23.02 128.741C22.2397 128.71 21.4588 128.729 20.6777 128.74Z" fill="#7DA32F"/>
<path d="M71.1289 118.475C71.5785 118.58 71.635 118.644 72.003 118.901C71.6244 118.741 71.6527 118.745 71.242 118.757L71.174 118.711C71.18 118.631 71.1465 118.553 71.1289 118.475Z" fill="#7DA32F"/>
<path d="M55.0693 111.082C55.4084 111.024 56.6992 111.067 57.0849 111.145C58.7232 111.474 58.0123 113.421 58.6985 114.284C59.536 115.339 61.6843 114.149 62.8568 114.365C62.912 114.369 62.9673 114.373 63.0226 114.376C64.6529 115.193 64.958 116.446 66.3927 117.901C63.867 118.424 62.392 119.38 60.471 121.035L59.6827 121.822C59.8422 120.836 59.9139 119.79 60.0786 118.767C56.6688 117.102 53.0879 115.673 49.707 114.022C51.2364 112.472 52.8775 111.365 55.0693 111.082Z" fill="#97CC4B"/>
<path d="M69.5619 122.999C69.8414 122.978 70.1217 122.969 70.4019 122.973C76.1621 123.005 71.1339 127.396 75.7678 127.419C73.3409 128.149 72.612 128.509 70.5372 129.954C70.1342 130.275 69.7235 130.643 69.3315 130.982C68.6 130.131 67.7246 129.339 66.724 128.817C66.3114 128.518 64.9638 128.371 64.9591 127.752C64.9408 125.334 67.5106 123.305 69.5619 122.999Z" fill="#97CC4B"/>
<path d="M77.0759 123.737C77.4137 123.688 77.4292 123.657 77.7496 123.75C77.8104 124.62 76.9006 125.986 76.3099 126.63C75.7636 127.226 75.4005 127.169 74.6387 127.171C73.9688 126.801 73.2121 125.984 73.8263 125.194C74.6563 124.124 75.8305 123.959 77.0759 123.737Z" fill="#FCD27F"/>
<path d="M40.5678 121.79L40.7032 121.773L40.8195 121.904C40.6925 122.57 40.3401 123.178 40.0395 123.78C39.4328 124.996 38.8426 125.48 37.4866 125.172C36.9476 124.722 36.3576 123.906 36.8917 123.199C37.7039 122.122 39.3278 121.962 40.5678 121.79Z" fill="#FCD27F"/>
<path d="M119.857 17.6221C120.251 17.6035 120.619 17.5976 120.98 17.7808C123.199 18.9062 125.467 20.2845 127.622 21.5296L140.512 28.995L140.376 29.0336C139.776 29.1976 139.404 29.2822 138.857 29.6016C137.748 30.2376 136.838 31.1671 136.225 32.2877C135.04 34.4528 133.426 40.418 132.721 42.9581C131.198 48.4582 129.723 53.9714 128.296 59.4971L128.221 59.6567C127.888 59.7131 127.782 59.6359 127.472 59.4474C121.086 55.5628 114.358 52.082 107.994 48.1753C110.449 40.055 112.216 31.6138 114.96 23.5541C115.903 20.7893 116.861 18.5731 119.857 17.6221Z" fill="#355830"/>
<path d="M90.4697 0.278564C91.4365 0.405181 117.298 15.605 120.19 17.2909C115.889 18.1786 114.838 22.9185 113.745 26.526C113.039 28.8872 112.356 31.2548 111.695 33.6288C111.503 34.3062 111.049 36.2292 110.753 36.6686C101.303 31.0051 91.4614 25.8235 82.0308 20.123C79.463 18.571 81.1129 12.5483 82.8431 10.7003C83.6384 9.85087 84.6961 9.27064 85.2791 8.22501C86.8977 5.511 86.9307 1.33009 90.4697 0.278564Z" fill="#85DB79"/>
<path d="M90.2854 128.443C91.6884 129.833 91.3047 129.711 91.4495 131.374L91.4691 131.585C91.3756 132.619 90.9258 135.931 89.6148 135.936C89.8524 136.121 89.7851 136.035 89.9202 136.308C89.6985 137.353 87.37 139.858 86.5586 140.619C83.2225 143.749 79.1258 145.755 74.8878 147.358C69.008 149.271 65.8477 149.824 59.7483 150.474C58.1631 147.732 61.2545 146.555 62.0695 144.177C62.2568 143.631 62.265 143.167 62.2942 142.6C63.0012 142.537 66.7723 141.952 67.2451 141.797L67.265 141.6C67.4769 141.504 67.9906 141.446 68.2471 141.406L68.297 141.535C68.6314 141.627 69.5442 141.386 69.9569 141.309C71.2683 140.85 72.6411 140.518 73.9695 140.068C78.366 138.577 81.9618 136.791 85.6307 133.907L85.1823 135.561C85.5862 135.263 85.6494 134.351 85.7356 133.832C87.7365 132.094 88.9715 130.73 90.2854 128.443Z" fill="#97CC4B"/>
<path d="M68.2471 141.406L68.297 141.535C68.6314 141.627 69.5442 141.387 69.9569 141.309C70.0811 141.582 70.0049 141.566 70.2728 141.641C71.9814 142.118 73.7373 142.915 74.5316 144.671C74.6441 144.923 74.7516 145.176 74.8538 145.432C76.5475 145.082 77.1193 144.74 78.6864 144.017C77.7843 144.923 76.0963 145.337 74.888 145.69L74.8878 147.358C69.008 149.271 65.8477 149.824 59.7483 150.475C58.1631 147.732 61.2545 146.556 62.0695 144.177C62.2568 143.631 62.265 143.168 62.2942 142.6C63.0012 142.537 66.7723 141.952 67.2451 141.797L67.265 141.6C67.4769 141.505 67.9906 141.447 68.2471 141.406Z" fill="#4D5701"/>
<path d="M71.8289 145.524C72.471 145.722 72.1999 145.442 72.717 145.935C72.7909 146.522 72.7949 146.305 72.5025 146.905C72.2787 146.854 72.2141 146.884 71.9857 146.911L71.5619 146.576C71.448 145.981 71.4754 146.162 71.8289 145.524Z" fill="#BED586"/>
<path d="M69.957 141.309C71.2684 140.85 72.6413 140.518 73.9697 140.068C78.3662 138.577 81.962 136.791 85.6309 133.907L85.1824 135.561L85.0876 135.743C83.954 137.95 83.2982 140.166 81.2947 141.898C81.1307 142.039 78.6647 144.065 78.6865 144.017C77.1194 144.74 76.5477 145.081 74.854 145.432C74.7517 145.176 74.6443 144.923 74.5318 144.671C73.7374 142.914 71.9815 142.118 70.273 141.641C70.0051 141.566 70.0813 141.582 69.957 141.309Z" fill="#F3FBA7"/>
<path d="M91.469 131.585C91.3756 132.619 90.9258 135.93 89.6148 135.935C89.1039 135.526 89.0044 135.583 88.8262 135.053C88.983 133.939 90.5184 132.877 91.469 131.585Z" fill="#F3FBA7"/>
<path d="M19.2485 128.91C20.1291 130.284 20.8451 131.14 21.9128 132.348L21.9759 133.932L22.1099 134.205C22.0763 133.596 22.0385 132.986 21.9967 132.378C24.3832 134.687 26.2813 135.964 29.2135 137.504C28.9768 138.626 29.0194 139.369 29.135 140.508C28.1059 141.374 27.8549 141.689 27.1713 142.856L27.0383 143C27.0204 143.317 27.038 143.485 26.9138 143.776C25.4826 142.977 23.2829 141.248 22.1592 140.068C19.0094 136.76 17.7275 134.019 17.7403 129.516C18.2173 129.302 18.758 129.103 19.2485 128.91Z" fill="#97CC4B"/>
<path d="M21.998 132.378C24.3846 134.687 26.2826 135.964 29.2148 137.504C28.9782 138.626 29.0207 139.369 29.1364 140.508C28.1072 141.374 27.8562 141.689 27.1726 142.856C25.1821 140.885 24.2374 139.412 22.9725 136.988C24.8786 135.888 23.9119 134.572 22.1113 134.205C22.0776 133.596 22.0398 132.986 21.998 132.378Z" fill="#F3FBA7"/>
<path d="M21.9784 133.932L22.1123 134.205C23.913 134.572 24.8797 135.887 22.9736 136.988C24.2385 139.412 25.1832 140.884 27.1737 142.856L27.0407 143C25.2659 141.509 23.7354 139.197 22.8176 137.071C21.3231 136.363 21.0774 135.573 20.3398 134.115C20.4548 134.12 20.5696 134.125 20.6845 134.128C21.2156 134.147 21.6501 134.238 21.9784 133.932Z" fill="#6B8127"/>
<path d="M20.748 134.382C22.0909 134.399 24.3481 134.417 23.5452 136.417C21.9492 137.248 21.336 135.543 20.748 134.382Z" fill="#FCD27F"/>
<path d="M17.7677 125.513C17.9 125.706 18.9522 128.344 19.0653 128.679L18.9369 128.836C18.5396 128.978 18.1301 129.166 17.7403 129.333C17.7269 128.059 17.7362 126.787 17.7677 125.513Z" fill="#F3FBA7"/>
<path d="M91.4571 125.526C91.7046 125.911 91.6625 129.092 91.4206 129.479L91.2764 129.263C90.9985 128.927 90.662 128.587 90.3613 128.267C90.8583 127.279 91.1248 126.572 91.4571 125.526Z" fill="#F3FBA7"/>
<path d="M51.8848 150.9C52.4865 150.865 53.6012 150.678 54.0274 151.094L53.8564 151.48C52.9557 151.884 52.3137 151.948 51.8848 150.9Z" fill="#FCD27F"/>
</svg>
