<svg width="264" height="170" viewBox="0 0 264 170" fill="none" xmlns="http://www.w3.org/2000/svg">
<path d="M199.369 78.1923C198.563 67.5465 197.833 56.896 197.177 46.2406C191.45 52.6818 184.656 58.2049 175.666 58.7132C164.705 59.3326 141.946 49.8116 131.313 45.2854C128.041 43.8926 124.814 42.3446 121.517 41.0183C118.494 41.4281 115.117 42.1512 112.092 42.7093L96.7867 45.5119C94.754 45.889 82.1715 48.0181 81.0376 48.6362L78.6325 69.6796C80.4258 72.3133 83.2988 77.7599 85.0292 80.8039L98.4938 104.5C100.624 108.255 103.558 113.815 105.855 117.323C111.353 119.95 117.109 122.489 122.661 125.034L152.308 138.635L220.708 170L220.911 134.293C220.964 125.176 221.163 115.549 221.011 106.463L217.285 104.765C217.545 103.387 217.864 97.9327 217.994 96.2867L219.408 77.9963C213.128 79.8822 205.741 79.2083 199.369 78.1923Z" fill="#FCD27F"/>
<path d="M199.368 78.1923C205.74 79.2083 213.127 79.8822 219.408 77.9963L217.994 96.2867C217.864 97.9327 217.544 103.387 217.284 104.765L221.011 106.463C221.162 115.549 220.963 125.176 220.91 134.293L220.708 170L152.308 138.635L122.661 125.034C117.108 122.489 111.352 119.95 105.854 117.323C103.557 113.815 100.623 108.255 98.4934 104.5L85.0287 80.8039C83.2983 77.7599 80.4253 72.3133 78.632 69.6796C78.4474 69.0578 77.6888 67.8408 77.2995 67.2909C76.8109 66.1906 75.4149 63.8682 74.7916 62.7729L69.811 54.032L72.1056 54.3917C71.8896 53.7597 71.3303 53.0771 70.9231 52.5179L74.6199 52.3068C79.4511 57.7541 83.9063 63.7567 88.6169 69.3195C89.6041 70.4849 90.4907 72.265 91.511 73.5588C93.0201 73.6958 96.7504 79.369 97.7818 80.7096C98.3951 81.0512 99.7399 82.9275 100.253 83.58C102.69 86.4469 105.099 89.3374 107.48 92.2509C108.11 93.0154 110.727 96.3421 111.369 96.7303C113.938 98.2864 117.753 99.8248 120.536 101.052C127.803 104.255 135.143 107.289 142.55 110.152C149.443 112.823 158.987 116.282 166.254 117.718C171.249 118.745 176.385 118.899 181.432 118.171C189.834 116.896 196.134 113.196 201.151 106.395C201.179 104.663 200.882 101.613 200.76 99.8092C200.438 95.3542 200.141 90.8972 199.869 86.4394C199.786 85.8363 199.638 85.6487 199.922 85.2644C199.599 84.8196 199.346 79.0818 199.368 78.1923Z" fill="#CC4451"/>
<path d="M217.285 104.765L221.011 106.463C221.163 115.55 220.964 125.176 220.91 134.294L220.708 170L152.308 138.636L122.661 125.034C117.108 122.49 111.353 119.95 105.854 117.323C103.557 113.815 100.623 108.256 98.4934 104.501L85.0288 80.8041C83.2984 77.7601 80.4254 72.3135 78.6321 69.6798C78.4475 69.0581 77.6889 67.841 77.2996 67.2911C76.811 66.1908 75.415 63.8684 74.7917 62.7732L69.8111 54.0322L72.1056 54.392C72.7803 54.8978 77.3377 62.306 78.1072 63.489L99.5245 96.0871C102.462 100.537 105.331 105.024 108.248 109.486C109.798 111.858 112.798 112.689 115.353 113.793L126.243 118.45C147.214 127.448 192.453 146.689 214.308 143.548C214.444 139.017 215.07 133.091 215.436 128.508L217.285 104.765Z" fill="#733247"/>
<path d="M199.868 86.4396C204.263 87.2078 206.661 87.6876 211.135 87.6648C210.659 93.1038 209.778 99.1578 209.093 104.62L205.679 132.329C193.788 134.264 167.11 123.916 155.562 119.557C146.918 116.309 138.315 112.954 129.757 109.491L118.598 105.018C116.839 104.309 114.515 103.674 113.002 102.582C111.556 101.539 101.748 86.5471 100.052 84.0148L100.252 83.5801C102.689 86.4471 105.098 89.3376 107.479 92.2511C108.109 93.0156 110.726 96.3423 111.367 96.7304C113.937 98.2866 117.751 99.825 120.535 101.053C127.802 104.255 135.142 107.289 142.549 110.153C149.442 112.823 158.986 116.282 166.253 117.718C171.248 118.745 176.384 118.899 181.431 118.171C189.833 116.896 196.132 113.196 201.15 106.395C201.178 104.663 200.881 101.613 200.759 99.8094C200.437 95.3543 200.14 90.8974 199.868 86.4396Z" fill="#CC4451"/>
<path d="M199.92 85.2636C203.769 85.9977 208.546 86.9888 212.438 86.3144C210.694 101.834 208.627 117.522 206.712 133.038C194.875 137.38 148.817 118.297 135.896 113.17L120.53 107.024C117.863 105.941 114.794 104.76 112.197 103.56L111.945 103.443L98.3815 83.6354C96.1594 80.3773 93.7901 76.7353 91.5093 73.558C93.0184 73.6951 96.7487 79.3683 97.7801 80.7088C98.3934 81.0504 99.7382 82.9268 100.251 83.5792L100.051 84.0139C101.747 86.5462 111.556 101.538 113.001 102.581C114.515 103.673 116.838 104.308 118.597 105.018L129.756 109.491C138.315 112.953 146.917 116.308 155.561 119.556C167.109 123.915 193.788 134.263 205.679 132.328L209.093 104.619C209.777 99.1569 210.659 93.1029 211.135 87.6639C206.66 87.6867 204.262 87.2069 199.868 86.4387C199.784 85.8355 199.636 85.648 199.92 85.2636Z" fill="white"/>
<path d="M97.7812 80.7092C98.3945 81.0508 99.7393 82.9272 100.253 83.5796L100.052 84.0143L97.7812 80.7092Z" fill="#95543B"/>
<path d="M78.6303 69.6793C68.1849 68.1679 57.8841 65.7852 47.8362 62.5559C34.0556 58.2502 20.823 51.202 13.7329 37.944C10.4207 31.6392 9.11896 24.1311 11.2831 17.2457C13.4174 10.4554 18.7727 3.58407 26.2948 8.84983C31.8536 12.7412 36.3445 18.1789 41.0259 23.0654C52.0841 34.7156 65.8177 43.4929 81.0354 48.6359C83.9382 49.5928 86.8767 50.4382 89.8444 51.1701L91.67 51.9463C95.1713 53.9696 96.3374 55.0587 98.884 58.1912C100.231 60.3023 101.081 61.8982 102.181 64.1476C102.532 65.2664 103.209 67.2478 103.132 68.3725L102.963 68.5154C102.394 68.3205 102.13 68.2029 101.603 67.9442C101.331 67.7574 100.869 67.3555 100.595 67.1328C100.688 66.3955 99.8036 64.5209 99.4828 63.7255C98.7499 62.2545 98.4025 61.5731 97.4845 60.2294C97.2568 59.8635 97.0173 59.5053 96.7661 59.1551C94.2936 55.776 90.4113 53.1498 86.247 52.4981C85.4591 52.2824 84.6537 52.0503 83.8581 51.8747C81.5336 51.1127 78.2322 49.8698 75.9988 49.2425C62.2757 43.4984 50.3017 35.9073 39.9629 25.1362C35.3699 20.4576 31.2032 15.3705 26.0248 11.3304C20.2563 6.69839 16.1704 10.4653 13.9662 16.3239C6.97783 34.8983 25.0578 52.0138 41.0448 57.8357C51.8606 61.7743 65.7325 65.9635 77.2978 67.2906C77.6871 67.8405 78.4457 69.0576 78.6303 69.6793Z" fill="#30182A"/>
<path d="M197.176 46.2402C197.832 56.8956 198.563 67.5461 199.368 78.1919C199.345 79.0814 199.599 84.8193 199.921 85.264C199.638 85.6483 199.786 85.8359 199.869 86.4391C200.141 90.8968 200.438 95.3538 200.76 99.8089C200.882 101.612 201.179 104.662 201.151 106.395C196.133 113.196 189.834 116.895 181.431 118.171C176.385 118.898 171.249 118.745 166.254 117.717C158.986 116.281 149.443 112.823 142.55 110.152C135.143 107.289 127.803 104.255 120.536 101.052C117.752 99.8245 113.938 98.286 111.368 96.7299C110.727 96.3418 108.11 93.015 107.48 92.2505C105.099 89.337 102.69 86.4466 100.253 83.5796C99.7396 82.9272 98.3949 81.0508 97.7816 80.7092C96.7502 79.3686 93.0199 73.6955 91.5108 73.5584C90.4905 72.2646 89.6038 70.4846 88.6167 69.3191C83.9061 63.7563 79.4509 57.7537 74.6196 52.3064C74.2578 51.6981 73.23 50.5576 72.7313 49.9719C73.7798 49.726 75.0146 49.6288 76.0003 49.2424C78.2337 49.8697 81.5351 51.1126 83.8596 51.8746C84.6552 52.0502 85.4607 52.2823 86.2485 52.498L86.1416 52.7836C85.1285 53.0729 83.6191 53.3245 82.5466 53.5335C83.2852 54.8745 85.5333 57.1932 86.6614 58.4728L95.302 68.2008L108.383 82.9766C109.541 84.2932 114.468 90.3259 115.616 90.949C119.56 93.0905 124.513 95.2379 128.653 97.0808C135.087 99.9436 141.616 102.8 148.236 105.211C153.299 107.09 158.063 109.125 163.355 110.469C166.626 111.326 170.002 111.717 173.38 111.628C180.043 111.472 187.952 108.673 193.091 104.382C194.128 103.517 193.68 99.4864 193.626 98.0718L193.313 89.7749L192.193 58.9932C173.471 72.1569 148.534 58.6037 130.175 50.8583C127.567 49.7578 124.988 48.23 122.383 47.0337C120.015 47.2925 117.089 47.9821 114.657 48.359L91.6715 51.9462L89.8459 51.17C86.8782 50.4381 83.9398 49.5927 81.0369 48.6358C82.1708 48.0177 94.7533 45.8887 96.786 45.5115L112.091 42.7089C115.116 42.1508 118.493 41.4277 121.517 41.0179C124.813 42.3443 128.041 43.8922 131.312 45.285C141.945 49.8112 164.704 59.3322 175.665 58.7128C184.656 58.2045 191.45 52.6814 197.176 46.2402Z" fill="#FCD27F"/>
<path d="M193.191 56.477C193.598 62.7868 193.719 69.7452 193.956 76.1154L194.979 104.104C190.627 109.107 181.196 112.252 174.77 112.715C165.488 113.385 156.786 109.776 148.3 106.548C139.844 103.332 131.513 99.7709 123.309 95.9409C121.702 95.1975 115.29 92.4491 114.3 91.4491C112.148 89.2747 109.297 85.7858 107.151 83.3935L89.0154 63.007C86.9358 60.6005 84.8408 58.2072 82.7307 55.8273C81.9807 54.981 80.7146 53.4598 79.943 52.7178C80.8234 52.5638 83.1919 52.2177 83.8579 51.8748C84.6535 52.0505 85.4589 52.2826 86.2467 52.4983L86.1399 52.7839C85.1268 53.0732 83.6173 53.3247 82.5448 53.5338C83.2834 54.8747 85.5315 57.1934 86.6596 58.473L95.3002 68.2011L108.381 82.9769C109.539 84.2935 114.467 90.3262 115.614 90.9492C119.558 93.0908 124.511 95.2382 128.652 97.081C135.085 99.9438 141.615 102.8 148.234 105.212C153.297 107.09 158.061 109.126 163.354 110.469C166.624 111.327 170 111.717 173.378 111.629C180.041 111.472 187.951 108.674 193.09 104.383C194.127 103.517 193.678 99.4866 193.624 98.0721L193.311 89.7751L192.191 58.9935C173.47 72.1572 148.532 58.604 130.174 50.8586C127.565 49.7581 124.986 48.2303 122.382 47.034C120.013 47.2928 117.088 47.9824 114.655 48.3593L91.6697 51.9465L89.8441 51.1703C90.5937 50.8577 99.7459 49.5495 101.109 49.3335L115.16 47.067C117.633 46.6693 120.19 46.1711 122.676 45.8934C135.991 52.429 149.723 58.764 164.189 62.2607C173.521 64.5167 186.03 63.5978 193.191 56.477Z" fill="white"/>
<path d="M98.8856 58.1912C102.821 57.8362 104.501 57.1848 107.921 59.8797C110.97 62.2814 113.358 68.2838 107.95 69.4479C105.966 69.6463 103.185 69.2565 101.604 67.9442C102.132 68.2029 102.396 68.3206 102.965 68.5155L103.134 68.3726C103.211 67.2478 102.534 65.2664 102.183 64.1476C101.082 61.8982 100.233 60.3023 98.8856 58.1912Z" fill="#CC4451"/>
<path d="M102.182 64.1477C104.936 64.655 107.068 66.8546 107.949 69.448C105.966 69.6464 103.184 69.2566 101.604 67.9443C102.131 68.203 102.395 68.3207 102.964 68.5156L103.133 68.3727C103.21 67.2479 102.533 65.2665 102.182 64.1477Z" fill="#733247"/>
<path d="M97.4863 60.2297C98.4043 61.5734 98.7516 62.2548 99.4846 63.7258C98.9054 63.84 98.6024 63.8582 98.0942 64.1666C97.4887 63.116 97.1353 61.4097 97.4863 60.2297Z" fill="#CC4451"/>
<path d="M99.4843 63.7256C99.8051 64.521 100.69 66.3957 100.596 67.1329C99.4208 66.1025 98.8859 65.5091 98.094 64.1664C98.6022 63.858 98.9051 63.8398 99.4843 63.7256Z" fill="#733247"/>
<path d="M145.816 67.9798C146.426 68.1511 147.647 68.6683 148.283 68.9153C149.35 70.1455 149.491 70.8369 149.649 72.4221C147.019 71.6438 144.419 70.7639 141.858 69.7854C142.454 72.1133 143.219 74.4918 143.924 76.7957C144.7 76.0736 145.243 75.6926 146.368 75.8257C148.353 76.06 150.473 77.9682 151.644 79.432C153.669 81.999 154.901 85.0641 155.921 88.1586C156.687 90.4765 158.537 97.3505 154.076 96.8229C150.955 96.4533 149.029 94.258 147.25 91.8947C146.773 91.182 145.434 89.1514 146.257 88.4356C148.034 88.9255 149.767 93.0794 152.427 93.0421C154.096 93.1719 154.308 91.276 154.115 89.9442C153.536 85.9391 151.471 79.0812 146.341 79.6223C146.012 80.5283 145.696 81.7591 144.898 82.2593C143.953 82.2295 143.154 80.9789 142.931 80.164C141.744 75.8064 139.632 70.4597 138.81 66.0894L138.964 65.978C140.385 65.9769 144.28 67.4553 145.816 67.9798Z" fill="#733247"/>
<path d="M128.457 61.9177C129.318 62.2229 130.33 62.5985 131.074 63.1229C135.052 65.9271 138.496 72.9486 137.653 77.7225C137.056 78.3723 136.166 79.1537 135.694 79.7694C134.123 81.8174 134.515 84.6938 134.889 87.1098C137.35 87.8996 140.694 89.0114 143.019 90.0075C143.553 90.7067 144.63 92.1971 143.946 92.9676C142.878 93.2234 140.793 92.286 139.645 91.9034C137.879 91.3423 136.172 90.7122 134.434 90.0783L134.329 89.9525C132.646 87.8914 131.676 82.899 132.018 80.261C132.358 77.6283 133.12 76.6607 135.03 75.0955C135.57 71.6857 133.605 67.1762 130.504 65.4375C128.784 64.4734 128.156 67.5407 127.814 68.628C126.251 67.4791 125.49 66.5374 125.621 64.5081C125.737 62.6829 126.645 61.7631 128.457 61.9177Z" fill="#733247"/>
<path d="M170.416 90.6706C174.865 92.3664 180.236 103.481 175.246 103.506C170.46 101.646 165.327 90.223 170.416 90.6706Z" fill="#733247"/>
<path d="M171.212 93.5536C171.805 93.8481 172.346 94.2361 172.815 94.7033C174.041 95.9446 176.052 98.8354 174.406 100.443C172.485 99.8332 170.965 97.4392 170.644 95.4977C170.484 94.5324 170.663 94.3007 171.212 93.5536Z" fill="#FCD27F"/>
<path d="M162.496 71.5127C163.275 71.8739 163.655 72.0694 164.147 72.853C164.408 73.268 164.572 74.1206 164.595 74.5701C164.746 77.5421 166.802 100.381 166.522 101.513C163.714 101.119 164.034 96.1547 163.887 93.9363L163.329 85.3245C163.099 81.8316 162.365 74.7573 162.496 71.5127Z" fill="#733247"/>
<path d="M154.279 68.5355C155.201 68.8684 156.043 69.3921 156.749 70.072C158.308 71.5799 163.359 79.999 158.932 79.9876C154.774 78.6029 150.104 68.8976 154.279 68.5355Z" fill="#733247"/>
<path d="M155.037 71.2567C157.236 72.0809 159.573 75.1258 158.146 77.3712C156.379 76.7992 154.947 74.4147 154.701 72.6411C154.631 72.1419 154.842 71.7016 155.037 71.2567Z" fill="#FCD27F"/>
</svg>
