<svg width="82" height="32" viewBox="0 0 82 32" fill="none" xmlns="http://www.w3.org/2000/svg">
<path d="M8.88552 0.0158541C9.54629 -0.0278091 10.0964 0.124379 10.5504 0.635205C10.8291 0.948758 11.0002 1.34326 11.0387 1.761C11.072 2.15695 10.8886 3.05252 10.8176 3.47796L10.3148 6.54916C10.2136 7.1502 10.0754 7.80352 10.0246 8.40781C9.71325 12.1225 16.1147 12.5098 16.7504 9.11764C16.8813 8.41896 16.5348 6.82796 16.41 6.07966L15.9462 3.26837C15.8082 2.4166 15.552 1.65375 16.0675 0.874186C16.4604 0.279878 17.0952 -0.0387188 17.8056 0.00376675C18.3203 0.0388528 18.8011 0.273434 19.1455 0.657603C19.5513 1.11634 19.8104 2.31236 19.9915 2.92667L20.9127 6.06111L23.5516 15.0697L25.6752 22.3048L26.2921 24.4106C26.6329 25.569 26.8531 26.1409 26.7714 27.3886C26.6798 28.2856 26.3525 29.1427 25.8228 29.8724C25.0333 30.9694 23.8412 31.7087 22.5075 31.928C21.9666 32.0118 21.4267 31.9993 20.8814 31.9993L19.1271 31.9996L13.0645 31.9993L7.46012 32L5.83349 31.9998C5.35726 31.9996 4.84166 32.0064 4.37112 31.9393C3.53274 31.8156 2.73847 31.4847 2.06021 30.9765C0.983544 30.1659 0.265624 28.9674 0.0591069 27.6357C-0.121568 26.4118 0.139301 25.6558 0.472119 24.523L1.096 22.4012L3.00725 15.8857L5.82518 6.26845L6.70045 3.28935C6.8747 2.69289 7.0448 2.09224 7.22674 1.49849C7.29818 1.2654 7.41181 0.959468 7.56193 0.767994C7.90504 0.330318 8.34285 0.0932035 8.88552 0.0158541Z" fill="#7AD371"/>
<path d="M16.583 20.1533C16.187 20.3661 15.8885 20.5784 15.6085 20.9357C15.2862 20.6749 15.0905 20.5662 14.7266 20.3789C14.303 20.1939 14.016 20.1103 13.5511 20.0474C13.106 19.9818 12.4497 20.0412 12.0208 20.1574C11.5616 20.2849 11.2753 20.4328 10.8788 20.6768C10.7788 20.753 10.6976 20.8084 10.5921 20.8771C10.2578 20.4227 9.7102 20.1372 9.18117 19.977C8.65851 19.8198 8.00776 19.8518 7.49242 20.0216C6.77814 20.2597 6.18636 20.7695 5.84515 21.4407C5.49754 22.1341 5.43976 22.9372 5.68451 23.6733C5.93018 24.4012 6.45709 25.0005 7.14761 25.3372C7.88562 25.6976 8.66514 25.7073 9.43365 25.4432C10.0239 26.7908 11.1759 27.7075 12.6559 27.8536C14.4875 28.0343 16.0118 27.0607 16.7339 25.3967C17.2945 25.6152 17.8376 25.6789 18.4329 25.5626C19.1767 25.4148 19.8307 24.9759 20.249 24.3434C20.6801 23.6899 20.8313 22.8908 20.6687 22.125C20.5029 21.3179 20.0132 20.7138 19.339 20.2677L19.3094 20.2817C19.2808 20.2954 19.2525 20.3109 19.2243 20.327C19.209 20.3358 19.1938 20.3447 19.1786 20.3536C19.1161 20.3902 19.0533 20.427 18.9876 20.4514C18.4566 20.6486 17.8642 20.5202 17.3822 20.2525C17.3461 20.2325 17.291 20.1944 17.2318 20.1534L17.2313 20.1531C17.1326 20.0847 17.0222 20.0083 16.9682 19.9939C16.8837 20.023 16.7768 20.0694 16.6804 20.1113L16.6797 20.1116L16.6753 20.1135L16.644 20.1271L16.6289 20.1337C16.6262 20.1348 16.6236 20.1359 16.621 20.1371L16.6179 20.1384C16.6159 20.1392 16.614 20.1401 16.612 20.1409C16.6021 20.1452 16.5924 20.1493 16.583 20.1533Z" fill="#0F3934"/>
<path d="M76.124 24.3027C76.6169 24.3382 77.1487 24.5285 77.3908 24.9639C78.0893 26.2424 77.0479 26.9297 76.1152 27.5431C69.475 31.9095 60.812 32.6017 53.1621 31.1249C52.3382 30.966 51.4828 30.7107 50.6593 30.5016C49.4469 30.1214 48.7416 29.4568 49.5761 28.0242C49.9243 27.4265 50.7073 27.5185 51.2914 27.6927C52.0429 27.916 52.8699 28.1079 53.667 28.2673C55.9172 28.7248 58.2082 28.952 60.5045 28.9461C65.0294 28.9171 70.055 27.9322 73.9561 25.5483C74.6359 25.1326 75.3222 24.4164 76.124 24.3027Z" fill="#7AD371"/>
<path d="M39.2621 3.84275C41.0483 3.65178 40.9795 5.66346 41.0503 6.91012C39.0863 7.08309 37.1257 7.39443 35.1432 7.55977C35.2044 8.11473 35.2585 8.67042 35.3054 9.2267C36.4297 9.14725 38.3182 8.86109 39.3117 8.8914C40.2152 9.49712 40.1647 10.7344 40.1792 11.7118C38.6733 11.8551 37.114 12.097 35.6359 12.21C35.6473 12.6147 35.6803 12.9505 35.7226 13.3542C35.8234 14.173 35.9428 15.0396 35.9979 15.8583C35.1995 15.9646 33.8432 16.4457 33.1332 15.9233C32.5221 15.4737 32.5236 14.3433 32.4519 13.622L32.2207 11.3714C31.9882 9.1689 31.6887 6.90324 31.4922 4.71358C32.7878 4.535 34.1572 4.42953 35.4638 4.28008C36.7232 4.13604 38.0053 3.96131 39.2621 3.84275Z" fill="#7AD371"/>
<path d="M50.7155 17.7557C52.2325 17.6165 52.4437 19.1922 52.5822 20.3443C52.4505 20.3497 52.3189 20.3575 52.1875 20.3679C50.7936 20.4845 49.2354 21.2002 48.9613 22.7139C48.7736 23.7504 48.8449 24.7525 48.9454 25.7885C48.301 25.8884 46.9769 26.1998 46.4801 25.7915C46.0976 25.4771 46.0573 24.996 45.9864 24.5454C45.7018 22.6382 45.602 20.5115 45.3438 18.562C47.5062 18.2717 48.2451 17.8536 48.3058 20.5327C48.3103 20.7339 48.3419 21.0167 48.3571 21.2243C48.7786 19.9468 49.2032 18.1409 50.7155 17.7557Z" fill="#0F3934"/>
<path d="M54.1094 17.659C54.7223 17.6 55.5658 17.7136 55.6691 18.4146C55.981 20.5319 56.196 22.8332 56.4351 24.9549L55.3235 25.1094C54.8016 25.1714 53.7885 25.2831 53.6213 24.5673C53.4031 23.6336 53.3417 22.5863 53.2454 21.6255L52.8438 17.9183C53.2814 17.8169 53.6637 17.7309 54.1094 17.659Z" fill="#0F3934"/>
<path d="M53.7947 14.3683C54.5753 14.2346 55.3197 14.7489 55.4707 15.5262C55.6218 16.3035 55.1241 17.0591 54.3503 17.2273C53.8342 17.34 53.2978 17.1639 52.9483 16.7679C52.599 16.3719 52.4913 15.8175 52.667 15.3196C52.8427 14.8214 53.2742 14.4575 53.7947 14.3683Z" fill="#0F3934"/>
<path d="M50.3098 10.1184C50.1737 7.54513 47.9775 5.56942 45.4043 5.70534C42.8308 5.84127 40.8549 8.03776 40.991 10.6112C41.1271 13.1846 43.3237 15.1605 45.8971 15.0241C48.4703 14.8879 50.4459 12.6915 50.3098 10.1184ZM45.3764 8.21786C46.0082 8.19247 46.3743 8.4899 46.6119 9.08686C46.944 9.92149 47.1054 11.078 46.7828 11.9361C46.6364 12.3255 46.3959 12.457 46.0293 12.5987C45.1598 12.6287 44.7632 12.1944 44.5742 11.3638C44.3497 10.3775 44.0797 8.53137 45.3764 8.21786Z" fill="#7AD371"/>
<path d="M59.8862 9.29452C59.9256 6.71141 57.8673 4.58363 55.2842 4.53739C52.6913 4.49095 50.5537 6.55895 50.5142 9.1519C50.4748 11.7449 52.5485 13.877 55.1416 13.9094C57.7246 13.9418 59.8469 11.8776 59.8862 9.29452ZM54.7607 7.0836C55.4273 7.01862 55.8297 7.17505 56.1165 7.83484C56.5656 8.86776 56.8741 10.9144 55.6192 11.4772C54.949 11.5604 54.537 11.3287 54.2589 10.6909C53.8278 9.70238 53.532 7.59443 54.7607 7.0836Z" fill="#7AD371"/>
<path d="M68.7996 2.01207C68.6473 0.850865 68.5463 0.0815976 67.021 0.201793C66.5114 0.250624 66.1154 0.327182 65.652 0.416763C65.5589 0.434759 65.4631 0.45328 65.3631 0.472208C65.4017 0.860951 65.4484 1.27 65.4956 1.68369C65.5777 2.40379 65.6614 3.13793 65.707 3.80341C63.2094 3.33813 60.8811 3.80626 60.3783 6.64198C60.1171 8.11656 60.4162 10.4338 61.283 11.6709C61.6894 12.2602 62.3171 12.6597 63.023 12.7784C63.4761 12.851 63.909 12.7908 64.3517 12.6868C65.7247 12.2051 66.0302 11.5448 66.5522 10.2757C66.6427 11.6606 66.9733 12.3124 68.4997 12.1368C68.9695 12.0828 69.4059 12.0022 69.8649 11.8766C69.6521 10.2957 69.5022 8.69594 69.3523 7.09526C69.1996 5.46504 69.0468 3.83389 68.8274 2.2209C68.8177 2.15 68.8086 2.08036 68.7996 2.01207ZM65.5253 5.50153C65.6517 5.48855 65.7228 5.48124 65.8138 5.55761C65.9963 6.47811 65.9943 10.9093 64.3183 10.2788C64.0566 10.0491 63.908 9.79274 63.8293 9.44996C63.5607 8.27846 63.4702 6.46144 64.6754 5.76624C64.8968 5.63858 65.1474 5.57956 65.3902 5.52236C65.4091 5.5179 65.428 5.51346 65.4468 5.509C65.4753 5.50666 65.5013 5.50399 65.5253 5.50153Z" fill="#7AD371"/>
<path d="M80.4035 15.0652C79.6907 14.5173 78.8667 14.346 77.9841 14.4194C76.7076 14.5248 75.5663 14.8746 74.6946 15.8814C73.3811 17.3991 73.6679 20.3197 75.1968 21.5968C76.9806 23.0864 80.1836 22.7509 81.4208 20.7162C81.9083 19.4987 81.4922 19.2202 80.3326 19.1937C80.0852 20.3571 79.3586 20.8072 78.1426 20.5548C77.4238 20.4058 77.1218 19.7914 76.8547 19.1755C78.2985 19.0579 81.4508 18.6142 81.2604 16.613C81.2073 15.999 80.8954 15.4362 80.4035 15.0652ZM77.3751 15.9754C78.0388 16.0015 78.6104 16.3675 78.3162 17.1384C78.217 17.3989 77.9419 17.495 77.6876 17.5839C77.6621 17.5928 77.6367 17.6017 77.6117 17.6106C77.293 17.6933 77.0736 17.7282 76.7494 17.7779C76.7511 17.7456 76.7527 17.7128 76.7543 17.6796C76.7843 17.0691 76.8208 16.3253 77.3751 15.9754Z" fill="#0F3934"/>
<path d="M73.1659 15.5194C73.1487 14.4483 73.0597 13.4405 71.6793 13.6263C70.5759 13.9177 70.1233 14.5057 69.9428 15.6257C68.8413 15.395 67.763 15.5312 66.8096 16.155C66.112 16.615 65.6309 17.3376 65.475 18.1582C65.1557 19.7865 65.9497 22.3323 67.8353 22.6437C69.4616 22.9118 70.1287 22.101 70.7564 20.7689C70.76 20.9312 70.7686 21.1016 70.7774 21.276C70.8403 22.5209 70.9136 23.9731 69.2654 24.1957C68.7778 24.2616 68.5299 23.705 68.3384 23.2747C68.2454 23.066 68.1657 22.887 68.0783 22.8232L67.9347 22.8276C67.2007 22.9472 65.7239 23.2335 66.0328 24.3133C66.5602 26.1576 69.3293 26.316 70.8145 25.8634C73.9122 24.9194 73.588 22.1512 73.223 19.5651C73.1842 19.2911 73.1705 18.9961 73.1566 18.6961C73.1127 17.7517 73.0665 16.7573 72.2283 16.2081C72.1353 16.1525 72.0085 16.1136 71.8825 16.0749C71.7187 16.0245 71.5561 15.9745 71.4707 15.8889C71.699 15.548 72.765 15.5268 73.1659 15.5194ZM70.018 17.0307C70.2104 17.3868 70.077 21.5643 68.7262 20.426C68.527 20.1053 68.4438 19.8037 68.4054 19.4333C68.2638 18.0745 68.524 17.1836 70.018 17.0307Z" fill="#0F3934"/>
<path d="M64.3311 15.7795C64.2329 14.4809 64.1502 13.3859 62.3864 13.5782C61.9865 13.6412 61.5924 13.7358 61.2077 13.861L61.5157 16.8404C60.305 16.5989 59.2479 16.5217 58.1833 17.2227C56.8334 18.1121 56.6647 19.8698 56.8487 21.3161C57.1065 23.3389 58.1233 25.3406 60.5136 24.6086C61.3991 24.2042 61.8197 23.639 62.1842 22.7427L62.2624 22.5513C62.3633 23.7772 62.7101 24.2952 64.0162 24.1255C64.3994 24.0739 64.7821 24.0198 65.1649 23.9637C65.0927 23.1211 64.9965 22.2964 64.9002 21.4715C64.8148 20.7394 64.7293 20.007 64.6606 19.2618C64.5726 18.2867 64.4786 17.3122 64.3783 16.3382C64.3591 16.1499 64.3449 15.9627 64.3311 15.7795ZM61.322 18.3422C61.4212 18.3342 61.4712 18.3301 61.5846 18.3768C61.7789 19.0783 61.6249 20.7149 61.4699 21.4302C61.3283 22.082 61.0547 22.7181 60.2731 22.512C59.4437 21.7077 59.5381 19.061 60.6646 18.515C60.8447 18.4274 61.0597 18.3851 61.255 18.3472C61.2799 18.3457 61.302 18.3439 61.322 18.3422Z" fill="#0F3934"/>
<path d="M44.0918 18.0448C43.5987 16.2807 41.8837 16.2359 40.4608 16.3466C39.4578 16.4158 38.3594 16.5463 37.2872 16.6738C36.7357 16.7393 36.1911 16.8041 35.6699 16.8592C35.689 17.6715 35.8439 18.9618 35.9792 20.0891C36.038 20.5791 36.0931 21.0383 36.1318 21.414L36.4168 24.1866C36.4311 24.3237 36.4422 24.4716 36.4538 24.6252C36.535 25.7048 36.6374 27.0656 37.9932 26.9144C38.4394 26.8646 38.8852 26.8053 39.3309 26.746C39.9816 26.6594 40.6322 26.5729 41.2839 26.5159C43.1528 26.3319 45.284 25.5261 45.1003 23.1727C44.9892 21.7476 43.9782 21.0318 42.6051 20.9442C43.7126 20.3475 44.4495 19.3243 44.0918 18.0448ZM40.8294 22.3404C41.4614 22.299 42.2694 22.5912 41.7456 23.3995C41.5163 23.7537 40.8347 23.8221 40.386 23.8672C40.3467 23.8711 40.3092 23.8749 40.274 23.8786L39.3369 23.9657C39.3305 23.6106 39.286 23.1824 39.2455 22.7916C39.2337 22.6777 39.2222 22.5671 39.2121 22.4624C39.7505 22.4132 40.2896 22.3728 40.8294 22.3404ZM40.3365 19.0449C41.176 18.9691 41.5147 19.5314 40.9028 20.1596C40.5295 20.291 40.1904 20.3189 39.8108 20.3501C39.7612 20.3542 39.7108 20.3583 39.6595 20.3628L38.9946 20.413C38.9729 20.1155 38.9269 19.7842 38.8833 19.4695C38.8696 19.3709 38.8562 19.2739 38.8437 19.1802C39.247 19.1223 39.6683 19.0925 40.0808 19.0633C40.1665 19.0572 40.2518 19.0511 40.3365 19.0449Z" fill="#0F3934"/>
</svg>
