<svg width="756" height="681" viewBox="0 0 756 681" fill="none" xmlns="http://www.w3.org/2000/svg">
<rect x="425.983" y="515.077" width="150" height="150" rx="75" transform="rotate(2 425.983 515.077)" fill="#7AD371"/>
<rect x="490.825" y="592.387" width="49.5" height="49.5" rx="24.75" transform="rotate(2 490.825 592.387)" fill="white"/>
<rect x="508.803" y="614.778" width="21" height="21" rx="10.5" transform="rotate(2 508.803 614.778)" fill="#0A2623"/>
<mask id="path-4-inside-1_46_416" fill="white">
<path d="M614.264 46.4741C618.385 42.1444 625.672 45.2061 625.463 51.1793L622.271 142.605L667.723 144.192C703.584 145.445 731.639 175.53 730.387 211.39L719.147 533.262C717.895 569.122 687.809 597.177 651.949 595.925L86.1226 576.166C50.2625 574.913 22.2077 544.828 23.4598 508.968L34.6999 187.096C35.9523 151.236 66.0373 123.181 101.897 124.433L525.983 139.243L614.264 46.4741Z"/>
</mask>
<path d="M614.264 46.4741C618.385 42.1444 625.672 45.2061 625.463 51.1793L622.271 142.605L667.723 144.192C703.584 145.445 731.639 175.53 730.387 211.39L719.147 533.262C717.895 569.122 687.809 597.177 651.949 595.925L86.1226 576.166C50.2625 574.913 22.2077 544.828 23.4598 508.968L34.6999 187.096C35.9523 151.236 66.0373 123.181 101.897 124.433L525.983 139.243L614.264 46.4741Z" fill="#274C48"/>
<path d="M614.264 46.4741L612.815 45.0953L612.815 45.0953L614.264 46.4741ZM625.463 51.1793L627.462 51.2491L627.462 51.249L625.463 51.1793ZM622.271 142.605L620.272 142.535L620.202 144.534L622.201 144.604L622.271 142.605ZM667.723 144.192L667.793 142.193L667.723 144.192ZM730.387 211.39L732.386 211.46L732.386 211.46L730.387 211.39ZM719.147 533.262L721.146 533.332L721.146 533.332L719.147 533.262ZM651.949 595.925L651.879 597.924L651.949 595.925ZM86.1226 576.166L86.0528 578.164L86.0528 578.164L86.1226 576.166ZM23.4598 508.968L21.4611 508.898L21.4611 508.898L23.4598 508.968ZM34.6999 187.096L32.7011 187.026L32.7011 187.026L34.6999 187.096ZM101.897 124.433L101.967 122.434L101.967 122.434L101.897 124.433ZM525.983 139.243L525.913 141.241L526.812 141.273L527.432 140.621L525.983 139.243ZM614.264 46.4741L615.713 47.8528C618.565 44.8561 623.609 46.9751 623.465 51.1096L625.463 51.1793L627.462 51.249C627.734 43.4372 618.204 39.4328 612.815 45.0953L614.264 46.4741ZM625.463 51.1793L623.465 51.1095L620.272 142.535L622.271 142.605L624.269 142.675L627.462 51.2491L625.463 51.1793ZM622.271 142.605L622.201 144.604L667.654 146.191L667.723 144.192L667.793 142.193L622.34 140.606L622.271 142.605ZM667.723 144.192L667.654 146.191C702.41 147.405 729.602 176.564 728.388 211.32L730.387 211.39L732.386 211.46C733.676 174.496 704.757 143.484 667.793 142.193L667.723 144.192ZM730.387 211.39L728.388 211.32L717.148 533.192L719.147 533.262L721.146 533.332L732.386 211.46L730.387 211.39ZM719.147 533.262L717.148 533.192C715.934 567.949 686.775 595.14 652.018 593.926L651.949 595.925L651.879 597.924C688.843 599.214 719.855 570.296 721.146 533.332L719.147 533.262ZM651.949 595.925L652.018 593.926L86.1924 574.167L86.1226 576.166L86.0528 578.164L651.879 597.924L651.949 595.925ZM86.1226 576.166L86.1924 574.167C51.4362 572.953 24.245 543.794 25.4586 509.038L23.4598 508.968L21.4611 508.898C20.1704 545.862 49.0888 576.873 86.0528 578.164L86.1226 576.166ZM23.4598 508.968L25.4586 509.038L36.6986 187.166L34.6999 187.096L32.7011 187.026L21.4611 508.898L23.4598 508.968ZM34.6999 187.096L36.6986 187.166C37.9126 152.41 67.0714 125.218 101.828 126.432L101.897 124.433L101.967 122.434C65.0032 121.144 33.9921 150.062 32.7011 187.026L34.6999 187.096ZM101.897 124.433L101.828 126.432L525.913 141.241L525.983 139.243L526.052 137.244L101.967 122.434L101.897 124.433ZM525.983 139.243L527.432 140.621L615.713 47.8528L614.264 46.4741L612.815 45.0953L524.534 137.864L525.983 139.243Z" fill="white" fill-opacity="0.1" mask="url(#path-4-inside-1_46_416)"/>
<path d="M214.044 61.2685L200.716 86.3827C199.531 88.6173 200.885 91.3566 203.38 91.7711L224.724 95.3165C227.987 95.8585 228.956 100.082 226.255 101.992L145.377 159.208C142.292 161.39 138.303 158.092 139.868 154.652L155.262 120.792C156.276 118.563 154.884 115.981 152.465 115.602L111.698 109.21C109.198 108.818 107.819 106.089 108.986 103.844L138.484 47.0902C139.217 45.6799 140.769 44.8947 142.339 45.1391L211.342 55.874C213.858 56.2654 215.237 59.0197 214.044 61.2685Z" fill="#7AD371"/>
<path d="M137.598 46.6293C138.529 44.8382 140.498 43.8409 142.493 44.1511L211.496 54.8862C214.691 55.3833 216.443 58.8816 214.927 61.7376L201.6 86.8513C200.735 88.4823 201.723 90.4821 203.544 90.7848L224.887 94.3297C229.032 95.0181 230.263 100.382 226.833 102.808L145.954 160.024C142.036 162.795 136.971 158.607 138.957 154.238L154.351 120.379C155.091 118.752 154.076 116.867 152.31 116.59L111.543 110.198C108.368 109.7 106.617 106.235 108.099 103.383L137.598 46.6293Z" stroke="white" stroke-opacity="0.1" stroke-width="2"/>
<path d="M612.348 550.723C609.385 550.542 605.572 550.091 602.622 549.701C601.71 549.58 602.191 549.402 601.563 549.31C600.33 549.13 599.148 549.148 597.938 548.961C597.536 548.898 598.063 548.593 597.642 548.535C595.297 548.218 593.084 548.162 590.714 547.951C579.038 546.907 567.507 546.495 555.607 546.219C551.684 546.127 546.911 545.786 542.851 545.897C542.376 545.91 542.657 546.211 542.567 546.236C541.144 546.605 541.623 546.003 540.701 545.917C537.03 545.576 532.963 545.52 529.43 545.601C527.927 545.636 529.43 546.247 527.915 545.897C527.809 545.874 528.196 545.559 527.782 545.521C526.844 545.434 525.086 545.471 524.354 545.436C522.944 545.367 522.736 545.367 521.411 545.344C519.585 545.309 517.473 545.115 515.519 545.149C515.109 545.157 515.646 545.494 514.99 545.537C514.335 545.579 512.585 545.514 511.989 545.423C511.405 545.333 511.661 545.082 511.559 545.021C510.726 544.505 508.685 545.142 508.42 545.151C505.221 545.264 502.341 545.059 499.404 544.862L499.11 541.352C500.472 541.12 501.853 540.889 503.282 540.617C506.62 539.978 510.189 539.226 513.342 538.733C517.151 538.139 520.364 537.84 524.073 537.293C524.46 537.237 523.954 536.919 524.426 536.849C529.465 536.11 534.52 535.53 539.586 535.224C540.094 535.194 539.48 535.601 539.99 535.591C543.123 535.517 548.071 535.681 549.774 534.044C551.878 533.896 554.434 533.718 556.337 533.846C557.566 533.928 556.421 534.398 557.896 534.111C558.229 534.047 557.764 533.764 558.266 533.693C560.379 533.391 562.689 533.304 564.783 532.97C565.208 532.902 565.068 532.624 565.185 532.563C566.171 532.063 567.915 532.626 568.286 532.649C571.11 532.813 573.175 532.516 575.776 532.348C576.38 532.309 575.64 531.971 576.22 531.92C579.276 531.657 582.37 531.495 585.382 531.488C586.046 531.488 585.457 531.853 585.775 531.87C587.175 531.941 587.447 531.302 588.779 531.361C589.06 531.373 588.918 531.664 588.971 531.692C589.796 532.133 590.471 531.405 590.676 531.379C593.304 531.028 594.948 531.664 597.51 531.435C597.813 531.408 597.111 531.084 597.963 531.028C603.583 530.656 609.622 530.503 615.224 530.592C616.1 530.606 615.485 530.896 615.541 530.927C616.455 531.412 617.002 530.701 617.283 530.665C619.461 530.404 621.671 530.917 623.118 530.05C632.642 530.058 642.09 529.412 651.484 530.086C651.613 530.094 651.385 530.436 651.641 530.45C654.496 530.625 653.994 530.098 655.889 529.446C656.328 529.298 657.556 529.927 657.833 530.091L657.741 531.873C657.743 531.856 657.737 531.844 657.733 531.838C657.376 531.591 657.854 531.128 657.718 531.073C656.473 530.63 656.393 532.308 654.743 532.154C654.686 532.146 654.955 531.861 654.804 531.816C654.569 531.745 654.316 531.728 654.05 531.709C653.809 531.692 653.64 531.681 653.432 531.609C652.54 531.28 652.039 530.415 650.537 530.758C650.335 530.801 650.585 531.779 649.023 531.595C648.306 531.513 645.686 531.302 644.875 531.171C644.086 531.042 644.658 530.783 644.602 530.765C642.425 530.173 643.34 530.082 642.359 529.397C641.397 528.716 641.555 530.161 641.123 530.285C640.695 530.408 639.156 529.946 638.761 529.797C638.374 529.648 638.885 529.495 638.537 529.4C636.454 528.799 637.55 530.03 636.827 530.199C635.129 530.599 633.732 529.427 632.224 529.205C631.816 529.145 632.132 529.411 631.764 529.405C630.297 529.377 629.424 528.978 627.645 529.146C627.33 529.172 625.93 529.704 625.098 529.173C624.979 529.097 625.352 528.86 624.728 528.755C623.799 528.596 622.072 528.411 621.006 528.422C620.22 528.43 621.086 528.929 620.108 528.723C619.699 528.633 620.479 528.434 619.716 528.287C618.96 528.14 616.962 528.008 616.183 527.962C615.409 527.917 615.809 528.275 615.745 528.293C615.36 528.393 613.845 528.447 613.709 528.437C607.207 528.027 601.103 527.075 594.695 526.872C594.196 526.856 594.507 527.223 594.431 527.224C592.711 527.267 594.117 526.425 592.936 526.045C593.067 526.759 592.368 526.589 591.14 526.595C590.547 526.598 590.853 526.889 590.797 526.914C589.897 527.277 589.313 526.706 589.16 526.588C588.588 526.151 587.958 526.592 587.587 526.301C587.218 526.012 588.126 525.667 586.979 525.606C586.642 525.84 587.458 526.547 586.579 526.605C583.26 526.819 577.02 525.968 574.364 525.782C571.692 525.593 570.759 525.595 569.248 525.431C566.466 525.133 567.465 525.67 565.711 525.813C563.946 525.955 564.853 524.792 564.613 524.522C564.376 524.252 564.093 524.505 563.789 524.349C563.487 524.193 564.164 524.048 563.439 523.961C562.72 523.875 560.683 524.246 560.433 524.506C559.873 525.056 560.729 525.695 558.845 525.402C558.736 525.385 559.104 525.084 558.688 525.034C555.4 524.649 551.822 524.49 548.552 524.151C548.097 524.104 548.518 523.768 548.253 523.736C545.487 523.408 546.456 524.039 544.906 524.643C545.28 523.778 544.457 523.21 542.329 523.132C541.051 523.085 541.246 523.476 540.425 523.719C540.179 523.792 539.295 523.5 539.127 523.675C538.573 524.247 539.396 524.933 537.234 524.602C537.14 524.586 537.453 524.273 537.124 524.243C534.997 524.049 534.723 524.658 532.404 524.666C530.564 524.671 527.404 524.21 525.338 524.099C525.406 523.113 523.452 523.292 522.644 523.955C521.303 523.897 519.849 523.904 518.569 523.784C518.127 523.742 518.424 523.463 518.369 523.431C517.521 522.929 516.928 523.58 516.64 523.6C513.518 523.793 510.95 523.249 507.971 523.699C507.865 523.715 507.685 524.399 506.896 523.888C506.844 523.853 507.832 523.553 506.431 523.511C505.03 523.469 502.386 523.072 500.428 523.374C499.955 523.446 498.753 523.993 497.803 523.552C497.676 523.492 497.816 523.296 497.633 523.186C497.041 522.833 496.712 523.524 496.016 522.932C495.32 522.339 493.866 521.89 491.896 522.292C491.833 522.304 491.366 522.852 490.747 522.842C489.759 522.826 488.353 522.711 487.324 522.716C486.831 522.718 487.147 523.059 487.061 523.065C483.745 523.261 481.382 522.967 477.825 522.864C477.173 522.844 475.303 523.327 474.038 522.974C472.647 522.589 474.051 520.894 470.868 521.336C469.581 521.514 467.998 523.663 465.666 522.606C461.178 522.963 457.059 522.501 452.556 523.03C452.354 523.053 451.734 523.666 451.259 523.674C450.555 523.683 450.159 523.419 449.656 523.418C447.545 523.407 445.648 523.715 443.598 523.761C442.824 523.779 443.083 523.482 442.16 523.504C441.238 523.528 440.641 523.931 439.388 523.805C438.443 523.709 437.468 522.982 436.22 522.953C436.206 523.716 435.368 523.74 433.838 524.02C433.545 524.075 433.875 524.323 433.737 524.362C433.177 524.528 432.642 524.336 432.113 524.514C431.984 524.556 431.992 524.816 431.888 524.866C431.002 525.297 429.48 524.798 429.218 524.711C428.216 524.382 427.779 524.746 427.02 524.64C426.263 524.533 427.37 524.275 426.491 524.236C424.686 524.155 422.311 524.351 420.465 524.468C419.726 524.516 420.254 524.827 420.149 524.842C418.63 525.036 417.068 524.782 416.282 525.534C415.091 523.834 415.407 525.772 413.176 525.591C413.001 525.576 412.712 524.752 413.367 524.575C414.026 524.398 415.042 524.583 415.933 524.322C416.144 524.26 417.32 523.378 417.486 523.318C418.783 522.848 419.062 524.094 419.137 524.158C419.984 524.848 421.444 523.892 421.843 523.807C423.664 523.414 425.235 523.492 426.739 523.208C427.728 523.023 427.777 522.192 428.563 522.171C431.182 522.104 432.157 523.207 434.584 522.081C435.106 521.841 434.534 520.963 436.454 521.581C436.575 521.619 438.006 522.202 438.798 521.754C438.898 521.698 438.882 521.435 439.016 521.406C439.91 521.222 440.521 521.405 441.501 521.263C442.481 521.12 443.661 520.922 444.792 520.967C445.479 520.993 446.354 521.451 446.682 521.559C447.605 521.871 448.562 521.27 449.142 521.669C449.726 522.071 448.635 522.748 450.137 522.969C450.17 522.283 450.273 521.577 450.34 520.886C453.622 520.801 456.87 520.93 460.152 520.822C460.559 520.808 460.133 520.45 460.571 520.426C462.415 520.324 464.035 520.553 465.952 520.413C467.437 520.303 469.05 519.887 470.6 519.767C471.557 520.536 473.853 520.24 475.526 520.295C476.112 520.314 476.075 520.523 476.492 520.587C478.066 520.825 477.323 520.14 477.753 520.028C479.597 519.548 479.766 521.113 481.941 521.062C482.056 521.06 483.462 520.219 483.656 520.166C484.889 519.823 483.862 520.456 484.634 520.515C486.044 520.624 487.022 520.821 488.676 520.577C489.159 520.504 490.318 519.985 491.254 520.389C491.378 520.442 491.309 520.718 491.408 520.734C493.203 521.008 493.252 520.142 494.28 519.852C495.307 519.562 496.887 520.17 497.208 520.345C498.047 520.796 496.562 520.531 496.515 520.575C495.977 521.093 497.131 521.01 498.012 521.06C498.134 521.911 499.365 521.869 498.924 521.109C498.874 521.025 498.188 521.1 498.012 521.06C498.788 520.231 500.153 520.134 501.647 520.928C502.345 521.3 501.678 521.718 503.81 521.585C504.778 521.525 504.411 520.936 505.266 520.786C507.221 520.445 509.729 521.025 511.754 520.972C512.486 520.953 511.779 520.621 512.279 520.597C513.607 520.531 514.77 520.792 516.1 520.694C516.22 520.685 515.933 520.344 516.345 520.347C519.464 520.368 522.203 520.642 525.475 520.728C527.06 520.769 529.86 520.657 531.507 520.741C534.364 520.883 537.834 521.478 540.239 521.439C541.808 521.415 541.489 521.069 542.175 520.864C543.509 520.465 545.798 521.341 546.104 521.475C546.114 521.48 544.75 521.51 545.47 521.708C545.879 522.082 546.088 521.476 546.104 521.475C546.307 521.562 549.011 521.738 549.546 521.695C549.838 521.671 549.687 521.347 549.839 521.34C553.474 521.194 557.168 521.265 560.786 521.572C560.85 521.582 560.738 521.933 560.888 521.95C563.039 522.203 564.432 521.831 566.2 521.654C567.967 521.478 569.342 521.631 570.337 522.291C571.678 522.279 573.593 522.644 574.677 522.863C575.764 523.083 575.95 522.399 576.047 522.391C579.045 522.107 580.771 522.595 583.905 522.829C585.408 522.942 588.248 523.002 589.913 523.024C591.203 523.038 591.963 523.245 593.137 523.211C593.296 523.206 593.154 522.889 593.203 522.88C594.526 522.59 593.855 523.305 594.115 523.455C595.054 524.002 595.636 524.298 597.283 524.168C597.682 524.14 598.893 523.128 599.606 523.109C600.533 523.087 600.162 523.453 601.126 523.419C601.208 523.417 601.207 523.176 601.795 523.224C604.48 523.441 607.514 523.78 610.346 523.947C610.731 523.971 610.264 523.558 610.82 523.586C613.339 523.711 616.415 523.94 618.883 524.296C619.498 524.385 619.091 524.623 619.22 524.711C619.986 525.246 621.261 524.641 621.467 524.643C626.233 524.657 629.765 525.556 634.553 525.635C634.83 525.639 636.915 525.058 637.716 525.764C637.794 525.813 638.5 526.527 639.409 526.153C639.461 526.129 638.915 525.746 639.915 525.863C640.913 525.979 642.479 525.884 643.678 526.357C644.114 526.51 645.123 527.251 646.391 526.838C646.491 526.81 648.393 525.794 649.117 526.673C649.21 526.815 649.062 527.664 650.551 527.354C650.829 527.293 650.36 527.059 651.074 527.003C651.538 526.951 652.405 527.041 653.077 527.089C653.793 527.14 654.377 527.156 655.238 527.044C655.556 527.005 656.457 526.504 657.403 527.039C657.51 527.119 657.284 527.385 657.638 527.451C657.675 527.458 657.701 527.464 657.743 527.472C657.837 527.484 657.915 527.494 657.978 527.503C658.104 527.521 658.169 527.533 658.171 527.537L657.813 534.448C656.039 534.353 653.828 534.504 651.989 534.335C651.204 534.27 651.54 533.804 650.807 533.685C650.095 533.566 648.336 533.462 647.605 533.682C646.791 533.903 647.705 534.631 646.456 534.704C641.034 535.024 635.7 534.688 630.325 534.753C629.512 534.764 630.197 535.011 628.988 535.046C624.694 535.169 617.223 535.65 613.39 535.233C610.401 534.894 614.133 534.412 611.849 534.315C610.744 534.269 609.567 535.175 609.297 535.213C606.634 535.594 604.882 535.288 602.483 535.513C601.991 535.559 602.491 535.885 602.071 535.921C600.665 536.045 599.188 535.959 597.828 536.054C597.218 536.098 597.344 536.358 596.78 536.365C595.411 536.387 594.269 536.334 592.947 536.155C592.827 536.138 593.61 535.766 592.621 535.806C591.02 535.872 589.001 535.737 587.192 536.096C586.651 536.204 586.667 536.812 585.466 536.462C585.214 536.39 585.487 535.642 584.15 536.354C583.916 536.473 581.689 537.462 580.529 536.988C580.224 536.863 579.427 536.316 578.774 536.453C578.686 536.474 579.065 536.776 578.522 536.843C576.594 537.077 574.611 537.178 572.644 537.422C572.12 537.487 572.928 537.768 572.146 537.855C569.984 538.096 567.317 538.212 565.197 538.276C564.417 538.298 564.932 537.976 564.873 537.951C563.923 537.53 563.439 538.24 563.143 538.303C561.294 538.689 559.843 538.497 558.124 538.731C557.649 538.795 558.015 539.082 557.923 539.119C556.964 539.482 557.646 538.848 557.018 538.84C555.262 538.817 553.322 539.021 551.566 539.23C550.921 539.308 551.683 539.606 551.104 539.671C547.674 540.066 544.117 540.397 540.745 540.567C540.111 540.598 540.475 540.271 540.337 540.221C539.382 539.87 538.129 540.638 537.833 540.732C536.482 541.16 535.906 540.974 534.689 541.168C528.757 542.112 521.373 542.958 515.764 543.75C510.021 544.558 505.182 545.233 500.107 546.226L499.577 539.891C500.982 539.95 502.399 539.997 503.854 540.027C504.309 540.037 503.863 539.645 504.254 539.648C509.243 539.708 514.179 539.969 519.191 539.943C519.6 539.941 519.018 539.573 519.672 539.558C521.037 539.526 522.745 539.571 524.112 539.703C524.784 539.767 523.878 540.063 524.554 540.121C526.126 540.257 527.792 540.301 529.41 540.259C530.094 540.241 529.066 539.864 529.954 539.868C536.005 539.89 541.988 539.854 548.123 540.372C548.541 540.407 548.908 541.156 549.806 541.019C549.875 540.813 549.873 540.569 549.904 540.348C558.76 540.295 567.546 540.665 576.456 541.008C576.83 541.022 576.196 540.605 576.922 540.631C581.133 540.783 585.239 540.855 589.518 541.486C589.942 541.548 589.698 542.23 590.948 542.197C591.168 542.189 593.066 542.21 593.572 542.092C593.641 542.073 593.312 541.727 593.929 541.757C597.462 541.931 601.203 542.278 604.709 542.767C605.281 542.847 604.64 543.14 605.048 543.2C607.905 543.621 611.048 543.643 613.794 544.228C615.593 544.618 614.861 545.146 615.774 545.829C615.902 545.925 617.042 546.056 617.067 546.402C617.13 547.274 616.48 548.154 616.613 549.089C616.639 549.29 618.193 549.238 617.236 549.618C617.169 549.643 616.047 549.686 615.761 549.82C615.561 549.912 615.865 550.293 615.467 550.397C615.069 550.5 614.678 550.167 614.031 550.272C613.38 550.379 613.636 550.801 612.348 550.723ZM579.528 523.848C580.527 524.234 580.748 523.027 579.625 523.259C579.572 523.272 579.477 523.829 579.528 523.848ZM456.872 521.854C458.208 522.355 459.095 521.544 458.15 521.153C457.205 520.763 456.465 521.702 456.872 521.854ZM443.134 522.711C444.705 523.07 444.883 521.336 443.229 521.752C443.133 521.776 443.042 522.69 443.134 522.711ZM611.236 545.554C611.248 545.571 612.064 545.664 612.086 545.65C612.558 545.307 610.925 545.121 611.236 545.554ZM429.521 523.804C430.016 524.009 431.394 523.663 430.777 523.406C430.279 523.199 428.903 523.548 429.521 523.804ZM632.229 528.609C632.244 528.629 632.805 528.689 632.801 528.586C632.79 528.254 631.998 528.285 632.229 528.609ZM406.407 525.52C409.806 525.278 412.001 526.528 408.28 526.687C407.607 526.717 409.685 526.108 408.82 526.054C407.237 525.958 406.286 526.943 404.664 526.614C404.369 526.553 406.211 525.53 406.413 525.517C406.411 525.518 406.409 525.519 406.407 525.52ZM580.036 525.34C580.056 525.357 580.881 525.416 580.901 525.401C581.368 525.039 579.708 524.919 580.036 525.34ZM649.333 530.435C649.318 530.418 648.784 530.407 648.307 530.403C647.851 530.399 647.371 530.404 647.341 530.42C646.856 530.741 647.57 530.908 648.254 530.914C648.978 530.92 649.775 530.764 649.333 530.435ZM525.306 524.072C524.41 524.439 523.347 524.46 522.648 523.956C523.532 524.002 524.421 524.027 525.306 524.072Z" fill="#7AD371"/>
</svg>
