<svg width="293" height="300" viewBox="0 0 293 300" fill="none" xmlns="http://www.w3.org/2000/svg">
<path d="M78.1846 11.9837C77.4391 9.43375 76.6486 7.48046 75.3597 5.15483C74.3794 3.18984 73.5066 1.9528 75.9957 0.794167C77.3757 0.103837 79.9968 -0.807262 80.602 1.34882C82.3454 7.5597 84.7935 13.4513 86.9578 19.5021C90.8683 17.6341 95.8179 16.8861 100.007 18.3508C117.988 24.6373 116.589 45.5973 129.413 56.5537C131.621 58.4397 139.035 65.4354 141.003 66.5075C146.838 71.9688 151.845 76.3845 156.438 83.0081C162.457 91.6851 166.797 101.1 166.774 111.896C166.772 113.072 166.839 113.838 166.634 115.066C173.195 118.991 175.668 124.33 181.003 127.162C192.142 143.238 213.086 151.195 231.956 152.493C240.292 152.064 248.046 152.422 256.277 150.16C257.563 149.807 259.921 148.897 261.048 149.259C270.855 158.585 277.177 173.14 277.771 186.656C277.813 187.603 277.681 187.863 277.493 188.724L277.442 188.935L277.695 189.405C279.93 189.84 291.218 187.582 291.761 190.116C294.989 205.106 291.147 217.504 282.259 229.504C259.632 260.048 218.618 263.195 183.748 263.149C183.786 266.212 183.525 268.908 183.345 271.948C183.159 275.111 183.458 278.45 183.276 281.628C183.134 284.126 182.837 286.014 182.937 288.537C182.851 291.983 183.232 295.838 182.885 299.099C178.929 299.097 174.014 298.859 170.144 299.145C154.943 300.268 139.782 299.959 124.554 299.967C119.358 299.969 114.193 299.532 108.939 299.503C108.555 295.844 108.981 292.947 108.912 289.47C108.751 281.304 108.666 273.033 108.827 264.867C108.827 263.952 108.929 263.333 108.478 262.553C105.784 262.045 100.613 262.35 97.7275 262.264C95.5355 262.306 93.1697 261.853 91.0084 261.896C82.1806 262.072 74.5095 261.945 65.7449 260.59C54.0431 258.777 43.6449 256.235 33.0359 250.772C29.3622 248.88 25.5008 247.498 22.0876 245.008C18.6391 242.65 16.6327 241.189 13.6657 238.071C11.5891 235.889 9.46434 234.085 7.7473 231.438C2.75589 223.797 0.865944 215.363 0.450533 206.375C0.246486 201.962 0.994101 195.038 0 190.936C0.861972 188.191 0.766011 188.032 3.8288 187.764C7.02958 187.482 10.536 187.919 13.6918 187.683C18.904 187.292 23.7131 187.187 28.932 187.442C22.041 171.873 22.9609 153.775 31.0845 138.838C37.885 126.334 53.6386 115.517 67.3864 112.385C66.5161 103.841 68.6304 95.8902 70.9455 87.7938C70.0608 88.1621 67.0402 92.5044 66.1289 93.5455C60.171 100.378 52.6702 105.842 43.9648 108.565C42.1614 109.129 39.6229 110.353 38.601 108.226C37.3836 105.693 37.2015 102.793 36.8785 100.061C35.2307 86.13 37.3891 72.3673 40.8305 58.8716C43.4162 49.1926 50.4936 36.3297 56.5964 28.4948C60.5904 23.7662 65.5044 19.5481 70.3865 15.7605C72.5064 14.1162 75.8203 13.3899 78.1846 11.9837Z" fill="#014230"/>
<path d="M78.1883 11.9837C77.4428 9.43375 76.6523 7.48046 75.3634 5.15483C74.3831 3.18984 73.5103 1.9528 75.9994 0.794167C77.3795 0.103837 80.0005 -0.807262 80.6057 1.34882C82.3491 7.5597 84.7973 13.4513 86.9615 19.5021C90.872 17.6341 95.8216 16.8861 100.011 18.3508C117.992 24.6373 116.593 45.5973 129.417 56.5537C131.625 58.4397 139.039 65.4354 141.007 66.5075C146.842 71.9689 151.849 76.3845 156.442 83.0081C162.461 91.6851 166.801 101.1 166.778 111.896C166.776 113.072 166.843 113.838 166.638 115.066C161.029 112.413 156.195 112.418 150.289 114.396C139.174 118.118 133.317 125.02 128.329 135.358C127.927 136.192 127.532 137.396 127.174 138.116C123.168 130.634 115.53 124.201 108.392 119.759C94.8305 111.32 82.8772 108.826 67.3901 112.385C66.5198 103.841 68.6341 95.8902 70.9493 87.7938C70.0645 88.1621 67.0439 92.5044 66.1326 93.5455C60.1747 100.378 52.6739 105.842 43.9685 108.565C42.1651 109.129 39.6266 110.353 38.6047 108.226C37.3873 105.693 37.2052 102.793 36.8822 100.061C35.2344 86.13 37.3928 72.3673 40.8342 58.8716C43.4199 49.1926 50.4973 36.3297 56.6001 28.4948C60.5941 23.7662 65.5082 19.5481 70.3902 15.7605C72.5101 14.1162 75.824 13.3899 78.1883 11.9837Z" fill="#0A7CC9"/>
<path d="M78.1883 11.9837C77.4428 9.43375 76.6523 7.48046 75.3634 5.15483C74.3831 3.18984 73.5103 1.9528 75.9994 0.794167C77.3795 0.103837 80.0005 -0.807262 80.6057 1.34882C82.3491 7.5597 84.7973 13.4513 86.9615 19.5021L83.0917 21.609C83.6696 24.8366 84.3384 28.1228 84.6179 31.3742C85.934 46.6748 84.3317 61.8593 77.438 75.7402C75.7839 79.0708 73.8772 82.2845 72.0318 85.515C71.5917 86.3061 71.3549 87.0867 70.9493 87.7938C70.0645 88.1621 67.0439 92.5044 66.1326 93.5455C60.1747 100.378 52.6739 105.842 43.9685 108.565C42.1651 109.129 39.6266 110.353 38.6047 108.226C37.3873 105.693 37.2052 102.793 36.8822 100.061C35.2344 86.13 37.3928 72.3673 40.8342 58.8716C43.4199 49.1926 50.4973 36.3297 56.6001 28.4948C60.5941 23.7662 65.5082 19.5481 70.3902 15.7605C72.5101 14.1162 75.824 13.3899 78.1883 11.9837Z" fill="#014230"/>
<path opacity="0.2" d="M132.756 74.6841C134.545 75.0974 139.964 83.6126 141.55 85.6781C139.438 88.2057 133.034 92.1825 130.152 94.5508C128.66 95.7772 124.886 98.9794 123.436 99.7521C121.424 98.0759 115.719 90.3079 114.482 87.8242C115.482 86.841 117.814 85.1925 119.03 84.3397C123.661 81.0936 128.349 78.2925 132.756 74.6841Z" fill="#EAE1CC"/>
<path d="M127.171 138.116C127.529 137.397 127.924 136.192 128.326 135.358C133.314 125.02 139.17 118.118 150.286 114.396C156.192 112.418 161.026 112.413 166.635 115.066C173.195 118.991 175.669 124.331 181.004 127.162C192.143 143.238 213.087 151.195 231.957 152.493C233.673 162.75 230.857 179.818 226.62 189.324C198.605 189.293 170.592 189.073 142.581 188.668C141.366 187.213 138.533 183.081 137.286 181.373C132.804 175.225 129.382 172.095 123.373 167.765C122.706 160.864 123.655 153.146 124.97 146.326C125.475 143.704 126.815 140.715 127.171 138.116Z" fill="#FC9DD5"/>
<path d="M67.382 112.385C82.869 108.826 94.8223 111.321 108.384 119.76C115.522 124.201 123.159 130.635 127.166 138.116C126.81 140.715 125.47 143.704 124.965 146.326C123.65 153.146 122.701 160.864 123.368 167.766C114.266 161.222 103.405 157.442 92.4678 155.247C88.7393 154.498 85.1169 154.513 81.3623 154.25C80.2929 152.663 79.2286 151.431 77.1762 151.091C75.9101 150.88 74.6131 151.204 73.5951 151.986C72.5923 152.757 71.946 153.903 71.8051 155.161C71.6791 156.298 72.0148 157.44 72.7371 158.329C73.9035 159.771 75.0893 160.028 76.7733 160.359C77.1386 162.545 77.5556 165.629 78.0957 167.69C79.8775 174.493 83.6706 181.717 87.3884 187.689C80.8553 187.853 74.3329 187.664 67.7543 187.974C61.6542 188.26 54.8001 187.558 48.6803 187.625C45.9757 187.656 30.2777 188.415 28.9275 187.443C22.0366 171.874 22.9564 153.775 31.08 138.838C37.8805 126.334 53.6341 115.518 67.382 112.385Z" fill="#FE6224"/>
<path d="M76.7794 160.358C75.0953 160.028 73.9095 159.771 72.7432 158.328C72.0209 157.44 71.6851 156.298 71.8112 155.161C71.9521 153.902 72.5983 152.757 73.6012 151.985C74.6191 151.203 75.9161 150.879 77.1822 151.09C79.2346 151.431 80.299 152.663 81.3683 154.249C85.1229 154.513 88.7454 154.498 92.4738 155.247C103.411 157.442 114.272 161.222 123.374 167.765C129.383 172.095 132.805 175.225 137.287 181.373C138.534 183.081 141.367 187.213 142.582 188.668C146.837 195.774 150.454 202.934 152.054 211.132C152.095 211.888 153.218 214.73 152.344 215.056C141.784 219.005 130.716 215.472 120.77 212.003C105.849 206.798 96.7575 200.223 87.3944 187.689C83.6766 181.716 79.8835 174.493 78.1017 167.69C77.5617 165.629 77.1446 162.545 76.7794 160.358Z" fill="#D6DF0D"/>
<path d="M108.477 262.553C112.187 261.813 117.948 262.131 121.793 262.317C141.277 263.262 160.635 263.717 180.147 263.216C181.28 263.186 182.624 263.099 183.747 263.149C183.784 266.212 183.523 268.909 183.343 271.948C183.157 275.111 183.456 278.45 183.274 281.628C183.132 284.126 182.835 286.014 182.935 288.538C182.85 291.983 183.23 295.838 182.883 299.1C178.928 299.097 174.013 298.859 170.143 299.146C154.942 300.268 139.781 299.959 124.552 299.967C119.357 299.969 114.192 299.532 108.937 299.503C108.553 295.844 108.979 292.947 108.91 289.47C108.749 281.304 108.664 273.033 108.825 264.867C108.825 263.952 108.928 263.333 108.477 262.553Z" fill="#014230"/>
<path opacity="0.5" d="M108.477 262.553C112.187 261.813 117.948 262.131 121.793 262.317C141.277 263.262 160.635 263.717 180.147 263.216C181.28 263.186 182.624 263.099 183.747 263.149C183.784 266.212 183.523 268.909 183.343 271.948C183.157 275.111 183.456 278.45 183.274 281.628C183.132 284.126 182.835 286.014 182.935 288.538C178.34 287.603 171.42 284.645 166.428 283.129C156.915 280.196 147.361 277.388 137.774 274.706C130.424 272.603 123.222 270.612 116.064 267.901C113.671 266.994 110.983 266.205 108.825 264.867C108.825 263.952 108.928 263.333 108.477 262.553Z" fill="black"/>
<path d="M231.959 152.493C240.294 152.065 248.048 152.422 256.279 150.16C257.565 149.807 259.923 148.898 261.05 149.259C270.857 158.586 277.179 173.141 277.773 186.657C277.815 187.604 277.683 187.863 277.495 188.724L277.445 188.935L277.284 189.41C275.891 189.868 268.948 189.527 266.904 189.569C253.523 189.845 239.98 189.019 226.621 189.324C230.859 179.818 233.675 162.75 231.959 152.493Z" fill="#0A7CC9"/>
<path d="M141.001 66.508C140.502 62.1634 139.445 58.2186 138.784 53.98C137.24 44.0769 134.571 34.3842 133.929 24.3728C133.776 21.9857 132.04 16.2276 133.265 14.4646L133.636 14.3423C134.063 14.6657 134.711 16.5487 135.006 17.2077C143.865 37.0078 150.917 58.0578 160.517 77.5372C161.165 74.3883 162.147 71.7377 163.021 68.6697C164.424 63.7496 165.917 59.0645 167.541 54.2136C170.462 45.4922 172.168 36.5936 175.921 28.1019C177.05 25.5477 177.499 22.0156 178.586 19.3809C178.904 18.4711 179.477 17.3697 180.533 17.4201C182.468 19.4173 179.462 34.9537 179.19 38.6207L176.828 68.3087C176.452 72.9926 176.368 79.29 175.475 83.7211C179.41 79.4633 183.022 74.1355 186.725 69.5971C194.856 59.634 202.957 49.6461 210.958 39.5835C211.844 38.4685 215.16 34.9824 216.655 35.9089C217.508 38.1185 213.224 45.1732 212.271 47.8377C208.633 57.9934 204.711 68.0467 200.58 78.0132C198.564 82.8497 197.021 88.0889 194.889 92.857C198.698 91.036 202.422 89.1242 206.162 87.1332C219.692 79.9314 234.091 74.6172 248.1 68.4632C249.536 67.8318 251.453 67.0926 253.017 67.0472C253.774 67.4091 253.502 67.1465 253.918 67.7967C253.718 68.8033 252.681 69.8407 251.901 70.4775C246.982 74.4974 241.935 78.3659 236.932 82.2817C228.473 88.9015 221.066 96.668 212.524 103.201C210.625 104.654 208.79 106.28 206.801 107.606C206.486 107.818 206.164 108.02 205.838 108.212C209.574 107.448 213.443 106.819 217.2 106.266C229.771 104.416 242.698 102.135 255.407 102.1C257.497 102.094 266.218 100.123 266.613 102.544C265.145 104.219 261.593 105.247 259.607 106.345C252.781 110.119 245.631 112.891 238.512 116.034C240.917 116.983 243.852 117.215 246.338 118.062C252.846 120.265 259.264 123.113 264.959 126.988C268.854 129.639 271.827 133.437 275.358 136.41C278.458 139.021 279.2 139.601 275.283 142.39C271.059 145.408 266.322 147.637 261.3 148.96L261.045 149.259C259.918 148.898 257.56 149.807 256.274 150.16C248.044 152.423 240.289 152.065 231.954 152.494C213.084 151.195 192.14 143.238 181.001 127.162C175.666 124.331 173.192 118.992 166.632 115.066C166.837 113.838 166.77 113.073 166.772 111.896C166.795 101.101 162.455 91.6856 156.436 83.0086C151.843 76.385 146.836 71.9694 141.001 66.508Z" fill="#D6DF0D"/>
<path d="M181.006 127.162C181.023 120.614 181.305 111.151 182.72 104.583C182.973 103.409 186.258 102.965 187.407 103.561C187.815 104.136 187.742 104.874 187.602 105.538C186.132 112.508 183.977 118.74 183.899 125.968C189.5 123.787 194.146 121.404 200.1 119.21C201.206 120.714 202.485 121.984 204.406 122.309C205.65 122.515 206.924 122.206 207.933 121.453C209.677 120.174 210.279 118.334 210.639 116.321C216.664 115.633 221.364 115.018 227.458 115.109C229.624 115.141 237.409 116.28 238.517 116.034C240.922 116.983 243.857 117.215 246.343 118.062C252.851 120.265 259.269 123.113 264.964 126.988C268.859 129.638 271.832 133.437 275.363 136.41C278.463 139.02 279.205 139.601 275.288 142.39C271.064 145.408 266.327 147.637 261.305 148.96L261.05 149.259C259.923 148.898 257.565 149.807 256.279 150.16C248.049 152.423 240.294 152.065 231.959 152.494C213.089 151.195 192.145 143.238 181.006 127.162Z" fill="#002118"/>
</svg>
