<svg width="260" height="184" viewBox="0 0 260 184" fill="none" xmlns="http://www.w3.org/2000/svg">
<path d="M169.475 112.287C189.094 110.985 211.753 110.627 231.391 112.249C266.564 113.361 308.585 125.911 338.884 144.86C407.161 187.556 416.486 294.224 375.56 358.367C351.282 396.426 303.82 416.447 260.641 423.545C246.84 425.814 231.056 426.142 217.546 428.81C211.305 433.651 208.447 442.685 199.705 443.207C191.219 443.714 187.186 430.143 179.843 428.529C170.378 427.013 160.057 426.528 150.51 425.411C69.4807 415.935 4.33064 370.772 0.313752 283.626C-1.61186 241.836 4.78558 200.603 34.6585 167.17C67.289 130.65 121.708 114.82 169.475 112.287Z" fill="#7AD371"/>
<path d="M190.691 0.01049L208.722 0C208.72 22.305 209.118 45.8912 208.657 68.0883C219.636 49.6937 232.592 27.789 242.915 8.95063L258.594 18.2236C248.877 35.0026 233.418 59.8603 224.983 76.6955C240.97 68.5411 267.598 52.8657 283.355 43.2688C286.63 48.6561 289.664 53.4347 292.276 59.1834C274.111 69.5659 251.3 83.7389 233.224 92.9737L301.646 92.9587L301.695 111.055C292.202 111.066 236.695 109.792 230.363 111.594L231.391 112.248C211.753 110.627 189.095 110.985 169.475 112.287L170.554 111.431C165.257 110.647 151.528 111.116 145.643 111.117C129.689 111.027 113.736 111.022 97.7822 111.102L97.7754 92.922C119.274 93.0929 144.398 93.6124 165.707 92.8313C146.35 81.7965 126.262 69.6626 106.853 59.0709C109.708 53.7263 112.682 48.4469 115.775 43.2365L174.837 77.2128L152.781 38.8973C149.572 33.3578 143.576 23.6619 140.995 18.1524L156.631 9.18528C167.975 28.8551 179.559 48.6381 190.661 68.4241L190.691 0.01049Z" fill="#0F3934"/>
</svg>
