<svg width="261" height="184" viewBox="0 0 261 184" fill="none" xmlns="http://www.w3.org/2000/svg">
<path d="M104.79 18.773C125.476 16.3288 118.906 25.9536 132.177 35.7048C134.659 37.5271 144.484 37.934 148.123 38.8264C155.319 40.592 159.359 52.4346 163.422 59.5833C169.704 63.3204 177.441 64.2722 182.66 68.8566C187.683 73.2746 186.857 83.593 190.71 89.1732C194.99 95.3745 205.321 96.6535 208.459 103.744C210.98 109.457 208.879 120.103 212.339 125.304C217.946 133.736 222.124 132.505 227.011 142.881C223.981 160.16 223.349 162.398 233.734 176.501C238.57 183.067 232.589 193.974 230.473 202.49C231.638 206.561 234.271 212.243 235.937 216.385C240.07 226.666 232.512 233.06 228.364 243.361C229.417 253.737 235.06 262.429 227.539 270.877C224.792 273.971 220.926 278.488 218.856 281.93L218.439 282.631C217.825 287.778 218.219 296.942 218.315 302.453C214.628 308.906 201.946 316.168 201.369 319.094C196.592 343.314 196.357 339.602 176.239 351.997C175.62 352.379 171.863 363.01 170.593 365.762C165.85 376.08 154.516 374.447 145.399 377.949C131.725 382.611 135.998 397.578 137.567 408.546C141.7 437.44 151.338 463.436 162.552 490.153L153.892 494.379L144.835 498.472C134.185 475.168 126.176 452.355 121.031 427.21C117.807 413.942 117.819 399.73 113.834 386.762C111.594 376.115 89.9286 379.273 85.7781 375.034C73.9681 362.966 79.2421 353.738 58.4507 349.576C50.9822 348.081 49.44 332.875 46.3341 325.243C39.962 320.06 34.7152 319.513 28.1368 312.131C25.4994 293.665 28.9824 289.888 12.9474 278.21C9.16644 275.454 11.8677 259.727 12.6137 254.44C11.072 249.976 6.53535 243.353 3.73218 239.139C-0.937544 232.103 4.38898 221.343 6.77351 212.446C5.14093 208.494 3.41289 204.237 1.61212 200.354C-3.58177 189.161 5.14064 182.374 8.52667 172.001L8.80518 171.131C6.66521 157.13 0.782052 150.682 12.8117 141.631C20.771 135.641 18.6986 121.51 18.9825 111.994C25.3676 103.514 33.8451 101.909 37.2777 93.2716C37.5778 92.517 38.7622 83.7825 38.917 82.5261C40.5646 69.1014 54.5589 71.4601 60.7341 63.2054C64.6717 57.9495 64.5286 49.8034 70.0133 44.4761C75.2012 39.4422 84.6873 41.344 89.5111 37.4488C96.7897 31.5631 96.265 25.0681 104.79 18.773Z" fill="#0F3934"/>
<path d="M257.195 4.74662C270.384 4.65939 265.577 10.2373 273.247 17.2814C274.682 18.5979 280.836 19.5399 283.064 20.354C287.469 21.9644 289.184 29.6751 291.241 34.4431C294.933 37.2263 299.736 38.3641 302.7 41.6045C305.552 44.7268 304.311 51.1412 306.346 54.9107C308.607 59.0996 315.018 60.624 316.498 65.2909C317.685 69.0505 315.619 75.5817 317.433 79.0857C320.372 84.7666 323.088 84.2865 325.439 91.1359C322.325 101.763 321.77 103.122 327.32 112.694C329.905 117.151 325.379 123.574 323.453 128.768C323.901 131.403 325.162 135.151 325.92 137.865C327.803 144.603 322.6 148.085 319.27 154.257C319.208 160.839 322.152 166.685 316.829 171.458C314.884 173.207 312.136 175.77 310.592 177.784L310.281 178.195C309.535 181.38 309.143 187.156 308.819 190.619C306.047 194.41 297.559 198.078 296.992 199.873C292.293 214.731 292.405 212.386 278.879 218.754C278.463 218.951 275.356 225.357 274.364 226.994C270.659 233.134 263.641 231.318 257.659 232.878C248.728 234.846 250.371 244.533 250.593 251.522C251.175 269.934 255.424 286.914 260.615 304.456L254.87 306.502L248.884 308.436C243.81 293.074 240.364 278.205 238.883 262.073C237.781 253.525 238.782 244.611 237.179 236.199C236.514 229.364 222.659 229.83 220.344 226.881C213.755 218.487 217.718 213.067 204.925 209.003C200.33 207.543 200.421 197.898 199 192.893C195.352 189.197 192.089 188.487 188.465 183.397C188.095 171.629 190.551 169.504 181.276 161.058C179.089 159.065 181.888 149.389 182.726 146.125C182.068 143.217 179.676 138.746 178.206 135.906C175.759 131.167 179.863 124.79 181.985 119.376C181.234 116.783 180.444 113.992 179.582 111.431C177.095 104.047 183.058 100.4 185.914 94.1299L186.15 93.6034C185.781 84.6717 182.529 80.216 190.732 75.3799C196.159 72.1789 195.842 63.1707 196.685 57.2211C201.296 52.3485 206.743 51.9344 209.506 46.7566C209.748 46.3043 211.103 40.9084 211.289 40.1311C213.263 31.8257 221.905 34.2834 226.368 29.5372C229.213 26.5157 229.692 21.3961 233.515 18.438C237.132 15.6431 242.968 17.4991 246.276 15.393C251.268 12.21 251.391 8.0993 257.195 4.74662Z" fill="#7AD371"/>
</svg>
