<svg width="260" height="184" viewBox="0 0 260 184" fill="none" xmlns="http://www.w3.org/2000/svg">
<path d="M280.15 82.4091C279.623 79.8691 276.651 72.9863 275.645 70.3782C274.38 67.0997 271.369 62.022 269.508 58.9186C256.143 36.5431 235.884 19.1029 211.771 9.21252C181.115 -3.37436 146.676 -3.05143 116.261 10.1081C89.9585 21.6802 68.5838 42.1652 55.907 67.9529C53.6841 72.3791 51.786 77.4366 49.9444 82.0775C51.8961 82.026 53.9687 82.0587 55.9311 82.0566L55.9875 82.1913C49.0585 82.3151 41.4851 81.5452 36.524 86.7329C33.8957 89.4742 32.4783 93.1564 32.591 96.9525C32.7199 101.348 36.2877 107.747 37.877 111.92C38.8569 114.487 39.5334 116.564 40.3281 119.196C52.731 119.251 66.2589 121.154 78.4014 121.001C80.2941 121.268 81.9666 121.278 83.7653 121.503C88.4339 122.903 92.6831 122.116 96.0257 122.836L95.971 123.484L94.7519 124.239L94.8584 124.526L95.9379 124.675C96.7801 125.976 96.909 125.822 97.0105 127.384L96.804 127.887C96.2762 128.042 95.4735 128.007 94.9503 127.862C93.3967 127.433 91.6683 128.759 90.1555 129.652L89.9603 129.509L89.9238 128.294L89.5021 127.901C89.0594 127.956 88.7748 127.964 88.3479 128.101C87.8325 129.057 87.352 130.105 86.5493 130.821C84.8606 131.762 85.8217 132.609 83.7465 133.117C82.423 132.413 83.1962 132.225 82.0391 131.065L81.521 131.245C81.3142 131.767 81.18 132.149 80.8981 132.639C80.0954 132.681 78.8471 132.709 78.0873 132.812C77.5236 132.832 76.941 132.759 76.3772 132.702C66.1918 131.669 55.9848 131.345 45.7644 130.785C46.8598 134.489 48.4276 137.944 50.2531 141.346C50.5887 141.973 50.9028 142.462 51.1283 143.145C41.316 141.527 31.4098 140.714 21.5169 139.569C16.1477 138.947 10.4563 137.95 5.09778 137.769C3.99707 137.732 2.92322 138.084 2.01581 138.722C0.952698 139.458 0.246674 140.604 0.066803 141.884C-0.62851 146.75 4.25211 147.522 7.89514 148.162C12.1422 148.908 16.451 149.491 20.7223 150.085C20.4323 148.851 19.6753 146.308 20.776 145.381L21.2082 145.772C21.7317 146.974 21.6726 148.747 21.7209 150.103C32.9749 151.526 44.1322 153.494 55.4398 154.553C56.5781 154.66 57.5258 154.909 58.5674 155.39C60.7688 158.161 63.0722 161.316 65.4964 163.898C80.7612 180.165 100.399 190.795 122.606 193.692C126.129 194.151 130.685 194.266 134.039 194.898C134.168 200.037 133.412 209.896 137.019 213.29C138.436 214.65 140.199 215.595 142.117 216.022C146.015 216.865 152.959 216.496 157.239 216.612C165.902 216.829 174.605 216.656 183.265 216.557C186.756 216.518 190.842 215.46 193.196 212.778C196.806 208.667 196.46 200.039 196.216 194.791C209.649 193.93 221.292 191.848 233.623 186.341C236.918 184.869 241.239 182.987 244.193 181.031L301.089 188.96C307.303 189.771 314.249 191.612 320.345 191.245C328.862 185.879 327.712 177.049 317.175 175.606C302.686 173.621 288.179 172.302 273.71 170.251C269.514 169.656 264.874 169.394 260.775 168.499C264.296 163.478 276.322 152.547 276.89 146.13C286.236 146.636 295.585 147.086 304.936 147.48C309.947 147.712 315.113 148.258 320.122 148.66C329.572 149.418 333.589 140.012 326.107 134.002C321.858 133.106 313.496 132.995 308.824 132.74C300.866 132.258 292.911 131.721 284.961 131.13C288.501 120.358 294.906 109.157 297.266 98.1667C297.889 95.2684 296.51 89.8986 294.482 87.5944C289.712 82.1734 285.91 83.0971 280.376 82.437L280.15 82.4091ZM135.118 136.662C135.951 136.761 136.785 136.884 137.623 136.876L144.097 137.255L147.467 137.34C152.102 137.497 157.044 137.584 161.644 137.934C163.961 138.292 170.618 139.165 172.832 139.105C174.042 139.006 178.206 139.223 179.412 139.494C181.608 139.633 194.435 140.502 195.672 140.286C202.461 140.794 210.692 141.469 217.426 141.519L218.978 141.671C223.973 142.218 229.621 142.994 234.584 143.307C248.786 144.203 262.731 144.486 276.89 146.13C276.322 152.547 264.296 163.478 260.775 168.499C264.874 169.394 269.514 169.656 273.71 170.251C288.179 172.302 302.686 173.621 317.175 175.606C327.712 177.049 328.862 185.879 320.345 191.245C314.249 191.612 307.303 189.771 301.089 188.96L244.193 181.031C241.239 182.987 236.918 184.869 233.623 186.341C221.292 191.848 209.649 193.93 196.216 194.791C196.46 200.039 196.806 208.667 193.196 212.778C190.842 215.46 186.756 216.518 183.265 216.557C174.605 216.656 165.902 216.829 157.239 216.612C152.959 216.496 146.015 216.865 142.117 216.022C140.199 215.595 138.436 214.65 137.019 213.29C133.412 209.896 134.168 200.037 134.039 194.898C130.685 194.266 126.129 194.151 122.606 193.692C100.399 190.795 80.7612 180.165 65.4964 163.898C63.0722 161.316 60.7688 158.161 58.5674 155.39C57.5258 154.909 56.5781 154.66 55.4398 154.553C44.1322 153.494 32.9749 151.526 21.7209 150.103C21.6726 148.747 21.7317 146.974 21.2082 145.772L20.776 145.381C19.6753 146.308 20.4323 148.851 20.7223 150.085C16.451 149.491 12.1422 148.908 7.89514 148.162C4.25211 147.522 -0.62851 146.75 0.066803 141.884C0.246674 140.604 0.952698 139.458 2.01581 138.722C2.92322 138.084 3.99707 137.732 5.09778 137.769C10.4563 137.95 16.1477 138.947 21.5169 139.569C31.4098 140.714 41.316 141.527 51.1283 143.145C50.9028 142.462 50.5887 141.973 50.2531 141.346C48.4276 137.944 46.8598 134.489 45.7644 130.785C55.9848 131.345 66.1918 131.669 76.3772 132.702C76.941 132.759 77.5236 132.832 78.0873 132.812C84.364 133.825 92.9854 133.562 99.462 133.959C107.703 134.465 115.837 135.004 124.058 135.842C127.706 136.214 131.389 136.226 135.118 136.662ZM122.517 104.983C122.637 106.054 122.807 106.083 122.434 106.943C121.727 107.211 121.58 107.194 120.87 107.108C120.842 107.105 120.813 107.101 120.782 107.097C120.567 105.611 121.207 105.588 122.517 104.983ZM199.259 110.742C199.501 111.704 199.566 111.399 199.246 112.111C198.433 112.338 198.052 112.222 197.239 112.089L196.708 111.392C197.245 110.676 198.367 110.733 199.259 110.742Z" fill="#7AD371"/>
<path d="M199.259 110.742C199.501 111.704 199.566 111.399 199.246 112.111C198.433 112.338 198.052 112.222 197.239 112.089L196.708 111.392C197.245 110.676 198.367 110.733 199.259 110.742Z" fill="#7AD371"/>
<path d="M122.517 104.983C122.637 106.054 122.807 106.083 122.434 106.943C121.727 107.211 121.58 107.194 120.87 107.108L120.782 107.097C120.567 105.611 121.207 105.588 122.517 104.983Z" fill="#7AD371"/>
<path d="M280.152 82.4091C279.625 79.8691 276.653 72.9863 275.646 70.3782C274.382 67.0997 271.371 62.022 269.51 58.9186C256.145 36.5431 235.886 19.1029 211.773 9.21252C181.117 -3.37436 146.678 -3.05143 116.263 10.1081C89.9604 21.6802 68.5857 42.1652 55.9089 67.9529C53.6861 72.379 51.788 77.4366 49.9464 82.0775C51.8981 82.026 53.9706 82.0587 55.9331 82.0566L55.9894 82.1913C64.6688 82.3438 73.6516 82.4456 82.3229 82.2891C86.0331 82.2222 98.4605 82.8416 101.196 82.1433C106.119 81.9301 111.507 82.0413 116.467 82.0542C120.287 82.5956 132.124 82.4198 136.284 82.0976C149.675 82.0692 163.065 82.125 176.454 82.2649C183.672 82.2799 192.652 82.0029 199.753 82.3248C207.408 82.4853 215.066 82.4697 222.72 82.2781L230.2 82.3116C232.577 82.4767 234.629 82.5202 237.016 82.5344C238.984 82.2617 242.534 82.187 244.478 82.3653C246.441 82.3739 248.404 82.3449 250.366 82.2789L255.83 82.3248C257.517 82.732 262.631 82.5943 264.404 82.3825C268.881 82.1454 275.661 82.2856 280.152 82.4091Z" fill="#0F3934"/>
<path d="M280.152 82.4091C279.625 79.8691 276.653 72.9863 275.646 70.3782C274.382 67.0997 271.371 62.022 269.51 58.9186C256.145 36.5431 235.886 19.1029 211.773 9.21252C181.117 -3.37436 146.678 -3.05143 116.263 10.1081C89.9604 21.6802 68.5857 42.1652 55.9089 67.9529C53.6861 72.379 51.788 77.4366 49.9464 82.0775C51.8981 82.026 53.9706 82.0587 55.9331 82.0566C57.6083 82.0517 64.148 82.2327 65.3561 82.1038C80.4034 48.473 106.685 24.1522 143.541 16.4978C164.404 12.1651 188.942 14.7716 208.45 23.5226C229.115 32.9293 246.338 48.5401 257.723 68.1857C259.786 71.721 263.802 78.4737 264.404 82.3825C268.881 82.1454 275.661 82.2856 280.152 82.4091Z" fill="#F9F9F9"/>
<path d="M230.199 82.3116C230.118 81.2198 226.687 76.9985 225.828 75.8044C216.243 62.4825 202.544 53.9738 187.154 48.8341C182.807 47.382 178.278 46.7404 173.724 46.2802C158.903 44.7637 144.609 46.5876 131.243 53.4793C120.495 59.0217 110.277 66.6649 103.614 76.951C102.837 78.1507 101.311 80.375 100.896 81.6279L101.195 82.1433C106.119 81.9302 111.506 82.0413 116.466 82.0542C120.286 82.5957 132.123 82.4198 136.284 82.0977C149.674 82.0692 163.064 82.1251 176.453 82.2649C183.671 82.28 192.652 82.0029 199.752 82.3248C207.407 82.4853 215.065 82.4698 222.719 82.2781L230.199 82.3116Z" fill="#F9F9F9"/>
<path d="M212.331 81.9565C205.495 75.9934 201.478 71.6401 193.168 67.2969C172.295 56.3882 147.957 58.5045 128.935 72.1687C126.486 73.9276 118.36 81.5305 116.47 82.0543C120.29 82.5957 132.127 82.4199 136.287 82.0977C149.678 82.0693 163.068 82.1251 176.457 82.265C183.675 82.28 192.655 82.003 199.756 82.3249C207.411 82.4854 215.069 82.4698 222.723 82.2782C220.171 81.978 215.105 82.0159 212.331 81.9565Z" fill="#0F3934"/>
<path d="M199.757 82.3249C200.372 82.184 200.467 82.1896 200.982 81.8484L200.861 81.4138C199.352 80.3493 197.757 79.3931 196.258 78.364C177.942 65.7893 154.164 64.8808 135.531 77.2523C133.147 78.8349 130.793 80.4256 128.434 82.0221C131.052 82.0039 133.671 82.0291 136.288 82.0978C149.678 82.0694 163.069 82.1252 176.458 82.2651C183.676 82.2801 192.656 82.003 199.757 82.3249Z" fill="#F9F9F9"/>
<path d="M255.834 82.3249C254.938 79.6384 253.029 76.0679 251.694 73.5038C242.769 56.3681 227.114 42.0773 209.972 33.337C201.77 29.1546 196.578 27.5846 187.807 25.4429C168.697 20.7767 150.768 21.6199 132.183 28.0826C109.243 36.0597 88.5064 53.6271 77.6713 75.3981C76.5894 77.6118 75.5317 79.8368 74.4981 82.0734C79.0458 82.0484 85.7843 82.3177 90.0415 82.0737C93.8733 77.2067 97.3421 71.4463 101.15 66.9705C114.72 50.8644 133.932 40.5514 154.854 38.1419C177.473 35.4275 200.234 41.923 218.014 56.1662C224.268 61.1035 229.923 67.5069 234.515 74.0571C236.155 76.3965 237.574 79.3536 239.299 81.5907C243.392 82.5035 246.902 81.7784 250.37 82.279L255.834 82.3249Z" fill="#F9F9F9"/>
<path d="M78.9285 132.203C78.3647 132.222 77.7821 132.15 77.2184 132.093C67.0329 131.06 56.826 130.736 46.6056 130.176C47.7009 133.88 49.2687 137.335 51.0943 140.737C51.4299 141.364 51.744 141.853 51.9695 142.535C42.1572 140.918 32.2509 140.105 22.3581 138.96C16.9888 138.338 11.2974 137.34 5.9389 137.16C4.8382 137.123 3.76434 137.475 2.85696 138.113C1.79382 138.849 1.0878 139.995 0.907928 141.275C0.212616 146.141 5.09326 146.913 8.7363 147.553C12.9834 148.299 17.2922 148.882 21.5634 149.475C21.2735 148.242 20.5164 145.699 21.6171 144.772L22.0494 145.162C22.5729 146.365 22.5138 148.138 22.5621 149.494C33.816 150.917 44.9733 152.885 56.281 153.944C57.4193 154.051 58.3669 154.299 59.4085 154.781C61.6099 157.552 63.9134 160.706 66.3376 163.288C81.6024 179.556 101.24 190.186 123.447 193.083C126.97 193.542 131.526 193.657 134.88 194.289C135.009 199.428 134.253 209.287 137.86 212.681C139.277 214.041 141.04 214.986 142.958 215.413C146.856 216.256 153.8 215.887 158.08 216.003C166.743 216.22 175.446 216.046 184.106 215.948C187.597 215.908 191.683 214.851 194.038 212.169C197.647 208.058 197.302 199.43 197.057 194.182C210.49 193.321 222.134 191.239 234.464 185.732C237.759 184.26 242.08 182.378 245.034 180.422L301.93 188.351C308.145 189.162 315.09 191.002 321.186 190.635C329.703 185.27 328.553 176.44 318.016 174.997C303.527 173.012 289.02 171.693 274.551 169.642C270.355 169.047 265.715 168.785 261.617 167.89C265.137 162.869 277.164 151.938 277.731 145.521C263.572 143.877 249.627 143.594 235.425 142.698C230.463 142.385 224.814 141.609 219.819 141.061L218.267 140.91C211.533 140.859 203.302 140.185 196.513 139.677C195.277 139.893 182.449 139.024 180.253 138.885C179.047 138.614 174.883 138.396 173.673 138.496C171.459 138.556 164.803 137.683 162.486 137.325C157.885 136.975 152.943 136.888 148.308 136.731L144.938 136.646L138.464 136.267C137.626 136.274 136.793 136.151 135.96 136.053C132.23 135.617 128.547 135.604 124.899 135.232C116.678 134.394 108.544 133.856 100.303 133.35C93.8265 132.953 85.2051 133.216 78.9285 132.203ZM252.538 178.183C252.006 177.12 251.899 177.308 252.003 176.29C252.904 175.6 255.471 176.024 256.819 176.032C255.258 178.166 254.99 175.313 252.538 178.183ZM27.2333 148.067C26.4521 147.538 24.3286 146.328 24.0628 145.612C24.4091 145.068 24.1729 145.233 24.7903 145.089C25.9662 145.393 28.1595 146.314 27.7596 147.798L27.2333 148.067ZM305.205 186.836L304.895 186.261C305.181 185.382 305.552 184.986 306.338 184.46C306.967 185.369 307.015 185.164 307.099 186.151C306.312 186.843 306.407 186.643 305.205 186.836ZM254.647 173.895C254.438 172.79 254.271 172.919 254.717 172.153C255.239 172.03 255.571 171.952 256.103 171.889C256.057 172.74 256.094 173.009 255.553 173.702C255.151 173.887 255.075 173.979 254.647 173.895ZM31.9985 145.461C31.8079 144.328 31.5287 143.903 32.5811 143.118C32.7315 144.324 32.8711 144.099 32.4603 145.111L31.9985 145.461Z" fill="#0F3934"/>
<path d="M21.5634 149.475C21.2735 148.242 20.5164 145.699 21.6171 144.772L22.0494 145.162C22.5729 146.365 22.5138 148.138 22.5621 149.494L21.5634 149.475Z" fill="#0F3934"/>
<path d="M27.2333 148.067C26.4521 147.538 24.3286 146.328 24.0628 145.612C24.4091 145.068 24.1729 145.233 24.7903 145.089C25.9662 145.393 28.1595 146.314 27.7596 147.798L27.2333 148.067Z" fill="#0F3934"/>
<path d="M31.9985 145.461C31.8079 144.328 31.5287 143.903 32.5811 143.118C32.7315 144.324 32.8711 144.099 32.4603 145.111L31.9985 145.461Z" fill="#0F3934"/>
<path d="M244.193 181.031C243.013 180.408 221.905 178.135 218.743 177.687L58.5679 155.39C60.7693 158.161 63.0727 161.316 65.497 163.898C80.7617 180.165 100.4 190.795 122.606 193.692C126.13 194.152 130.685 194.266 134.039 194.898C134.168 200.038 133.412 209.896 137.019 213.291C138.437 214.651 140.2 215.595 142.117 216.022C146.015 216.865 152.96 216.497 157.239 216.612C165.902 216.829 174.605 216.656 183.266 216.557C186.756 216.518 190.842 215.461 193.197 212.779C196.807 208.667 196.461 200.039 196.216 194.791C209.649 193.93 221.293 191.848 233.623 186.341C236.918 184.869 241.239 182.987 244.193 181.031Z" fill="#7AD371"/>
<path d="M78.0883 132.812C77.5245 132.832 76.942 132.759 76.3782 132.702C66.1927 131.669 55.9858 131.345 45.7654 130.786C46.8607 134.489 48.4286 137.944 50.2541 141.346C50.5897 141.974 50.9038 142.462 51.1293 143.145C54.5415 143.861 59.3577 144.166 62.9094 144.526C85.2267 146.788 107.39 150.216 129.684 152.647C133.449 153.058 140.934 154.371 144.435 154.279C147.999 154.874 150.232 155.237 153.82 155.554C158.165 156.26 162.561 156.388 166.87 157.025C177.769 158.637 188.698 159.699 199.605 161.199C200.857 161.372 202.023 161.553 203.291 161.591C206.539 162.398 213.898 162.746 217.48 163.206C223.184 163.939 228.978 164.81 234.666 165.489C243.095 166.496 252.427 167.099 260.776 168.499C264.297 163.478 276.323 152.547 276.891 146.13C262.732 144.486 248.787 144.204 234.585 143.308C229.622 142.995 223.974 142.218 218.979 141.671L217.427 141.519C210.693 141.469 202.462 140.794 195.673 140.287C194.436 140.502 181.609 139.633 179.413 139.495C178.207 139.223 174.043 139.006 172.833 139.105C170.619 139.165 163.962 138.292 161.645 137.935C157.045 137.584 152.103 137.497 147.468 137.341L144.098 137.255L137.624 136.876C136.786 136.884 135.952 136.761 135.119 136.663C131.39 136.226 127.707 136.214 124.059 135.842C115.838 135.004 107.704 134.465 99.463 133.96C92.9863 133.562 84.365 133.825 78.0883 132.812Z" fill="#7AD371"/>
<path d="M85.3707 121.45L83.7653 121.503C88.4339 122.903 92.6831 122.116 96.0257 122.836L95.971 123.484L94.7519 124.24L94.8584 124.527L95.9379 124.676C96.7801 125.977 96.909 125.822 97.0105 127.384L96.804 127.887C96.2762 128.042 95.4735 128.007 94.9503 127.863C93.3967 127.433 91.6683 128.759 90.1555 129.652L89.9604 129.509L89.9238 128.295L89.5021 127.901C89.0594 127.956 88.7748 127.965 88.348 128.101C87.8325 129.057 87.352 130.105 86.5493 130.821C84.8606 131.762 85.8217 132.609 83.7465 133.117C82.423 132.413 83.1962 132.225 82.0391 131.066L81.521 131.246C81.3142 131.767 81.18 132.149 80.8981 132.639C80.0954 132.681 78.8471 132.709 78.0873 132.812C84.364 133.825 92.9854 133.562 99.462 133.96C107.703 134.465 115.837 135.004 124.058 135.842C127.706 136.214 131.389 136.226 135.118 136.663C135.951 136.761 136.785 136.884 137.623 136.876L144.097 137.255L147.467 137.341C152.102 137.497 157.044 137.584 161.644 137.935C163.961 138.292 170.618 139.165 172.832 139.105C174.042 139.006 178.206 139.223 179.412 139.495C181.608 139.633 194.435 140.502 195.672 140.287C202.461 140.794 210.692 141.469 217.426 141.519L218.978 141.671C223.973 142.218 229.621 142.995 234.584 143.308C248.786 144.204 262.731 144.486 276.89 146.13C286.236 146.636 295.585 147.086 304.936 147.48C309.947 147.712 315.113 148.258 320.122 148.66C329.572 149.418 333.589 140.012 326.107 134.002C321.858 133.106 313.496 132.995 308.824 132.741C300.866 132.258 292.911 131.721 284.961 131.13C279.501 130.85 274.014 130.829 268.548 130.642L250.255 129.857C245.64 129.462 240.842 129.665 236.196 129C234.481 128.754 232.845 128.952 231.093 128.522L230.473 128.644C229.729 128.617 228.533 128.613 227.831 128.54C224.566 128.315 222.07 128.698 218.824 127.988L216.354 128.042L215.531 128.062C213.101 127.643 210.477 127.858 208.048 127.655C201.334 127.096 195.667 127.362 189.06 125.883C188.7 125.609 186.337 125.897 185.742 125.944L184.495 125.678L184.125 125.735C183.447 125.752 182.286 125.647 181.571 125.603C180.325 125.606 178.975 125.637 177.738 125.578C176.882 125.586 175.821 125.624 174.986 125.553C173.073 125.488 171.102 125.6 169.286 125.13L167.303 124.907C165.622 125.267 164.803 125.276 163.11 125.324L161.793 125.026C160.305 125.242 152.406 124.635 150.648 124.513C149.575 124.502 147.872 124.431 146.86 124.589C146.461 124.604 144.334 124.306 143.539 124.278C139.637 124.144 135.256 123.679 131.367 123.971L130.353 123.562C125.211 124.467 116.592 122.963 111.347 122.803C105.642 122.629 99.4239 121.886 93.8002 122.019L92.0463 122.008C91.166 121.767 88.756 121.64 87.7412 121.572L85.3707 121.45Z" fill="#0F3934"/>
<path d="M40.3352 119.196L19.2153 118.265C16.2729 118.124 5.82973 116.911 3.77599 119.074C1.0162 121.979 2.63773 125.898 6.04989 127.921C10.16 128.194 15.0004 128.144 18.9039 128.644L19.6717 128.33C20.0556 126.952 19.8381 126 20.6838 124.813C21.1241 125.439 20.3401 127.087 22.0637 129.011C23.2315 129.192 25.754 129.711 26.7078 129.711C26.9977 128.701 26.5443 127.968 27.2396 127.438L27.8222 127.56C28.3537 128.895 27.6423 129.027 28.3591 129.702C28.3591 129.702 34.8022 130.141 36.9096 130.175C38.0238 130.491 39.9808 130.413 41.205 130.418C41.9809 130.486 45.24 130.678 45.7716 130.786C55.9919 131.345 66.1989 131.669 76.3844 132.702C76.9481 132.759 77.5307 132.832 78.0945 132.812C78.8542 132.709 80.1026 132.681 80.9053 132.639C81.1871 132.149 81.3214 131.767 81.5281 131.245L82.0462 131.066C83.2033 132.225 82.4301 132.413 83.7536 133.117C85.8289 132.609 84.8678 131.762 86.5564 130.821C87.3591 130.105 87.8396 129.057 88.3551 128.101C88.7819 127.965 89.0665 127.956 89.5092 127.901L89.931 128.295L89.9675 129.509L90.1627 129.652C91.6754 128.759 93.4038 127.433 94.9574 127.863C95.4806 128.007 96.2833 128.042 96.8111 127.887L97.0176 127.384C96.9161 125.822 96.7872 125.977 95.9451 124.675L94.8656 124.526L94.759 124.239L95.9781 123.484L96.0328 122.836C92.6902 122.116 88.441 122.903 83.7724 121.503C81.9737 121.278 80.3012 121.268 78.4085 121.001C66.266 121.154 52.7382 119.251 40.3352 119.196Z" fill="#0F3934"/>
<path d="M26.7078 129.711C26.9977 128.701 26.5443 127.968 27.2396 127.438L27.8222 127.56C28.3537 128.895 27.6423 129.027 28.3591 129.702L26.7078 129.711Z" fill="#0F3934"/>
<path d="M18.9039 128.644L19.6717 128.33C20.0556 126.952 19.8381 126 20.6838 124.813C21.1241 125.439 20.3401 127.087 22.0637 129.011L18.9039 128.644Z" fill="#0F3934"/>
<rect width="64.5652" height="43.0435" rx="17.2174" transform="matrix(-1 0 0 1 198 179.348)" fill="#7AD371"/>
</svg>
