<svg width="288" height="300" viewBox="0 0 288 300" fill="none" xmlns="http://www.w3.org/2000/svg">
<path d="M119.491 61.8844C122.512 60.9393 125.549 60.0472 128.601 59.2085C128.82 62.088 128.826 69.514 128.673 72.5058C128.682 74.5298 128.718 76.6174 128.697 78.6358C128.702 80.2131 128.42 91.5838 129.107 92.2246L129.353 92.1463C132.11 91.2411 133.879 89.3088 136.294 88.1948C140.489 86.2607 140.332 95.0714 142.923 96.4947C145.581 98.0088 151.233 95.504 152.421 99.1889C152.765 103.698 147.948 106.583 153.444 110.269C157.807 108.347 172.787 110.447 177.065 112.833C178.298 106.371 178.798 99.5358 179.866 93.018C180.177 91.1162 180.555 84.2178 182.201 83.367C185.049 81.893 190.31 82.3703 193.655 82.3761L208.127 82.3921L227.288 82.3765C230.822 82.3729 234.875 82.1355 238.348 82.7427C239.818 82.9997 240.696 84.6318 240.892 85.9714C241.456 89.7965 241.952 93.636 242.494 97.467L246.244 124.387L248.402 139.679C248.732 142.012 249.606 147.373 249.521 149.503C249.368 153.264 248.565 158.648 247.972 162.476C247.211 167.391 246.637 173.355 245.653 178.147C245.538 179.19 245.035 184.019 244.766 184.78L242.31 202.397C241.881 205.471 241.382 209.998 240.744 212.862C240.618 214.26 240.303 217.857 239.922 219.083C239.345 224.045 238.51 229.356 237.798 234.325C237.228 238.311 236.676 243.353 235.908 247.233C235.671 249.216 235.444 251.706 235.079 253.633L232.542 271.32C232.166 274.069 231.603 279.328 230.977 281.898C230.861 282.979 230.373 287.842 230.054 288.626C229.733 291.439 229.756 296.991 227.389 298.942C225.413 300.571 216.732 299.848 213.912 299.796C211.033 299.937 208.845 299.952 206.004 299.792C200.762 299.969 195.268 299.894 190.003 299.891C183.299 299.915 176.595 299.883 169.891 299.792C167.353 299.889 163.994 300.062 161.517 299.751C157.27 300.146 148.328 299.881 143.672 299.881H109.234L52.848 299.883C43.5126 299.885 34.1763 299.911 24.8416 299.881C22.6042 299.984 20.8117 298.189 20.4689 296.042C19.6325 290.801 18.9269 285.512 18.1816 280.254L13.4824 246.728L0.181528 152.953C-0.530788 147.626 1.03064 140.27 1.80278 134.83L4.81009 113.195L7.26872 95.6633C7.72104 92.3862 8.14187 89.0779 8.67564 85.8122C8.9744 83.9836 10.1368 82.687 12.0454 82.5343C15.0714 82.292 18.1518 82.3735 21.1978 82.3739L36.7558 82.3796L54.9302 82.3752C58.2377 82.3752 61.5276 82.3096 64.8314 82.473C68.8149 82.67 68.7422 86.0171 68.9525 89.0635C78.0806 89.2387 87.8247 91.7458 95.7422 96.3018C95.7631 91.9566 95.756 87.6111 95.7208 83.2658C95.7815 81.9825 95.7685 80.786 95.7571 79.5026C95.6675 76.5413 95.655 71.9049 95.7998 68.9852C97.0299 68.3918 103.149 66.7942 105.05 66.1238L108.363 65.244L115.755 63.0155C116.917 62.5613 118.276 62.2214 119.491 61.8844Z" fill="#7AD371"/>
<path d="M105.059 66.1235L108.372 65.2437C108.562 74.1463 108.009 148.181 108.621 149.661C106.746 149.689 104.87 149.672 102.995 149.609C101.77 149.721 98.7349 149.672 97.4338 149.695C96.0838 149.782 95.4311 149.777 94.0799 149.687C91.8283 149.596 89.4295 149.642 87.1662 149.646C85.0457 149.682 82.9247 149.661 80.8053 149.588C78.5001 149.656 73.9997 149.432 72.0601 149.998C71.8617 149.508 71.5851 148.75 71.1693 148.405C69.8768 147.33 59.9204 147.946 57.6739 147.896C55.3623 148.012 52.3123 147.919 49.9465 147.915L21.3161 147.891C19.0463 148.023 15.702 147.917 13.3494 147.917C13.244 146.746 13.3221 145.669 13.3042 144.513C12.8354 114.21 38.5832 88.4856 68.9615 89.0632C78.0897 89.2384 87.8338 91.7455 95.7513 96.3015C95.7721 91.9562 95.7651 87.6108 95.7298 83.2655C95.7906 81.9821 95.7775 80.7856 95.7662 79.5023C95.6765 76.541 95.664 71.9046 95.8089 68.9849C97.0389 68.3915 103.158 66.7939 105.059 66.1235Z" fill="#FED429"/>
<path d="M40.1055 147.726C40.109 141.411 40.2093 136.867 43.3144 131.144C53.7161 111.974 80.5321 110.669 92.4603 129.006C93.5331 130.655 93.4293 130.446 94.0523 132.242C94.1708 137.475 94.2832 144.51 94.0737 149.687C91.8222 149.596 89.4234 149.642 87.1601 149.646C85.0395 149.682 82.9186 149.661 80.7992 149.588C78.4939 149.655 73.9936 149.432 72.054 149.998C71.8555 149.508 71.579 148.75 71.1632 148.405C69.8707 147.33 59.9143 147.946 57.6677 147.896C55.3561 148.012 52.3062 147.918 49.9404 147.915L49.8589 147.73C46.608 147.773 43.3566 147.771 40.1055 147.726Z" fill="#FED429"/>
<path d="M53.0301 147.718C52.8726 144.576 52.8954 141.925 53.9644 138.912C55.3307 135.135 58.1369 132.053 61.7695 130.339C64.9628 128.849 70.0295 128.196 73.3423 129.39C69.6016 136.633 75.9912 143.679 83.6692 140.691C84.8143 140.011 85.1818 139.764 86.2014 138.899C88.5317 142.248 86.4223 148.256 87.1572 149.646C85.0366 149.682 82.9157 149.661 80.7963 149.589C78.491 149.656 73.9907 149.432 72.0511 149.999C71.8526 149.509 71.576 148.75 71.1602 148.405C69.8677 147.33 59.9113 147.947 57.6648 147.896C56.6951 147.723 54.1265 147.738 53.0301 147.718Z" fill="#FED429"/>
<path d="M83.6737 140.691C84.8188 140.011 85.1863 139.764 86.206 138.898C88.5362 142.248 86.4268 148.256 87.1617 149.646C85.0411 149.682 82.9202 149.661 80.8008 149.589C81.5839 149.49 82.6906 149.479 83.5043 149.443C83.6968 147.712 84.2645 142.109 83.6737 140.691Z" fill="#FCA92B"/>
<path d="M75.3923 127.196C77.4465 125.84 79.2799 125.171 81.8074 125.718C83.939 126.167 85.7971 127.462 86.956 129.306C88.1003 131.163 88.4483 133.403 87.9216 135.519C87.6077 136.799 87.0352 137.88 86.2049 138.899C85.1853 139.764 84.8177 140.011 83.6727 140.691C75.9947 143.679 69.6051 136.633 73.3458 129.39C74.1582 128.341 74.3893 128.069 75.3923 127.196Z" fill="#01982F"/>
<path d="M49.8692 147.73C49.7955 147.27 49.7357 146.808 49.6899 146.344C49.2653 141.214 50.8761 136.124 54.174 132.173C57.3364 128.422 61.8501 126.069 66.7362 125.624C69.3276 125.4 73.3223 125.466 75.402 127.195C74.3989 128.069 74.1678 128.34 73.3554 129.389C70.0427 128.196 64.9759 128.849 61.7826 130.339C58.1501 132.053 55.3438 135.135 53.9775 138.912C52.9085 141.925 52.8858 144.575 53.0433 147.717C54.1397 147.738 56.7083 147.723 57.678 147.896C55.3664 148.012 52.3164 147.919 49.9506 147.915L49.8692 147.73Z" fill="#FCA92B"/>
<path d="M41.2882 114.394C41.8548 112.683 48.7567 108.793 50.4765 107.899C59.9786 102.959 71.6557 102.247 81.7614 105.754C86.4744 107.389 89.7669 109.373 93.8939 112.117C94.0618 114.323 93.8302 117.194 94.0946 119.111C94.1052 120.955 94.1768 123.168 94.1049 124.983C94.0946 127.319 94.1408 129.924 94.0529 132.243C93.4298 130.446 93.5336 130.655 92.4609 129.006C80.5327 110.669 53.7166 111.974 43.315 131.144C40.2098 136.867 40.1096 141.412 40.106 147.727C43.3571 147.771 46.6086 147.773 49.8595 147.73L49.9409 147.915L21.3105 147.891C22.2489 147.68 23.4089 147.734 24.3909 147.73C23.8894 139.277 25.2223 131.446 29.2098 123.94C30.2592 124.727 31.4867 125.242 32.7833 125.44C35.6493 125.878 38.5267 124.724 40.2954 122.427C42.0642 120.13 42.4445 117.053 41.2882 114.394Z" fill="#FED429"/>
<path d="M36.8057 147.741C36.7329 140.523 36.933 136.772 40.2171 130.087C49.0834 112.039 72.9054 106.998 88.428 119.667C89.2476 120.336 93.745 124.888 94.1049 124.982C94.0946 127.319 94.1408 129.923 94.0529 132.242C93.4298 130.446 93.5336 130.655 92.4609 129.006C80.5327 110.668 53.7166 111.973 43.315 131.144C40.2098 136.866 40.1096 141.411 40.106 147.726C43.3571 147.771 46.6086 147.773 49.8595 147.73L49.9409 147.914L21.3105 147.89C22.2489 147.68 23.4089 147.734 24.3909 147.73C23.8894 139.276 25.2223 131.445 29.2098 123.939C30.2592 124.726 31.4867 125.242 32.7833 125.44L32.3934 125.548C28.0373 135.722 28.4546 137.076 27.5602 147.709C30.35 147.853 33.9556 147.747 36.8057 147.741Z" fill="#FCA92B"/>
<path d="M105.055 66.1235L108.368 65.2437C108.558 74.1463 108.004 148.181 108.617 149.661C106.741 149.689 104.865 149.672 102.99 149.609C103.862 149.501 104.354 149.587 104.979 149.111C105.4 147.628 105.082 132.27 105.082 129.772L105.055 66.1235Z" fill="#FCA92B"/>
<path d="M29.2112 123.94C26.8961 122.204 25.705 119.349 26.1001 116.483C26.495 113.616 28.4141 111.189 31.1124 110.144C33.8107 109.099 36.8635 109.601 39.0862 111.453C40.0399 112.248 40.7945 113.255 41.2897 114.394C42.4459 117.053 42.0657 120.13 40.2969 122.427C38.5282 124.724 35.6508 125.879 32.7847 125.44C31.4882 125.242 30.2607 124.727 29.2112 123.94Z" fill="#01982F"/>
<path d="M39.0957 111.453C43.2071 106.91 52.2585 102.588 58.2747 101.33C71.5603 98.5503 82.6845 100.892 93.923 108.082C93.9271 107.031 93.9306 106.576 94.0948 105.519C94.1968 108.953 94.3429 115.798 94.1056 119.11C93.8412 117.194 94.0728 114.323 93.9049 112.116C89.7779 109.372 86.4854 107.389 81.7724 105.754C71.6667 102.247 59.9896 102.959 50.4875 107.899C48.7677 108.793 41.8658 112.682 41.2992 114.394C40.804 113.255 40.0494 112.248 39.0957 111.453Z" fill="#FCA92B"/>
<path d="M94.0896 105.52C94.0949 103.769 93.5193 99.2318 95.7174 98.9658C98.283 99.9579 97.4764 103.749 97.4738 106.03L97.4751 117.897C97.4811 128.392 97.6136 139.219 97.4341 149.695C96.084 149.782 95.4313 149.777 94.0801 149.687C94.2896 144.511 94.1772 137.475 94.0587 132.243C94.1467 129.924 94.1004 127.319 94.1107 124.982C94.1826 123.168 94.1111 120.954 94.1005 119.111C94.3377 115.798 94.1916 108.953 94.0896 105.52Z" fill="#FE6338"/>
<path d="M119.5 61.8844C122.52 60.9393 125.557 60.0472 128.609 59.2085C128.828 62.088 128.834 69.514 128.681 72.5058C128.69 74.5298 128.726 76.6174 128.705 78.6358C128.71 80.2131 128.428 91.5838 129.115 92.2246L129.361 92.1463C132.118 91.2411 133.887 89.3088 136.302 88.1948C140.497 86.2607 140.34 95.0714 142.931 96.4947C145.589 98.0088 151.241 95.504 152.429 99.1889C152.773 103.698 147.956 106.583 153.452 110.269C155.189 111.671 158.965 114.236 156.564 116.684C154.361 118.932 150.151 119.888 150.861 123.819C151.238 124.999 151.594 126.186 151.925 127.379C154.236 136.122 145.222 129.584 142.018 133.921C139.904 136.784 140.516 143.467 135.303 140.775C134.287 142.319 131.673 147.623 132.403 149.292C133.132 149.559 133.416 149.54 134.207 149.598C133.061 149.661 131.76 149.663 130.599 149.691C129.225 149.764 128.463 149.756 127.089 149.671C124.986 149.566 122.267 149.641 120.114 149.648C117.703 149.684 115.292 149.667 112.881 149.602C111.819 149.697 109.758 149.65 108.62 149.661C108.008 148.182 108.561 74.1466 108.371 65.244L115.763 63.0155C116.926 62.5613 118.284 62.2214 119.5 61.8844Z" fill="#FED429"/>
<path d="M129.115 92.2248L129.362 92.1466C132.118 91.2413 133.887 89.309 136.302 88.1951C140.497 86.2609 140.341 95.0717 142.931 96.495C145.589 98.0091 151.242 95.5042 152.429 99.1892C152.774 103.698 147.956 106.583 153.452 110.269C155.189 111.671 158.965 114.237 156.565 116.685C154.362 118.932 150.151 119.889 150.862 123.819C151.238 124.999 151.594 126.186 151.926 127.38C154.237 136.123 145.222 129.584 142.018 133.921C139.905 136.784 140.516 143.467 135.304 140.775L132.176 138.629C131.654 138.215 131.081 137.941 130.493 137.626C130.302 135.812 130.432 132.696 130.464 130.81C130.396 130.05 130.262 127.975 130.61 127.335C130.682 125.716 130.13 124.957 128.992 123.84C128.625 122.353 128.766 117.203 128.772 115.353L128.778 101.953C128.716 101.199 128.771 99.5245 128.776 98.7031C128.758 97.5072 128.649 93.3626 128.851 92.323L129.115 92.2248Z" fill="#01982F"/>
<path d="M128.782 101.953C132.833 102.199 136.026 103.183 138.827 106.321C141.099 108.856 142.234 112.211 141.968 115.605C141.53 121.707 136.752 126.797 130.613 127.335C130.686 125.716 130.134 124.957 128.996 123.84C128.629 122.353 128.77 117.202 128.776 115.353L128.782 101.953Z" fill="#01982F"/>
<path d="M128.781 98.7026C138.115 98.8883 145.542 105.552 145.274 115.131C145.194 119.391 143.388 123.436 140.272 126.34C137.226 129.218 134.459 130.073 130.469 130.81C130.401 130.049 130.267 127.974 130.615 127.335C136.754 126.797 141.532 121.706 141.97 115.604C142.236 112.211 141.101 108.855 138.829 106.321C136.027 103.183 132.834 102.199 128.783 101.953C128.721 101.198 128.776 99.524 128.781 98.7026Z" fill="#FEF3B0"/>
<path d="M119.495 61.8844C122.516 60.9393 125.553 60.0472 128.604 59.2085C128.824 62.088 128.829 69.514 128.677 72.5058C128.686 74.5298 128.721 76.6174 128.701 78.6358C128.705 80.2131 128.423 91.5838 129.11 92.2246L128.846 92.3228C128.644 93.3624 128.753 97.5069 128.771 98.7029C128.766 99.5242 128.711 101.199 128.773 101.953L128.767 115.353C128.761 117.203 128.62 122.353 128.987 123.84C130.125 124.957 130.677 125.716 130.605 127.335C130.257 127.975 130.391 130.049 130.459 130.81C130.426 132.696 130.297 135.812 130.488 137.626C131.076 137.94 131.649 138.215 132.171 138.629L135.299 140.775C134.282 142.319 131.668 147.623 132.398 149.292C133.127 149.559 133.411 149.54 134.203 149.598C133.056 149.661 131.755 149.663 130.595 149.691C129.22 149.764 128.459 149.756 127.084 149.671C124.981 149.566 122.262 149.641 120.109 149.648C119.953 149.579 119.623 149.389 119.462 149.302C119.318 148.646 119.466 146.305 119.468 145.407L119.456 134.734L119.451 87.9913L119.445 70.3202C119.44 68.5871 119.289 63.3817 119.495 61.8844Z" fill="#FED429"/>
<path d="M128.987 123.839C130.125 124.956 130.677 125.715 130.604 127.334C130.256 127.974 130.39 130.049 130.458 130.809C130.426 132.695 130.297 135.811 130.488 137.625C131.075 137.939 131.649 138.214 132.171 138.628L135.298 140.774C134.282 142.318 131.668 147.622 132.397 149.292C133.127 149.558 133.411 149.539 134.202 149.597C133.055 149.661 131.755 149.662 130.594 149.69C129.22 149.763 128.458 149.756 127.083 149.67C127.219 141.749 126.825 133.505 127.23 125.583C127.27 124.798 128.372 124.217 128.987 123.839Z" fill="#FE6338"/>
<path d="M130.439 141.508C130.431 140.214 130.448 138.92 130.488 137.626C131.076 137.94 131.649 138.215 132.171 138.629L135.299 140.775C134.282 142.319 131.668 147.623 132.398 149.293C133.127 149.559 133.411 149.54 134.203 149.598C133.056 149.662 131.755 149.663 130.595 149.691C130.272 148.974 130.43 142.713 130.439 141.508Z" fill="#FCA92B"/>
<path d="M130.441 141.508C130.434 140.214 130.45 138.92 130.491 137.626C131.078 137.94 131.651 138.215 132.174 138.629L132.04 138.976C131.653 139.998 131.491 141.07 130.932 141.956L130.695 142.026L130.441 141.508Z" fill="#FED429"/>
<path d="M115.765 63.0149C116.927 62.5607 118.285 62.2208 119.501 61.8838C119.295 63.3811 119.446 68.5865 119.452 70.3196L119.457 87.9907L119.462 134.733L119.474 145.406C119.472 146.304 119.324 148.645 119.469 149.301C119.629 149.389 119.959 149.579 120.116 149.648C117.705 149.683 115.293 149.666 112.883 149.601C113.502 149.487 115.398 149.43 116.097 149.394C115.999 127.368 116.257 86.9399 116.011 63.3168C115.929 63.2162 115.847 63.1155 115.765 63.0149Z" fill="#FCA92B"/>
<path d="M162.436 242.467C164.922 240.97 168.81 238.089 171.27 236.354L187.615 224.735L222.563 200.164C228.656 195.849 237.827 189.189 244.375 184.771C244.507 184.773 244.639 184.777 244.772 184.779L242.315 202.397C241.887 205.47 241.387 209.997 240.75 212.862C239.316 213.182 220.357 226.903 217.701 228.776L171.592 261.233C169.335 262.802 160.958 269.146 159.023 269.677C159.596 263.266 160.699 256.726 161.392 250.311C161.664 247.79 161.994 244.94 162.436 242.467Z" fill="#0A2623" fill-opacity="0.3"/>
<path d="M194.578 151.333C197.465 151.214 200.354 151.271 203.242 151.303L225.775 151.269C229.882 151.268 234.579 151.161 238.614 151.312C237.306 152.818 227.24 159.619 225.074 161.179C213.571 169.404 202.012 177.55 190.398 185.618C183.146 190.738 175.954 196.008 168.622 201.044C168.24 201.307 168.016 201.338 167.578 201.426C168.411 192.762 169.779 182.377 170.974 173.701C171.175 171.511 171.546 169.212 171.857 167.024C173.475 166.755 192.621 153.126 194.578 151.333Z" fill="#0A2623" fill-opacity="0.3"/>
<path d="M194.569 151.333C197.456 151.213 200.345 151.271 203.233 151.303C202.356 152.14 199.116 154.324 197.95 155.161C193.203 158.549 188.435 161.908 183.649 165.238L176.129 170.587C175 171.394 172.579 173.218 171.425 173.737L170.965 173.701C171.166 171.511 171.537 169.211 171.848 167.023C173.466 166.755 192.612 153.126 194.569 151.333Z" fill="#0A2623" fill-opacity="0.7"/>
<path d="M169.893 299.792L170.001 299.438C171.549 298.513 173.553 296.976 175.07 295.9L184.912 288.958L223.395 261.846C227.17 259.218 231.299 256.115 235.08 253.633L232.544 271.32C232.167 274.069 231.604 279.328 230.978 281.898C230.862 282.979 230.374 287.841 230.056 288.626C229.735 291.438 229.757 296.991 227.39 298.942C225.415 300.571 216.734 299.848 213.914 299.795C211.034 299.937 208.846 299.952 206.006 299.792C200.763 299.969 195.269 299.894 190.004 299.89C183.3 299.915 176.596 299.883 169.893 299.792Z" fill="#4B8F42"/>
<path d="M206.008 299.792C206.947 297.8 220.744 289.256 223.214 287.124C224.541 285.978 229.247 282.957 230.98 281.898C230.864 282.979 230.376 287.842 230.057 288.627C229.737 291.439 229.759 296.991 227.392 298.942C225.417 300.571 216.735 299.848 213.916 299.796C211.036 299.937 208.848 299.952 206.008 299.792Z" fill="#265120"/>
<path d="M213.92 299.796C214.386 299.246 216.253 298.115 217.001 297.587L225.671 291.443C226.968 290.529 228.332 289.739 229.538 288.742C229.797 288.53 229.601 288.606 230.062 288.626C229.741 291.439 229.763 296.991 227.397 298.942C225.421 300.571 216.74 299.848 213.92 299.796Z" fill="#7AD371"/>
<path d="M153.453 110.269C157.816 108.347 172.797 110.447 177.074 112.833C176.562 117.33 175.961 121.38 175.253 125.846C175.121 127.043 174.989 128.661 174.718 129.796L173.237 140.506L172.692 144.817C172.474 146.443 172.301 148.15 171.831 149.714C163.711 149.522 154.394 149.535 146.244 149.637C144.067 149.658 141.889 149.647 139.712 149.598C138.333 149.723 135.547 149.65 134.209 149.598C133.418 149.54 133.134 149.559 132.404 149.292C131.674 147.623 134.288 142.319 135.305 140.775C140.517 143.467 139.906 136.784 142.019 133.921C145.223 129.584 154.238 136.122 151.927 127.379C151.595 126.186 151.239 124.999 150.863 123.819C150.153 119.888 154.363 118.932 156.566 116.684C158.966 114.236 155.19 111.671 153.453 110.269Z" fill="#FED429"/>
<path d="M153.451 110.268C157.814 108.346 172.795 110.447 177.072 112.833C176.56 117.33 175.96 121.379 175.252 125.846C175.119 127.042 174.987 128.661 174.717 129.796L174.525 129.358C169.783 126.365 160.191 124.852 154.711 126.225C153.804 126.453 152.395 126.656 151.925 127.379C151.593 126.185 151.237 124.998 150.861 123.819C150.151 119.888 154.361 118.931 156.564 116.684C158.964 114.236 155.188 111.67 153.451 110.268Z" fill="#FED429"/>
<path d="M150.859 123.819C157.608 122.026 164.202 121.985 170.87 124.162C172.242 124.609 174.031 125.079 175.25 125.846C175.118 127.043 174.985 128.661 174.715 129.796L174.523 129.359C169.782 126.366 160.189 124.853 154.71 126.226C153.802 126.453 152.393 126.657 151.924 127.38C151.592 126.186 151.236 124.999 150.859 123.819Z" fill="#FCA92B"/>
<path d="M146.24 149.637L146.074 149.144C147.168 144.664 152.635 140.245 157.121 139.53C160.511 138.918 163.435 139.099 166.629 140.359C169.304 141.414 170.651 143.558 172.688 144.817C172.47 146.443 172.297 148.15 171.827 149.714C163.707 149.522 154.39 149.535 146.24 149.637Z" fill="#FED429"/>
<path d="M142.423 149.391C142.859 148.167 143.265 147.043 143.871 145.882C148.534 136.944 159.578 133.342 168.636 137.744C170.211 138.51 171.525 139.625 172.969 140.371L173.236 140.505L172.691 144.817C170.654 143.557 169.307 141.414 166.632 140.359C163.438 139.099 160.514 138.918 157.124 139.53C152.638 140.245 147.171 144.663 146.077 149.143L146.243 149.637C144.066 149.657 141.888 149.646 139.711 149.598C140.406 149.452 141.672 149.428 142.423 149.391Z" fill="#FCA92B"/>
<path d="M245.664 178.146C245.549 179.19 245.045 184.019 244.777 184.779C244.645 184.778 244.512 184.774 244.38 184.772C237.833 189.189 228.661 195.85 222.569 200.165L187.62 224.736L171.275 236.354C168.815 238.089 164.928 240.971 162.441 242.467C162.611 240.074 162.945 237.875 163.308 235.51C164.814 235.216 169.304 231.652 170.865 230.564C176.181 226.902 181.466 223.196 186.718 219.445L230.848 188.302C233.289 186.608 235.714 184.888 238.122 183.143C239.816 181.913 243.851 178.898 245.664 178.146Z" fill="#0A2623" fill-opacity="0.7"/>
<path d="M240.744 212.862C240.617 214.26 240.302 217.857 239.922 219.083C230.635 225.306 220.921 232.425 211.754 238.943L180.173 261.14C177.152 263.27 160.188 275.675 158.162 276.21C158.367 274.052 158.714 271.828 159.018 269.677C160.952 269.146 169.33 262.802 171.587 261.233L217.695 228.776C220.351 226.903 239.311 213.182 240.744 212.862Z" fill="#0A2623" fill-opacity="0.7"/>
<path d="M158.173 276.21C157.015 282.165 157.215 288.912 155.495 294.732C155.282 295.453 153.694 295.314 153.124 294.814C152.634 293.813 152.71 292.606 152.857 291.512C154.274 280.89 155.588 270.222 156.913 259.588L165.6 189.998L168.921 163.548C169.329 160.274 169.696 156.975 170.076 153.697C170.24 152.262 170.635 151.307 171.934 150.627C172.384 150.629 172.501 150.588 172.82 150.949C174.337 152.679 172.102 164.191 171.86 167.024C171.549 169.212 171.178 171.512 170.977 173.702C169.782 182.377 168.414 192.762 167.581 201.427C167.195 203.616 166.951 205.78 166.684 207.987L164.746 223.679C164.26 227.522 163.643 231.695 163.307 235.51C162.944 237.875 162.61 240.075 162.441 242.468C161.999 244.941 161.669 247.79 161.397 250.312C160.704 256.727 159.6 263.267 159.028 269.678C158.724 271.829 158.378 274.052 158.173 276.21Z" fill="#0A2623" fill-opacity="0.7"/>
<path d="M243.965 149.465L244.155 149.283C246.216 149.491 247.752 149.588 249.832 149.613C247.841 151.383 242.994 154.607 240.683 156.219L224.135 167.791L167.744 207.664C167.321 207.957 167.224 208.148 166.68 207.986C166.946 205.78 167.19 203.616 167.576 201.426C168.014 201.338 168.238 201.307 168.62 201.044C175.952 196.008 183.144 190.738 190.396 185.618C202.01 177.55 213.569 169.403 225.072 161.179C227.238 159.619 237.304 152.818 238.612 151.312C241.173 151.145 242.66 152.142 243.965 149.465Z" fill="#0A2623" fill-opacity="0.7"/>
<path d="M235.914 247.232C235.677 249.215 235.45 251.705 235.085 253.632C231.303 256.115 227.175 259.218 223.399 261.846L184.917 288.958L175.075 295.9C173.558 296.975 171.554 298.513 170.005 299.437L169.897 299.791C167.359 299.888 164 300.062 161.523 299.75C162.481 298.874 164.947 297.206 166.125 296.349C169.605 293.809 173.112 291.311 176.649 288.855C186.997 281.469 197.391 274.146 207.828 266.887L226.821 253.517C228.504 252.326 234.427 247.963 235.914 247.232Z" fill="#265120"/>
<path d="M13.3498 147.917C15.7024 147.917 19.0467 148.023 21.3165 147.891L49.9469 147.915C52.3127 147.919 55.3627 148.012 57.6742 147.896C59.9208 147.946 69.8772 147.33 71.1697 148.405C71.5854 148.75 71.862 149.508 72.0605 149.998C70.5934 151.54 69.633 151.281 67.615 151.279C48.1467 151.266 28.6762 151.311 9.20825 151.268C7.76162 151.264 5.70668 151.378 5.36133 149.624C6.33289 147.138 11.1038 147.866 13.3498 147.917Z" fill="#265120"/>
<path d="M194.582 151.333C191.459 151.164 180.234 151.887 178.29 150.711C177.775 150.402 177.643 150.081 177.531 149.514C177.984 148.05 179.397 147.936 180.731 147.927C189.556 147.872 198.383 147.941 207.209 147.94L230.845 147.945C234.159 147.941 239.17 147.733 242.566 148.085C243.188 148.148 243.684 148.911 243.971 149.466C242.667 152.142 241.179 151.145 238.619 151.313C234.584 151.162 229.887 151.268 225.779 151.27L203.247 151.304C200.358 151.272 197.469 151.214 194.582 151.333Z" fill="#0A2623" fill-opacity="0.7"/>
<path d="M81.3164 178.961C105.7 176.543 127.417 194.374 129.793 218.761C132.17 243.149 114.304 264.836 89.9119 267.173C65.5776 269.502 43.9521 251.687 41.5812 227.356C39.2104 203.027 56.9897 181.37 81.3164 178.961Z" fill="#FEF3B0"/>
<path d="M53.6435 222.818C53.7777 205.316 67.9262 191.153 85.4299 191.004C102.934 190.855 117.322 204.771 117.755 222.27C118.042 233.846 112.066 244.676 102.12 250.604C92.1749 256.533 79.8059 256.637 69.7606 250.88C59.7155 245.123 53.555 234.397 53.6435 222.818Z" fill="#FCA92B"/>
<path d="M53.6426 222.818C53.7768 205.316 67.9252 191.153 85.429 191.004C102.933 190.855 117.321 204.771 117.754 222.27L117.578 222.864C117.001 223.168 110.08 222.857 108.862 222.861L53.6426 222.818Z" fill="#FE6338"/>
<path d="M129.091 52.6501C140.885 48.5292 153.487 43.5978 165.244 39.2141L242.394 10.4907C243.17 12.1004 246.877 23.5916 247.24 23.9103C238.777 26.5754 229.829 29.0473 221.295 31.59L156.888 50.7466C147.723 53.4856 137.586 56.2584 128.607 59.2083C125.556 60.047 122.518 60.9392 119.498 61.8843C118.282 62.2212 116.924 62.5612 115.761 63.0154L108.37 65.2438L105.057 66.1237C103.155 66.7941 97.0361 68.3916 95.806 68.9851C94.2554 69.4556 88.645 71.357 87.5285 70.7791C83.3906 68.6371 94.2131 65.6208 95.7289 65.0573C95.8783 60.8773 95.4433 56.4317 95.9385 52.3079C96.4514 48.0362 102.632 47.1103 105.292 49.9068C105.9 50.5457 106.246 51.1458 106.688 51.9033C108.535 49.0186 110.847 47.5891 114.511 48.6576C116.129 49.1291 116.867 50.2867 117.596 51.7137C118.495 50.4712 119.274 49.5151 120.655 48.8408C123.797 47.3075 127.312 48.6177 128.649 51.8591C128.775 52.1636 128.9 52.3811 129.091 52.6501Z" fill="#0F3934"/>
<path d="M117.598 51.7143C118.496 50.4718 119.275 49.5157 120.657 48.8414C123.798 47.3081 127.314 48.6183 128.651 51.8597C128.776 52.1642 128.902 52.3817 129.093 52.6507C126.096 53.8386 123.069 54.9514 120.017 55.9882L116.419 57.3232C113.801 58.3876 111.152 59.3783 108.478 60.2942C107.339 60.7208 106.203 61.1556 105.07 61.5988L95.7304 65.0579C95.8799 60.8779 95.4449 56.4323 95.9401 52.3085C96.453 48.0368 102.634 47.1109 105.294 49.9074C105.901 50.5463 106.248 51.1464 106.69 51.9039C108.537 49.0192 110.848 47.5897 114.513 48.6582C116.13 49.1297 116.869 50.2873 117.598 51.7143Z" fill="#FED429"/>
<path d="M105.068 61.5984C105.592 59.9646 104.129 54.4761 106.696 53.8667C109.14 54.4771 108.311 57.9626 108.46 60.0891L108.476 60.2938C107.337 60.7204 106.201 61.1552 105.068 61.5984Z" fill="#FCA92B"/>
<path d="M116.418 57.3226C116.428 57.0043 116.447 57.1271 116.36 56.7937C115.517 53.5532 117.716 52.9712 119.444 55.5953C119.639 55.8916 119.705 55.8396 120.015 55.9876L116.418 57.3226Z" fill="#FCA92B"/>
<path d="M128.682 72.5054C131.71 72.2633 138.875 70.568 142.188 69.884L168.287 64.4973L251.614 47.3438C252.161 49.6462 253.329 60.2875 253.853 61.3918C254.013 61.4303 254.377 61.528 254.526 61.5461C251.655 61.8008 248.321 62.3447 245.431 62.7215L221.582 65.9819L157.193 74.7349C147.77 76.0187 138.121 77.4854 128.706 78.6353C128.726 76.6169 128.691 74.5294 128.682 72.5054Z" fill="#0F3934"/>
<path d="M249.736 7.68763C254.117 6.11819 258.48 4.50364 262.828 2.844C264.983 2.03458 269.154 0.286593 271.251 0.0456129C272.583 -0.103112 273.931 0.113451 275.15 0.67201C277.185 1.57853 278.771 3.26147 279.555 5.3453C281.669 11.0908 277.403 15.1019 272.309 16.5407C266.446 18.1962 260.37 19.8182 254.594 21.7204C252.16 22.5074 249.708 23.2374 247.24 23.9101C246.877 23.5914 243.17 12.1002 242.395 10.4905C244.668 9.50644 247.386 8.5606 249.736 7.68763Z" fill="#0F3934"/>
<path d="M242.395 10.4908C244.668 9.50679 247.386 8.56096 249.736 7.68799L252.798 16.7183C253.221 17.9579 254.074 20.6345 254.594 21.7207C252.16 22.5078 249.708 23.2378 247.24 23.9104C246.877 23.5917 243.17 12.1005 242.395 10.4908Z" fill="#7AD371"/>
<path d="M259.297 45.688L270.161 43.5078C274.545 42.6013 279.782 40.7288 283.813 43.3373C287.414 45.6666 288.31 51.2434 285.779 54.6456C284.814 55.9267 283.496 56.8998 281.988 57.4466C279.974 58.1975 275.735 58.6306 273.465 58.9292L261.56 60.4919C259.219 60.8723 256.873 61.2238 254.524 61.5464C254.375 61.5284 254.012 61.4307 253.852 61.3921C253.328 60.2879 252.159 49.6466 251.613 47.3441C253.766 46.752 257.037 46.1666 259.297 45.688Z" fill="#0F3934"/>
<path d="M251.613 47.3441C253.766 46.752 257.037 46.1666 259.297 45.688C259.745 49.0203 260.227 52.348 260.744 55.6703C260.898 56.7091 261.266 59.6376 261.56 60.4919C259.219 60.8723 256.873 61.2238 254.524 61.5464C254.375 61.5283 254.012 61.4307 253.852 61.3921C253.328 60.2879 252.159 49.6465 251.613 47.3441Z" fill="#7AD371"/>
<path d="M95.7621 79.5024C95.7735 80.7858 95.7866 81.9823 95.7258 83.2657C93.8544 83.4168 89.103 84.2451 87.7036 84.0602C87.0416 83.6466 87.0326 83.5538 86.6334 82.8476C86.595 81.3524 88.3669 80.972 89.5921 80.6805C91.6055 80.2015 93.7223 79.8662 95.7621 79.5024Z" fill="#FE6338"/>
</svg>
