<svg width="263" height="29" viewBox="0 0 263 29" fill="none" xmlns="http://www.w3.org/2000/svg">
<path d="M216.19 28.1924C213.111 28.1056 209.141 27.7822 206.068 27.4936C205.117 27.404 205.609 27.2134 204.955 27.1428C203.669 27.0053 202.444 27.061 201.183 26.9169C200.764 26.8681 201.299 26.5513 200.86 26.508C198.417 26.2724 196.121 26.29 193.656 26.1608C181.512 25.5203 169.543 25.5177 157.197 25.6714C153.127 25.7202 148.168 25.5564 143.964 25.8109C143.472 25.8409 143.774 26.1271 143.681 26.1541C142.219 26.5682 142.694 25.9592 141.736 25.9076C137.919 25.7049 133.701 25.7959 130.043 26.0012C128.486 26.0892 130.065 26.6359 128.483 26.346C128.373 26.3264 128.763 26.0038 128.332 25.9809C127.356 25.9296 125.536 26.0275 124.775 26.0193C123.312 26.0018 123.096 26.0095 121.722 26.0337C119.829 26.064 117.632 25.9477 115.609 26.0493C115.184 26.0718 115.752 26.3842 115.074 26.449C114.397 26.5139 112.58 26.511 111.959 26.4425C111.351 26.3741 111.608 26.1188 111.499 26.0623C110.618 25.5852 108.525 26.2815 108.25 26.3002C104.939 26.5217 101.948 26.4205 98.8959 26.3272L98.4873 22.8905C99.8895 22.5985 101.312 22.3069 102.782 21.9726C106.218 21.1899 109.891 20.288 113.14 19.6622C117.066 18.9077 120.383 18.4721 124.207 17.773C124.606 17.7007 124.073 17.4104 124.561 17.3214C129.756 16.375 134.974 15.5884 140.21 15.0745C140.736 15.0233 140.111 15.45 140.639 15.4185C143.882 15.2134 149.011 15.1686 150.727 13.4891C152.902 13.2565 155.544 12.9766 157.52 13.0242C158.794 13.0546 157.623 13.563 159.142 13.2206C159.485 13.144 158.995 12.8856 159.512 12.7945C161.692 12.4113 164.083 12.2319 166.242 11.8198C166.68 11.7354 166.527 11.4679 166.646 11.4029C167.652 10.8718 169.476 11.3546 169.861 11.3621C172.792 11.4096 174.922 11.0359 177.612 10.7663C178.237 10.704 177.459 10.4018 178.059 10.3284C181.217 9.94841 184.417 9.66629 187.538 9.54123C188.226 9.51503 187.627 9.89692 187.957 9.90095C189.41 9.91553 189.672 9.27674 191.054 9.28281C191.345 9.28343 191.208 9.57454 191.263 9.60007C192.132 10.001 192.808 9.25988 193.02 9.22589C195.732 8.77794 197.455 9.33865 200.103 9.01487C200.416 8.97588 199.679 8.68543 200.56 8.59734C206.371 8.01327 212.625 7.631 218.433 7.50557C219.341 7.48525 218.713 7.79352 218.772 7.82194C219.735 8.26375 220.28 7.54432 220.569 7.49875C222.817 7.15933 225.125 7.57952 226.596 6.67294C236.467 6.32141 246.237 5.33533 255.996 5.6532C256.13 5.65606 255.905 6.00081 256.171 6.00513C259.136 6.07271 258.598 5.5739 260.54 4.86429C260.989 4.70267 262.284 5.27602 262.577 5.42715L262.548 7.1812C262.549 7.16465 262.542 7.15255 262.538 7.147C262.158 6.91491 262.635 6.44535 262.491 6.39598C261.185 5.99878 261.168 7.64962 259.451 7.54982C259.392 7.54362 259.66 7.25514 259.502 7.21575C259.255 7.15402 258.992 7.14534 258.716 7.13482C258.465 7.12572 258.29 7.11981 258.072 7.0551C257.135 6.76012 256.581 5.9265 255.039 6.3097C254.83 6.35919 255.128 7.31129 253.502 7.1803C252.756 7.1216 250.032 6.99669 249.187 6.89402C248.364 6.79205 248.946 6.51953 248.888 6.50354C246.609 5.99079 247.553 5.87265 246.51 5.23062C245.488 4.59231 245.707 6.00679 245.264 6.14205C244.825 6.27695 243.212 5.87123 242.798 5.73758C242.391 5.60407 242.914 5.4368 242.55 5.35501C240.367 4.83048 241.551 6.00538 240.808 6.19394C239.064 6.64162 237.571 5.53454 236 5.36444C235.575 5.31849 235.913 5.57015 235.531 5.57583C234.009 5.59509 233.09 5.2314 231.252 5.45354C230.927 5.48862 229.497 6.05606 228.614 5.56194C228.487 5.49071 228.865 5.24637 228.214 5.16248C227.245 5.03677 225.448 4.91048 224.344 4.95559C223.529 4.98903 224.446 5.45073 223.425 5.27972C222.998 5.20451 223.799 4.98442 223.001 4.86424C222.213 4.74423 220.137 4.67978 219.328 4.65996C218.524 4.64033 218.952 4.97956 218.886 4.99906C218.491 5.11002 216.923 5.21185 216.782 5.20673C210.028 5.01479 203.665 4.2791 197.017 4.29045C196.499 4.29103 196.835 4.64118 196.756 4.64479C194.975 4.74323 196.401 3.87056 195.162 3.53586C195.325 4.23316 194.594 4.08936 193.321 4.13512C192.707 4.15778 193.034 4.43397 192.978 4.4601C192.058 4.84611 191.431 4.30526 191.269 4.19383C190.659 3.78364 190.024 4.23766 189.628 3.96407C189.234 3.69253 190.163 3.32316 188.971 3.30206C188.631 3.54282 189.503 4.21021 188.595 4.2956C185.163 4.61646 178.663 3.98833 175.903 3.89445C173.127 3.79846 172.16 3.83162 170.587 3.7208C167.693 3.52142 168.748 4.01609 166.935 4.21482C165.111 4.41442 166.009 3.24108 165.75 2.98372C165.495 2.72662 165.21 2.98536 164.89 2.8422C164.571 2.6991 165.267 2.53334 164.513 2.47304C163.764 2.41258 161.667 2.84547 161.417 3.10956C160.856 3.6684 161.767 4.2673 159.803 4.04332C159.69 4.03008 160.06 3.72182 159.627 3.68692C156.205 3.4201 152.491 3.38561 149.089 3.16508C148.615 3.13426 149.04 2.78913 148.764 2.76729C145.885 2.53989 146.912 3.12594 145.328 3.77273C145.684 2.91026 144.811 2.38054 142.602 2.3769C141.275 2.37478 141.492 2.75158 140.65 3.01859C140.397 3.09906 139.47 2.84232 139.302 3.02005C138.749 3.60108 139.627 4.24651 137.374 3.99566C137.275 3.98374 137.589 3.66546 137.247 3.64749C135.035 3.5305 134.773 4.13761 132.369 4.22545C130.462 4.29445 127.17 3.95185 125.025 3.91483C125.06 2.94399 123.041 3.18804 122.227 3.86721C120.836 3.85657 119.328 3.91452 117.998 3.84147C117.538 3.81667 117.836 3.53139 117.777 3.50189C116.881 3.03889 116.289 3.69909 115.991 3.7293C112.762 4.02858 110.081 3.58517 107.009 4.13248C106.9 4.15222 106.737 4.8296 105.901 4.35577C105.847 4.32306 106.86 3.99395 105.406 4.00239C103.953 4.01065 101.198 3.71509 99.1792 4.08133C98.6909 4.16935 97.4646 4.74966 96.4637 4.35042C96.3301 4.29613 96.4691 4.09883 96.2754 3.99672C95.6492 3.67167 95.3324 4.36224 94.5905 3.80513C93.8487 3.24815 92.3255 2.85976 90.2975 3.32507C90.2328 3.33879 89.7674 3.89404 89.1256 3.90688C88.1013 3.92679 86.6403 3.86473 85.5738 3.90664C85.0624 3.92691 85.4018 4.25017 85.3133 4.25949C81.8825 4.57224 79.423 4.36955 75.7332 4.3985C75.0566 4.40306 73.1348 4.94582 71.8108 4.64588C70.3565 4.31836 71.7546 2.60243 68.4703 3.15417C67.1432 3.37654 65.5741 5.54554 63.1214 4.59362C58.482 5.11178 54.1971 4.81211 49.5477 5.50259C49.3394 5.53333 48.7168 6.15879 48.2252 6.18407C47.4952 6.22046 47.0768 5.97619 46.5554 5.9942C44.3671 6.06336 42.4114 6.43853 40.2883 6.56256C39.4866 6.61019 39.7449 6.30791 38.7893 6.36562C37.8347 6.42397 37.2287 6.84319 35.9269 6.76787C34.944 6.70995 33.9108 6.03367 32.6164 6.05363C32.6261 6.80334 31.7582 6.85977 30.1813 7.19477C29.8799 7.25943 30.2292 7.49026 30.0878 7.53423C29.5132 7.7189 28.9522 7.55181 28.4097 7.74671C28.2778 7.79368 28.2941 8.04859 28.1876 8.10135C27.2824 8.55937 25.6896 8.12892 25.4158 8.05415C24.367 7.77015 23.9253 8.14563 23.1363 8.07066C22.3487 7.9959 23.4873 7.69889 22.5751 7.69529C20.7022 7.68643 18.2477 7.97375 16.3383 8.16218C15.5746 8.23909 16.131 8.52349 16.0225 8.54237C14.4545 8.79373 12.8288 8.60648 12.0367 9.37751C10.7514 7.75462 11.1375 9.64676 8.82044 9.55907C8.63881 9.55149 8.31537 8.75305 8.98824 8.55275C9.66604 8.35208 10.7239 8.49309 11.6393 8.2003C11.8559 8.13105 13.0474 7.21752 13.2177 7.15191C14.5465 6.63739 14.8742 7.85118 14.9534 7.91105C15.8519 8.55442 17.3356 7.5577 17.7458 7.45782C19.6204 6.99898 21.2511 7.01381 22.8009 6.67489C23.8192 6.4546 23.8443 5.63621 24.6585 5.5849C27.3693 5.41597 28.4145 6.46109 30.894 5.26003C31.4265 5.00431 30.8065 4.16448 32.8159 4.69629C32.9422 4.7297 34.4433 5.24615 35.2499 4.7758C35.3512 4.71649 35.3269 4.45876 35.4643 4.42586C36.3853 4.2106 37.0242 4.36674 38.0348 4.1889C39.0456 4.01113 40.2617 3.77081 41.4357 3.77181C42.1479 3.77153 43.0697 4.18804 43.4134 4.28167C44.3796 4.55286 45.352 3.92536 45.9659 4.29557C46.5843 4.66765 45.4753 5.37436 47.0395 5.53456C47.0507 4.85971 47.1352 4.16205 47.1814 3.48101C50.5803 3.27254 53.95 3.27712 57.3474 3.04786C57.7695 3.01876 57.3163 2.68312 57.7686 2.64269C59.677 2.47405 61.3635 2.63791 63.3454 2.42913C64.8801 2.26619 66.5377 1.7977 68.1399 1.62217C69.1583 2.34196 71.5278 1.96688 73.2635 1.9594C73.8714 1.95633 73.84 2.16352 74.2744 2.2113C75.913 2.38727 75.1206 1.74166 75.5621 1.61523C77.4565 1.07671 77.6854 2.60725 79.938 2.47816C80.0572 2.47169 81.4855 1.59433 81.685 1.53569C82.9509 1.15362 81.9077 1.81281 82.71 1.84288C84.1751 1.89839 85.1952 2.05699 86.9014 1.75681C87.3993 1.66815 88.5828 1.11587 89.5674 1.47931C89.6969 1.52687 89.6352 1.80023 89.7385 1.81273C91.6081 2.0167 91.6296 1.16415 92.6842 0.842652C93.7393 0.521277 95.398 1.06134 95.7363 1.22141C96.6219 1.63484 95.0727 1.42793 95.0265 1.4725C94.4859 2.00074 95.6796 1.87738 96.594 1.8951C96.7498 2.72642 98.0243 2.64113 97.5416 1.91029C97.4868 1.83048 96.7785 1.92805 96.594 1.8951C97.3695 1.05319 98.7816 0.909302 100.357 1.63535C101.094 1.97597 100.417 2.41083 102.623 2.20376C103.623 2.11066 103.222 1.54472 104.103 1.36729C106.117 0.962428 108.737 1.44408 110.834 1.32019C111.592 1.27526 110.848 0.974235 111.365 0.932741C112.739 0.821825 113.954 1.03709 115.329 0.893808C115.453 0.880438 115.143 0.555724 115.571 0.544656C118.804 0.455009 121.653 0.628343 125.047 0.598507C126.691 0.583522 129.59 0.376568 131.299 0.401875C134.265 0.442289 137.883 0.907022 140.375 0.7862C142 0.708788 141.657 0.37991 142.36 0.154455C143.728 -0.28269 146.133 0.499015 146.454 0.620479C146.465 0.624382 145.052 0.700855 145.806 0.870761C146.244 1.22383 146.439 0.621995 146.454 0.620479C146.669 0.698276 149.477 0.778802 150.03 0.718043C150.331 0.68454 150.164 0.371627 150.321 0.360074C154.083 0.0926032 157.914 0.0366459 161.675 0.216226C161.742 0.223129 161.638 0.571645 161.794 0.583515C164.033 0.759159 165.463 0.34694 167.289 0.114155C169.114 -0.118309 170.544 -0.0144639 171.6 0.59987C172.99 0.543142 174.987 0.838114 176.119 1.01713C177.254 1.1961 177.421 0.518827 177.522 0.506978C180.618 0.128144 182.426 0.550442 185.682 0.676276C187.244 0.737413 190.189 0.702287 191.915 0.668178C193.254 0.639217 194.048 0.817696 195.264 0.745545C195.428 0.735971 195.27 0.429135 195.32 0.41871C196.68 0.0899096 196.012 0.814018 196.287 0.953124C197.281 1.45916 197.895 1.7307 199.597 1.54944C200.009 1.50849 201.226 0.474848 201.964 0.432941C202.924 0.38041 202.553 0.752295 203.552 0.687844C203.637 0.682693 203.627 0.446514 204.238 0.474371C207.028 0.599265 210.185 0.832849 213.126 0.905292C213.526 0.916037 213.026 0.525564 213.604 0.534961C216.219 0.576194 219.415 0.701066 221.987 0.970667C222.627 1.03845 222.215 1.2853 222.351 1.3681C223.165 1.86862 224.464 1.23362 224.677 1.22873C229.617 1.08815 233.311 1.85844 238.276 1.78297C238.563 1.77819 240.701 1.14086 241.558 1.80967C241.641 1.85532 242.4 2.53378 243.328 2.13737C243.381 2.11237 242.8 1.75367 243.841 1.83647C244.88 1.91916 246.498 1.7758 247.759 2.2023C248.217 2.3396 249.291 3.03494 250.589 2.58947C250.692 2.55878 252.622 1.50096 253.407 2.34134C253.509 2.47836 253.389 3.31643 254.92 2.96541C255.205 2.89682 254.71 2.68152 255.448 2.6038C255.927 2.53904 256.828 2.59974 257.526 2.62568C258.27 2.65417 258.876 2.65096 259.763 2.51404C260.091 2.46641 261.005 1.94561 262.007 2.44212C262.12 2.51726 261.896 2.7858 262.266 2.84003C262.304 2.84577 262.331 2.85068 262.375 2.85646C262.473 2.86552 262.554 2.87349 262.62 2.88034C262.752 2.89403 262.819 2.90321 262.82 2.90761L262.707 9.70749C260.863 9.67817 258.576 9.90682 256.664 9.80783C255.848 9.77304 256.18 9.30334 255.416 9.21335C254.674 9.12224 252.847 9.08496 252.097 9.32771C251.261 9.57432 252.233 10.2563 250.94 10.374C245.331 10.8871 239.79 10.7557 234.221 11.0219C233.378 11.0625 234.097 11.2798 232.844 11.3597C228.397 11.641 220.669 12.3967 216.682 12.1341C213.573 11.9154 217.426 11.2993 215.056 11.2907C213.909 11.288 212.718 12.2231 212.439 12.2706C209.692 12.7474 207.866 12.5145 205.387 12.8278C204.878 12.8925 205.406 13.1932 204.973 13.2446C203.519 13.4211 201.985 13.3941 200.579 13.5403C199.948 13.6066 200.087 13.8571 199.502 13.8864C198.084 13.9614 196.899 13.9536 195.524 13.8289C195.399 13.8175 196.198 13.4208 195.175 13.4989C193.517 13.6264 191.421 13.5732 189.557 13.9973C189 14.1247 189.035 14.7206 187.78 14.4249C187.516 14.3635 187.776 13.6181 186.413 14.3706C186.173 14.4965 183.896 15.5561 182.68 15.1362C182.359 15.0255 181.516 14.5199 180.845 14.6803C180.754 14.7042 181.156 14.986 180.595 15.074C178.604 15.3804 176.552 15.5591 174.522 15.8771C173.98 15.9627 174.826 16.2058 174.018 16.3229C171.785 16.6467 169.025 16.8683 166.83 17.0161C166.022 17.0698 166.546 16.7329 166.484 16.7099C165.488 16.3348 165.008 17.0524 164.703 17.1266C162.798 17.5807 161.289 17.4514 159.514 17.7515C159.025 17.8336 159.412 18.1015 159.317 18.1413C158.335 18.5375 159.023 17.8858 158.372 17.904C156.551 17.9532 154.548 18.2341 152.735 18.5123C152.069 18.6151 152.867 18.8765 152.269 18.9646C148.726 19.4943 145.051 19.9691 141.562 20.278C140.906 20.3354 141.275 19.9988 141.13 19.9555C140.13 19.6504 138.854 20.458 138.55 20.5629C137.162 21.041 136.561 20.8835 135.306 21.1257C129.188 22.3066 121.563 23.4601 115.777 24.4906C109.851 25.5413 104.86 26.4269 99.6334 27.6427L98.8959 21.4388C100.354 21.4493 101.825 21.4464 103.335 21.4256C103.807 21.4195 103.329 21.0496 103.736 21.0395C108.91 20.9259 114.036 21.0093 119.231 20.8073C119.655 20.7914 119.038 20.45 119.717 20.4126C121.131 20.3328 122.902 20.316 124.324 20.3975C125.023 20.4364 124.094 20.7595 124.797 20.7924C126.431 20.8697 128.16 20.8538 129.836 20.7552C130.544 20.7126 129.466 20.379 130.387 20.3516C136.66 20.157 142.86 19.9072 149.236 20.1956C149.672 20.2156 150.078 20.9375 151.003 20.7714C151.068 20.5661 151.058 20.327 151.082 20.1088C160.259 19.7394 169.377 19.791 178.622 19.822C179.01 19.8233 178.338 19.4353 179.091 19.436C183.46 19.4407 187.717 19.3724 192.174 19.8499C192.616 19.8971 192.388 20.5747 193.683 20.5008C193.91 20.4864 195.878 20.4445 196.397 20.3115C196.468 20.2911 196.114 19.9621 196.754 19.9708C200.421 20.0258 204.31 20.2464 207.962 20.615C208.558 20.6754 207.905 20.9843 208.329 21.0304C211.306 21.3532 214.564 21.2766 217.431 21.7663C219.31 22.0937 218.572 22.6354 219.546 23.2782C219.683 23.3687 220.869 23.4617 220.908 23.8017C221.008 24.6559 220.37 25.5402 220.545 26.4554C220.58 26.6519 222.188 26.554 221.212 26.9564C221.143 26.9828 219.982 27.0596 219.691 27.1999C219.488 27.2965 219.818 27.6613 219.409 27.7751C219.001 27.889 218.582 27.5741 217.916 27.6971C217.246 27.8224 217.528 28.2292 216.19 28.1924ZM181.183 1.82253C182.233 2.16845 182.417 0.975292 181.262 1.24037C181.208 1.25464 181.13 1.80554 181.183 1.82253ZM53.9827 4.18448C55.3839 4.6266 56.2758 3.79638 55.2838 3.44782C54.2916 3.1001 53.5555 4.05074 53.9827 4.18448ZM39.7734 5.5483C41.413 5.84155 41.5412 4.13086 39.8414 4.60293C39.7425 4.62987 39.6776 5.53137 39.7734 5.5483ZM214.834 23.1482C214.847 23.1648 215.696 23.2308 215.718 23.2165C216.194 22.8642 214.494 22.7322 214.834 23.1482ZM25.7013 7.15096C26.2211 7.3331 27.6375 6.93879 26.9902 6.71093C26.4682 6.52737 25.053 6.92413 25.7013 7.15096ZM235.983 4.77916C235.999 4.79767 236.582 4.83911 236.574 4.73791C236.55 4.41194 235.73 4.46807 235.983 4.77916ZM1.80619 9.7652C5.32 9.38772 7.63118 10.5269 3.78078 10.8355C3.08466 10.8924 5.21928 10.2085 4.32193 10.1914C2.67865 10.1614 1.72297 11.1687 0.0331836 10.912C-0.274392 10.8643 1.60372 9.78313 1.81216 9.76248C1.81017 9.76338 1.80818 9.76429 1.80619 9.7652ZM181.766 3.27044C181.787 3.28662 182.644 3.31761 182.664 3.30235C183.135 2.93127 181.41 2.86858 181.766 3.27044ZM253.779 6.07532C253.763 6.05914 253.209 6.06707 252.714 6.08099C252.241 6.09389 251.745 6.1164 251.714 6.13336C251.222 6.46674 251.967 6.60432 252.677 6.58506C253.427 6.56391 254.248 6.38144 253.779 6.07532ZM124.991 3.8893C124.075 4.28095 122.973 4.3385 122.232 3.86765C123.149 3.88205 124.071 3.87542 124.991 3.8893Z" fill="#7AD371"/>
</svg>

