<svg width="101" height="12" viewBox="0 0 101 12" fill="none" xmlns="http://www.w3.org/2000/svg">
<path d="M82.0832 11.1801C80.9117 11.0923 79.4005 10.9307 78.2309 10.7998C77.8692 10.7592 78.0569 10.7209 77.8081 10.6908C77.319 10.6321 76.8522 10.6234 76.3723 10.5645C76.213 10.5447 76.418 10.4751 76.2508 10.4564C75.3214 10.3535 74.4469 10.3185 73.5085 10.2458C68.8862 9.88624 64.3262 9.74262 59.6243 9.65704C58.0741 9.62807 56.1886 9.53971 54.5858 9.56323C54.3983 9.56604 54.5096 9.64043 54.4739 9.64628C53.9126 9.73581 54.1009 9.58819 53.737 9.56616C52.2871 9.47913 50.6814 9.46126 49.2873 9.4759C48.6938 9.48226 49.2882 9.63473 48.6897 9.54634C48.648 9.54034 48.8002 9.4637 48.6367 9.45361C48.2662 9.43096 47.5726 9.43673 47.2834 9.42671C46.7271 9.40709 46.6448 9.40672 46.1219 9.39814C45.4013 9.38552 44.5672 9.33242 43.7963 9.33493C43.6345 9.33575 43.8473 9.42023 43.5886 9.42872C43.3305 9.4373 42.6397 9.41565 42.4043 9.39123C42.1738 9.36702 42.2738 9.30622 42.2333 9.29084C41.9028 9.16137 41.0999 9.31021 40.9952 9.31149C39.7338 9.32664 38.5973 9.26324 37.4375 9.19944L37.3655 8.33722C37.9007 8.2392 38.4436 8.14219 39.0068 8.03477C40.3223 7.78323 41.7324 7.5056 42.9749 7.3087C44.4761 7.07131 45.7393 6.92735 47.2027 6.71622C47.3553 6.6944 47.1634 6.6257 47.3499 6.5989C49.3373 6.31386 51.33 6.07885 53.3238 5.92C53.524 5.90416 53.2761 6.01515 53.4766 6.00429C54.7079 5.93408 56.6517 5.90013 57.3447 5.47161C58.174 5.40472 59.1814 5.32584 59.9286 5.33236C60.4107 5.33653 59.9543 5.46738 60.5385 5.37739C60.6702 5.35728 60.491 5.29358 60.6892 5.26941C61.5247 5.16767 62.4348 5.11782 63.2632 5.01104C63.4311 4.98918 63.3795 4.92227 63.4263 4.90578C63.82 4.7709 64.5002 4.8899 64.6461 4.8914C65.7563 4.90025 66.5729 4.80536 67.5992 4.73735C67.8377 4.72168 67.5494 4.64596 67.7786 4.62751C68.9849 4.53205 70.2052 4.46301 71.3926 4.43491C71.6543 4.42907 71.419 4.52412 71.5442 4.52549C72.0955 4.53074 72.2079 4.37104 72.7326 4.37447C72.8431 4.37505 72.785 4.44778 72.8055 4.45425C73.1272 4.55593 73.399 4.37138 73.48 4.36321C74.519 4.25552 75.1621 4.39942 76.1744 4.3245C76.2939 4.31548 76.0198 4.241 76.356 4.22105C78.5747 4.08874 80.9575 4.01383 83.167 4.00661C83.5126 4.00531 83.2685 4.07982 83.2906 4.08717C83.6486 4.20172 83.8683 4.02412 83.9791 4.01398C84.8396 3.93882 85.7098 4.0548 86.2844 3.83531C90.0426 3.79599 93.7726 3.61013 97.4794 3.76584C97.5302 3.7676 97.44 3.85199 97.5409 3.85515C98.6678 3.89567 98.4705 3.76682 99.2183 3.60589C99.3912 3.56931 99.8759 3.72396 99.985 3.76451L99.9624 4.20249C99.9628 4.19837 99.9601 4.19519 99.9588 4.19372C99.8142 4.12736 99.9961 4.01993 99.9413 4.00446C99.4455 3.87708 99.4377 4.29041 98.7854 4.22952C98.7629 4.22673 98.8649 4.16003 98.805 4.14687C98.6143 4.10532 98.407 4.11649 98.2618 4.07696C97.9062 3.98373 97.6974 3.7635 97.1107 3.82809C97.0315 3.83628 97.1428 4.08071 96.5253 4.01501C96.242 3.98515 95.2072 3.89932 94.8861 3.85691C94.5737 3.81506 94.7955 3.75836 94.7735 3.75321C93.9085 3.57973 94.2676 3.56885 93.8729 3.38757C93.4858 3.20768 93.5658 3.56616 93.397 3.59134C93.2299 3.61651 92.6181 3.48354 92.4609 3.44207C92.3066 3.40077 92.506 3.36903 92.3678 3.3415C91.5398 3.16802 91.9863 3.48501 91.7035 3.51789C91.0394 3.59639 90.4751 3.2908 89.8785 3.21848C89.7169 3.19893 89.8448 3.26832 89.6995 3.26251C89.1212 3.2386 88.7727 3.13028 88.0737 3.15161C87.9499 3.15432 87.4041 3.26972 87.0702 3.12978C87.0224 3.10962 87.1667 3.05544 86.9197 3.02245C86.5517 2.97309 85.8693 2.90855 85.4492 2.89974C85.1394 2.89329 85.4863 3.02548 85.0987 2.96413C84.9365 2.93756 85.2418 2.89703 84.9393 2.8525C84.6401 2.80815 83.851 2.7546 83.5434 2.73518C83.2379 2.71588 83.3992 2.80841 83.3742 2.81212C83.2236 2.83279 82.627 2.83033 82.5732 2.82655C80.0057 2.65859 77.5897 2.36532 75.0612 2.25772C74.8643 2.24927 74.9902 2.3424 74.9601 2.34199C74.2823 2.33711 74.8293 2.1425 74.3599 2.03834C74.418 2.21539 74.1409 2.16734 73.6565 2.15792C73.4229 2.15353 73.5459 2.22795 73.5242 2.23356C73.1723 2.31502 72.9368 2.1696 72.8758 2.1391C72.6463 2.02662 72.4018 2.12984 72.2529 2.05504C72.1047 1.98079 72.4601 1.90344 72.007 1.87893C71.8763 1.93364 72.204 2.11455 71.8579 2.12125C70.5505 2.14585 68.0818 1.88686 67.0326 1.82137C65.977 1.75485 65.6089 1.74864 65.0114 1.69728C63.9117 1.60412 64.3095 1.74355 63.6184 1.76633C62.9228 1.78928 63.273 1.50931 63.1763 1.44117C63.0811 1.37317 62.9709 1.43365 62.8502 1.39318C62.7299 1.35275 62.9959 1.32151 62.7096 1.29541C62.425 1.2693 61.6241 1.34706 61.5271 1.40949C61.3095 1.54107 61.6515 1.70379 60.9061 1.61962C60.8631 1.61469 61.0062 1.54296 60.8417 1.52803C59.5418 1.41233 58.129 1.35179 56.8363 1.25036C56.6563 1.2362 56.8208 1.15575 56.716 1.14654C55.6225 1.05069 56.0084 1.21107 55.3999 1.3514C55.5428 1.1407 55.2153 0.996521 54.3748 0.966452C53.8701 0.948462 53.9492 1.04547 53.6265 1.10117C53.5295 1.11796 53.1791 1.04177 53.1137 1.08401C52.8979 1.22204 53.2261 1.39454 52.3712 1.30291C52.3336 1.29866 52.456 1.22316 52.326 1.21429C51.4853 1.15681 51.3799 1.30514 50.4642 1.29703C49.7377 1.29041 48.4881 1.1646 47.6719 1.12986C47.6952 0.887724 46.9246 0.924726 46.6078 1.08491C46.0782 1.06594 45.5039 1.06302 44.9983 1.02963C44.8235 1.0182 44.9399 0.95032 44.918 0.942286C44.582 0.816443 44.3496 0.974721 44.2358 0.978916C43.0037 1.01747 41.9881 0.877594 40.8129 0.982018C40.7711 0.985805 40.7013 1.15329 40.3885 1.02621C40.3683 1.01748 40.7579 0.945803 40.2045 0.932796C39.6511 0.919729 38.6063 0.817892 37.8336 0.889598C37.6468 0.906772 37.1728 1.03976 36.7969 0.930435C36.7467 0.91559 36.8021 0.867633 36.7296 0.840266C36.4954 0.753068 36.3662 0.922569 36.0909 0.776385C35.8155 0.630247 35.2411 0.518883 34.4635 0.616789C34.4387 0.619634 34.2545 0.75414 34.0101 0.751616C33.6201 0.747422 33.065 0.719097 32.6586 0.720416C32.4638 0.721089 32.5886 0.804772 32.5548 0.806341C31.2451 0.855196 30.312 0.784466 28.9078 0.763409C28.6504 0.759346 27.9112 0.88057 27.4119 0.796098C26.8636 0.703874 27.4208 0.284694 26.1637 0.399724C25.656 0.446194 25.0255 0.977709 24.1075 0.72432C22.3347 0.824795 20.7104 0.726189 18.931 0.877112C18.8513 0.883823 18.6036 1.03739 18.4162 1.04151C18.138 1.04735 17.9832 0.98443 17.7847 0.9867C16.9515 0.99466 16.2013 1.08098 15.3919 1.1047C15.0863 1.11389 15.1901 1.03909 14.8259 1.05041C14.462 1.06195 14.2237 1.16497 13.7304 1.14241C13.358 1.12514 12.9786 0.95307 12.4866 0.954992C12.4756 1.14275 12.1447 1.1547 11.539 1.23544C11.4232 1.25104 11.5513 1.30954 11.4967 1.32027C11.2746 1.3654 11.0649 1.32252 10.8548 1.37041C10.8037 1.38195 10.8047 1.44583 10.7632 1.45887C10.4099 1.57204 9.81352 1.46207 9.71113 1.44303C9.31867 1.37061 9.14309 1.46426 8.845 1.44478C8.54746 1.42538 8.98613 1.35189 8.63983 1.35024C7.92891 1.34647 6.99109 1.41779 6.26225 1.46564C5.97077 1.48515 6.17554 1.55631 6.13395 1.56108C5.53317 1.62462 4.92069 1.57903 4.60236 1.77337C4.15227 1.36762 4.25496 1.84168 3.37785 1.82334C3.30912 1.82175 3.20546 1.62182 3.46528 1.57044C3.72698 1.51896 4.12485 1.55286 4.47879 1.4784C4.56255 1.46074 5.03532 1.23041 5.10134 1.21386C5.61679 1.0838 5.7137 1.38824 5.74243 1.40318C6.06888 1.56404 6.65422 1.31381 6.81194 1.28881C7.5333 1.17377 8.15177 1.17834 8.74716 1.09471C9.13834 1.0404 9.16498 0.835391 9.47501 0.823459C10.5069 0.784535 10.8829 1.0481 11.8482 0.752405C12.0555 0.689556 11.8366 0.477723 12.589 0.615621C12.6362 0.624267 13.1962 0.757311 13.5115 0.641846C13.5511 0.627279 13.5469 0.562693 13.5997 0.554844C13.9535 0.50356 14.1931 0.544536 14.5802 0.503213C14.9674 0.461915 15.4336 0.405885 15.8794 0.410413C16.1499 0.412923 16.4924 0.520658 16.6213 0.545431C16.9835 0.617032 17.3642 0.464054 17.5908 0.559268C17.8192 0.654984 17.3851 0.827012 17.9769 0.873808C17.993 0.705044 18.0375 0.530896 18.067 0.360741C19.3618 0.323526 20.6422 0.341652 21.9371 0.303464C22.098 0.298573 21.9313 0.212088 22.1038 0.204544C22.8317 0.173258 23.4701 0.224339 24.2267 0.184661C24.8125 0.153627 25.4498 0.0474337 26.0613 0.0145508C26.4375 0.201376 27.344 0.124298 28.0039 0.135327C28.235 0.13906 28.2201 0.190611 28.3846 0.2058C29.0051 0.262116 28.7131 0.0948262 28.8827 0.0665759C29.6106 -0.0534458 29.6758 0.330749 30.5344 0.316537C30.5798 0.315856 31.1351 0.108256 31.2118 0.095277C31.6983 0.0102748 31.2926 0.166345 31.5973 0.180522C32.1537 0.206629 32.5395 0.254916 33.1923 0.194787C33.3829 0.176971 33.8401 0.0494096 34.2098 0.149068C34.2584 0.162113 34.2314 0.229857 34.2705 0.233907C34.9789 0.30175 34.9981 0.0890409 35.4032 0.0184496C35.8085 -0.0520962 36.4324 0.0985357 36.5591 0.141775C36.8907 0.253513 36.3041 0.187034 36.286 0.197755C36.0738 0.324609 36.5293 0.305058 36.8769 0.318291C36.9258 0.527453 37.4118 0.518493 37.2372 0.331236C37.2173 0.31076 36.9467 0.32829 36.8769 0.318291C37.1824 0.115414 37.721 0.0931483 38.3113 0.290196C38.5876 0.382659 38.3249 0.484409 39.1664 0.454936C39.5481 0.441844 39.4023 0.296381 39.7393 0.261073C40.5103 0.180567 41.5011 0.328486 42.3003 0.32026C42.5891 0.317245 42.3092 0.233976 42.5066 0.229227C43.0303 0.216444 43.4901 0.283607 44.0144 0.263166C44.0619 0.261218 43.9475 0.176635 44.1104 0.178657C45.341 0.192499 46.4225 0.268688 47.7138 0.301657C48.3394 0.317447 49.4437 0.300956 50.0936 0.328513C51.2212 0.375257 52.5932 0.537512 53.5418 0.539844C54.1605 0.54171 54.0331 0.455099 54.3026 0.408007C54.8267 0.316738 55.7344 0.5442 55.8556 0.578908C55.8595 0.580006 55.3217 0.580192 55.6068 0.632736C55.7702 0.726817 55.8495 0.579073 55.8556 0.578908C55.9364 0.601159 57.0038 0.659318 57.2146 0.651777C57.3296 0.647536 57.2684 0.567055 57.3283 0.566322C58.7611 0.551026 60.2182 0.59097 61.6472 0.690175C61.6724 0.692858 61.6305 0.778463 61.6898 0.783683C62.5399 0.859957 63.0866 0.777918 63.7826 0.746734C64.4783 0.715643 65.0212 0.763045 65.4184 0.93249C65.9472 0.939223 66.7047 1.04335 67.134 1.1055C67.5643 1.16766 67.6324 1.00098 67.6706 0.999557C68.8502 0.952709 69.5347 1.08657 70.7719 1.16977C71.3653 1.20986 72.4854 1.24848 73.1417 1.26813C73.6506 1.2827 73.9517 1.34036 74.4142 1.34234C74.4767 1.34266 74.4183 1.26333 74.4375 1.26155C74.956 1.20178 74.6981 1.37182 74.802 1.41114C75.177 1.55414 75.4089 1.63219 76.057 1.61535C76.2139 1.61199 76.682 1.37395 76.9627 1.37594C77.3276 1.37901 77.1848 1.46573 77.5646 1.46654C77.597 1.4667 77.5943 1.40745 77.8264 1.42481C78.8864 1.50348 80.0851 1.61637 81.2024 1.68606C81.3544 1.69576 81.1661 1.58932 81.3855 1.6018C82.3792 1.65798 83.593 1.74611 84.5688 1.85999C84.8118 1.88851 84.6543 1.94283 84.7057 1.96601C85.0132 2.10594 85.5091 1.97067 85.5901 1.97333C87.4672 2.02821 88.868 2.28971 90.7539 2.36525C90.8632 2.36951 91.6767 2.25082 92.0005 2.43481C92.0318 2.44783 92.3185 2.6323 92.6717 2.55104C92.692 2.54582 92.4723 2.44475 92.8673 2.48566C93.2617 2.52653 93.8764 2.52223 94.3543 2.65388C94.5277 2.69727 94.9343 2.89258 95.428 2.80687C95.4671 2.80121 96.202 2.57484 96.498 2.80115C96.5367 2.83754 96.4895 3.04494 97.0712 2.98802C97.1795 2.97663 96.9922 2.91266 97.2724 2.90818C97.4542 2.90168 97.7963 2.93526 98.061 2.95609C98.3431 2.97849 98.5733 2.99019 98.9099 2.9743C99.0343 2.96918 99.3814 2.85767 99.7605 3.00324C99.8033 3.02446 99.7184 3.08703 99.8583 3.10843C99.8728 3.11069 99.8831 3.1125 99.8998 3.11488C99.9367 3.11921 99.9676 3.12294 99.9924 3.12606C100.042 3.13228 100.068 3.13602 100.068 3.13713L99.9801 4.83507C99.2752 4.81086 98.4021 4.84913 97.675 4.80927C97.3645 4.79414 97.4978 4.67938 97.2082 4.65095C96.927 4.62237 96.2319 4.59926 95.9429 4.65446C95.6208 4.70996 95.9807 4.88747 95.4868 4.90751C93.3431 4.99525 91.2355 4.92732 89.1115 4.96278C88.7901 4.96827 89.0601 5.02655 88.582 5.03966C86.8846 5.0851 83.9303 5.23826 82.4183 5.15752C81.2395 5.09075 82.7162 4.95147 81.8149 4.9402C81.3788 4.93518 80.9085 5.16491 80.8017 5.17583C79.7476 5.28551 79.0575 5.22149 78.1086 5.2928C77.9138 5.30757 78.109 5.38432 77.9431 5.39598C77.3869 5.43609 76.8039 5.4254 76.2661 5.4587C76.0251 5.47385 76.0728 5.53689 75.85 5.5429C75.3091 5.55853 74.8586 5.5542 74.338 5.52044C74.2908 5.51735 74.6027 5.41947 74.2121 5.43715C73.5791 5.4661 72.7835 5.44959 72.0662 5.55367C71.8518 5.58494 71.8526 5.73425 71.3818 5.65889C71.2828 5.64327 71.3973 5.45666 70.8633 5.64405C70.7697 5.67532 69.8814 5.93928 69.4281 5.83367C69.3086 5.8058 68.9994 5.67874 68.7407 5.71884C68.7056 5.72483 68.8522 5.79554 68.6372 5.81752C67.874 5.89403 67.0903 5.93927 66.3117 6.02027C66.1042 6.04206 66.4199 6.10252 66.1105 6.13241C65.2545 6.21507 64.2007 6.27382 63.3637 6.31455C63.0557 6.32934 63.2626 6.2439 63.2396 6.23822C62.8702 6.14572 62.6708 6.3268 62.5532 6.34601C61.8191 6.46371 61.249 6.4347 60.5681 6.51475C60.3802 6.53669 60.5206 6.60295 60.4838 6.6132C60.1009 6.71545 60.3782 6.5498 60.1306 6.55619C59.4384 6.57365 58.6711 6.65072 57.976 6.72739C57.7208 6.7557 58.0167 6.81846 57.7876 6.84287C56.4296 6.9894 55.0229 7.12601 53.6917 7.22346C53.4417 7.24162 53.5906 7.15473 53.5369 7.14464C53.1666 7.07338 52.6606 7.28464 52.5423 7.31301C52.003 7.44218 51.7798 7.4064 51.2973 7.476C48.9456 7.81476 46.025 8.17452 43.8059 8.50369C41.5333 8.83905 39.6212 9.13487 37.6103 9.53454L37.4802 7.97808C38.0355 8.00009 38.5956 8.01853 39.1711 8.03257C39.3508 8.03705 39.1725 7.93858 39.3273 7.94122C41.2994 7.97851 43.2516 8.05943 45.2325 8.06567C45.3938 8.06631 45.1629 7.97432 45.4217 7.97235C45.9612 7.96781 46.6363 7.98246 47.1769 8.01762C47.4425 8.03463 47.0851 8.10567 47.3523 8.12122C47.9738 8.15753 48.6323 8.17116 49.2714 8.16331C49.5417 8.15974 49.1351 8.06562 49.486 8.06797C51.877 8.08199 54.2398 8.07744 56.6617 8.21085C56.8271 8.22003 56.9727 8.40428 57.3269 8.37176C57.3539 8.32111 57.3529 8.26127 57.3649 8.207C60.86 8.20367 64.3244 8.3112 67.836 8.44052C67.9836 8.44595 67.7317 8.34016 68.0176 8.35025C69.6771 8.40924 71.2934 8.45369 72.9821 8.64404C73.1494 8.66291 73.059 8.82855 73.5511 8.83106C73.6374 8.83105 74.3849 8.8531 74.5827 8.82872C74.6095 8.82481 74.477 8.73656 74.7199 8.74955C76.1112 8.82533 77.5856 8.9512 78.9695 9.11438C79.1954 9.14109 78.9471 9.20574 79.108 9.22554C80.2366 9.3643 81.472 9.41186 82.5587 9.59598C83.2711 9.71844 82.9912 9.83841 83.3604 10.0208C83.4123 10.0464 83.8623 10.0958 83.8773 10.182C83.9154 10.3984 83.6732 10.606 83.7396 10.8394C83.753 10.8894 84.364 10.9007 83.9932 10.9799C83.967 10.9849 83.5259 10.9784 83.4152 11.0072C83.338 11.027 83.4634 11.1257 83.308 11.1452C83.1528 11.1648 82.9936 11.0767 82.7401 11.0931C82.4853 11.11 82.5925 11.2179 82.0832 11.1801ZM69.0543 1.3853C69.4515 1.48823 69.5289 1.19286 69.088 1.24101C69.0672 1.24373 69.0343 1.38022 69.0543 1.3853ZM20.6394 0.5694C21.1647 0.687289 21.5175 0.484648 21.1463 0.392097C20.775 0.2998 20.4793 0.533739 20.6394 0.5694ZM15.2151 0.849122C15.8327 0.928152 15.9129 0.500555 15.2585 0.612774C15.2205 0.619178 15.179 0.844561 15.2151 0.849122ZM81.5723 9.88737C81.5772 9.89177 81.8995 9.92616 81.9078 9.92305C82.0887 9.84477 81.4439 9.77597 81.5723 9.88737ZM9.83832 1.21711C10.0319 1.26337 10.5779 1.16674 10.3368 1.10868C10.1424 1.06187 9.59687 1.15944 9.83832 1.21711ZM89.8737 3.07166C89.8797 3.07659 90.1014 3.09802 90.0987 3.07255C90.0906 2.99049 89.7788 2.98902 89.8737 3.07166ZM0.713578 1.89161C2.05416 1.78641 2.90361 2.06799 1.43547 2.15491C1.17011 2.17103 1.99642 1.99361 1.65655 1.99164C1.03435 1.98838 0.646736 2.24441 0.0127128 2.18567C-0.102578 2.17467 0.636473 1.89661 0.715907 1.89091C0.715131 1.89114 0.714354 1.89137 0.713578 1.89161ZM69.2666 1.75637C69.2747 1.76075 69.6003 1.78196 69.6082 1.77848C69.7898 1.69312 69.1338 1.65032 69.2666 1.75637ZM96.6301 3.85423C96.6004 3.8459 95.865 3.84519 95.8437 3.85333C95.6517 3.93305 95.9331 3.97286 96.2034 3.97334C96.4892 3.97362 96.8041 3.93429 96.6301 3.85423ZM47.6593 1.12308C47.3068 1.20999 46.8868 1.21137 46.6094 1.08506C46.9585 1.09941 47.3095 1.10865 47.6593 1.12308Z" fill="#7AD371"/>
</svg>
