<svg width="228" height="103" viewBox="0 0 228 103" fill="none" xmlns="http://www.w3.org/2000/svg">
<mask id="path-1-inside-1_289_16704" fill="white">
<path fill-rule="evenodd" clip-rule="evenodd" d="M187.917 1.53516C192.5 -2.30111 199.396 1.56516 198.514 7.47657L195.063 30.582C213.512 32.1367 228 47.6009 228 66.4512C228 86.3334 211.882 102.451 192 102.451H36C16.1178 102.451 0 86.3334 0 66.4512C5.25747e-05 46.569 16.1178 30.4512 36 30.4512H153.37L187.917 1.53516Z"/>
</mask>
<path fill-rule="evenodd" clip-rule="evenodd" d="M187.917 1.53516C192.5 -2.30111 199.396 1.56516 198.514 7.47657L195.063 30.582C213.512 32.1367 228 47.6009 228 66.4512C228 86.3334 211.882 102.451 192 102.451H36C16.1178 102.451 0 86.3334 0 66.4512C5.25747e-05 46.569 16.1178 30.4512 36 30.4512H153.37L187.917 1.53516Z" fill="#274C48"/>
<path d="M187.917 1.53516L186.633 0.00148358L186.633 0.00149575L187.917 1.53516ZM198.514 7.47657L200.492 7.77194L200.492 7.77178L198.514 7.47657ZM195.063 30.582L193.085 30.2867L192.77 32.3959L194.896 32.575L195.063 30.582ZM228 66.4512H230V66.4512L228 66.4512ZM0 66.4512L-2 66.4512V66.4512H0ZM153.37 30.4512V32.4512H154.097L154.654 31.9848L153.37 30.4512ZM187.917 1.53516L189.201 3.06884C192.373 0.413439 197.146 3.08978 196.536 7.18136L198.514 7.47657L200.492 7.77178C201.646 0.0405352 192.628 -5.01567 186.633 0.00148358L187.917 1.53516ZM198.514 7.47657L196.536 7.1812L193.085 30.2867L195.063 30.582L197.042 30.8774L200.492 7.77194L198.514 7.47657ZM195.063 30.582L194.896 32.575C212.317 34.0431 226 48.6493 226 66.4512L228 66.4512L230 66.4512C230 46.5525 214.706 30.2303 195.231 28.5891L195.063 30.582ZM228 66.4512H226C226 85.2289 210.778 100.451 192 100.451V102.451V104.451C212.987 104.451 230 87.438 230 66.4512H228ZM192 102.451V100.451H36V102.451V104.451H192V102.451ZM36 102.451V100.451C17.2223 100.451 2 85.2289 2 66.4512H0H-2C-2 87.438 15.0132 104.451 36 104.451V102.451ZM0 66.4512L2 66.4512C2.00005 47.6735 17.2224 32.4512 36 32.4512V30.4512V28.4512C15.0132 28.4512 -1.99994 45.4644 -2 66.4512L0 66.4512ZM36 30.4512V32.4512H153.37V30.4512V28.4512H36V30.4512ZM153.37 30.4512L154.654 31.9848L189.201 3.06883L187.917 1.53516L186.633 0.00149575L152.086 28.9175L153.37 30.4512Z" fill="white" fill-opacity="0.1" mask="url(#path-1-inside-1_289_16704)"/>
</svg>
