<svg width="438" height="206" viewBox="0 0 438 206" fill="none" xmlns="http://www.w3.org/2000/svg">
<mask id="path-1-inside-1_289_16714" fill="white">
<path fill-rule="evenodd" clip-rule="evenodd" d="M47.1221 1.53511C42.5387 -2.30106 35.6442 1.56514 36.5264 7.47652L39.9531 30.4336H32C14.3269 30.4336 0 44.7604 0 62.4336V173.434C3.05176e-05 191.107 14.3269 205.434 32 205.434H406C423.673 205.434 438 191.107 438 173.434V62.4336C438 44.7604 423.673 30.4336 406 30.4336H81.6484L47.1221 1.53511Z"/>
</mask>
<path fill-rule="evenodd" clip-rule="evenodd" d="M47.1221 1.53511C42.5387 -2.30106 35.6442 1.56514 36.5264 7.47652L39.9531 30.4336H32C14.3269 30.4336 0 44.7604 0 62.4336V173.434C3.05176e-05 191.107 14.3269 205.434 32 205.434H406C423.673 205.434 438 191.107 438 173.434V62.4336C438 44.7604 423.673 30.4336 406 30.4336H81.6484L47.1221 1.53511Z" fill="#274C48"/>
<path d="M47.1221 1.53511L48.4057 0.00141987L48.4058 0.00143865L47.1221 1.53511ZM36.5264 7.47652L34.5483 7.77179V7.77172L36.5264 7.47652ZM39.9531 30.4336L41.9312 30.1383L42.2738 32.4336H39.9531V30.4336ZM32 30.4336V28.4336V28.4336V30.4336ZM0 173.434H-2V173.434H0ZM406 205.434V207.434V207.434V205.434ZM438 173.434H440V173.434H438ZM81.6484 30.4336V32.4336H80.9219L80.3647 31.9672L81.6484 30.4336ZM47.1221 1.53511L45.8384 3.06881C42.6661 0.41367 37.8938 3.08946 38.5045 7.18132L36.5264 7.47652L34.5483 7.77172C33.3945 0.040828 42.4112 -5.0158 48.4057 0.00141987L47.1221 1.53511ZM36.5264 7.47652L38.5045 7.18126L41.9312 30.1383L39.9531 30.4336L37.975 30.7288L34.5483 7.77179L36.5264 7.47652ZM39.9531 30.4336V32.4336H32V30.4336V28.4336H39.9531V30.4336ZM32 30.4336V32.4336C15.4315 32.4336 2 45.865 2 62.4336H0H-2C-2 43.6559 13.2223 28.4336 32 28.4336V30.4336ZM0 62.4336H2V173.434H0H-2V62.4336H0ZM0 173.434H2C2.00003 190.002 15.4315 203.434 32 203.434V205.434V207.434C13.2223 207.434 -1.99997 192.211 -2 173.434H0ZM32 205.434V203.434H406V205.434V207.434H32V205.434ZM406 205.434V203.434C422.569 203.434 436 190.002 436 173.434H438H440C440 192.211 424.778 207.434 406 207.434V205.434ZM438 173.434H436V62.4336H438H440V173.434H438ZM438 62.4336H436C436 45.865 422.569 32.4336 406 32.4336V30.4336V28.4336C424.778 28.4336 440 43.6559 440 62.4336H438ZM406 30.4336V32.4336H81.6484V30.4336V28.4336H406V30.4336ZM81.6484 30.4336L80.3647 31.9672L45.8384 3.06879L47.1221 1.53511L48.4058 0.00143865L82.9321 28.8999L81.6484 30.4336Z" fill="white" fill-opacity="0.1" mask="url(#path-1-inside-1_289_16714)"/>
</svg>
