<svg width="103" height="40" viewBox="0 0 103 40" fill="none" xmlns="http://www.w3.org/2000/svg">
<path d="M11.1069 0.0198177C11.9329 -0.0347613 12.6204 0.155474 13.188 0.794007C13.5364 1.18595 13.7502 1.67908 13.7983 2.20126C13.84 2.69619 13.6107 3.81565 13.522 4.34745L12.8935 8.18645C12.767 8.93775 12.5943 9.75441 12.5308 10.5098C12.1416 15.1531 20.1433 15.6372 20.938 11.3971C21.1016 10.5237 20.6686 8.53495 20.5125 7.59958L19.9328 4.08547C19.7603 3.02075 19.44 2.06718 20.0844 1.09273C20.5755 0.349848 21.3691 -0.0483985 22.257 0.00470844C22.9003 0.0485661 23.5014 0.341792 23.9319 0.822004C24.4391 1.39543 24.763 2.89045 24.9893 3.65833L26.1409 7.57638L29.4395 18.8372L32.094 27.881L32.8651 30.5133C33.2912 31.9612 33.5664 32.6761 33.4642 34.2357C33.3498 35.357 32.9406 36.4283 32.2785 37.3405C31.2916 38.7118 29.8014 39.6359 28.1343 39.91C27.4583 40.0147 26.7833 39.9992 26.1017 39.9992L23.9089 39.9994L16.3306 39.9992L9.32515 40L7.29187 39.9997C6.69658 39.9994 6.05208 40.0081 5.4639 39.9242C4.41593 39.7695 3.42309 39.3559 2.57527 38.7207C1.22943 37.7074 0.33203 36.2092 0.0738836 34.5446C-0.15196 33.0147 0.174126 32.0698 0.590148 30.6538L1.37 28.0015L3.75906 19.8572L7.28148 7.83556L8.37556 4.11169C8.59337 3.36611 8.806 2.61531 9.03342 1.87311C9.12272 1.58175 9.26477 1.19933 9.45242 0.959993C9.8813 0.412897 10.4286 0.116504 11.1069 0.0198177Z" fill="#7AD371"/>
<path d="M20.7278 25.1916C20.2328 25.4576 19.8597 25.723 19.5096 26.1696C19.1067 25.8437 18.8622 25.7078 18.4073 25.4736C17.8778 25.2423 17.5191 25.1378 16.9379 25.0593C16.3816 24.9773 15.5612 25.0515 15.025 25.1968C14.451 25.3561 14.0932 25.541 13.5975 25.846C13.4725 25.9412 13.3711 26.0105 13.2392 26.0964C12.8212 25.5284 12.1368 25.1715 11.4755 24.9713C10.8222 24.7748 10.0087 24.8147 9.36455 25.027C8.47169 25.3246 7.73198 25.9619 7.30547 26.8008C6.87095 27.6676 6.79872 28.6715 7.10467 29.5916C7.41175 30.5015 8.07039 31.2506 8.93354 31.6716C9.85605 32.122 10.8305 32.1341 11.7911 31.804C12.5288 33.4885 13.9688 34.6344 15.8189 34.8169C18.1083 35.0428 20.0138 33.8258 20.9164 31.7459C21.6171 32.019 22.296 32.0987 23.0402 31.9532C23.9699 31.7686 24.7874 31.2198 25.3102 30.4292C25.8491 29.6124 26.0382 28.6135 25.8349 27.6563C25.6276 26.6474 25.0155 25.8922 24.1728 25.3347L24.1357 25.3521C24.1 25.3693 24.0646 25.3886 24.0294 25.4088C24.0103 25.4197 23.9913 25.4308 23.9722 25.442C23.8941 25.4878 23.8157 25.5337 23.7335 25.5643C23.0698 25.8107 22.3293 25.6503 21.7268 25.3157C21.6816 25.2906 21.6128 25.2429 21.5387 25.1917L21.5382 25.1913C21.4147 25.1059 21.2768 25.0104 21.2092 24.9924C21.1036 25.0287 20.97 25.0868 20.8496 25.1391L20.8487 25.1395L20.8432 25.1419L20.8041 25.1589L20.7851 25.1671C20.7818 25.1685 20.7785 25.1699 20.7753 25.1713L20.7714 25.173C20.7689 25.1741 20.7665 25.1751 20.764 25.1762C20.7516 25.1815 20.7396 25.1867 20.7278 25.1916Z" fill="white"/>
<path d="M95.1545 30.3789C95.7707 30.4232 96.4354 30.6612 96.738 31.2054C97.6112 32.8035 96.3094 33.6626 95.1435 34.4294C86.8433 39.8874 76.0145 40.7526 66.4521 38.9066C65.4222 38.708 64.353 38.3889 63.3236 38.1275C61.8081 37.6522 60.9265 36.8214 61.9697 35.0308C62.4048 34.2837 63.3836 34.3986 64.1138 34.6163C65.0532 34.8955 66.0869 35.1353 67.0832 35.3346C69.8961 35.9064 72.7597 36.1905 75.6302 36.1831C81.2862 36.1469 87.5683 34.9158 92.4446 31.9359C93.2944 31.4163 94.1522 30.521 95.1545 30.3789Z" fill="#7AD371"/>
<path d="M49.0776 4.80368C51.3104 4.56497 51.2244 7.07957 51.3128 8.6379C48.8579 8.8541 46.4071 9.24329 43.929 9.44996C44.0055 10.1437 44.0731 10.8383 44.1318 11.5336C45.5371 11.4343 47.8978 11.0766 49.1397 11.1145C50.269 11.8716 50.2059 13.4182 50.2239 14.64C48.3416 14.8191 46.3925 15.1215 44.5448 15.2628C44.5591 15.7686 44.6004 16.1884 44.6532 16.6931C44.7793 17.7165 44.9285 18.7997 44.9974 19.8232C43.9993 19.956 42.304 20.5574 41.4165 19.9043C40.6526 19.3423 40.6545 17.9293 40.5648 17.0278L40.2759 14.2145C39.9852 11.4614 39.6109 8.62929 39.3652 5.89221C40.9847 5.669 42.6965 5.53716 44.3298 5.35035C45.904 5.1703 47.5067 4.95188 49.0776 4.80368Z" fill="#7AD371"/>
<path d="M63.3943 22.1949C65.2906 22.0208 65.5546 23.9904 65.7278 25.4306C65.5631 25.4373 65.3987 25.4472 65.2344 25.4601C63.492 25.6058 61.5443 26.5005 61.2016 28.3927C60.967 29.6883 61.0561 30.9409 61.1817 32.2359C60.3763 32.3607 58.7211 32.75 58.1002 32.2396C57.6221 31.8467 57.5716 31.2453 57.483 30.682C57.1272 28.298 57.0025 25.6397 56.6797 23.2027C59.3828 22.8399 60.3064 22.3172 60.3822 25.6661C60.3878 25.9176 60.4273 26.2712 60.4464 26.5307C60.9732 24.9337 61.504 22.6763 63.3943 22.1949Z" fill="white"/>
<path d="M67.6347 22.0743C68.4009 22.0005 69.4553 22.1425 69.5845 23.0188C69.9743 25.6654 70.2431 28.542 70.5419 31.1942L69.1524 31.3872C68.5001 31.4647 67.2337 31.6043 67.0247 30.7096C66.7519 29.5425 66.6752 28.2333 66.5548 27.0324L66.0527 22.3983C66.5998 22.2717 67.0776 22.1641 67.6347 22.0743Z" fill="white"/>
<path d="M67.2439 17.9603C68.2196 17.7931 69.1501 18.436 69.3389 19.4077C69.5277 20.3792 68.9056 21.3237 67.9383 21.5341C67.2932 21.6749 66.6227 21.4547 66.1859 20.9597C65.7492 20.4647 65.6146 19.7717 65.8342 19.1494C66.0538 18.5267 66.5932 18.0717 67.2439 17.9603Z" fill="white"/>
<path d="M62.8873 12.6481C62.7171 9.43154 59.9719 6.9619 56.7553 7.1318C53.5386 7.3017 51.0686 10.0473 51.2388 13.2641C51.4088 16.4809 54.1547 18.9507 57.3714 18.7803C60.5879 18.61 63.0574 15.8645 62.8873 12.6481ZM56.7205 10.2724C57.5102 10.2407 57.9679 10.6125 58.2648 11.3587C58.68 12.402 58.8818 13.8477 58.4785 14.9203C58.2955 15.407 57.9949 15.5713 57.5367 15.7485C56.4498 15.7859 55.954 15.2432 55.7177 14.2049C55.4371 12.9719 55.0996 10.6643 56.7205 10.2724Z" fill="#7AD371"/>
<path d="M74.8582 11.6185C74.9074 8.38962 72.3346 5.7299 69.1057 5.6721C65.8647 5.61405 63.1926 8.19906 63.1433 11.4402C63.094 14.6815 65.6862 17.3466 68.9275 17.3871C72.1563 17.4276 74.8091 14.8474 74.8582 11.6185ZM68.4513 8.85487C69.2847 8.77364 69.7876 8.96918 70.1461 9.79391C70.7075 11.0851 71.0931 13.6434 69.5244 14.3469C68.6867 14.4508 68.1718 14.1612 67.8241 13.364C67.2852 12.1283 66.9155 9.4934 68.4513 8.85487Z" fill="#7AD371"/>
<path d="M86 2.51533C85.8096 1.06383 85.6834 0.102241 83.7767 0.252486C83.1397 0.313524 82.6447 0.409221 82.0655 0.521198C81.9492 0.543693 81.8294 0.566844 81.7044 0.590504C81.7527 1.07643 81.811 1.58775 81.8699 2.10485C81.9726 3.00498 82.0772 3.92266 82.1343 4.7545C79.0123 4.17291 76.1019 4.75807 75.4734 8.30272C75.1469 10.1459 75.5208 13.0425 76.6043 14.5888C77.1122 15.3255 77.8968 15.8249 78.7792 15.9732C79.3456 16.0639 79.8867 15.9887 80.4401 15.8587C82.1564 15.2566 82.5383 14.4313 83.1907 12.8449C83.3038 14.576 83.7171 15.3908 85.6252 15.1713C86.2124 15.1037 86.7578 15.003 87.3316 14.846C87.0656 12.8699 86.8783 10.8702 86.6909 8.86932C86.5 6.83154 86.309 4.79261 86.0347 2.77636C86.0227 2.68774 86.0112 2.60069 86 2.51533ZM81.9071 6.87715C82.0651 6.86093 82.154 6.8518 82.2677 6.94725C82.4958 8.09789 82.4934 13.6368 80.3983 12.8487C80.0712 12.5616 79.8855 12.2412 79.7871 11.8127C79.4514 10.3483 79.3382 8.07704 80.8448 7.20804C81.1215 7.04847 81.4347 6.9747 81.7383 6.90319C81.7619 6.89762 81.7855 6.89207 81.809 6.88649C81.8446 6.88357 81.8771 6.88023 81.9071 6.87715Z" fill="#7AD371"/>
<path d="M100.504 18.8318C99.6133 18.1469 98.5834 17.9328 97.4802 18.0245C95.8845 18.1562 94.4578 18.5934 93.3682 19.8521C91.7264 21.7491 92.0849 25.3999 93.996 26.9962C96.2257 28.8582 100.229 28.4388 101.776 25.8955C102.385 24.3736 101.865 24.0255 100.416 23.9923C100.107 25.4466 99.1983 26.0093 97.6782 25.6938C96.7798 25.5075 96.4022 24.7394 96.0683 23.9696C97.8731 23.8226 101.814 23.2679 101.576 20.7664C101.509 19.999 101.119 19.2956 100.504 18.8318ZM96.7189 19.9695C97.5484 20.0021 98.263 20.4596 97.8953 21.4232C97.7712 21.7489 97.4273 21.8691 97.1095 21.9801C97.0776 21.9912 97.0459 22.0023 97.0147 22.0135C96.6162 22.1168 96.342 22.1605 95.9367 22.2226C95.9388 22.1822 95.9408 22.1412 95.9429 22.0997C95.9804 21.3366 96.026 20.4069 96.7189 19.9695Z" fill="white"/>
<path d="M91.4574 19.3992C91.4359 18.0603 91.3246 16.8004 89.5991 17.0327C88.2198 17.397 87.6541 18.1321 87.4284 19.532C86.0516 19.2436 84.7037 19.4139 83.512 20.1936C82.6401 20.7686 82.0387 21.6719 81.8437 22.6976C81.4446 24.733 82.4371 27.9152 84.7941 28.3044C86.827 28.6396 87.6609 27.6262 88.4455 25.961C88.4501 26.1639 88.4608 26.3769 88.4718 26.5949C88.5504 28.151 88.642 29.9662 86.5817 30.2445C85.9722 30.3269 85.6624 29.6312 85.4229 29.0933C85.3068 28.8324 85.2072 28.6086 85.0979 28.5289L84.9183 28.5344C84.0009 28.6838 82.1549 29.0417 82.541 30.3915C83.2002 32.6968 86.6616 32.8948 88.5181 32.3291C92.3902 31.1491 91.985 27.6889 91.5287 24.4563C91.4803 24.1137 91.4631 23.745 91.4457 23.37C91.3908 22.1895 91.3331 20.9465 90.2854 20.2601C90.1691 20.1906 90.0106 20.1419 89.8532 20.0935C89.6483 20.0305 89.4451 19.968 89.3384 19.861C89.6237 19.4348 90.9562 19.4084 91.4574 19.3992ZM87.5225 21.2882C87.763 21.7334 87.5963 26.9553 85.9077 25.5324C85.6587 25.1314 85.5548 24.7545 85.5068 24.2915C85.3297 22.5931 85.655 21.4794 87.5225 21.2882Z" fill="white"/>
<path d="M80.4143 19.7245C80.2916 18.1012 80.1882 16.7325 77.9835 16.9728C77.4836 17.0516 76.991 17.1699 76.5102 17.3264L76.8951 21.0507C75.3818 20.7488 74.0603 20.6522 72.7296 21.5285C71.0423 22.6402 70.8314 24.8374 71.0613 26.6452C71.3836 29.1738 72.6546 31.6759 75.6425 30.7609C76.7494 30.2554 77.2751 29.5489 77.7308 28.4285L77.8285 28.1893C77.9546 29.7217 78.3881 30.3692 80.0207 30.157C80.4998 30.0925 80.9782 30.0248 81.4566 29.9547C81.3663 28.9015 81.2461 27.8706 81.1257 26.8395C81.019 25.9243 80.9122 25.0089 80.8263 24.0773C80.7162 22.8585 80.5988 21.6404 80.4733 20.4228C80.4493 20.1875 80.4316 19.9535 80.4143 19.7245ZM76.653 22.9279C76.7769 22.9178 76.8395 22.9128 76.9812 22.9711C77.2241 23.8479 77.0316 25.8938 76.8379 26.7879C76.6608 27.6027 76.3189 28.3978 75.3418 28.1401C74.3051 27.1347 74.4231 23.8264 75.8313 23.1439C76.0563 23.0344 76.3251 22.9815 76.5692 22.9342C76.6004 22.9322 76.628 22.93 76.653 22.9279Z" fill="white"/>
<path d="M55.1133 22.5561C54.4969 20.351 52.3531 20.295 50.5746 20.4334C49.3208 20.5199 47.9478 20.6831 46.6075 20.8424C45.9181 20.9243 45.2374 21.0052 44.5859 21.0741C44.6097 22.0895 44.8034 23.7024 44.9725 25.1115C45.046 25.724 45.115 26.298 45.1633 26.7677L45.5196 30.2334C45.5374 30.4047 45.5513 30.5896 45.5657 30.7816C45.6673 32.1312 45.7953 33.8321 47.4901 33.6431C48.0478 33.5809 48.605 33.5067 49.1622 33.4326C49.9755 33.3244 50.7888 33.2162 51.6034 33.145C53.9395 32.915 56.6036 31.9078 56.374 28.966C56.235 27.1846 54.9713 26.2899 53.2549 26.1804C54.6393 25.4345 55.5604 24.1555 55.1133 22.5561ZM51.0352 27.9256C51.8253 27.8739 52.8353 28.2392 52.1806 29.2495C51.8939 29.6922 51.0419 29.7778 50.4811 29.8341C50.432 29.839 50.3851 29.8437 50.341 29.8484L49.1697 29.9573C49.1616 29.5134 49.1061 28.9781 49.0554 28.4896C49.0406 28.3473 49.0263 28.209 49.0136 28.0781C49.6866 28.0166 50.3606 27.9662 51.0352 27.9256ZM50.4191 23.8062C51.4685 23.7115 51.8919 24.4144 51.1271 25.1996C50.6605 25.3638 50.2365 25.3987 49.7621 25.4377C49.7 25.4429 49.637 25.448 49.5729 25.4536L48.7418 25.5163C48.7146 25.1445 48.6572 24.7303 48.6026 24.337C48.5855 24.2137 48.5687 24.0925 48.5532 23.9753C49.0573 23.903 49.584 23.8657 50.0996 23.8292C50.2067 23.8216 50.3133 23.814 50.4191 23.8062Z" fill="white"/>
</svg>
