<svg width="350" height="224" viewBox="0 0 350 224" fill="none" xmlns="http://www.w3.org/2000/svg">
<path d="M606.247 53.5L481.754 0C455.754 25.5 390.747 110.3 390.747 123.5C263.744 -14 92.2542 123.5 189.747 311.5H606.247L610.254 171.5C581.754 179.5 518.254 213.5 490.747 233.5C500.754 185.5 562.754 94 606.247 53.5Z" fill="#7AD371"/>
<path d="M102.235 168.033C84.0718 188.265 74.6896 214.883 76.1522 242.032C77.6147 269.18 89.8022 294.636 110.034 312.799C130.265 330.962 156.883 340.345 184.032 338.882C211.181 337.42 236.637 325.232 254.8 305.001L178.517 236.517L102.235 168.033Z" fill="#7AD371"/>
<path d="M136.512 169.348C136.428 169.894 136.802 170.404 137.348 170.488C137.894 170.572 138.404 170.198 138.488 169.652L137.5 169.5L136.512 169.348ZM258.5 54L247.887 49.4516L249.254 60.9173L258.5 54ZM137.5 169.5L138.488 169.652C138.633 168.71 138.798 167.739 138.983 166.742L138 166.559L137.017 166.376C136.828 167.393 136.66 168.384 136.512 169.348L137.5 169.5ZM139.252 160.715L140.224 160.95C140.673 159.089 141.185 157.164 141.762 155.183L140.802 154.904L139.842 154.624C139.256 156.633 138.736 158.589 138.28 160.48L139.252 160.715ZM142.595 149.208L143.543 149.528C144.163 147.694 144.836 145.824 145.565 143.927L144.631 143.568L143.698 143.21C142.96 145.133 142.277 147.028 141.648 148.888L142.595 149.208ZM146.893 138.007L147.812 138.402C148.58 136.614 149.397 134.808 150.263 132.989L149.36 132.559L148.457 132.129C147.58 133.971 146.753 135.801 145.974 137.612L146.893 138.007ZM152.039 127.204L152.924 127.669C153.834 125.934 154.79 124.193 155.791 122.452L154.925 121.953L154.058 121.454C153.043 123.219 152.075 124.982 151.153 126.74L152.039 127.204ZM158.015 116.818L158.861 117.35C159.907 115.687 160.997 114.027 162.131 112.374L161.307 111.808L160.482 111.242C159.333 112.918 158.228 114.6 157.168 116.285L158.015 116.818ZM164.799 106.937L165.599 107.536C166.778 105.961 167.999 104.396 169.264 102.846L168.489 102.214L167.714 101.582C166.431 103.154 165.193 104.741 163.998 106.338L164.799 106.937ZM172.372 97.6544L173.119 98.319C174.426 96.8491 175.775 95.396 177.165 93.9628L176.448 93.2663L175.73 92.5699C174.319 94.0243 172.95 95.4988 171.624 96.9899L172.372 97.6544ZM180.714 89.0615L181.4 89.7892C182.831 88.4399 184.303 87.1125 185.816 85.81L185.164 85.052L184.512 84.294C182.975 85.6166 181.481 86.9642 180.028 88.3338L180.714 89.0615ZM189.793 81.2494L190.41 82.0366C191.958 80.8238 193.546 79.6372 195.174 78.4795L194.594 77.6646L194.015 76.8496C192.361 78.0254 190.749 79.2306 189.177 80.4623L189.793 81.2494ZM199.558 74.3073L200.099 75.1485C201.751 74.0867 203.442 73.0545 205.172 72.0543L204.671 71.1886L204.171 70.3229C202.413 71.3388 200.696 72.3874 199.018 73.466L199.558 74.3073ZM209.923 68.3151L210.382 69.2034C212.124 68.3027 213.903 67.4341 215.72 66.5997L215.302 65.691L214.885 64.7823C213.04 65.6297 211.233 66.5119 209.464 67.4268L209.923 68.3151ZM220.798 63.3194L221.173 64.2465C222.99 63.5116 224.842 62.8104 226.73 62.1449L226.397 61.2017L226.065 60.2586C224.148 60.9343 222.268 61.6462 220.423 62.3924L220.798 63.3194ZM232.089 59.3373L232.379 60.2943C234.256 59.7252 236.167 59.1907 238.111 58.6924L237.863 57.7237L237.615 56.755C235.642 57.2605 233.704 57.8028 231.799 58.3803L232.089 59.3373ZM243.71 56.3573L243.917 57.3356C245.83 56.9307 247.775 56.5601 249.752 56.2254L249.585 55.2394L249.418 54.2535C247.414 54.5927 245.443 54.9683 243.503 55.379L243.71 56.3573Z" fill="#7AD371"/>
</svg>
