<svg width="18" height="18" viewBox="0 0 18 18" fill="none" xmlns="http://www.w3.org/2000/svg">
<path d="M2.25 9C2.25 5.81802 2.25 4.22703 3.23851 3.23851C4.22703 2.25 5.81802 2.25 9 2.25C12.1819 2.25 13.773 2.25 14.7615 3.23851C15.75 4.22703 15.75 5.81802 15.75 9C15.75 12.1819 15.75 13.773 14.7615 14.7615C13.773 15.75 12.1819 15.75 9 15.75C5.81802 15.75 4.22703 15.75 3.23851 14.7615C2.25 13.773 2.25 12.1819 2.25 9Z" fill="#B75B5B" stroke="#B75B5B" stroke-width="1.125" stroke-linecap="round" stroke-linejoin="round"/>
<path d="M12 9C12 10.6568 10.6568 12 9 12C7.34314 12 6 10.6568 6 9C6 7.34314 7.34314 6 9 6C10.6568 6 12 7.34314 12 9Z" stroke="white" stroke-width="1.125" stroke-linecap="round" stroke-linejoin="round"/>
<path d="M13.0312 5.06274H12.9375M13.125 5.06274C13.125 5.1663 13.041 5.25024 12.9375 5.25024C12.8339 5.25024 12.75 5.1663 12.75 5.06274C12.75 4.95919 12.8339 4.87524 12.9375 4.87524C13.041 4.87524 13.125 4.95919 13.125 5.06274Z" stroke="white" stroke-width="1.125" stroke-linecap="round" stroke-linejoin="round"/>
</svg>
